<?xml version="1.0" encoding="utf-8"?>
<!-- Generator: Adobe Illustrator 21.0.0, SVG Export Plug-In . SVG Version: 6.00 Build 0)  -->
<svg version="1.1" id="Warstwa_1_kopia_2" xmlns="http://www.w3.org/2000/svg" xmlns:xlink="http://www.w3.org/1999/xlink" x="0px"
	 y="0px" viewBox="0 0 512 512" style="enable-background:new 0 0 512 512;" xml:space="preserve">
<style type="text/css">
	.st0{fill:url(#SVGID_1_);}
	.st1{fill:url(#SVGID_2_);}
	.st2{fill:url(#SVGID_3_);}
	.st3{fill:url(#SVGID_4_);}
	.st4{fill:url(#SVGID_5_);}
	.st5{fill:url(#SVGID_6_);}
	.st6{fill:url(#SVGID_7_);}
</style>
<linearGradient id="SVGID_1_" gradientUnits="userSpaceOnUse" x1="260.5919" y1="7" x2="260.5919" y2="497.2195">
	<stop  offset="0" style="stop-color:#FCEE21"/>
	<stop  offset="0.6759" style="stop-color:#F48924"/>
	<stop  offset="0.7915" style="stop-color:#F37C24"/>
	<stop  offset="0.8065" style="stop-color:#552800"/>
	<stop  offset="0.8769" style="stop-color:#000000"/>
	<stop  offset="0.9548" style="stop-color:#000000"/>
</linearGradient>
<path class="st0" d="M72.4,15.2h182.3C322.1,16,371.5,38,403,81.3c30.5,42.9,45.7,96.5,45.7,160.9c0,64-15.2,117.4-45.7,160.2
	c-31.5,43.7-80.9,65.9-148.3,66.8H72.4V15.2z M149.4,404.6h75.8c59-0.4,98.6-16.1,118.9-47c10.6-14.9,18-32.4,22-52.3
	c2.6-9.7,4.3-20,5.1-30.8c0.4-11,0.6-21.8,0.6-32.4c0.8-47.1-8.4-85.8-27.7-116.1c-10.2-14.7-25.1-26.1-44.5-34.2
	c-19.7-8.1-44.4-12.1-74.3-12.1h-75.8V404.6z"/>
<linearGradient id="SVGID_2_" gradientUnits="userSpaceOnUse" x1="309.0115" y1="7" x2="309.0115" y2="497.2195">
	<stop  offset="0" style="stop-color:#FCEE21"/>
	<stop  offset="0.6759" style="stop-color:#F48924"/>
	<stop  offset="0.7915" style="stop-color:#F37C24"/>
	<stop  offset="0.8065" style="stop-color:#552800"/>
	<stop  offset="0.8769" style="stop-color:#000000"/>
	<stop  offset="0.9548" style="stop-color:#000000"/>
</linearGradient>
<path class="st1" d="M316.9,484.2c-0.1,0-0.3,0-0.4,0c-0.2-0.5-0.5-1-0.3-1.7c0.3-1.8-0.1-3.4-0.8-5.1c-1.4,0.5-1.4,1.6-1.6,2.6
	c-0.2,0.6-0.2,1.4-1,1.2c-0.6-0.2-0.5-1-0.3-1.6c0.5-1.7,0.9-3.3,1.4-5c0.4-1.2,0.3-2.7-0.4-3.3c-0.8-0.8-5.2,1.5-5.6,2.9
	c-0.5,1.8-1.3,1-2.1,0.3c-0.3-0.3-0.4-0.8-0.7-1.2c-0.9-1.4-2.8-0.6-3.8-1.8c-0.1-0.1-0.3,1.3-0.7,1.9c-0.8,1.4,1.2,0.8,1.4,2
	c-1.8-1.3-1.9-0.1-2.3,1c-0.5,1.6-0.6,3.1-0.6,4.7c0,0.4,0,0.9-0.5,1c-0.7,0.1-0.6-0.6-0.7-1c-0.3-1.6,0.4-3,0.6-4.5
	c0.1-0.9,0.7-2-1.1-1.4c-0.7,0.2-0.8-0.2-0.9-1c-0.2-1.2,0.4-2.4-0.2-3.8c-0.3,0.5-0.6,0.8-0.8,1.1c-0.2,0.5-0.2,1.3-0.9,0.9
	c-0.7-0.3-0.4-1,0.1-1.5c0.6-0.6,0.8-1.3,0.9-1.9c-1-0.9-1.2,1.9-2.2,0.2c-0.8-1.4-1.4-0.7-1.8,0.1c-0.5,1.3-1.9,1.5-2.6,2.5
	c-0.1,0.2-1,0.6-1.4-0.3c-0.1-0.3-0.5-0.7-0.1-0.7c1.4-0.1,1.8-1.6,2.9-2c1.8-0.6,2-1.4,0.4-3.1c1.6,0.6,2.7,0.1,2.7-0.9
	c0-1.1,0.4-0.9,1-0.9c1-0.1,2.2,0.4,3.1-0.4c-1-1.9-2.8,0.4-4-0.8c0.6-0.8,1.5-1,2.3-1c0.9,0,1.9,0,2.8,0.3c1.2,0.5,1.6-0.6,1.9-1.4
	c0.2-0.4,0.7-1,0-1.4c-0.9-0.4-1.5,0.1-1.8,0.9c-0.2,0.5-0.6,0.6-1.1,0.2c-0.5-0.4-1.3-0.9-1.8-0.7c-2.6,0.8-5.4,0.7-7.7,2.3
	c-0.6,0.4-1.2,0.8-1.9,1.1c-0.3,0.2-0.8,0.7-1.2,0c-0.2-0.6,0.3-0.7,0.6-0.8c1.2-0.7,2.6-1.2,3.5-2.4c0.3-0.4,0.8-0.7,1.4-0.6
	c2.6,0.4,4.2-1.9,6.5-2.3c0.9-0.1,1.6-0.8,2.4-1.3c0.3-0.2,0.7-0.4,0.4-1c-0.2-0.4-0.5-0.7-0.9-0.6c-1.5,0.4-3.2-0.3-4.6,0.2
	c-1.4,0.4-2.3,0.6-3.6-0.3c-0.8-0.6-2.1-1.2-3.4-0.4c-0.4,0.2-1.1,0.3-1.9-0.8c4.1,0.5,7.7-0.8,11.4-0.4c0.8,0.1,2,0.5,2.3-0.5
	c0.3-1-1-0.4-1.4-0.9c-0.1-0.1-0.3-0.2-0.3-0.3c-0.2-1.6-2-0.9-2.6-2c-0.4-0.6-0.7,0.1-1,0.4c-0.5,0.6-0.5,1.6-1.5,1.7
	c-0.2-1.4,1.3-1.9,1.5-3.1c-1.4-0.3-2.7-0.8-2.9-2.5c0-0.4-0.6-0.7-0.9-0.4c-0.4,0.3-1.4,0.8-0.8,1.3c0.7,0.6,0.7,1,0,1.3
	c-0.7,0.3-0.9-0.4-0.9-1c0-0.8-0.5-1.3-1.1-0.8c-1.6,1.6-3.1,0-4.6,0.1c0.8-0.7,1.8-0.7,2.7-0.6c1.2,0.1,2-0.6,2.9-1.1
	c0.8-0.5,0.6-1.2,0.3-1.8c-0.3-0.7-0.9-0.3-1.3,0c-0.4,0.2-0.9,0.4-1.3-0.2c0.9-0.7,2-1.1,3.1-1.2c1-0.1,1.7-0.2,1.7-1.4
	c0-0.4,0.3-0.5,0.6-0.7c1.6-0.7,2.4-2.4,3.7-3.3c-1.5-1.5-3.5,0.4-5.5-1c1.6-0.1,2.8-0.1,3.9-0.3c0.5-0.1,1.1-0.1,1.1-1
	c0-0.6,0.3-1.2-0.3-1.6c-0.7-0.5-1,0.2-1.3,0.4c-1.4,1.2-2,0.5-2-0.9c0-1.2-0.5-1.3-1.4-1.2c-1.3,0.1-2.5,0.1-3.8,0.3
	c-0.9,0.1-2.3-1.2-2.8,0c-0.5,1.2,1.1,1.5,2,2c0.3,0.1,0.6,0.4,0.3,0.8c-0.2,0.4-0.6,0.7-1,0.3c-1.5-1.7-2.3-0.6-3.2,1.2
	c0-2.3-1.6-3.1-2.7-4.2c-0.9-1-1.9-2.5-3.8-1.6c-1.9-2.1-2.9,0.1-4.1,1c-0.5,0.3-0.4,1.2-1.3,1.3c-0.1-0.9,0.6-1.4,0.8-2
	c0.2-0.4,0.8-0.7,0.2-1.4c-0.4-0.6-0.9-0.5-1.4-0.4c-1.2,0.4-2.4,0.8-3.4,1.6c-0.6,0.5-1.2,1.5-1.9,0.9c-1-1,0.6-1.1,0.8-1.7
	c0.2-0.8,0.8-0.7,1.4-0.9c3.6-0.9,7.3-1.9,10.9-2.9c-0.3-0.6-1.3,0.1-1.1-0.8c0.1-0.6,0.7-0.5,1.3-0.6c2-0.1,4.8,1.9,5.5-1.9
	c0-0.1,0.3-0.2,0.5-0.2c1-0.5,1.7-1.4,2.5-2.2c-1.8-0.7-3.4,0.2-5.1-0.4c-1.7-0.5-3.3,0.9-3.9,3.1c-0.1-1.5-0.4-1.7-1.8-1.5
	c-2.1,0.2-3.7,1.5-5.7,1.9c-0.5,0.1-0.9,0.4-1.1-0.3c-0.2-0.6,0-1,0.8-1.1c1.3,0,2.9,0.2,3-1.9c0-0.1,0.6-0.3,0.9-0.2
	c3.2,0.8,6-0.8,8.9-1.3c0.6-0.1,1.6-0.8,1.4-1.1c-0.5-0.9-0.9-2-1.9-2.3c-1.1-0.4-1.1,0.6-1.4,1.2c-0.2,0.3-0.1,1.2-1,0.7
	c-1.2-0.7-2.5-1.3-2.8-3.3c-0.8,1.7-1,3-2.3,3.6c-0.3-0.7,0.1-1.1,0.4-1.5c0.2-0.3,0.3-0.6,0.1-0.9c-1.5,0.7-1.7-1.5-2.9-1.4
	c-0.5,0-1-0.2-1.4,0.2c0.2,0.8,1.3,0.2,1.3,1c0,0.3-0.3,1.1-0.6,0.9c-0.7-0.4-2.5,0.7-2.1-1.4c0.1-0.5-0.4-0.8-0.7-0.7
	c-1.1,0.6-2.2-0.6-3.3-0.1c-0.3,0.1-1.1,0.3-1-0.7c0.1-0.6-0.4-0.4-0.6-0.2c-1,1.2-2.6,0.7-4,1.4c0.3-1.7,1.8-1.3,2.6-2
	c-0.2-0.8-1.2-0.2-1.5-0.9c0.8-0.5,1.6-0.3,2.3-0.4c0.5,0,1.2,0.3,1.3-0.4c0.1-0.7-0.8-1.5-1.1-1.4c-1.7,0.4-3.3-1-5-0.2
	c0-0.3,0-0.5,0-0.8c1.3,0.3,1.6-1.3,2.4-1.4c3.6-0.2,7.3,0.7,10.9-0.6c0.3-0.1,0.6,0.1,1,0.2c2.1,0.3,4.1,1.7,6.3,0.7
	c0.3-0.1,0.7,0,1,0.1c2.5,0.7,4.8-0.8,7.3-0.3c0,0,0-0.1,0.1-0.3c-0.9-0.4-2.1-0.4-2.5-1.5c-0.1-0.2-0.9-0.6-1.5-0.3
	c-1.9,1.2-3.3-0.8-5.4-0.2c0.8-1,1.4-0.7,2-0.8c0.4-0.1,1-0.3,0.9-0.7c-0.4-1.8,0.7-1.2,1.5-1c1.9,0.4,3.6,1.2,5.2,2.5
	c0.6,0.5,1.3,1.5,2,1.1c1.7-1,3.9-0.9,5.2-2.5c-1-0.8-2.5,1.2-3.2-0.9c3.9-0.4,7.6-0.3,11,1.7c0.9,0.5,1.7,0.4,2.6-0.3
	c1.7-1.2,3.1-2.9,5.1-3.3c1.3-0.3,1.8-0.9,2.1-2c0.6-2,0.5-3.7,1-5.9c2.4,0,4.4-0.2,6.8-0.2c0,4.8-0.3,4.1,4.4,6.4
	c0.4,0.2,0.8,0.2,1.1,0.4c1.6,1,3.9,1,4.8,2.6c0.8,1.4,3.1,1.2,3.1,3.3c0,0.3,0.7,0.3,1,0c0.3-0.4,0.6-0.8,1.2-0.9
	c-0.6,1.7,0.6,1.6,1.5,1.5c3.1-0.5,6.4,0.3,9.5-0.7c0.7-0.2,1.5-0.3,2.1,0.2c0.1,0.1,0.1,0.5,0,0.7c-0.5,0.9-1.7,0.9-2.1,0.7
	c-1.4-0.7-2.6,0.3-3.9,0.3c-0.4,0-0.9,0-0.9,0.6c0,0.6,0.6,0.4,0.9,0.6c1.6,1,3.7,1,5.2,2.4c-2.6-1-5.4-0.9-8.1-1.4
	c0.8,0.6,1.7,1,0.9,2.3c1.1-0.7,2.2-0.2,3.1-0.6c0.4-0.2,0.7-0.3,1.1-0.1c-0.9,1.6,1.5,1.1,1.4,2.2c-0.3,0-0.5,0.1-0.8,0.1
	c-0.3,0-0.6-0.1-1-0.1c-1-0.1-0.8,0.5-0.4,1c0.5,0.8,1.2,0.3,1.8,0.2c0.8-0.1,1.6-0.6,2.4-0.1c-0.1,0.6-0.4,0.6-0.7,0.7
	c-0.6,0.2-1.7-0.4-1.7,0.5c0,0.9,1.1,0.7,1.8,0.8c1.1,0.2,2.3-0.4,3.4,0.5c-0.5,0.6-1.5-0.1-1.7,0.9c2.3,0.7,4.9-0.2,7.3,2.1
	c-3.4-0.5-6.2-0.8-9.1-0.7c0.1,1.6,1.6,3,2.2,3.2c2.4,0.7,4.1,2.8,6.4,3.1c2.3,0.3,2.8,1.7,3.2,3.6c-0.7,0.1-1.2-0.9-1.7-0.5
	c-1.8,1.6-3.5,0.9-5.3-0.1c0.5-0.9,1.8,0.1,1.9-0.9c0.1-0.8-0.7-1.1-1.5-1.2c-0.5-0.1-0.4-0.6-0.6-0.9c-0.4-0.7-0.9-0.6-1.5-0.2
	c-0.6,0.4-0.6,0.8-0.2,1.4c0.4,0.6,1,0.9,1.6,1.3c-2.1,1.9-3.4-2.7-5.4-0.4c-1.7-0.9-3.5-1.7-5.7-1.6c0.6,0.7,1.2,1.2,1.9,1.4
	c1.9,0.6,3.7,1.4,4.9,3.1c0.2,0.2,0.4,0.2,0.7,0.2c1.7-0.1,3.1,1.1,4.8,0.7c0.3-0.1,0.7,0.2,0.7,0.6c0,0.6-0.5,0.4-0.9,0.5
	c-0.9,0.2-1.7-0.8-2.9-0.2c3.5,2.6,7.1,4.2,11.6,4c-0.1,0.2-0.1,0.4-0.2,0.6c-0.8,0-1.5,0.1-2.6,0.1c0.9,0.8,1.6,1.3,2.3,2
	c0.2,0.2,0.6,0.4,0.3,0.8c-0.3,0.4-0.7,0.1-0.9-0.1c-1.4-2.2-4.1-2.2-6-3.7c-0.3-0.3-0.7-0.7-1.2-0.3c0.4,0.9-0.1,2.5-0.8,3.4
	c-0.8,1.1-1.4,0.6-2.2,0.1c-0.4-0.3-0.7-1.1-1.6-0.8c0.6,1.8,1.5,2.9,3.6,3.1c0.8,0.1,2.5,0,2.3,1.2c-0.1,1.1-1.5-0.4-2.2,0.1
	c-0.1,1.1,0.8,1.5,1.5,2.1c0.3,0.3,0.6,0.6,0.2,1c-0.3,0.4-0.8,0.4-1,0c-0.8-1.3-3.7-0.9-3-3.5c0-0.1-0.5-0.4-0.6-0.4
	c-2.7,0.8-3.4-1.8-5-2.9c-1.9-1.4-3.9-2.3-6.6-2.8c0.6,1.1,1.4,1.8,1,2.6c-0.3,0.7-0.1,0.8,0.5,1c1,0.3,1.3,1.3,1.9,1.9
	c0.4,0.4,0.9,0.8,0.4,1.4c-0.4,0.6-0.8-0.1-1.2-0.2c-0.4-0.1-0.8-0.5-1.2,0.1c-0.2,0.4-0.1,0.6,0.2,0.8c1.6,1.1-0.3,1.8-0.2,2.7
	c-0.2-0.3-0.2-0.7-0.3-0.9c-0.9-1.7-1.9-3.2-1.7-5.3c0-0.5-0.7-0.9-1.2-0.9c-0.7,0-1,0.5-0.9,1.1c0.1,0.7,0.1,1.5-0.7,1.1
	c-1.6-0.8-1.2,0-1.1,1c0,0.6,0.8,1.5,0.1,1.8c-1,0.5-1.2,1.4-0.7,1.8c0.8,0.6,1.7,1.5,2.9,1.1c0.5-0.2,1.2-0.6,1.5-0.2
	c1.4,1.6,3.4,2.3,5.2,3.3c-1.8,0.2-3.5-1-5.4-0.4c0,0-0.1-0.2-0.1-0.4c-0.2-0.6-0.7-0.4-1-0.2c-0.4,0.3-0.8,0.6-0.9,1
	c-0.1,0.5,0.5,0.4,0.8,0.6c0.6,0.4,2.2,0.1,1.9,1c-0.6,2,0.8,1.9,2.2,2.2c-2.1,0.6-1.6,1.7-0.9,2.7c1.5,1.9,1.4,4.9,4.4,6
	c-1.2,0.5-1.7,0-2.4-0.3c-1.9-0.9-3.5-2.4-5.6-2.8c-0.4-0.1-0.8-0.5-0.9,0.2c-0.1,0.4-0.2,0.9,0.3,1c0.4,0.2,1.3,0,1,0.8
	c-0.3,0.8-0.9,0-1.4-0.1c-0.3,0-0.7-0.3-1-0.2c-0.6,0.2-1.6-0.8-1.7,0.6c-0.1,1.2,0.5,2.5,1.6,2.3c1.6-0.3,2.5,0.5,4.3,1.1
	c-1.9,0.3-3.2-0.9-4.8-0.1c1.7,0.9,2.9,2.1,3.6,3.7c-1.2,0.2-2.1-0.5-3.1-0.3c-0.5,0.1-1,0.1-1.3-0.6c-0.3-0.9-0.9-1.5-1.7-2.1
	c-0.8-0.6-1.3-2.4-2.3-1.8c-1.3,0.8,0,2.1,0.4,3.2c0,0.1,0,0.1,0.1,0.2c0.3,0.4,0.1,0.8-0.3,1c-0.6,0.3-0.6-0.3-0.8-0.6
	c0,0-2.6-2-2.6-2c-0.1-0.4,0.3-0.6,0.5-0.8c0.5-0.5,0.8-1.1,0.3-1.8c-0.6-0.8-1,0.1-1.5,0.3c-0.6,0.1-1.1,0.5-1.7,0.2
	c0.5-1.5-1.1-2.7-3.6-2.7c0.4,0.9,1,1.7,1.2,2.7c0.2,1.7,1,2.2,2.7,2.1c0.6-0.1,1.8,0,1.3,1.3c-0.2,0.5,0.2,0.7,0.5,0.9
	c1.2,0.8,2.2,2,3.6,2.4c1.4,0.4,2.1,1.3,2.1,2.8c-1.9,0.7-2.9-1.2-4.6-1.6c0.6-0.2,1.1-0.2,1.3-0.5c0.2-0.3-0.2-0.7-0.4-0.7
	c-1.7-0.2-2.5-1.9-4.1-2.2c1.2,1.5,1.5,3.7,2.8,4.7c1.7,1.3,0.8,3,1.5,4.3c0.1,0.3,0.2,0.9-0.3,1c-0.6,0.1-0.8-0.3-0.8-0.9
	c0-4-2.9-6.4-4.8-9.2c-0.7,0.2-0.1,1.2-1,1.1c-0.4-4.6-0.6-5.2-2.2-6.8c-0.6,1.6,0,3,0.5,4.4c0.3,0.8,1,1.6,0.5,2.6
	c-0.7,1.1-0.1,1.9,0.6,2.6c1.3,1.2,2.7,2.3,4,3.4c-0.4,0.4-0.8,0.2-1.2,0.3c-1.1,0.2-2.3,0.5-2.4,1.9c-0.1,1.4,0.8,1.9,2.1,2.2
	c1,0.3,2.1,0.5,3,1.6c-2.7-0.3-5.3-0.4-7.4-2.4C317.2,479,317.9,481.6,316.9,484.2z M286.3,420.2c-0.5,1.3-2.4,1.8-0.8,3.2
	c1.1,0.9,2.6,1.4,3.9,2c1.2,0.5,2-0.5,2.7-1.1c0.2-0.2-0.1-1.4-1.1-1.4c-0.3,0-0.5-0.2-0.5-0.5c0-0.6,0.6-0.7,0.8-0.7
	c2.6,0.5,4.7-1.3,7.2-1.3c0.5,0,1.6,0,1.7-1c0.1-0.6-0.1-1.4-0.6-1.4c-1.9,0.2-3.7-2.2-5.7-0.2c-0.3,0.3-0.7,0.6-1,0.9
	c-0.5,0.4-1.2,0.5-1-0.4c0.2-0.9,0-1.4-0.8-1.3c-0.9,0-1.7,0.6-1.7,1.6c0,0.8,0.1,1.6,0.1,2.4c0,0.8,0.4,1.8-0.5,2.2
	c-1.2,0.6-0.5-0.8-1-1.1c-0.1-0.1-0.3,0-0.4,0C286,422.7,286.8,421.1,286.3,420.2z M320.9,403.6c0-0.5,0.1-0.9,0-1.3
	c-0.2-1.2-1.1-1.6-2.1-1.8c-0.8-0.1-1.7-0.4-2.1,0.6c-0.8,2-2.6,3.6-2.2,6.1c0.1,0.5-0.5,1.2,0,1.5c0.6,0.3,1.4,0,1.9-0.4
	c0.8-0.6,1.4-1.5,2.4-1.7C320.5,406.2,321.2,405.2,320.9,403.6z M309.5,467.3c1.5,0.1,2.8-0.2,3.5-1.6c0.7-1.5-1.9-5.4-3.6-5.3
	c-0.6,0-1.2,0.4-1.1,1.2c0.2,1.3-0.8,1.9-1.4,2.7c-0.8,0.9-0.8,1.5,0.2,2.2C307.7,466.9,308.5,467.5,309.5,467.3z M311.8,402
	c0-2.1-0.5-2.4-2.3-1.5c-1.4,0.6-2.5,1.7-3.8,2.6c-0.6,0.5-1.1,1.3-0.8,2.1c0.3,0.8,1,1.2,1.9,1.3c0.9,0.1,1.4-0.2,1.5-1.1
	c0.2-0.8,1-0.9,1.6-1C311.5,404.1,311.9,403.2,311.8,402z M321.9,440.1c1.8,0.2,2,0.3,1.8,0.8c-0.5,1,0.2,1.1,0.7,1.4
	c2,1.1,4.1,0.6,5.6-1.3c0.3-0.3,0.9-0.6,0.4-1.1c-0.3-0.4-0.7-0.8-1.2-0.6c-1.3,0.6-3.1-0.8-4,1.1c-0.1,0.2-0.5,0.1-0.7,0
	C323.7,439.9,322.8,440.2,321.9,440.1z M344.2,429.7c1.2,2.3,3.1,3.4,5.1,4.4c0.8,0.4,1.8,1,2.2-0.1c0.3-0.9,0-2.2-1.4-2.5
	c-0.8-0.2-1.4-0.4-1.9-0.9C347.2,429.5,345.9,429.3,344.2,429.7z M306,432.3c0-1.9-2.2-0.3-2.4-1.6c-1,0.3-0.6,1.2-0.8,1.8
	c-0.4,1.5,0.8,1.6,1.7,1.6C305.9,434.3,305.7,433.1,306,432.3z M328.7,433c0.4-0.1,1.3,0,1.3-0.8c-0.1-1.5-2.1-1-2.6-2.3
	c-0.1-0.2-0.9,0.1-1.1,0.7C325.8,431.9,326.9,433,328.7,433z M302.4,466.3c-0.7,0.1-0.7,0.5-0.8,1c-0.1,0.7,0.7,1.3,0.2,1.9
	c-0.7,1,0.2,1,0.7,1.4c0.5,0.4,1.2,0.6,1.6,0.2c0.5-0.5,0.3-1.2-0.1-1.6c-0.6-0.6-0.7-1.4-1.1-2.1
	C302.7,466.8,302.8,466.3,302.4,466.3z M323.7,432.7c-1-1.5-1-3-2.2-3.9c-0.3-0.2-0.6-1.1-0.9-0.4c-0.3,0.5-1.3,1.4-0.3,2
	C321.3,430.9,321.9,432.1,323.7,432.7z M297.6,429.1c-0.7,0-1.4,0.1-1.8,0.7c-0.1,0.1,0.2,0.5,0.4,0.6c1.2,0.3,2.4,0.6,3.7,0.7
	c0.5,0.1,0.9-0.3,0.9-0.8c0-0.4-0.1-1.1-0.4-0.9C299.3,430.1,298.6,428.9,297.6,429.1z M304.5,416.5c-1.9-0.2-2.6-0.8-1.4-2.2
	c0.2-0.2,0.7-0.8,0.1-1.2c-0.4-0.3-0.9,0-1.3,0.2c-1.4,1-0.5,2-0.1,3.1C302.5,417.9,303.2,417.6,304.5,416.5z M316.2,424.9
	c-1-0.5-2.1-1.2-3.1-0.7c-0.4,0.2-0.4,1.5,0.3,2C314.9,427.2,315.2,425.5,316.2,424.9z M280.4,428.4c0.8-0.6-0.2-1.7,0.9-2.2
	c0.5-0.2-0.1-0.8-0.2-1.2c-0.3-0.6-0.8-0.3-1.2-0.2c-0.5,0.1-0.8,0.4-0.8,1C279.2,426.7,279.5,427.7,280.4,428.4z M328.4,410.2
	c-0.8,0-1,0.4-0.9,0.9c0.2,0.9,0.5,1.7,1.6,1.7c1,0,1.4-1.1,1.3-1.7C330.3,409.8,328.7,411.3,328.4,410.2z M320.7,457.5
	c0.7,0.6,1.4,0.8,2.2,0.9c0.4,0,0.7,0.6,1.1,0.1c0.3-0.4,0.1-0.8-0.1-1.1C323.3,455.6,322.5,455.7,320.7,457.5z M332.5,429.3
	c0.3-1.5-0.5-0.6-0.7-0.7c-0.8-0.3-1.7-0.3-1.8,0.8c-0.1,0.9,0.9,1.4,1.4,1.4C332.4,430.9,332.4,429.8,332.5,429.3z M293.1,444.9
	c1.3,0.4,2.2-0.2,3.2-0.2c0.4,0,1-0.4,0.9-0.9c-0.1-0.8-0.8-0.6-1.3-0.6C294.8,443.2,294,443.8,293.1,444.9z M321.3,421.8
	c-0.6,0.2-1.4-0.1-1.4,0.9c0,1.1,0.9,1.5,1.8,1.8c0.4,0.2,0.9-0.6,0.7-0.7C321.9,423.2,322.3,422,321.3,421.8z M337.2,432
	c0.6-0.6,1.6-0.8,1.5-1.4c-0.3-1-1.6-1.2-2.3-1.8c-0.4-0.3-0.6,0.4-0.5,0.8C336,430.5,336.7,431.1,337.2,432z M324.4,408.3
	c0.1-1.2-0.7-1.4-1.5-1.6c-0.8-0.2-0.9,0.6-1,1.2c-0.1,1.1,0.9,1,1.6,1.2C324.4,409.4,324.3,408.6,324.4,408.3z M298.9,432.1
	c-0.9-0.2-1.4-0.4-1.9-0.4c-0.7,0-1.1,0.3-1.3,1c-0.1,0.4-0.1,0.8,0.3,1.1c0.7,0.5,0.9-0.2,1.3-0.5
	C297.8,433.1,298.2,432.7,298.9,432.1z M325.6,434.9c1,1.8,2.2,1.5,3.2,1.1c0.2-0.1,0.6-0.7,0.1-0.7c-1.2-0.1-0.6-0.4-0.2-0.7
	c0.4-0.3,1,0,1.4-0.7C328.5,433.6,327.6,435.7,325.6,434.9z M320.6,414.6c-1.2,0.2-1.2,0.9-1.2,1.7c0,0.6,0.2,1.2,0.8,1.1
	c1.1-0.1,0.9-1.3,1.1-2C321.4,414.9,320.9,414.6,320.6,414.6z M310.7,449.2c0.8-0.1,1.3-0.4,1.2-1.2c0-0.5-0.2-0.9-0.7-0.6
	c-0.6,0.3-1.6,0.2-1.7,1.1C309.4,449,310.1,449.1,310.7,449.2z M296.3,438.6c-0.1-0.8-0.7-0.9-1.3-0.9c-0.5,0-1.1,0.1-1.1,0.8
	c0,0.6,0.4,1,1,0.8C295.4,439.1,296.2,439.4,296.3,438.6z M305,457.2c0.5,0,0.9-0.1,0.7-0.7c-0.1-0.5-0.3-1-0.9-1.1
	c-0.6,0-0.8,0.4-0.8,0.9C303.9,457.2,304.6,457,305,457.2z M308.1,457c2.1,0.7,2.1,0.7,3.5-0.2C310.3,455.6,309.2,455.8,308.1,457z
	 M330.6,418.6c-0.3-0.5-0.4-1.4-1.1-1.4c-0.7-0.1-0.7,0.7-0.8,1.2c-0.1,0.7,0.3,1,1,1C330,419.4,330.6,419.4,330.6,418.6z
	 M314.4,458.3c0.2,0.5-0.3,1.5,0.6,1.6c0.6,0.1,0.8-0.7,0.9-1.4c0.1-0.7-0.2-1.2-0.9-1.3C314.2,457.2,314.4,457.8,314.4,458.3z
	 M339.6,424.4c-1.2-1-2.6-0.9-3.6-1.8C336.6,424.3,337.7,424.9,339.6,424.4z M326.7,450.4c-1.1-1.7-2.6-1-4.3-1.6
	C323.7,450.3,325.1,450.2,326.7,450.4z M312.2,458.2c-0.5,0.6-1.4,0.8-1.2,1.6c0.2,0.7,0.8,1.2,1.8,1
	C312.6,460,312.4,459.2,312.2,458.2z M261.5,406.1c1.8,0.8,3.5-0.3,5.3,0C265,405.7,263.3,405.6,261.5,406.1z"/>
<linearGradient id="SVGID_3_" gradientUnits="userSpaceOnUse" x1="250.2877" y1="7" x2="250.2877" y2="497.2195">
	<stop  offset="0" style="stop-color:#FCEE21"/>
	<stop  offset="0.6759" style="stop-color:#F48924"/>
	<stop  offset="0.7915" style="stop-color:#F37C24"/>
	<stop  offset="0.8065" style="stop-color:#552800"/>
	<stop  offset="0.8769" style="stop-color:#000000"/>
	<stop  offset="0.9548" style="stop-color:#000000"/>
</linearGradient>
<path class="st2" d="M283.9,462.7c0.6,1.1,0.5,2,1.3,2.6c0.1-2-0.5-3.7-0.7-5.6c-0.1-0.6-0.9-1.7,0.2-1.9c0.9-0.2,0.8,1.1,0.9,1.7
	c0.6,2.3,0.9,4.7,1.4,7c0.5,2.2,0.6,4.6,1.6,6.8c2-2.4,2.5-6.4,1.1-8.7c-0.3-0.5-0.5-1.1-0.5-1.7c-0.1-2.2-0.1-4.4-0.6-6.5
	c-0.3-1.3,0.9-0.2,1-0.8c-0.5-0.7-1.4-1-1.7-2c-1.9-6.8-5.9-12.4-11-17.2c-1.4-1.3-2.4-2.7-3.2-4.5c-1.4-3.3-2.8-6.8-5.7-8.9
	c-2.8-2.1-4.4-5-6.7-7.3c-1-1-0.9-2.2-1.1-3.3c-1.6,0-3.1,0.1-4.7,0.4c-2.8,0.5-5.5,1-8.3,1.1c0,0-0.1,0-0.1,0c0,0.7-0.1,1.3-0.1,2
	c-0.1,1.3-0.8,2-2,2.3c-1.8,0.4-3.5,1.1-5.1,2.1c-4.9,2.9-8.8,6.9-9.5,12.7c-0.4,3.6-1.9,6.5-3.4,9.5c-1.3,2.7-2.4,5.2-2.2,8.1
	c0.1,1.3-0.4,2.1-1.3,3c-2,1.8-4.3,3.6-5.1,6.3c-1.1,3.2-2.8,5.8-5.4,7.9c-0.2,0.1-0.1,0.2,0,0.3c1.1-0.5,1.8-1.8,3.1-2.2
	c0.2,0.8-0.6,1.4,0.1,2.3c0.4-2.6,2.1-4.4,2.7-6.9c1-4.4,4.6-7,8.2-9.8c-0.2,1.4,0.4,2.7-0.6,3.5c-3.3,2.7-4.9,6.4-6.4,10.3
	c-1.4,3.5-3.7,6.4-6.7,8.8c-2.3,1.9-3.7,3.9-3.8,5.8c2.8-4.4,5.4-6.5,8.3-6.7c-1.2,1.7-2.7,3.3-3.2,5.5c1.2-0.3,1.1-1.7,2.3-1.9
	c0.1,1.5-0.2,3.1,0.3,4.5c0.3-3.6,0.4-7.4,4.3-10c-0.2,2.6-0.2,4.8-0.5,7c-0.4,3.1-1.1,6.2-3.1,8.5c-1.6,1.8-1.9,4-3.1,5.9
	c-0.2,0.4-0.5,0.9,0.2,1.3c3.3-3.4,4.3-8.7,9.1-10.8c1.1,2.9-0.7,5.7-0.4,8.6c1.5-3,4.2-5,5.1-8.2c1,2.9,0.6,5.3-2.2,7.3
	c1.1,0,1.2-1.1,2.3-0.8c-0.3,2.6-1.7,5-1.5,7.8c1.8-5.4,3.3-10.9,8.8-14.1c-0.3,1.4-0.5,2.6-0.7,3.7c0.7-1,1.1-2.1,1.6-3.2
	c0.5-1,0.5-2.4,2.7-3.1c-2,6.4-4.5,12.3-4.3,18.7c0.7-2.9,1.2-6,2.7-8.7c-0.2,3.5-0.3,6.9,1.2,10.6c-0.4-5.8-0.4-5.8,1.8-8.8
	c0.5,2,0.9,3.9,1.3,5.8c0-2.7-0.8-5.5-0.3-8.1c0.4-2.5,2.1-4.8,3.2-7.2c0.3,6.5-1.5,13,1.8,19c-0.7-2.7-1.4-5.5-1.4-8.4
	c0-0.6-0.2-1.5,0.3-1.7c1.6-0.6,2.2-2.4,3.8-3.3c-0.4,1.2-0.8,2.2-1.2,3.2c1.2-0.5,1.1-1.9,2.3-2.5c-0.1,1.1,0.8,2,0.3,3.1
	c-0.2-0.3-0.4-0.5-0.5-0.7c-0.1-0.3-0.3-0.4-1-0.2c3.3,3.5,1.1,6.6-0.6,9.8c-0.5,0.9-1,1.7-0.8,3.1c1.2-2.6,2.5-4.9,4.2-7.1
	c1.4,2.3,1.4,4.8,2.1,7.6c0.3-2.8-0.2-5-0.9-7.1c-1-3.3-0.4-6.5,1.5-9.4c0.3-0.4,0.6-1.3,1.3-1c0.6,0.2,0.3,1,0.4,1.5
	c0.3,2.9,0.2,5.8,1,8.7c0.7-0.1,0.6-1,1.3-1c0.3,1.4,0,2.9,1,4.7c-0.2-2.5-0.4-4.5-0.4-6.4c0-1-0.7-2.7,0.4-2.9
	c1.4-0.2,2.1,1.5,2.7,2.6c0.2,0.4,0,1.1,0,1.6c-0.1,3.4,1.3,6,3.9,8.1c-0.1-0.7-0.5-1.3-0.9-2c-0.2-0.5-0.7-0.9-0.3-1.5
	c1.3-1.7,0.7-3.4,0.2-5.1c-0.5-1.7-0.6-1.7,1.1-2.5c0.3,0.7-0.9,0.8-0.3,1.8c0.6-0.6,1.2-1,1.7-1.6c0.9-1.3,1.3-0.6,1.8,0.3
	c1.3,2.7,0.9,5.5-0.2,8.1c-0.5,1.2-1.1,2.3-1.6,3.4c3-3.6,4.3-7.5,2.3-12c-0.5-1.2-0.5-2.1,0.2-3.2c1.3-2.2,2.1-4.6,2.2-7.2
	c0,0,0,0,0,0.1c0,0,0,0,0,0c-0.5,0.6,0,1.7-1.3,2.1c0.6-3.2-1.7-6.2,0.2-9.9c0.4,1.7,0.6,2.9,1.1,4c0.6,1.2,0,2.5,0,3.8
	c0,0,0,0,0-0.1c0,0,0,0,0,0c0.5-0.5-0.1-1.4,0.6-1.7c2.3,2.4,3.1,5.3,2,7.7c-0.5-0.1,0.1-0.9-0.8-0.9c0.6,3-2.1,5.3-1.4,8.4
	c0.6-2,1.8-3.6,2.9-5.3c1.4-2.1,2.1-4.4,1-6.8c-1.1-2.4-1.1-4.9-1-7.4c0-0.6,0.2-1.3-0.4-2c-0.4,1.6,0.1,3.1-0.6,4.7
	c-1.8-3.6-0.5-6.5,1.3-9.6c1.3,2.7,3.2,5,3,8c-0.1,0.8-0.2,1.6,0.5,2.2c-0.3-0.3-0.5-0.9-0.2-1c2-0.3,0.7-1.5,0.6-2.3
	c-0.7-3.6-2.6-6.6-4.5-9.6c-0.6-0.9-1-1.8-0.5-2.9c0.8,0.7,1.5,1.3,2.2,2c0,0,0,0,0,0c-0.7-1.2-1.4-2.4-2.2-3.6
	c-0.4-0.7-0.6-1.4-0.6-2.1c0.1-1,0.5-2.3,1.4-2.4c0.9-0.1,0.9,1.2,1,2c0.5,2,0.4,4.1,0.3,6.2c0,0,0,0,0,0.1c0,0,0,0,0,0c0,0,0,0,0,0
	c0.5,1,0.9,2.1,1.6,3c1.9,2.6,2.9,5.5,2.5,8.7c-0.2,1.8-0.4,3.7-0.6,5.5c-0.1,0.9-0.3,1.9,0.5,2.7c1.8-1.8,1.7-4,1.6-6.3
	c-0.1-1.9-0.7-3.9,0.9-5.6c1.9,4.2,7.2,6.7,5.7,12.5c0.3-0.3,0.6-0.5,0.7-0.8c1.3-2.9,0.2-5.2-1.6-7.3
	C284.8,474.9,284.1,469.1,283.9,462.7z M241,460.6c0.5-0.9,1-1.7,1.8-2.8c0.7,1.9-0.7,2.7-1.3,3.7c0,0-0.4-0.1-0.4-0.2
	C240.9,461.1,240.9,460.8,241,460.6z M242.8,452.4c0.8-1.6,2.1-2.8,3.4-4C245.4,450,244.3,451.4,242.8,452.4z M246.3,452.3
	c-0.1,1.6-0.5,2.5-2.5,5.3C243.7,455,245.5,453.9,246.3,452.3z M240.1,442.5c-0.1,4-0.8,4.9-4.9,6.6
	C236.2,446.3,236.9,443.5,240.1,442.5z M235.2,454.6c-0.4,0.9,0.6,2.4-1.1,2.8c-0.3-3.9,0.5-5.4,3.2-6.2c0.3-0.1,0.7-0.4,0.9-0.1
	c0.3,0.3,0.2,0.8,0,1.1c-0.7,1.2-1.5,2.4-2.3,3.5C235.2,455.6,235.7,454.9,235.2,454.6z M233.1,466.7c-0.4-2,1.5-2.9,2.1-4.5
	C236.3,464.3,236,464.8,233.1,466.7z M239.2,456.6c1,3.3-0.9,4.6-2.5,6.5C235.7,460.1,237.9,458.9,239.2,456.6z M235.5,428.2
	c0.9-1.3,2.3-2.1,2.9-3.6c0.1-0.3,0.5-0.7,1-0.4c0.3,0.2,0.2,0.6,0,0.9c-1.5,1.9-2.6,4-4.3,5.7c-0.3,0.3-0.5,0.7-1.1,0.4
	C234.1,429.9,234.9,429.1,235.5,428.2z M237.4,431.1c-0.7,4.5-3.1,7.2-7.1,7.9C232.2,435.7,234.5,433.3,237.4,431.1z M234.5,438.8
	c-1.3,3.6-1.6,7.5-5.5,9.9C229.7,444.5,228.9,440.1,234.5,438.8z M228.6,451c0.2-0.8,0.2-0.8,1.2-0.4c0.2,0.1,0.5-0.1,0.7-0.4
	c0.3-0.4,0-1.1,0.9-1.4c-0.6,1.9-0.1,4.4-3.1,4.7C228.4,452.5,228.5,451.7,228.6,451z M225.7,461c0.9-2.1,2.4-3.8,4-5.5
	C230.4,458.5,230.1,458.8,225.7,461z M226.1,451.2c-0.2-2.5,0.6-4.3,1.3-6.1C227,447,228.1,449.2,226.1,451.2z M227.8,455.8
	c-1.6,2.6-3.7,4.8-5.1,7.5C223,459.8,225.1,457.6,227.8,455.8z M229.2,460.8c0.4,4.4-1,6.2-6.5,8.3
	C224.6,465.8,225.5,462.3,229.2,460.8z M217.6,471.3c2.4-2.4,3.6-4.9,4.7-7.6C222.8,467.5,220.8,470.9,217.6,471.3z M224.5,479.2
	c0.2,2.6-1.3,3.8-3.6,5.4c1.9-4.6,1.6-8.8,1.7-13.1c0-1.2,0.5-1.7,1.5-2.1c1.1-0.4,2.3-0.9,3.5-1.4c0.4,1-0.3,1.6-0.7,2.3
	C225.3,473.1,224.2,476,224.5,479.2z M225.7,485c-0.1-2.4-0.3-4.4,2.2-5.8C227.2,481.4,226.8,483.1,225.7,485z M226.5,476.8
	c0.6-2.8,1.8-5,3.6-6.8C228.9,472.2,228.9,474.9,226.5,476.8z M237.3,473.7c-2.6,3.6-3,8.3-5.6,12c-0.5,0.7-0.9,1.4-1.8,1.9
	c0-3.5-0.1-6.7,0.3-9.9c0.3-2.1,1.6-3.4,3.3-4.4c1-0.6,1.7-0.8,0-1.2c-0.5-0.1-0.4-0.7-0.1-1c1-1,1.8-2.1,3.3-3.1
	c-0.2,1.2,0.7,2.1-0.3,3c-0.5,0.4-0.2,0.4,0.2,0.5C237.9,471.9,237.8,473,237.3,473.7z M240.4,465.3c0.2,2.1-1.1,3.3-1.9,4.9
	C236.9,467.5,237,467.2,240.4,465.3z M239.7,494.4c-0.1-2,0.3-3.4,0.9-4.9C241,491.4,241,491.4,239.7,494.4z M239.3,479.1
	c0.8-2.2,1.4-3.9,2.1-5.6C242.7,475.5,242.4,476.6,239.3,479.1z M241.9,466.9c-1-2.2,0.1-3.6,1.6-4.8
	C244.3,463.6,244.3,463.7,241.9,466.9z M244.6,468.2c-0.4,1.9-0.7,3.3-1.5,4.7C241.9,470.9,243.3,469.8,244.6,468.2z M242.3,488.2
	c-0.8-4.4,2.1-7.6,3.6-11.3C246,481.1,244,484.6,242.3,488.2z M245.2,462.2c-1-2-0.1-3.5,1.3-5.2C246.8,459,246.2,460.6,245.2,462.2
	z M245.7,442.3c-0.1,1.7-2.2,1.7-3.5,2.4c1.1-2.9,1.5-6.2,4.6-8.1C246.9,438.7,245.9,440.4,245.7,442.3z M248.7,484.1
	c-0.8-2.8-1-5-0.7-7.2C248.7,479.1,249.4,481.3,248.7,484.1z M249.3,469.8c-0.4-2.1-0.1-2.8,1.6-4.3
	C251.8,467.4,249.6,468.1,249.3,469.8z M249.9,452.9c-0.1-2,0.4-3.6,1-5.6C251.2,449.4,252,451.2,249.9,452.9z M254.1,460.4
	c1.8,1.1,1.7,2.4,0.9,3.9c-0.2-0.1-0.6-0.4-0.6-0.4C255.1,462.8,253.8,461.7,254.1,460.4z M254.1,487.8c-0.6-1.4-1.4-2.7,0.5-3.9
	C255.3,485.4,255.8,486.7,254.1,487.8z M252.8,483c0.5-2.2,0.9-4.1,1.3-6C256.5,479.8,256.2,481.4,252.8,483z M275.3,444.3
	c-1.7,0-2.6-0.3-2.4-2.4c0.2-2.7-0.4-5.5-1.1-8.2C273.7,437,274.6,440.6,275.3,444.3z M270.9,448.9c0,0.1,0.1,0.4,0.2,0.5
	c1.4,0.8,1.4,0.8,1.6,3.5c-2.9-2.2-4.6-4.8-4.9-8.8C269.5,445.7,271.6,446.4,270.9,448.9z M268.2,437.8c-2.7-1.7-2.6-4-3-6.1
	C266.5,433.4,267.2,435.3,268.2,437.8z M264.9,469.8c-0.1-0.3-0.2-0.5-0.2-0.8c-0.1-1.2,0.8-1.9,1.6-2c0.9-0.1,0.9,1.1,0.9,1.7
	c-0.1,2.5-0.4,5.1-0.7,7.9c-1.2-0.7-1.2-1.4-1.1-2.2C265.6,472.8,265.4,471.3,264.9,469.8z M266.1,465.4c0.2,0.5,0.1,0.8-0.3,1
	c-0.6,0.2-0.6-0.3-0.7-0.7c-0.4-1.6-0.8-3.2-1.2-4.8c0.1,0,0.2-0.1,0.3-0.1C264.8,462.4,265.4,463.9,266.1,465.4z M265.7,453.6
	c1.3,1.7,0.9,3.5,1.3,5.1C265.7,457.3,265.4,455.6,265.7,453.6z M266.4,445.5c-1.8-1.8-3-3.9-4-6.6
	C264.7,440.9,266.6,442.4,266.4,445.5z M258.1,455.8c1.1,2.2,1.2,2.8,0.8,4.8C258.4,459,257.9,457.6,258.1,455.8z M258.9,468.7
	c-0.2,0-0.5,0-0.7,0v-5.2C259.1,465.2,259.3,466.9,258.9,468.7z M258.5,473.1c0.3-0.2,0.6-0.6,1.1-0.3c0.4,0.3,0.4,0.7,0.2,1.1
	c-0.4,1.2-0.8,2.4-1.2,3.6C257.7,476,256.2,474.5,258.5,473.1z M260,488.9c-1.3-2.4-1.5-5-1.3-7.8
	C262.3,483.4,260.7,486.2,260,488.9z M261.1,444c-0.5-1.7-1.8-2.5-1.2-4.2C261.6,440.8,261.3,442.1,261.1,444z M259.5,424.4
	c2.3,1.9,2.7,4.6,3.3,7.7C259.9,430,259.9,427.1,259.5,424.4z M267.2,490.8c-0.6,1.1-1.8,1.9-2.8,2.6c-0.7,0.4-0.9-0.6-1.3-1
	c-1.3-1.5-0.9-3.3,0.8-4c0.8-0.3,0.7-0.9,0.5-1.3c-1.4-2.7-0.2-5.3,0.4-8.4c1.2,3.7-0.4,7.2,0.8,10.5c0.4-0.2,0-0.9,0.6-1.1
	C266.6,489,267.7,489.9,267.2,490.8z M268.2,488.4c-0.7-1.9-0.5-3.4,0.5-5.4C268.8,485,269.2,486.6,268.2,488.4z M269.8,485.7
	c-0.8-1.9-1.1-3.6,0.2-5.7C270.8,482.1,270.2,483.8,269.8,485.7z M270.9,472.1c-0.3-2.9-0.7-5.7-1.9-8.6
	C272,466,272.3,468.9,270.9,472.1z M273.1,459.2c-0.6-1.2-1.2-2.3-1.9-3.7C273.6,456,273.2,457.7,273.1,459.2z M273.4,450.3
	c0.9,1.4,1.8,2.9,1.8,5C273,453.9,273.6,452,273.4,450.3z M275.5,447.6c-1.3-0.4-1.7-1.6-2.2-2.7C275.3,445,276,445.8,275.5,447.6z
	 M285.8,452.6c-2.4-1.2-3-2.4-3.9-7.1C283.4,446.5,285.1,449.5,285.8,452.6z M276.7,439.8c2,2.2,3.2,4.9,4.5,7.8
	C276.5,446.6,277.7,442.7,276.7,439.8z M280.1,449.4c-1.5-0.3-2.4-0.8-2.2-2.4C279.2,447.2,280.1,447.8,280.1,449.4z M277.8,452.4
	c0.1-0.5-0.1-1.7,0.5-1.5c0.7,0.3,1.9-0.3,2.3,1c0.6,2,1,4-0.6,6.3C279.1,456.1,277.4,454.7,277.8,452.4z M279.5,461.2
	c1.4,3.7,2.8,6.8,2.9,10.3C280.7,468.5,277.8,465.8,279.5,461.2z M282.7,455.8c0.2,2.5,0.3,5.1,0.5,7.8
	C280.5,461.1,280.4,460.4,282.7,455.8z M281.9,451.4c1.5,1.3,2.1,3,2.7,4.8c0.1,0.3,0.1,0.7-0.3,0.8c-0.4,0.1-0.6-0.3-0.7-0.5
	C283,454.8,282.5,453.1,281.9,451.4z"/>
<linearGradient id="SVGID_4_" gradientUnits="userSpaceOnUse" x1="188.8003" y1="7" x2="188.8003" y2="497.2195">
	<stop  offset="0" style="stop-color:#FCEE21"/>
	<stop  offset="0.6759" style="stop-color:#F48924"/>
	<stop  offset="0.7915" style="stop-color:#F37C24"/>
	<stop  offset="0.8065" style="stop-color:#552800"/>
	<stop  offset="0.8769" style="stop-color:#000000"/>
	<stop  offset="0.9548" style="stop-color:#000000"/>
</linearGradient>
<path class="st3" d="M229.8,482.3c-0.5,1.2,0.7,1.6,1.3,2.2c0.5,0.6,1.4,0.8,2.1,1.2c0.8,0.5,1.5,1.4,2.1,2.2
	c0.4,0.5,0.8,0.8,1.5,0.9c1,0.2,2.1,0.4,3.1,0.7c0.2,0.1,0.5,0.2,0.4,0.5c-0.1,0.3-0.4,0.2-0.6,0.1c-2.1-0.6-4.3-0.7-6.4-1
	c-0.7-0.1-1.4-0.5-2-0.4c-1,0.1-1.2-0.7-1.8-0.9c-0.8-0.3-1.3-0.8-1.8-1.5c-0.5-0.7-0.9-1.4-1.2-2.2c-0.2-0.7-0.5-1.1-1.3-0.5
	c0.5-0.4,1-0.7,0.7-1.4c-0.6-1.5-0.7-3.1-1.1-4.6c-0.3-1.1-0.5-2.2-1.1-3.4c-0.2,0.5,0.2,0.9-0.2,1.3c-0.4,0.1-0.2-0.5-0.6-0.4
	c0.3,1.8,0.1,3.6,1.1,5.3c0.1,0.1,0.1,0.4,0.1,0.5c-0.9,1.7,0.1,3.4,0.2,5c0.1,0.7,0.1,1.4,0.1,2.2c0,0.3,0,0.6,0,0.9
	c0,1.5-0.1,3,1.1,4.3c-0.5-0.4-1-0.8-1.6-1.2c-0.1,0-0.2,0-0.2-0.2c0.5-2.2-0.6-4.2-1.1-6.2c-0.2-0.7-0.5-1.6-0.8-2.4
	c-0.4-0.9-1.1-0.4-1.5-0.3c-0.7,0.1-0.1-0.4-0.3-0.5l0,0c1.5,0.1,2-0.5,1.3-1.9c-0.2-0.5-0.4-1-0.4-1.8c-0.5,0.5,0,1.2-0.7,1.4
	c-0.3-0.2-0.1-0.5-0.2-0.7c-0.1-0.3-0.2-0.6-0.5-0.6c-0.3,0-0.3,0.3-0.3,0.6c0,0.2,0,0.4-0.2,0.4c-0.3,0-0.4-0.3-0.5-0.5
	c-0.3-1-0.5-2.1-0.7-3.1c-0.2-0.9-0.8-1.5-1.5-2.1c-0.7,2.8-0.2,4.2,1.5,4.4c-0.8,0.1-1.1,0.2-0.7,0.9c0.6,0.9,0.3,2.2,1,3.2
	c-0.9-0.5-1.1-1.6-2.1-2.3c0.6,2.7,2.4,4.6,3.3,7.3c-2-2.1-2.7-4.5-3.6-6.8c-0.1-0.3,0-1-0.6-0.8c-0.5,0.1-0.3,0.7-0.3,1.1
	c0,1.5,1.2,2.6,1.4,4c-0.4-0.1-0.3-0.5-0.6-0.7c0.1,1.2,0.5,2.2,0.4,3.4c-0.6-0.1-0.6-0.5-0.7-0.9c-0.1-0.5-0.2-1.1-0.9-0.9
	c-0.2,0.1-0.3-0.1-0.2-0.1c0.2-0.2,0-0.7,0.4-0.5c0.5,0.3,0.5,0,0.4-0.3c-0.2-0.7-0.5-1.4-0.4-2.2c0-0.1-0.1-0.3-0.1-0.4
	c-1.7-0.5-1.4-1.9-1.4-3c0-1.5-0.2-2.8-1.6-3.7c-0.6,2-0.8,4-0.1,6.1c0.4,1.1,0.7,2.2,0.9,3.4c0,0.1,0,0.2,0,0.3
	c0.2,0.5,0.5,1.1-0.1,1.4c-1.1-1.1,0.1-2.6-0.8-4c0,0.4-0.1,0.7-0.1,1c-0.4,0,0.1-1.1-0.7-0.6c0.3-0.9,0.5-1.7-1-1.3
	c-0.3,0.1-0.3-0.3-0.5-0.3c-0.3-0.1-0.5-0.3-0.8-0.1c-0.2,0.2-0.1,0.5,0,0.7c0.2,0.6,0.4,1.1,0.6,1.7c0.2,0.4,0.3,1.1,0.8,1.1
	c0.6-0.1,0.6-0.8,0.7-1.3c0-0.2,0.1-0.3,0.2-0.5c0,0.6,0,1.1-0.2,1.7c-0.3,0.6-0.3,1.2-0.1,1.8c0.3,0.8,0.3,1.7-0.3,2.5
	c0.1-0.9,0-1.8-0.4-2.7c-0.4-0.8-1.2-1.4-1.5-2.3c-0.4,2.9,2.3,5,1.7,7.9c-0.4-1.2-0.4-2.5-1.5-3.6c-0.3,2-0.3,3.9-1,5.7
	c0.2-1.3,0.4-2.6,0.4-3.9c0-1.2,0.6-2.5-0.3-3.9c-0.1,0.9-0.3,1.7-0.8,2.7c-0.2-1.6,0-2.9,0.1-4.2c0.1-1.2-0.1-2.3-0.4-3.3
	c-0.1-0.4-0.4-0.6-0.7-0.4c-0.4,0.2,0,0.4,0.1,0.7c0.3,1,0.5,2,0.6,3c-0.5-1.3-0.6-2.6-1.6-3.7c0.3,2.1-0.5,4.1,0.2,6.2
	c0.5,1.4,0.4,2.9-0.1,4.1c-0.3,0.8-0.9,1.5-1.3,2.6c-0.1-1.7,1.2-3.3-0.5-4.7c-0.2,1.1-1.4,2-0.5,3.3l0,0c-0.9-0.7-1.1,0.3-1.8,0.7
	c0.2-0.4,0.3-0.7,0.4-1c-0.1,0-0.2,0-0.2,0c-0.2,0.3-0.7,0.3-0.5,0.8c0.5,1.1,0.6,2.1,0.2,3.3c-0.1,0.4,0.3,1,0.5,1.5
	c-1-0.8-1.7-2.5-1.6-4c0-0.2,0.1-0.4,0.1-0.5c-0.1-0.7-0.4-1.6-1.1-1.6c-0.6,0-0.3,0.8-0.3,1.3c-0.1,0.7,0,1.4,0,2.1
	c0-0.9-1.1-1.3-0.9-2.3c0.1-1,0-2-0.1-3c0-0.2-0.1-0.4-0.2-0.5c-0.2-0.1-0.4,0.1-0.5,0.2c-0.2,0.4-0.5,0.7-0.5,1.1
	c-0.2,1.5-0.5,3,0,4.5c0.2,0.4,0.1,0.9,0.1,1.4c-0.3-0.6-0.3-1.4-0.7-2.1c-0.8,0.7-0.9,1.7-1.5,2.5c0-0.6,0.3-1.1,0.5-1.7
	c0.4-1.1,1.1-2.2,0.2-3.2c-0.9-0.9-0.4-1.6,0-2.6c-1.6,1.6-1.8,2.1-1.9,4.5c0.1-1.1-0.4-2.2-0.2-3.3c0.2-1.1,0.3-2.2,0.1-3.4
	c-0.6,1-1.2,2-1.3,3.1c-0.2,1.2,0.2,2.3,0.2,3.8c-0.2-0.9-0.4-1.6-0.6-2.4c-0.2,0.3-0.4,0.5-0.5,0.7c0-0.9,0.7-1.7,0.2-2.6
	c-0.1,0.9-0.6,1.7-0.2,2.6c-0.6,0.7-0.2,1.5-0.5,2.4c-0.2-1.3-0.3-2.5-0.3-3.7c-0.6,1.1-0.6,2.4-1,3.6c-0.1-3.1,1-5.9,1.5-8.9
	c-0.9,0.5-0.8,1.6-1.2,2.3c-0.3-0.4,0.1-0.8,0-1.3c-2.1,1.4-2.4,3.6-3.3,5.6c-0.2-1.3,0.8-2.3,0.4-3.6c0.6-0.4,1-1,1.3-1.6
	c0.6-1.5,1.1-3,1.6-4.5c0.4-1.1,0.5-2.1,0.1-3.4c-0.6,1.1-1,2.1-1.4,3c-0.7,1.4-1.4,2.9-1.2,4.6c0,0.2,0,0.5,0,0.6
	c-0.4,0.8-0.4,0.8-0.3,1.3c-1.4-1.2-1.2,0.9-2.2,1c0.4-0.9,0.4-1.9,0.4-2.9c0-0.5-0.1-0.7-0.6-0.5c0.4-0.7,0.6-1.4,0.5-2.2
	c-0.1-1.6,0.4-3.1,1.1-4.6c0.1-0.2,0.4-0.5,0-0.9c-1,0.6-1.7,1.4-1.8,2.5c-0.2,1.8-0.1,3.7-0.6,5.6c0.4-0.2,0.6-0.3,0.8-0.4
	c-1.3,1.4-2,3.2-2.9,4.9c-0.1,0.2-0.1,0.4-0.6,0.4c0.5-1.1,0.6-2.2,1.3-3.3c0.8-1.2,1.1-2.7,1.3-4.1c0-0.4,0.1-0.7,0.1-1.1
	c0-0.5,0.4-1.1-0.1-1.3c-0.4-0.1-0.6,0.6-0.8,1c-0.5,0.7-0.6,1.6-0.4,2.6c-0.7-0.8-0.2-1.5-0.5-2.2c-0.4,0-0.4,0.5-0.8,0.6
	c0.3-1,0.7-1.8,1.1-2.6c-1.2,0.5-2.1,1.3-2.8,2.4c0.2-0.6,0-1.2,0-1.9c-0.1-1.8-1-3.4-1.3-5.2c-0.1-0.6-0.1-1.2-0.2-1.8
	c-0.3,0.8,0,1.6-0.5,2.4c-0.3-1.4-0.1-2.9,0-4.5c-0.8,0.8-0.8,1.7-1.4,2.3c-0.2,0.2-0.1,0.6,0.2,0.7c0.2,0,0.3-0.3,0.3,0.2
	c0.1,2.7,1.2,5.1,2.3,7.4c0.1,0.3,0.3,0.2,0.5,0.2c-0.5,0.8,0.1,1.8-0.5,2.8c-0.2-0.9,0-1.8-0.3-2.6c-0.2-0.4,0-1-0.8-0.9
	c-0.2,0-0.2-0.5-0.3-0.7c-0.3-1.2-0.5-2.5-1.2-3.6c-0.3,1.8-1.8,3.3-1,5.4l0,0c-0.3-0.1-0.6-0.4-0.8,0.2c-0.5,1.8-1.3,3.5-1.2,5.4
	c-0.4-2.4-0.5-4.8-1.4-7.2c-0.4,0.2-0.4,0.7-0.8,1c0.1-1.2,0.2-2.4,0.3-3.5c-1.6,1.5-1.2,3.9-2.6,5.6c0-1.3,0.9-2.3,0.7-3.6
	c-0.8,0.2-1.4,0.8-2.1,1.1c0.1-0.8,0.7-1,1.2-1.3c0.9-0.5,1.3-1.2,1.4-2.2c0.1-1.8,0.5-3.6-0.1-5.4c-0.2-0.4,0.4-1.2-0.1-1.3
	c-0.5-0.2-0.7,0.7-1.1,1c-0.6,0.5-0.9,1.3-1.3,1.9c0-1.2-0.3-2.2-1-3.4c-0.8,3.1,0.4,5.6,1,8.3c-0.8-1.2-0.9-2.7-1.6-4.2
	c0,0.9,0,1.5,0,2.2c-0.3-1.7,0.2-3.5-0.3-5.2c-0.1,0-0.2,0-0.3,0c0,2.1,0,4.1,0,6.2c-1.4-2.5-0.3-5.4-1.8-7.9c-0.4,0.6,0,1.2-0.3,2
	c-0.7-0.9-0.4-2.1-1.3-2.7c-0.4,1.3-0.4,2.7,0.1,4c0.5,1.1,0.9,2.2,2,2.8c-0.6,0.2-0.8-0.3-1.3-0.3c-0.1,1.2,0.8,2.2,1,3.6
	c-1.3-1.8-1.4-3.7-2.1-5.5c-0.9,2,0.7,3.9,0.1,5.8c-0.5-0.2-0.2-0.7-0.6-1c-0.4,1.2-0.7,2.3-1.1,3.4c-0.2-0.9,0.4-1.8,0.3-2.7
	c-0.1-0.4,0-0.4-0.5-0.3c0.7-1.9,0-3.9,0.4-5.8c-0.8,0.2-0.6,0.8-0.9,1.1c0,0-0.1,0-0.1,0c0-0.1,0-0.2,0-0.3
	c0.6-1.7,0.4-3.4,0.4-5.2c-1.1,0.5-1.3,1.2-1.1,2.2c0.2,1,0.5,2.1,0.7,3.1c-0.4,0-0.2,0.6-0.7,0.6c-0.2-1.2,0.3-2.5-0.8-3.5
	c-0.3,0.5-0.2,0.9-0.1,1.4c0,0.2,0.1,0.4-0.2,0.4c-0.2,0.1-0.3-0.1-0.4-0.3c-0.1-0.3-0.1-0.7-0.1-1c0.1-1.4,0.5-2.8,0.9-4.4
	c-1.1,0.3-1.5,0.9-1.6,2c-0.3-0.3-0.2-0.9-0.6-0.6c-0.6,0.5-1.4,0.6-1.6,1.5c-0.1,0.8-0.3,1.5-0.6,2.3c-0.4,1.1,0.4,1.7,1.1,2.3
	c0.5,0.5,1.2,0.7,1.8,1.1c0.3,0.2,0.8,0.2,0.9,0.8c-0.8-0.2-1.5-0.6-2.1-0.9c-0.6-0.3-1-0.9-1.8-0.8c-0.3,0-0.5-0.4-0.6-0.7
	c-0.1-1-0.5-0.7-1.1-0.3c-0.7,0.5-1.5,1-2.2,1.5c-1,0.7-1.8,1.4-2.2,2.8c-0.3-0.9,0.1-1.4,0.6-1.9c1.2-1.3,2.7-2,4-3.2
	c0.5-0.4,0.7-0.8,0.4-1.5c-0.4-1-0.8-1.3-1.8-0.9c-0.6,0.2-1.3,0.4-2,0.1c0.4-0.4,0.9-0.4,1.3-0.5c1.2-0.1,2.3-0.6,3.4-1.1
	c0.5-0.2,0.7-0.6,0.6-1.1c-0.1-0.5-0.6-0.3-1-0.3c-1.1,0-2.2,0.3-3.2,0.6c-1.4,0.4-2.7,0.4-4-0.6c2,0.9,3.9,0.2,5.8-0.4
	c0.5-0.2,1.1-0.1,1.7-0.1c1.1,0,2.1-0.3,3-1c0.2-0.2,0.4-0.4,0.3-0.6c-0.2-0.3-0.5-0.1-0.7,0c-0.6,0.6-1.4,0.5-2.1,0.4
	c-0.6-0.1-1.2,0.2-1.8,0.3c0.1-1,0.5-1.9,0.4-2.8c-1.2,0.7-2.7,0.1-3.8,1.3c0.6-1.2,1.6-1.8,2.8-2.1c0.7-0.2,1.1-0.5,1.3-1.3
	c-1.1,0.2-1.8,1-2.9,1.3c0.2-0.4,0.4-0.7,0.6-1.1c-5.1,0.5-10,1.6-14.9,0.1c2.6-0.2,5.3-0.4,7.9-0.6c2.8-0.2,5.6-0.5,8.3-1
	c1.7-0.3,2.4-1.8,3.6-2.7c-1.9,0.4-3.7,1-5.3,2.3c0.3-0.7,0.6-1.1,1.5-1.5c0.5-0.3,0.9-0.5,1.4-0.7c2.7-0.9,5.1-2.2,7.4-4.1
	c1.2-1,2.5-2.2,4.1-2.9c0.7-0.3,0-0.9,0.1-1.3c0.1-0.5-0.4-0.3-0.6-0.3c-1.4,0.1-2.6,0.5-3.9,1.1c-0.4,0.2-0.8,0.5-1.1,0.1
	c-0.3-0.5,0.3-0.7,0.5-1c1-0.9,2.3-1,3.6-1.2c0.6-0.1,1.2,0,1.9-0.4c-0.6-0.3-1.1-0.1-1.5,0c-2.2,0.5-4.4,1-6.5,1.4
	c-1.1,0.2-2.2,0.3-3.3,0c-0.7-0.2-1.2-0.6-1.7-1.5c2.3,2.1,4.7,1.2,6.9,0.6c1.7-0.5,3.4-0.9,5.1-1.2c0.6-0.1,0.7-0.2,0.6-0.8
	c-0.4-1.8-0.7-1.9-2.3-1.1c-2.3,1.2-4.6,2.1-7.3,3c0.6-0.8,1.3-0.9,1.8-1.2c1.5-0.7,3-1.4,4.4-2c0.2-0.1,0.5-0.1,0.4-0.5
	c-0.1-0.2-0.3-0.2-0.4-0.2c-1.6-0.2-3.3-0.3-4.9,0c-1.4,0.3-2.6,1.1-3.5,2.4c0.2-1.8,2.6-3,4.5-3.1c1.5-0.1,2.9-0.1,4.4,0.2
	c0.2,0,0.4,0,0.6,0.1c1.4,0.1,1.9-0.4,1.8-2c-0.7,0.6-1.3,1.1-1.9,1.6c-0.1,0-0.1-0.1-0.2-0.1c1.4-1.8,0.5-4,1-6
	c0.2-0.8,0.4-1.5,0.6-2.2c0.2-0.5,0-0.6-0.5-0.5c-0.5,0.1-0.8,0.3-1,0.8c-0.4,1.1-0.9,2.2-1.4,3.2c-0.3,0.6-0.7,1.3-1.6,1.5
	c0-0.6,0.3-1.1,0.6-1.5c0.4-0.9,0.9-1.8,1.4-2.6c0.2-0.5,0.3-0.9-0.5-0.7c-1.2,0.2-2.4,0.5-3.6,0.6c-0.8,0.1-1.3,0.6-1.9,1.3
	c0-1.2-0.7-1-1.3-0.9c-0.8,0.2-1.5,0.4-2.3,0.6c-0.6,0.1-0.9,0.5-1.2,1.2c-0.5-1,0.1-1.3,0.7-1.6c1.2-0.6,2.6-0.6,3.9-1
	c2.2-0.7,4.4-1.4,6.8-1.8c0.4-0.1,0.6-0.3,0.8-0.7c0.2-0.4,0.4-0.5,0.8-0.2c0.6,0.4,1,0,1.2-0.6c0.8-2.9,1.4-5.9,1.1-9
	c0-0.3-0.1-0.6-0.2-0.9c-0.5-1.3-1.3-1.5-2.3-0.5c-0.2,0.2-0.3,0.4-0.5,0.5c-0.4,0.5-0.7,0.3-0.9-0.2c-0.6-1.3-0.4-1.7,0.9-2.2
	c1.2-0.5,2.2-1.2,3.2-1.9c0.4-0.3,0.7-0.3,1.2-0.2c1.8,0.6,3.7,1.1,5.5,1.6c1.2,0.4,1.8,0,2.2-1.2c-0.2-0.2-0.4,0-0.4,0.1
	c-0.6,1-1.6,0.2-2.4,0.5c-0.1,0-0.3,0-0.3-0.2c0-0.2,0.1-0.4,0.3-0.4c2.1-0.1,3.9-1.6,6.1-1.2c0.7,0.1,1.5-0.7,1.6-1.4
	c0-0.4-0.3-0.4-0.5-0.4c-1.2,0.2-2.5-0.2-3.3,1.1c-0.6,0.9-1.7,0.7-2.6,1c0.3-0.4,0.8-0.5,1.3-0.7c0.4-0.1,0.7-0.3,1-0.6
	c0.1-0.2,0.3-0.3,0.2-0.6c-0.1-0.3-0.4-0.2-0.6-0.1c-1.1,0.1-2.2,0.2-3.3,0.4c-0.2,0-0.5,0.1-0.5-0.2c-0.1-0.3,0.2-0.4,0.4-0.4
	c2.1-0.1,4.2-0.9,6.3-0.8c1.3,0,2.4,0.2,3.6-0.7c0.6-0.4,1.6-0.4,2.6-0.1c-0.3-0.6-0.6-0.9-1-1.2c-0.3-0.1-0.3-0.4-0.2-0.6
	c0-0.3,0.1-0.6,0.3-0.9c0.9-1.9,0.9-1.9-1.1-2.4c0-0.3,0.3-0.4,0.4-0.4c1.3,0.3,2.2-0.4,2.9-1.3c-1.2-0.5-2.1,0.1-2.8,1.3
	c-0.4-0.5,0.1-0.7,0.1-1c0-0.5-0.6,0-0.7-0.4c0.8-1,2.1-0.1,3.1-0.7c-0.6-0.3-1.1,0-1.6-0.4c-0.1-0.5,0.6-0.2,0.6-0.7
	c-0.8-0.3-1,0.4-1.4,0.9c-0.4-0.6,0.2-0.9,0.2-1.3c-0.4-0.2-0.6,0.4-0.9,0.3c0.3-0.9,0.3-0.9-2.2-0.9c1-1.5,2.3-0.9,3.7-0.6
	c-0.5-1-0.9-1.8-2.1-1.9c-0.6,0-1.3-0.2-1.6-0.8c0.7-0.1,0.7-1,1.4-1.3c0.3-0.1,0.5-0.1,0.7,0.1c0.6,0.4,1.1,0.8,1.5,1.4
	c0.3,0.4,0.6,0.9,1,1.3c1,1.1,1.3,1.1,2.7,0.5c0.3-0.1,1.2-1.5,1.2,0.3c0,0.2,0.3,0,0.3,0.1c0.4,0.3,0.7,0.6,0.1,1
	c-0.2,0.2-0.6,0.2-0.5,0.6c0.2,0.4,0.5,0,0.8,0c0.2,0,0.4-0.1,0.6-0.2c0.5-0.2,1.2,0.3,1.5-0.5c0.3-1,0.7-2,0.3-3
	c-0.2-0.5-0.3-1-0.2-1.6c0.4-3.1,0-6.2,0.7-9.2c0.2-0.8,0.2-3.1,0.2-3.4c0.1-1.7,6-6.8,6-3.1c0,0.7,2,7.4,1.3,9.1
	c-0.4,0.9-0.2,2,0.3,2.9c0.3,0.6,0.3,1.1,0.2,1.8c-0.4,2.6-0.4,5.2,0.9,7.6c0.1,0.1,0.1,0.3,0.1,0.4c-0.1,1.2,0.6,1.6,1.5,2
	c1,0.4,1.9,0.4,2.7-0.2c0.7-0.4,1.3-0.8,2.1-0.8c0.6,0,1.1-0.3,1.5-0.9c0.2,0.7-0.5,0.8-0.7,1.2c0.4,0.2,0.8,0.1,1.1,0.2
	c-0.1,0.1-0.1,0.2-0.1,0.2c-0.8,0.1-1.5,0.4-0.6,1.3c0.2,0.2,0.1,0.5,0.2,0.8c0.3,1.6,1.3,2.6,2.6,3.6c1.2,1,2.9,1.2,3.7,2.5
	c1.1,1.6,2.7,2.9,3.5,4.7c0.5,1,1.7,1.4,2.6,2.2c0.5,0.4,0.9,0.7,1.4,1.1c0.7,0.5,1.4,0.9,2.3,1.2c2.6,0.6,5.2,0.1,7.7,0.6
	c2.8,0.5,5.5,0.5,8.2-0.2c0.5-0.1,0.5-0.1,1.6,0.3c-4,1.5-7.9,1.1-11.8,0.4c0.5,0.5,1,0.5,1.6,0.6c1.3,0.2,2.5,0.4,3.8,0.4
	c1.3,0,2.3,0.7,3.4,1c0.2,0.1,0.4,0.2,0.2,0.4c-0.2,0.3-0.5,0.3-0.7,0.1c-1.2-0.9-2.5-0.6-3.9-0.6c-1.1,0-1.1,1-1.5,1.4
	c-0.3,0.3,0.4,0.9,1,1.1c0.2,0.1,0.3,0.3,0.5,0.4c-0.6-0.1-1.2,0.1-1.6-0.6c-0.6-1.1-1.5-1.3-2.8-0.8c1.1,0.8,2.5,1,3.7,1.9
	c-2.3-0.5-4.2-1.7-6.2-2.5c0.5,0.9,1.3,1.5,2.1,2.1c0.3,0.2,0.6,0.6,1,0.4c0.3-0.1,0.6-0.1,0.5,0.2c-0.1,0.2,0.4,0.9-0.4,0.7
	c-0.2,0-0.4,0-0.3,0.3c0,0.2,0.2,0.4,0.4,0.3c1.6-0.2,3.2,0.3,4.7,0.7c0.1-1-0.6-1.6-0.7-2.4c0.6,0.3,0.8,0.9,1,1.4
	c0.2,0.6,0.6,1.1,1.4,0.8c0.8-0.2,1.5,0.1,1.9,0.7c0.5,0.8,1.3,1,2.1,1.3c1.1,0.4,2.2,0.9,3.2,1.4c-0.9,0.1-1.6-0.3-2.4-0.3
	c-0.7,0-1.4-1-2.1,0c-0.1,0.1-0.1-0.1-0.1-0.2c-0.4-0.8-1.2-0.7-1.8-0.8c-0.9-0.1,0,0.7-0.5,1c-0.6-2.2-2.6-1.4-4.1-1.9
	c0.9,1.2,2,2.3,2,3.9c-0.5-1.5-1.4-2.5-2.5-3.5c-0.3-0.2-0.5-0.5-0.9-0.5c-0.4,0-0.9-0.1-1.1,0.3c-0.2,0.5,0.4,0.6,0.6,0.8
	c0.4,0.3,0.9,0.5,1.2,1c-0.6-0.3-1.2-0.5-1.9-0.8c0.8,2,2.6,2.6,4.2,3.4c1.1,0.6,2.2,1.3,3.3,2.3c-0.9,0.2-1.5-0.4-2.1-0.3
	c0.1,0.5,0.4,0.8,0.2,1.4c-1.1-0.5-1.6-1.6-2.8-2.2c0.1,0.8,0.2,1.5,0.8,2c0.2,0.1,0.3,0.3,0.3,0.5c0,1.4,1.1,2,2,2.9
	c0.4,0.3,0.8,0.3,1.2,0.4c0.2,0,0.4,0.1,0.4,0.3c0.1,0.4-0.4,0.1-0.4,0.4c-0.1,0.5-0.2,0-0.4-0.1c-0.2-0.1-0.3-0.2-0.6-0.3
	c1.8,2.7,3.4,5.4,4.8,8.4c-1.4-1.8-2.5-3.7-3.9-5.5c-0.4-0.6-1.1-0.9-1.5-1.4c-0.2-0.2-0.5-0.2-0.6,0.1c-0.2,0.6-0.7,0.8-1.1,1.2
	c0.2-0.3,0.4-0.7,0.6-1c0.3-0.7,0.4-1.4-0.3-1.9c-1.2-0.8-2.6-1.2-4.1-1.5c-0.3-0.1-0.7,0-0.8,0.4c-0.1,0.3,0.2,0.5,0.4,0.7
	c1.6,0.9,2.9,2.1,3.1,4.2c0.4-0.4,0.5-0.8,1-0.8c-0.7,1.2-0.9,2.5-0.2,3.9c-0.6-0.1-0.4-1.8-1.5-0.4c0.6-0.9,0.6-1.8,0.1-2.5
	c-0.6-0.9-1.5-1.5-2.3-2.3c-0.2-0.2-0.4,0-0.4,0.2c0,0.7-0.4,0.6-0.9,0.4c-0.4-0.1-0.9-0.2-1.2,0.1c-0.3,0.3,0.1,0.7,0.2,1
	c-0.6-0.3-0.7-1.3-1.8-1c-0.7,0.2-1.5,0.2-2.3,0.2c-0.5,0-0.6,0.1-0.5,0.6c0.1,0.7,0.4,1,1,1.1c1.2,0.3,2.4,0.6,3.7,0.7
	c0.2,0,0.4,0.4,0.6,0.2c0.3-0.2-0.1-0.5-0.2-0.7c0.9,0.9,1.3,2.2,2.7,2.6c0.3,0.1,0.3,0.4,0,0.4c-0.4-0.1,0,0.8-0.5,0.4
	c-0.4-0.4-0.9-0.3-1.7-0.5c0.9,1,1.7,1.9,2.5,2.7c0.2,0.2,0.5,0.2,0.2,0.5c-0.2,0.2-0.5,0.1-0.6-0.1c-0.6-0.6-1.2-1.2-1.8-1.8
	c-0.2-0.2-0.4-0.4-0.7-0.7c-0.2-0.2-0.6-0.6-0.7-0.1c-0.1,0.3-0.6,0.9,0,1.1c0.7,0.3,0.8,0.8,1,1.4c0.5,1.4,0.8,1.6,2.2,1.5
	c0.5,0,0.7,0.2,1,0.6c-0.4,0.3-1.2-0.3-1.4,0.6c-0.1,0.6-0.1,0.7,0.5,1c0.2,0.1,0.2,0.3,0.2,0.4c0.2,2.7,0.6,5.3,1.7,7.7
	c0.4,0.9,1,1.8,1.2,2.8c0.1,0.5,0.9,0.2,1.2,0.6c0.5,0.6,0.9,1.2,1.8,1.3c0.1,0,0.4,0.3,0.1,0.2c-0.5-0.1-0.1,0.9-0.7,0.4
	c-0.5-0.5-1-1-1.5-1.5c-0.1-0.1-0.3-0.2-0.5-0.1c-0.1,0.1-0.1,0.2,0,0.4c0.1,0.5,0.5,0.8,0.8,1c0.9,0.7,1.8,1.4,2.3,2.4
	c0.5,1,0.6,2-0.2,3c-0.4-0.9-1.2-1.6-1.4-2.6c-0.2-0.9-1.1-0.8-1.7-1.1c-0.1-0.1-0.2,0.1-0.3,0.2c-0.1,0.2,0.1,0.3,0.2,0.4
	c0.8,0.8,0.8,0.8,0.9,1.6c-0.1,0-0.1,0.1-0.2,0c-1.7-1.1-1.7-1.1-2.5,0.7c-0.2,0.5-0.4,1.3-0.8,1.1c-0.5-0.3,0.4-0.7,0.5-1.2
	c0.1-0.3,0.4-0.6,0.5-1c0.1-0.4,0-0.6-0.5-0.8c-0.4-0.1-0.9,0.2-1.3-0.3c-0.1-0.2,0,0.5-0.2,0.6c0,0-0.1-0.1-0.1-0.1
	c-0.1-0.4,0.1-1-0.4-1c-0.4,0-0.4,0.7-0.5,1.1c-0.1,0.7,0,1.3,0.2,2c0.1,0.3,0.2,0.7,0.7,0.7c0.2,0,0.4-0.2,0.3,0.1
	c-0.3,0.9,0.4,1.3,0.8,2c0.5,0.8,1.1,1.5,0.6,2.8c-0.5-1-0.9-1.8-1.4-2.6C230.1,482.1,230,482.1,229.8,482.3c0-0.3,0-0.7-0.2-1
	c-0.9-1-1.1-2.3-1.5-3.5c-0.1-0.4,0-0.9-0.6-0.8c-0.5,0.1-0.5,0.7-0.4,1.1c0.2,1.6,0.7,3.1,1.7,4.4
	C229.3,483.2,229.6,483.1,229.8,482.3z M183.3,478.8c-1.2,0.3-1,1.6-1.6,2.3C182.8,480.7,182.9,479.7,183.3,478.8
	c-0.1-1.3,0.7-2.4,0.9-3.7C183.5,476.2,182.7,477.3,183.3,478.8z M177.8,452c0,0.1-0.1,0.3,0,0.3c0.7,0.2,1.4,0.1,1.9-0.3
	c0.4-0.3,0.6-0.9,0.2-1.5c0.5-0.7,0.9-1.3,1.4-2.1c-0.8,0-1,0.7-1.6,0.9c0.1,0.4-0.9,0.9,0.2,1.2c-0.5,0.4-1.1,0.8-1.6,1.3
	c0.1-0.4,0.5-0.6,0.5-0.9c-0.3-0.3-0.5,0.1-0.8,0c-0.4-0.1-0.5,0.4-0.6,0.7C177.2,452,177.5,451.9,177.8,452z M205.2,460.5
	c0.4,1.1,1.2,0.4,1.6,0.2c0.6-0.3-0.1-0.6-0.2-1c-0.1-0.2-0.3-0.4-0.6-0.3C205.6,459.7,205.1,459.9,205.2,460.5
	c-0.5-0.5-0.8,0-1,0.4c-0.1,0.2-0.1,0.5,0.2,0.5c0.5,0,0.9-0.1,0.8-0.7C205.3,460.6,205.2,460.6,205.2,460.5z M206.7,463.5
	c0.3,0.2,0.6,0.5,1,0c0.3-0.5,0.2-1.2,0-1.6c-0.3-0.4-0.6,0.1-0.8,0.2C205.7,462.5,206.6,463,206.7,463.5c-0.5-0.6-1-1.2-1.9-0.5
	C205.3,463.6,206,463.5,206.7,463.5z M178.1,457.8c0-1.2-0.9-1.6-1.6-2.3c0.2,0.9,0.6,1.7,0.9,2.5c0.1,0.2,0.3,0.3,0.5,0.1
	c-0.1,0.6-0.3,1.3,0.8,1.1c-0.3,0.3-0.1,0.6,0.1,0.8c0.5,0.7,1.2,1.2,2,1.7c0.2,0.2,0.7,0.5,1,0.3c0.3-0.2,0.1-0.6,0.1-1
	c0-0.5-0.1-0.9-0.1-1.3c0-0.8-0.3-0.9-1-0.6c0.4-0.6,0-1.6-0.7-1.9c-0.2-0.1-0.4-0.3-0.6-0.1c-0.2,0.2-0.3,0.4-0.2,0.7
	c0.2,0.5,0.4,0.9,0.7,1.5c-0.5-0.1-0.7-0.6-1.1-0.2C179,458.4,178.9,458,178.1,457.8z M209.4,470.1c-0.2,0.6,0,1.2,0.2,1.9
	c0.6-0.5,1.1-1.1,0.9-1.8c-0.2-0.7-0.2-1.3-0.3-2c-0.3-0.2-0.1-0.4-0.1-0.7c0-0.8-0.3-0.7-0.9-0.1c0.4-1.1-0.6-1.5-0.9-2.2
	c-0.2,0.7-0.5,1.4-0.5,2.1c0,0.5,0.1,1.5,1.2,1c0.3-0.2,0.8-0.1,1.1-0.1c-0.3,0.3-0.6,0.7-0.5,1.2
	C209.7,469.8,209.6,470,209.4,470.1c0-0.1,0.1-0.2,0.1-0.3c0.1-0.4,0.1-0.9-0.4-1c-0.3-0.1-0.6,0.1-0.5,0.3
	C208.7,469.5,208.5,470.3,209.4,470.1z M221.7,442.8c-0.2-0.2-0.3-0.5-0.5-0.7c-0.4-0.4-0.9-0.2-1.3-0.2c-0.1,0-0.3,0.3-0.1,0.3
	c0.6,0.3,0.2,1.8,1.5,1.1c0.3-0.2,0.2,0.2,0.3,0.3c0.6,1.1,1.6,1.4,2.7,1.5c-0.3-0.4-0.7-0.7-1.2-0.8
	C222.2,444.1,221.8,443.6,221.7,442.8c0.6,1.3,2.1,1.3,3.1,2.2c0-0.3,0.1-0.5,0-0.6c-0.7-1-1.8-1.6-2.8-2.2
	C221.6,442,221.7,442.5,221.7,442.8z M204.2,458c-0.1,0.4,0,0.7,0.4,0.8c0.4,0.1,0.7-0.2,0.7-0.5c0.1-0.6-0.4-0.8-0.7-1.2
	C204.4,457.5,204.3,457.7,204.2,458c0.1-0.5,0.1-0.9-0.2-1.4c-0.1-0.2-0.1-0.4-0.4-0.4c-0.2,0-0.4,0.1-0.5,0.3
	c-0.5,0.8-0.5,2.6,0.1,3.4c0.2,0.3,0.3,0.4,0.6,0.1c0.2-0.3,0.9-0.6,0.3-1.2C203.9,458.5,203.9,458.2,204.2,458z M225.7,448.3
	c0.8,0.9,1.8,0,2.8,0.3c-1.1-0.3-1.7-1.2-2.6-1.6c-0.2-0.1-0.4,0.1-0.4,0.4C225.4,447.7,225.5,448.1,225.7,448.3
	c-0.2-0.5-0.5-0.6-1.1-0.3c-0.1-0.5,0.5-0.6,0.4-1.1c-0.9,0-1.8-0.1-2.7-0.3c-0.2-0.1-0.7-0.2-0.6,0.4c0.1,1.4,1,2.1,2.4,2
	c0.4,0,0.8-0.2,1.3-0.2C225.6,448.9,225.8,448.7,225.7,448.3z M212.9,470.5c0-0.2,0-0.4,0.1-0.5c0.1-0.4,0-0.7-0.4-0.9
	c-0.1-0.1-0.3-0.1-0.3,0.1c-0.1,0.5-0.2,1.1,0.1,1.5C212.5,471,212.7,470.5,212.9,470.5c0.1,0.1,0.1,0.3,0.2,0.3
	c0.7,0.3,1.3,0,1.4-0.8c0.2-1.6,0.7-3.2-0.1-4.8c-0.1-0.2,0.5-0.6-0.2-0.7c-0.5,0-0.5,0.4-0.6,0.7c-0.2,0.6-0.4,1.3-0.6,1.9
	c-0.3,0.7-0.4,1.3,0.3,1.9C213.9,469.6,213.6,470.2,212.9,470.5z M178.3,438.2c1.5-1.6,2.2-3.7,4.1-5.1c-0.5-0.1-0.7,0.1-0.9,0.3
	c-2.4,2-3.8,4.8-6,6.9c-0.1,0.1-0.2,0.3-0.1,0.5c0.1,0.1,0.3,0.1,0.5,0c0.4-0.2,0.6-0.6,0.9-1c-0.3,0.6-0.1,0.8,0.5,0.5
	c0.9-0.5,1.7-1,2.5-1.5c0.2-0.1,0.4-0.4,0.2-0.8c-0.6,0.4-1.1,0.8-1.6,1.2c0.3-0.5,0.7-0.9,1.1-1.2c1.2-0.8,2.4-1.5,3.3-2.7
	c0.2-0.3,0.6-0.5,0.5-1c-0.1-0.3-0.4-0.6-0.7-0.7c-0.5-0.1-0.6,0.4-0.8,0.7C180.9,435.7,179.9,437.2,178.3,438.2z M210.6,449.8
	c-0.2-0.6,0.4-1.1,0.2-1.9c-0.5,0.4-0.7,0.9-0.9,1.3c-0.1,0.2-0.2,0.5,0,0.7C210.2,450.1,210.4,449.8,210.6,449.8
	c0,0.3-0.4,0.6-0.2,1c0.4,0.9,0.1,1.7-0.5,2.3c-0.7,0.6-0.7,1.2-0.1,1.9c-0.9-0.8-1-0.8-1.5,0.3c-0.2,0.4-0.3,0.7-0.4,1.1
	c-0.2,0.4-0.2,0.8,0.3,1.1c0.8,0.5,1.3-0.2,2-0.4c0.6-0.2,0-0.6,0-0.8c0.5,0.4,0.9,0.4,1-0.4c0.1-0.5,0.2-1,0.3-1.6
	c0.4-1.4,1.1-2.7,1.3-4.3c0.1-1.1,0.4-2.3,0.6-3.4c0.1-0.3,0.1-0.8-0.2-1c-1.4,1.9-1.4,1.9-0.9,4c0.1,0.5,0.4,1.1-0.1,1.7
	c-0.6-0.8-0.4-1.7-0.9-2.4C210.8,449.1,211.1,449.7,210.6,449.8z M188.2,452.4c0.1,0,0.3,0.1,0.3,0.1c0.6-1.5,2-2.4,3.1-3.4
	c0.5-0.5,0.5-1.3-0.2-1.7c-0.2-0.2-0.2-0.2-0.2-0.4c-0.2-0.9-0.2-1.8-0.1-2.7c-0.4,0-0.6,0.3-0.9,0.5c-0.7,0.5-1.5,1-0.9,2.1
	c0.1,0.2,0.3,0.9-0.6,0.7c-0.4-0.1-1,0.8-1,0.9c0.6,0.9-0.3,1.4-0.4,2.2c-0.2,0-0.3,0.5-0.6,0.3c0-0.6,0.3-1.1,0-2
	c-0.5,1.8-1,3.4-1.4,5c-0.4-0.2-0.2-0.5-0.2-0.7c0-0.4-0.2-0.2-0.4,0c0.4-1.6,1.5-3.1,1.5-4.9c-1.9,0.9-2.4,1.9-1.9,3.9
	c0.1,0.2,0,0.4-0.1,0.6c-0.4,0.5-0.4,0.5,0.4,0.7c-0.4,0.6-0.9,1.3-1.3,1.9c0.1-0.5-0.2-0.7-0.5-0.9c-0.2-0.1-0.4,0.1-0.4,0.2
	c0.3,1-0.6,0.4-0.9,0.7c0.3-1,0-1.1-1.9-0.9c0.3-0.3,0.7-0.6,0.5-1c-0.2-0.4-0.7-0.2-1.1-0.2c-0.2,0-0.4,0-0.5,0
	c-0.2,0-0.5,0-0.5,0.2c0,0.1,0.1,0.3,0.2,0.4c0.7,0.7,1.3,1.7,2.8,0.9c-0.2,0.3-0.2,0.4-0.3,0.5c-0.1,0.2-0.7,0.1-0.3,0.6
	c0.3,0.3,0.5,0.2,0.8-0.1c0.1-0.1,0.2-0.3,0.3-0.4c-0.1,0.6-0.6,1-0.7,1.6c0,0.2-0.2,0.4,0,0.6c0.3,0.3,0.5,0,0.7-0.2
	c0.2-0.1,0.4-0.3,0.7-0.1c-0.3,0.3-1.2,0.3-0.7,0.9c0.4,0.6,1.3,0.5,2,0.9c0.3,0.2,0.5-0.4,0.9-0.5c0.2,0.4,0.4,0.7,0,1.1
	c-0.3,0.2-0.1,0.6-0.1,0.9c-0.7,0.2-1.3,0.5-1.7,1.1c-0.3,0.4-0.1,0.7,0.4,0.6c0.7-0.1,1.6-0.2,2-1c-0.1,0.3,0,0.6,0.4,0.5
	c0.4-0.1,0.9,0,1-0.6c0.3-1.5,1-2.8,1.9-4.1c0.6-0.9,0.2-2.8-0.6-3.5C188.3,453.3,188.2,452.8,188.2,452.4z M229.3,470.8
	c-0.7-0.1-1.2,0.1-0.8,0.8c0.5,0.8,0.8,1.7,1.2,2.6c0.5,1.2,1.5,1.8,2.7,2c0.5,0.1,0.7,0,1-0.4c0.3-0.5-0.1-0.6-0.4-0.8
	C231.4,473.9,230.6,472.1,229.3,470.8c0.2,0.4,0.5,0.8,1.2,0.7c-0.5-2.1-0.1-4.2-0.7-6.5c-0.3,0.7-0.3,1.3-1,1.6
	c0.5-0.5,0.5-1.1,0.3-1.7c-0.3-0.8-0.6-1.5-1-2.2c-0.2-0.4-0.4-0.5-0.7-0.1c-0.2,0.2-0.4,0.6-0.8,0.3c-0.3-0.2-0.5-0.5-0.3-0.9
	c0.4,0,0.2,0.8,0.6,0.6c0.4-0.1,0.7-0.5,0.7-1c0.1-0.8-1.1-2.2-1.9-2.4c-0.2,0-0.6-0.3-0.7,0c-0.2,0.3,0.2,0.5,0.3,0.7
	c0.1,0.1,0.4,0.3,0.2,0.6c-0.8,0.8-0.9,1-0.1,1.8c0.6,0.7,1.3,1.3,2,2.1c-1.2-0.2-0.8,0.7-1,1.5c0-1,0.1-1.7-0.6-2.2
	c-0.4,0.2,0.3,0.5-0.2,0.7c-0.1-0.8-0.8-0.6-1.5-1c0.2,1-0.1,2,1.1,2.3c0.2,0,0,0.2,0.1,0.2C226.1,467.9,227,470,229.3,470.8z
	 M209.5,437.1c-1.9,0.7-2.4,1.4-1.7,2.4c-0.7-0.4-1.1,0-1.6,0.4c-0.4,0.4-0.8,0.8-1.1,1.2c-0.6,0.8-1.5,1.5-1.7,2.5
	c-0.2,1-0.4,2.1-0.7,3.1c-0.3,1.3,0.5,3,1.5,3.4c-0.2,0.3-0.7-0.1-0.7,0.2c0,0.6,0.1,1.3,0.6,1.6c0.5,0.3,0.7-0.3,0.9-0.6
	c1.7-2.9,4-5.4,6.1-8.1c0.5-0.7,1.1-1.3,1.4-2.1c0.2-0.5,0-0.6-0.5-0.5c-1.5,0.3-2.8,0.7-2.9,2.7c-0.6-1.9,0.2-2.9,2-3.3
	c1.8-0.4,1.9-0.6,0.8-2c0,0,0-0.1-0.1-0.1c-0.6-0.4-1.2-1-2.1-0.5c-0.7,0.5-1.4,1-0.8,2c0.1,0.2,0.1,0.4-0.1,0.5
	c-0.2,0.1-0.4-0.1-0.4-0.3c-0.1-0.3-0.1-0.5,0-0.8C208.9,438.3,209.2,437.7,209.5,437.1z M166,433c0.6-0.1,0.8-0.4,1.1-0.7
	c0.9-0.9,2-1.5,3.2-1.9c0.9-0.4,1.2-0.9,0.9-1.8c-0.3-0.7,0-1.3,0.3-1.9c0.1-0.4,0.5-0.7,0.4-1.2c-0.7,0.5-0.7,1.2-1.2,1.7
	c0.2-0.6,0.3-1.3,0.7-1.8c0.4-0.6-0.1-0.7-0.4-0.7c-1.3-0.1-2.2,0.5-2.8,1.7c-0.3,0.6-0.6,1.2-1.2,1.6c-0.6,0.4-0.8,1.2-0.9,1.9
	C166,430.8,166,431.8,166,433z M167.3,446.1c1.7-3,3.8-5.7,5.5-8.7c0.4-0.7,0.5-1.7,0.9-2.8c-2,1.8-3.1,3.8-3.3,6.3
	c-0.5-0.4-0.1-0.9-0.6-1.1c-0.6,1.1-1.2,2.2-1.8,3.2c-0.1-0.1-0.2-0.1-0.3-0.2c1.5-2.7,2.9-5.5,5-7.8c0.5-0.6,1.2-1,1-2
	c-0.4,0-0.5,0.3-0.7,0.5c-1.1,1.4-2.2,2.7-3.1,4.2c-0.9,1.4-1.7,2.7-2.8,4c-0.4,0.4-1,0.9-0.7,1.6
	C166.8,444.2,167.2,445.1,167.3,446.1z M203.9,440.1c1-0.9,1.6-2.1,2.5-3c1.1-1.1,1.3-2.2,0.6-3.5c-0.1-0.2-0.2-0.5-0.3-0.7
	c-0.2-0.6-0.7-1-1.2-0.9c-0.6,0.1-0.4,0.7-0.4,1.2c-0.1,2-0.5,3.9-0.9,6c-0.3-0.5-0.5-0.8-0.4-1.3c0.2-1,0.3-2,0.5-2.9
	c0.1-0.6-0.4-1-0.2-1.5c0,0-0.3-0.2-0.4-0.2c-0.4,0-1.3,1.6-1.2,2c0.1,0.2,0.2,0.4,0.5,0.3c0.2,0,0.4-0.4,0.4,0
	c0.1,0.3-0.1,0.4-0.4,0.3c-0.4-0.1-0.4,0.3-0.3,0.5C203.2,437.6,203,439,203.9,440.1z M216.5,455.2c-1,1.2-2,2-1.6,3.5
	c0.3,1.2,0.6,2.4,0.7,3.6c0.1,1.5,1,2.1,2.3,2.6C218.5,461.6,216.8,458.6,216.5,455.2z M180.7,479.4c-0.2-0.6-0.7-1.1-0.1-1.6
	c0.2-0.1-0.1-0.5-0.3-0.6c-1-0.8-1.2-1.9-1.3-3.1c0-0.4,0.1-1-0.5-0.9c-0.7,0.1-0.3,0.7-0.3,1c0.1,0.9,0.2,1.9-0.1,3
	c-0.5-1.4-0.2-2.6-0.7-3.6c-0.2,3.1,0.4,6,3,8.3c0.2-0.7,0.8-1.2,1.2-1.9c0.4-0.6,0.6-1.2,0.7-1.9c0-0.3-0.1-0.7-0.4-0.8
	c-0.3-0.1-0.5,0.3-0.5,0.6C181.5,478.5,181,478.8,180.7,479.4z M201,452.3c-0.4-0.4-0.5-0.8-0.4-1.2c0.1-1.2-0.1-2.4-0.8-3.4
	c-0.2-0.3-0.4-0.8-0.9-0.5c-0.5,0.2-0.6,0.5-0.5,1c0.1,1.3,0.1,2.7,0.2,4c0.1,0.9,0.6,1.6,1.2,2.2c0.6,0.5,0.6-0.6,1.1-0.6
	c0.2,0,0.4,0.1,0.6,0.1c0.5-0.2,0.9-0.4,0.6-1.1c-0.3-0.7-0.6-1.4-1.3-1.9C200.5,451.4,201.3,451.7,201,452.3z M189.6,439.1
	c-1.7,1.1-1.9,2.7-2.6,4.1c-0.5-0.6-0.5-0.6-1.3-0.1c0.4-0.8,0.9-1.5,1.4-2.2c0.5-0.6,0.6-1.6,0.2-2c-0.9-0.6-0.3-1.2-0.2-1.8
	c0.1-0.3,0.2-0.5,0.1-0.8c0-0.4-0.1-0.9-0.5-0.9c-0.6-0.1-0.5,0.5-0.6,0.8c0,0.3-0.1,0.7,0,1.1c0.4,2,0,3.9-0.9,5.8
	c-0.4,0.7-0.4,1.4,0,2.1c0.4,0.6,0.7,0.8,1.2,0c0.5-1,1.1-2,1.7-2.9C188.7,441.4,189,440.3,189.6,439.1z M174.5,477
	c-0.4,2.3-1.9,3.8-2,5.9c-0.5-1.7-0.1-3.2,0.2-4.8c-0.9,1.3-1.7,2.5-1.4,4.2c0.3,1.5,0.8,2.9,0.9,4.4c1-2.4,1.9-4.8,2.6-7.3
	C175.1,478.7,175.1,478,174.5,477z M170,445.1c0.5-1.7,1.8-2.9,2.3-4.5c-2.3,1.6-3,4.3-4.5,6.5c0.5-0.1,1-0.3,1.5-0.2
	c1.1,0.3,1.6-0.4,2-1.3c0.4-0.9,0.8-1.7,1.1-2.6c0.3-0.8,1-1.4,1-2.5C171.9,441.9,171.2,443.7,170,445.1z M171,431.3
	c-1.3,0.3-2.5,0.9-3.5,1.8c-0.5,0.4-1.4,0.7-1.4,1.3c-0.2,1.3-0.6,2.5-0.8,3.7c0,0.3-0.2,0.7,0.1,0.9c0.3,0.2,0.6-0.2,0.7-0.4
	c0.9-1.3,1.6-2.6,2.2-4.1C168.9,433.3,169.5,432,171,431.3z M177.4,461.3c-0.1-0.8-0.9-1.3-1.7-1.8c-0.6-0.3-1.4-0.5-1.9,0
	c-0.4,0.4,0,1.1,0.1,1.7c0.1,0.3,0.2,0.5,0.3,0.8c0.3,0.6,2.5,1.9,2.9,1.6c0.5-0.5,0.3-1.2,0.2-1.9
	C177.3,461.6,177.3,461.5,177.4,461.3z M184,411.5c0,0,0.1,0,0.1,0c0.3,1,0.6,1.9,0.9,2.9c0.2,0.9,1,1,1.7,0.9
	c0.7-0.1,0.4-0.8,0.5-1.2c0.2-1,0.1-1.9-0.9-2.5c-0.4-0.2-0.8-0.1-1.2-0.1c-0.1-0.9-1-0.5-1.4-0.9c-0.3-0.4-0.5,0-0.7,0.3
	c-0.2,0.3-0.3,0.6,0.1,0.8c0.3,0.2,0.6,0.5,1.1,0.8C184.1,412,184.1,411.8,184,411.5z M166.7,467.2c-0.6,2.2,0.6,4.3,0,6.5
	c-0.6-1.3-0.4-2.8-0.9-4.5c-1.1,2.4,0.5,4,0.8,6.2c0.8-1,1.6-1.6,1.1-2.9c-0.2-0.7-0.2-1.5-0.2-2.2
	C167.6,469.3,167.2,468.3,166.7,467.2z M191.9,449.4c-2.4,1.4-3.2,2.8-2.8,4.9c0,0.2,0.1,0.4,0.1,0.5c-0.1,0.3-0.5,0.7,0,0.9
	c0.5,0.3,0.7-0.3,1.1-0.5c0.3-0.2,0.3-0.5,0.5-0.8C191.6,452.9,191,451.2,191.9,449.4z M193.7,433c-1.8,2.7-2.5,5.3-2.4,7.8
	c0,0.2-0.1,0.6,0.2,0.7c0.3,0.1,0.5-0.2,0.7-0.4c1-1.2,1.2-2.6,1.3-4.2c-0.4,0.2-0.4,0.8-0.9,0.9C192.9,436.2,193.7,434.8,193.7,433
	z M153.2,465.8c0.1-1.3-0.6-0.5-1-0.6c-0.5-0.2-0.6,0.1-0.6,0.4c-0.1,0.7-0.2,1.4-0.2,2.1c0.5-0.1,0.9-0.1,1.3-0.2
	c2-0.2,2.7-0.8,3.1-2.7c0.1-0.3-0.1-0.6-0.3-0.4C154.8,465,153.4,464.4,153.2,465.8z M183.7,425.4c-3.3-0.3-5.2,0.1-6.3,1.6
	c0.8,0.1,1.6,0.2,2.5-0.4c-0.6,0.7-1,0.9-1.7,0.9c-0.6,0-1.3,0.1-1.9,0.2c-0.3,0-0.5,0.3-0.5,0.6c0,0.2,0.1,0.4,0.3,0.3
	c1-0.6,2.1-0.1,3.1-0.7c1.2-0.7,2.5-1.4,3.9-1.7C183.3,425.9,183.6,425.9,183.7,425.4z M224.7,469.9c1.8,1.9,2.1,4.4,2.4,6.9
	c0.9-0.7,1.5-1.4,1.2-2.6c-0.1-0.4-0.4-0.6-0.5-1C227.3,471.6,226,470.7,224.7,469.9z M172.1,461.6c-0.2,0.9,0.1,1.5,0.7,2
	c0.9,0.8,2.1,1.2,3,1.9c0.4,0.3,0.8,0.7,1.4,0.5c0.3-0.1,0.4-0.3,0.3-0.6c-0.1-0.7-0.6-0.9-1.1-1.1c-0.3-0.1-0.6-0.4-0.8-0.3
	c-0.7,0.5-0.9-0.2-1.2-0.5C173.9,462.6,173,462.2,172.1,461.6z M169.6,480.1c0.2-0.1,0.3-0.2,0.3-0.2c1.1-2.7,2.1-5.3,2.6-8.2
	c0-0.3,0.1-0.6-0.3-0.7c-0.3,0-0.3,0.3-0.4,0.5c-0.3,1.2-0.6,2.5-0.9,3.7c-0.1,0.3-0.1,0.7-0.4,0.8c-0.4,0-0.4-0.4-0.5-0.7
	c-0.1-0.2-0.1-0.5-0.5-0.6C169.9,476.5,170.1,478.3,169.6,480.1z M178.5,468c-0.1,0-0.1,0-0.2,0c-0.1-0.4-0.2-0.8-0.4-1.2
	c-0.1-0.2-0.3-0.3-0.5-0.2c-0.2,0.1-0.2,0.2-0.2,0.4c0.2,1.2,1.4,2.3,2.6,2.4c0.9,0.1,1.2-0.2,0.8-1.1c-0.2-0.4-0.2-0.9-0.3-1.3
	c0-0.2,0-0.5-0.3-0.5c-0.5-0.1-0.8,0.6-1.4,0.3c-0.1,0,0,0.5-0.1,0.8C178.5,467.8,178.5,467.9,178.5,468z M178.5,432.7
	c-0.4,0.3-0.8,0.5-1.2,0.8c-1.5,1.1-2.5,2.5-2.9,4.4c0,0.3-0.1,0.5,0.1,0.7c0.3,0.2,0.5-0.1,0.6-0.3c1-1,1.6-2.2,2.4-3.5
	c-0.7,0.3-0.8,1.1-1.5,1.3C176.5,434.6,177.7,433.9,178.5,432.7z M180.5,432.2c0.3,0.2,0.6,0.1,0.9-0.1c0.9-0.7,1.9-1.2,3.1-1.1
	c0.3,0,0.7-0.2,0.8-0.6c0.1-0.4,0.5-0.8,0.2-1.2c-0.4-0.4-0.8-0.3-1.2,0c-0.5,0.3-1.1,0.5-1.6,0.9
	C181.7,430.7,180.9,431.2,180.5,432.2z M219.7,455.2c0.1,1.4,0.8,2.5,0.7,3.9c0,0.9,0.8,0.7,1.3,0.9c0.6,0.2,0.7,0,0.5-0.6
	c-0.4-1-0.8-2-1-3c-0.2-1.1-0.6-0.1-0.9-0.2C220.6,455.6,220.6,455.2,219.7,455.2z M222.7,434.6c0.6-0.1,0.6,0.3,0.8,0.6
	c0.2,0.3,0.4,0.6,0.7,0.3c0.2-0.2,0.6-0.7,0.2-0.9c-1.3-0.7-2.5-1.8-4.4-1.8c1.3,1.6,2.3,3.1,4.2,3.7
	C223.4,436.1,223.3,435.2,222.7,434.6z M232.5,442.4c-0.1-0.3-0.3-0.7-0.4-1c-0.3-1.2-1.3-1.2-2.2-1.3c-0.4-0.1-0.7,0.2-0.9,0.6
	c-0.1,0.4-0.2,0.9,0.2,1c0.9,0.4,1.8,0.8,2.7,1.1C232.2,442.8,232.5,442.8,232.5,442.4z M188.3,439.3c2-1.4,2.6-2.7,2-4.3
	C187.7,437.4,187.7,437.4,188.3,439.3z M176.6,442.1c-1.2,1.8-2.5,3.1-3.9,4.4c2.4-1.4,5.1-2.2,6.9-4.4c-0.7,0.3-1.3,0.7-2,1.1
	c-0.6,0.3-1,1-1.9,1C175.9,443.4,176.6,443,176.6,442.1z M183.7,443.7c0,0.1,0.1,0.1,0.1,0.2c-0.3,0.5-0.7,1-1,1.5
	c-0.2,0.3-0.3,0.6,0.1,0.8c0.3,0.1,0.7,0.2,0.9-0.3c0.1-0.2,0.1-0.3,0.1-0.5c0.2-1.2,0.3-2.4,1.1-3.5c0.4-0.5,0.6-1.3,0.4-2
	c-2.6,3.6-2.8,3.8-2.5,4.7C183.2,444.3,183.5,444,183.7,443.7z M226.8,482.8c0.5,1.3,0.9,2.4,1.7,3.2c0.6,0.7,1.3,1.2,2.1,1.6
	c0.3,0.2,1.2,0.1,1.3-0.1c0.2-0.4-0.3-0.7-0.7-0.9c-0.5-0.3-1-0.5-1.3-1c-0.1-0.1-0.2-0.3-0.4-0.1c-0.4,0.2-0.4,0.2-0.4-0.2
	c0-0.3-0.1-0.5-0.3-0.6C228,484.2,227.6,483.5,226.8,482.8z M169.5,452.3c1.1-0.4,1.8-0.8,2.4-1.4c0.1-0.1,0.4-0.3,0.2-0.5
	c-0.2-0.4-0.2-0.4,0-0.6c0.8-1,2-1.7,3-2.6C172.1,447.6,171.1,450,169.5,452.3z M183.5,464.8c0-0.8-0.3-1.1-1.4-1.1
	c-0.6,0-1.5-0.1-1.3,1c0.1,0.5-0.4,1.2,0.7,1.2C183.1,465.8,183.5,465.6,183.5,464.8z M205.4,425.1c0,1,0,1.8,0.5,2.6
	c0.2,0.3,0.4,0.6,0.8,0.3c0.4-0.4,0.9-0.6,1.4-0.9c0.4-0.2,0.6-0.4,0.1-0.7C207.3,425.9,206.5,425.5,205.4,425.1z M177.2,469.5
	c0.8,1.9,0.8,1.9,1.8,1.4c-0.9-1.1-2-2.1-2.4-3.5c-0.1-0.3-0.3-0.5-0.7-0.3c-0.4,0.2-0.2,0.4-0.2,0.7c0.2,0.7,0.3,1.4,0.4,2.1
	c0.1,0.5,0.3,0.9,0.9,1.1C177.1,470.5,177.2,470.1,177.2,469.5z M223.4,463.9c0-1.1-0.3-1.9-0.7-2.7c-0.2-0.5-1.8-0.8-2-0.5
	c-0.2,0.3,0.3,1.8,0.7,2C222,463,222.7,463.2,223.4,463.9z M210.8,432c0.1-0.7-0.7-2.7-1.2-2.9c-0.3-0.1-0.7-0.2-0.9,0.1
	c-0.2,0.2,0.1,0.5,0.2,0.6c0.1,0.1,0.2,0.1,0.3,0.2c-0.2,0-0.5,0.1-0.6,0c-0.2-0.1-0.3-0.4-0.4-0.6c-0.1-0.2-0.2-0.4-0.5-0.2
	c-0.2,0.1-0.3,0.3-0.2,0.5c0.1,0.3,0.3,0.6,0.6,0.7C209,430.9,209.8,431.4,210.8,432z M162.2,460.6c-0.3,0.7-0.6,1.1-0.7,1.6
	c-0.5,1.8-0.8,3.6-1.7,5.2c-0.1,0.2-0.1,0.6-0.1,0.9c0,0.2,0,0.4,0.2,0.5c0.3,0.1,0.4-0.1,0.5-0.3c0.3-0.4,0.4-1,0.5-1.5
	c0.3-1.8,0.2-3.6,1.4-5.1C162.5,461.7,162.5,461.3,162.2,460.6z M167.8,462.1c-0.1,0.7-0.1,1.5-0.3,2.2c-0.2,1,0.3,1.8,1,2.4
	c0.1,0.1,0.3,0.3,0.5,0.2c0.2-0.1,0.1-0.4,0.1-0.6C169.3,464.8,168.3,463.6,167.8,462.1z M230.2,429.8c-1.6-1.4-3.6-1.8-5.6-2.1
	C226.1,429.4,228.3,429.4,230.2,429.8z M180.3,456.4c-1.2-0.9-2.2-1.8-2.9-2.9c-0.1-0.1-0.4-0.3-0.4-0.1c-0.2,0.5-0.8,0.9-0.2,1.6
	C177.6,456,178.7,456.4,180.3,456.4z M204.5,411.4c-1.1,0-1.3,0.2-1,1.2c0.1,0.3,0.1,0.7,0.2,1c0.1,0.3,0,0.6,0.4,0.6
	c0.3,0,0.5-0.2,0.6-0.5c0.1-0.4,0.3-0.8,0.5-1.3C205.5,411.7,205.3,411.4,204.5,411.4z M156.7,466.2c2-0.9,2.8-1.8,2.7-3
	C156.8,464,156.8,464.1,156.7,466.2z M185.9,469.7c1.6-1.4,1.6-3.2,2.1-5C186.1,466,186.1,467.7,185.9,469.7z M225.4,477
	c0.1-2.1-0.4-4-1.7-5.6c-0.1-0.2-0.2-0.5-0.6-0.2c-0.3,0.2-0.1,0.4,0,0.7c0.2,0.4,0.4,0.7,0.6,1.1
	C224.6,474.2,224.8,475.7,225.4,477z M209.2,459.8c0-0.8-0.8-1-1.3-1.4c-0.1-0.1-0.3-0.4-0.5-0.2c-0.2,0.2-0.3,0.4-0.2,0.7
	c0.2,0.5,0.4,1,0.6,1.4c0.2,0.4,0.1,1.2,0.7,1.1c0.5-0.1,0.5-0.8,0.6-1.3C209.1,460,209.1,459.9,209.2,459.8z M200.1,488.7
	c-0.1,0.5,0.2,1-0.6,1.3c-0.6,0.3-0.4,1.1-0.2,1.7c0.1,0.3,0.3,0.9,0.7,0.5c0.4-0.4,1.1-0.7,1-1.5C201,490,200.2,489.6,200.1,488.7z
	 M176.8,441.1c-0.8,0.1-1.6-0.1-2,0.5c-0.6,1.1-1.1,2.3-1.7,3.4C174.7,444.1,175.5,442.5,176.8,441.1z M216.2,465.7
	c-0.2,0-0.3,0.1-0.3,0.3c0.1,1,0.2,2.1,0.4,3.1c0,0.1,0.2,0.2,0.3,0.2c0.2,0,0.3-0.2,0.3-0.3c0.4-0.7,0.4-1.5,0.5-2.2
	C217.5,466.1,216.6,466,216.2,465.7z M209.1,479.7c-0.3-1.7-0.3-3.4-1.1-5c0.3,1.2,0.1,2.4-0.2,3.6
	C207.7,479.1,208.2,479.5,209.1,479.7z M157.6,457.7c-1.5,0.8-2.5,1.9-3.5,3.2C155.7,460.7,157.2,459.4,157.6,457.7z M181.7,475
	c0.2-0.3,0.3-0.4,0.4-0.6c0.6-0.9,0.2-1.7-0.8-2c-0.4-0.1-0.9,0.2-1.1,0.4c-0.3,0.3,0.2,0.5,0.4,0.7
	C180.8,474,181.2,474.4,181.7,475z M158.7,465.9c-1.6,0.8-3,1.5-3,3.5C156.9,468.4,158,467.6,158.7,465.9z M191.3,489.6
	c0.8-1.7,1.4-3.5,1.4-5.4C192.1,486,190.9,487.6,191.3,489.6z M183.7,449.9c-0.8,0.6-1.4,1.1-1.9,1.6c-0.2,0.2-0.4,0.5-0.1,0.8
	c0.5,0.5,1.6,0.3,1.8-0.4C183.8,451.3,183.8,450.7,183.7,449.9z M171.5,478c0.6-0.7,1-1.3,1.5-1.8c1-1.3,1.1-1.6,0.1-3.2
	C173.2,474.8,171.7,476,171.5,478z M212.6,471.4c-0.2,0.3-0.1,0.6-0.1,0.8c0.2,0.7,0.1,1.8,0.9,1.8c0.6,0,0.4-1.1,0.7-1.7
	c0.2-0.5,0.3-1-0.5-1.1c-0.9-0.2-0.6,0.6-0.8,0.9C212.6,472,212.9,471.6,212.6,471.4z M206,412.2c-0.2,0.6-1.1,1-0.3,1.8
	c0.3,0.3,0.6,1,1.1,0.8c0.4-0.2,0.8-0.4,0.4-1C206.8,413.3,206.4,412.8,206,412.2z M159.3,470.3c-0.5,1.7,0.1,3.4,0.3,5.1
	C159.8,473.7,160.3,472,159.3,470.3z M202.6,454.2c-0.1-0.2,0-0.7-0.3-0.5c-0.5,0.3-1,0.2-1.4,0.4c-0.3,0.2-0.8,0.5-0.8,1
	c0,0.3,0.2,0.5,0.4,0.5C201.2,456,202.6,454.8,202.6,454.2z M157.2,460.1c1.6-0.4,1.9-1.9,2.7-3.3
	C157.7,457.1,158.3,459.2,157.2,460.1z M183.4,470.6c-0.2,0-1.7,1.3-1.7,1.4c0,0.1,0.1,0.2,0.3,0.3c0.4,0.2,0.7,0.7,1.1,0.5
	c0.4-0.3,0.8-0.7,1-1.2C184.2,471.1,183.7,470.9,183.4,470.6z M205.7,470.6c-0.5,1.3-0.3,2.4,0.7,3.7
	C206.8,473.4,206.8,473.4,205.7,470.6z M170.3,473.6c0.3-0.8,0.5-1.5,0.8-2.3c0.2-0.6-0.2-0.6-0.6-0.7c-0.5-0.1-0.6,0-0.7,0.5
	C169.5,471.9,169.8,472.7,170.3,473.6z M183.5,414.8c0.1-0.1,0.2-0.2,0.3-0.2c0.5-0.7,0.1-1.3-0.5-1.8c-0.4-0.3-0.8-1-1.3-0.5
	c-0.6,0.6,0.2,1,0.6,1.5c0.2,0.3,0.4,0.5,0.6,0.7C183.3,414.7,183.4,414.7,183.5,414.8z M182.2,450.4c1.8-1.4,2-1.8,1.4-3.3
	C182.2,447.8,182.8,449.3,182.2,450.4z M190.4,441c-0.4,0.6-0.9,1.2-1.4,1.7c-1,1-1,1-0.7,1.8c0.6-0.6,1.2-1.2,1.9-1.7
	C190.8,442.3,191,441.8,190.4,441z M182.6,476.7c0.4-0.8,0.7-1.4,1-2.1c0.2-0.5-0.1-0.6-0.4-0.8c-0.3-0.2-0.4,0.1-0.6,0.3
	C182.1,474.9,181.7,475.7,182.6,476.7z M181.8,417.5c0.9,0,1.5-0.6,1.5-1.3c0-0.7-0.6-0.5-0.9-0.5c-0.3-0.1-1.3,1.1-1.2,1.5
	C181.2,417.6,181.6,417.5,181.8,417.5z M188.1,474.2c0.5-0.9,1-1.7,1.4-2.5c0.1-0.2,0.2-0.5,0-0.7c-0.2-0.1-0.4,0.1-0.6,0.2
	C188,471.7,187.7,472.6,188.1,474.2z M179.9,439.5c-1.3,0.5-1.8,1-2.4,2.5C179.6,441.2,180.1,440.7,179.9,439.5z M179.8,473.8
	c-0.2,0.1-0.3,0.2-0.3,0.4c0,1,0.6,1.8,1.3,2.5c0.1,0.1,0.3,0.1,0.4-0.1c0.8-1-0.9-1.2-0.7-2.1C180.5,474.2,180.1,474,179.8,473.8z
	 M201.5,490c0.8-1.5,1.1-2.8,0.7-4.2C201.7,487.1,201.1,488.3,201.5,490z M201.7,412.5c0.3,0.6,0.1,1.6,1,1.9
	c0.3,0.1,0.5-0.2,0.4-0.5c-0.2-0.7,0.1-1.7-0.9-2C201.8,411.7,201.6,411.9,201.7,412.5z M168,469c-0.2,1.2-0.3,2.4,0,3.6
	c0,0.2,0,0.6,0.4,0.4c0.4-0.2,0.6-1.6,0.3-1.8c-0.4-0.3-0.3-0.6-0.2-1C168.4,469.8,168.4,469.4,168,469z M179,444
	c-0.8,0.3-1.4,0.6-2,0.9c-0.6,0.3-1.3,0.4-1.8,1.1C178.3,445.6,178.3,445.6,179,444z M182,448.3c-1.1,0.9-1.4,1.9-1.6,3.1
	c0,0.2-0.2,0.5,0.1,0.6c0.3,0.1,0.5-0.1,0.6-0.3C181.5,450.6,181.9,449.6,182,448.3z M223.2,457.8c-0.1,0.9,0.1,1.7,0.5,2.5
	c0.1,0.2,0.2,0.4,0.4,0.4c0.3,0,0.3-0.3,0.4-0.5C224.9,459,224,458.5,223.2,457.8z M174.1,436.6c0.7-0.9,1.2-2,2-2.8
	c0.2-0.2,0.7-0.3,0.4-0.7c-0.3-0.3-0.7-0.2-1,0.2C174.7,434.2,174.4,435.4,174.1,436.6z M179.2,429.1c-0.3-0.2-0.4-0.3-0.4-0.3
	c-0.4-0.1-3.6,1.4-3.8,1.8c0,0.1,0,0.2,0.1,0.3c0.1,0.1,0.2,0.1,0.3,0C176.5,430.3,177.6,429.5,179.2,429.1z M157.6,470.7
	c1.4-0.9,1.2-2.4,1.5-3.8C158.1,467.9,158,469.3,157.6,470.7z M163.8,469.3c0.4,1.2-0.4,2.7,1,3.7
	C164.7,471.6,165.1,470.2,163.8,469.3z M178.5,419.5c0.9-0.1,2-0.3,3.2-0.4c0.3,0,0.6-0.2,0.6-0.5c0-0.2-0.2-0.3-0.4-0.2
	c-1.2,0.5-2.4,0.6-3.7,0.7c-0.2,0-0.4,0.1-0.4,0.4C177.8,419.6,178,419.5,178.5,419.5z M178.5,448.8c0,0-0.1-0.1-0.1-0.1
	c-0.3,0.3-0.7,0.8-1,0.8c-0.9-0.1-1,0.6-1.4,1c-0.2,0.3-0.2,0.5,0.1,0.7c0.3,0.2,0.5,0.2,0.7-0.1
	C177.4,450.3,177.9,449.5,178.5,448.8z M162.3,468.2c-1.4,0.8-1.6,2.3-0.6,3.4C162.3,470.6,161.6,469.4,162.3,468.2z M218.4,427.9
	c0.9,1,1.4,2.3,2.9,2.4C220.6,428.9,219.6,428.1,218.4,427.9z M170.6,435.1c1.4-0.5,3.1-2.7,2.8-3.6
	C172.5,432.8,171.3,433.7,170.6,435.1z M179.1,429.6c-1,0.5-2.2,0.6-3,1.6c-0.1,0.2-0.4,0.3-0.2,0.5c0.2,0.3,0.4,0.1,0.6,0
	C177.5,431.2,178.3,430.5,179.1,429.6z M204.3,467.6c-0.1-1.3-0.2-2.5-0.8-3.6C203.7,465.1,203,466.6,204.3,467.6z M202.8,484.2
	c-0.3,1.4,0.2,2.7,0.2,4.1C203.6,486.9,203.6,485.5,202.8,484.2z M224.9,429.3c-1.6-1.4-2.1-1.7-3-1.4
	C222.5,428.9,223.7,429.5,224.9,429.3z M177,459.2c-0.6-1.4-1.8-1.7-3.1-2c-0.2,0-0.6-0.2-0.6,0.1c-0.1,0.4,0.3,0.4,0.5,0.5
	C174.9,457.9,176,458.3,177,459.2z M184.6,422.8c-1.4-1-2.1,0.7-3.2,0.5C182.3,423.9,182.4,423.9,184.6,422.8z M165,469.4
	c1.1-1.3,0.3-2.5,0.3-3.7C164.6,466.9,164.8,468,165,469.4z M193,463.8c-1,0.7-1.1,1.5-1.3,2.3c-0.1,0.4,0.2,0.6,0.5,0.7
	c0.3,0.2,0.4-0.1,0.4-0.3C192.5,465.6,193,464.8,193,463.8z M209.4,450.5c-1,0.8-0.8,1.8-0.5,2.7C210,451.9,210,451.9,209.4,450.5z
	 M189.1,441.7c1-1,1.7-2,1.8-3.6C189.7,439.1,189.5,440.4,189.1,441.7z M171.7,427.9c0.9-1.1,1.5-2.2,2.1-3.4
	C172.6,425,171.5,426.6,171.7,427.9z M180.8,433.1c-1.8,0.7-2.2,2.5-3.2,3.9C178.8,435.8,179.6,434.3,180.8,433.1z M190.2,466.8
	c-0.8,0.4-1.2,1.2-1.3,2.6C190.1,468.7,190.3,468.2,190.2,466.8z M180,465.2c-0.7-0.4-0.4-1.3-1.3-1.4c-0.3,0-0.6,0.1-0.5,0.4
	c0.2,0.6,0.4,1.3,1,1.6C179.6,466,179.4,465.2,180,465.2z M157.5,463c1.6-0.4,2.1-0.7,2.7-1.6C158.5,461.4,158.1,461.7,157.5,463z
	 M189.9,473.8c-0.5,1.2-1.5,1.9-0.9,3.2C189.7,476.1,190.4,475.3,189.9,473.8z M184.2,464.2c-0.4-0.1-0.5,0.1-0.5,0.3
	c0,0.3-0.2,0.7,0.1,0.9c0.5,0.3,2-0.6,2-1.1c0-0.4-0.4-0.4-0.5-0.3C185,464.5,184.6,464.4,184.2,464.2z M181,467.2
	c0.1,0.8,0.3,1.4,0.6,2.1c0.5-0.6,1.1-1,1.4-1.8C182.2,467.7,181.6,467.4,181,467.2z M204.2,476.4c0.3,0.2-0.1,1,0.5,0.9
	c0.6-0.1,0.6-0.9,0.8-1.4c0.1-0.2-0.6-0.8-0.8-0.8C204.4,475.3,204.3,475.9,204.2,476.4z M205.3,465.6c-0.1,0-0.2,0.1-0.3,0.1
	c0.1,0.8,0.2,1.5,0.3,2.3c0.1,0.4,0.4,0.8,0.8,0.7c0.4-0.1,0.2-0.6,0.1-0.9C205.9,467.1,205.6,466.3,205.3,465.6z M198.3,490.2
	c0.3-1,0.4-1.8,0.4-2.6c0-0.4-0.3-0.5-0.6-0.6c-0.2-0.1-0.3,0.1-0.3,0.3C197.9,488.3,197.8,489.2,198.3,490.2z M210.7,429.9
	c-0.1-0.8,0.1-1.5-0.5-2.1c-0.5-0.4-0.8-0.1-1.1,0.2c-0.1,0.1-0.4,0.5-0.2,0.5C209.8,428.5,210.2,429.2,210.7,429.9z M223.5,453.2
	c0.4-0.4,1.3,0.3,1.3-0.3c0-0.7-0.9-0.8-1.5-0.9c-0.5-0.1-0.3,0.7-0.8,0.7C222.6,453.2,223.1,453.1,223.5,453.2z M229.7,443.4
	c-0.5-1.1-1.5-1.1-2.4-1.4c-0.1,0-0.3,0-0.3,0.2c-0.1,0.2,0,0.4,0.2,0.4C228,443,228.7,443.5,229.7,443.4z M185.4,465.8
	c-1.4,0.3-2.6,0.6-3.8,0.8c0,0.1,0,0.2,0.1,0.3C182.9,467.1,184.2,467,185.4,465.8z M194.4,481.4c0.5-1.1,0.2-2.1,0.2-3
	C193.8,479.3,193.5,480.2,194.4,481.4z M185,483.9c1.1-1.2,1.1-2.9,1.9-4.3C185.9,480.9,185.1,482.3,185,483.9z M216.6,436.1
	c0,0.8,0.3,1.6,0.6,2.3c0.1,0.3,0.4,0.4,0.6,0.1C218.1,438,217.3,436.3,216.6,436.1z M221.1,429.1c0.9,1.1,1.6,2.2,3,2.2
	C223.6,430.3,222.5,429.5,221.1,429.1z M179.3,416.3c0.4,0.2,0.6,0.2,0.7,0.3c0.3,0.2,0.6,0.7,0.9,0.1c0.2-0.3,0.7-0.7,0.4-1.1
	c-0.1-0.2-0.8-0.1-1.2,0C180,415.7,179.7,416,179.3,416.3z M188.1,436.3c0.5-0.5,1.1-1,1.6-1.5c0.3-0.2,0.4-0.5,0.1-0.8
	c-0.4-0.3-0.5,0.1-0.7,0.3C188.6,434.9,188.3,435.5,188.1,436.3z M218.7,475.2c0.2-1.3-0.9-1.6-1.3-2.3c-0.1-0.2-0.3-0.5-0.6-0.2
	c-0.2,0.2-0.2,0.5,0,0.7C217.6,473.8,217.9,474.7,218.7,475.2z M173.3,461.4c0.1-0.7-0.2-1.1-0.3-1.5c-0.1-0.3-0.4-0.4-0.7-0.4
	c-0.2,0-0.5,0-0.5,0.3c-0.1,0.3,0,0.6,0.3,0.8C172.4,460.8,172.8,461.1,173.3,461.4z M173.5,454.3c-1.5-0.8-2.1-0.6-2.2,0.9
	C172,454.9,172.7,454.7,173.5,454.3z M227.4,441.2c0.3-0.2,0.5-0.4,0.7-0.6c0.3-0.2,0.7-0.5,0.4-0.8c-0.2-0.3-0.8-0.5-1.1-0.3
	c-0.2,0.1-0.6,0.5-0.4,0.9C227.2,440.7,227.3,440.9,227.4,441.2z M178.4,480.6c0.1,0.7,0.2,1.2,0.4,1.7c0.1,0.2-0.1,0.6,0.3,0.7
	c0.2,0,0.3-0.2,0.5-0.4c0.2-0.2,0.3-0.4,0.1-0.7C179.4,481.4,179.1,480.9,178.4,480.6z M228.5,453.6c0-0.1,0.1-0.2,0.1-0.3
	c-1.1-0.3-2.3-0.5-3.4-0.8C226,453.7,227.3,453.3,228.5,453.6z M190.4,478.2c-1.2,1-1.3,1.5-0.7,2.4
	C190.1,479.9,190.6,479.2,190.4,478.2z M178.9,428.3c1.7-0.1,2.8-0.9,3.8-1.7C181.4,426.9,180.2,427.4,178.9,428.3z M169.5,465.5
	c0,0.6,0,1.2,0,1.8c0,0.3,0.2,0.4,0.5,0.5c0.3,0,0.3-0.2,0.4-0.4C170.9,466.3,170.1,466,169.5,465.5z M218.8,444
	c-0.1,0-0.2,0.1-0.2,0.1c-0.2,0.2,0.3,2,0.6,2.1c0.2,0.1,0.5,0.1,0.6-0.1c0.2-0.3,0-0.7-0.1-1C219.5,444.7,219.3,444.3,218.8,444z
	 M184.5,448.6c0.3-0.4,0.6-0.8,0.9-1.1c0.1-0.2,0.3-0.4,0-0.5c-0.2-0.2-0.4-0.6-0.8-0.5c-0.2,0-0.5,0.3-0.4,0.5
	C184.5,447.3,184.1,447.8,184.5,448.6z M184.5,472c-0.5,0.2-0.9,0.6-1,1.1c-0.1,0.3,0.3,0.7,0.5,0.6c0.5-0.2,0.8-0.6,1-1.1
	C185.2,472.3,184.8,472.1,184.5,472z M209.9,461.2c-1,0.6-1.1,1.8,0,2.5C209.8,462.8,210.1,462,209.9,461.2z M184.9,431.6
	c-0.8,0.3-1.3,0.8-1.8,1.2c-0.3,0.3-0.2,0.5,0.1,0.7c0.3,0.3,0.5,0.3,0.7-0.1C184.2,432.9,184.7,432.4,184.9,431.6z M154.2,462.6
	c-0.7,0.3-1.4,0.1-1.8,0.7c-0.1,0.2-0.3,0.5-0.1,0.8c0.3,0.3,0.7,0.1,0.8-0.1C153.4,463.6,153.9,463.4,154.2,462.6z M206.3,453.7
	c-0.6,0.5-1,0.7-1.3,1c-0.3,0.3-0.2,0.6,0,0.9c0.1,0.3,0.3,0.4,0.6,0.4c0.4,0,0.3-0.4,0.3-0.7C206,454.9,206.2,454.4,206.3,453.7z
	 M169.7,449.1c0-0.1-0.1-0.1-0.1-0.2c-0.5,0.2-1.1,0.5-1.6,0.7c-0.2,0.1-0.5,0.2-0.4,0.4c0.1,0.2,0.3,0.5,0.5,0.6
	c0.2,0.1,0.4-0.1,0.5-0.2C168.9,449.9,169.3,449.5,169.7,449.1z M173.7,456.2c0.9,0.3,1.7,0.6,2.5,0.9
	C175.7,455.9,175,455.6,173.7,456.2z M180.4,418c-0.3-0.5-0.8-0.5-1.2-0.7c-0.3-0.2-0.5-0.2-0.7,0.2c-0.1,0.2-0.3,0.6-0.3,0.8
	c0.1,0.3,0.5,0.2,0.7,0.1C179.5,418.3,180,418.3,180.4,418z M182.7,418.7c1.7,0,2-0.2,2.1-1.4C184,417.4,183.4,417.9,182.7,418.7z
	 M209.6,425.2c-0.8-0.5-1.5-1.4-2.9-1C207.6,425,208.6,425.2,209.6,425.2z M211.9,437c-0.6-0.6-0.7-1.5-1-2.3
	C209.9,435.5,210.3,436.5,211.9,437z M203,431.1c1.3-0.7,1-1.6,0.8-2.7C203.3,429.3,203.1,430.1,203,431.1z M172.9,464.6
	c0.5,0.8,0.9,1.6,1.8,2.2C174.8,465.5,173.9,465,172.9,464.6z M193.5,429.8c-0.3-0.4-0.5-1-1-1.2c-0.4-0.1-0.8,0.2-0.8,0.5
	c0.1,0.7,0.8,0.6,1.2,0.9C193.1,430.1,193.3,430.1,193.5,429.8z M170.7,449.7c-0.9,0.1-1.2,0.8-1.7,1.3c-0.2,0.2-0.5,0.4-0.2,0.6
	c0.3,0.3,0.6,0.1,0.8-0.2C169.9,450.9,170.3,450.3,170.7,449.7z M178.4,460.7c0.1,0.6,0,1.1,0.2,1.5c0.2,0.4,0.6,0.6,1,0.4
	c0.4-0.2,0-0.6-0.1-0.8C179.3,461.4,179,461,178.4,460.7z M195.9,484.3c-0.2,1.1-0.3,1.9-0.5,2.8
	C196.7,486.3,196.7,486.3,195.9,484.3z M191.4,435.6c0.4-0.9,0.5-1.9-0.2-3C191,433.8,191.6,434.7,191.4,435.6z M211.5,474
	c-0.3,0.9,0.6,0.9,0.8,1.4c0.1,0.2,0.4,0.6,0.7,0.2c0.3-0.3,0-0.6-0.2-0.8C212.5,474.3,211.9,474.4,211.5,474z M215.3,429.1
	c0.3,1.4,1.7,0.8,2.4,1.3C217.1,429.7,216.2,429.3,215.3,429.1z M232.9,472.6c0-1-0.2-1.8-1-2.6
	C231.9,471.1,232.1,471.9,232.9,472.6z M197.6,484.3c0.4-0.6,0.5-1.2,0.6-1.8c0-0.1-0.1-0.3-0.1-0.4c-0.2-0.1-0.3,0-0.5,0.1
	C196.9,482.9,197.3,483.5,197.6,484.3z M192.7,449.6c-0.1,0.7-0.2,1.2-0.3,1.7c0,0.3-0.4,0.9,0.1,1c0.4,0.1,0.2-0.6,0.3-0.9
	C193.1,450.8,193.6,450.3,192.7,449.6z M191.1,479.1c0.6-1.2,0.6-1.6,0.5-2.4C190.7,477.6,190.7,477.6,191.1,479.1z M185.2,418.1
	c0.4-0.2,0.6-0.3,0.8-0.4c0.4-0.2,0.8-0.5,0.9-1c0-0.2-0.1-0.3-0.3-0.2c-0.5,0.2-1.1,0.3-1.2,1C185.3,417.6,185.3,417.7,185.2,418.1
	z M200.7,482c0.2-0.8,0.5-1.4,0.2-2c-0.1-0.2-0.2-0.4-0.5-0.3c-0.2,0.1-0.3,0.3-0.2,0.4C200.4,480.7,200.3,481.4,200.7,482z
	 M204.1,487.5c-0.1,0.7-0.8,1.5,0.2,2.2c0.1,0.1-0.1,0.5,0.3,0.7C204.9,489.3,204.3,488.4,204.1,487.5z M188,435.1
	c0.3-0.6,0.6-1,0.8-1.4c0.2-0.4,0.1-0.6-0.2-0.8c-0.4-0.2-0.6,0.2-0.7,0.4C187.9,433.9,187.8,434.4,188,435.1z M170.7,470.1
	c0.5,0,0.7-0.1,0.7-0.6c0-0.5-0.3-0.7-0.7-0.6c-0.5,0-0.5,0.5-0.5,0.9C170.1,470.2,170.5,470.1,170.7,470.1z M187.5,478.9
	c1.1-0.9,1.2-1.1,0.8-2.2C188,477.4,187.4,477.9,187.5,478.9z M185.1,408.7c0-0.1-0.1-0.2-0.1-0.2c-0.4,0.2-0.9,0.3-1.3,0.5
	c-0.4,0.2-0.2,0.6,0,0.8c0.3,0.3,0.4,0.1,0.6-0.1C184.6,409.3,184.9,409,185.1,408.7z M180.2,424.4c-0.9-0.3-1.4,0.2-2.1,0.2
	c-0.3,0-0.3,0.2-0.2,0.5c0.1,0.3,0.3,0.5,0.5,0.2C178.9,424.9,179.5,424.8,180.2,424.4z M208.6,431.2c-0.1,0-0.2,0.1-0.2,0.1
	c0,0.1,0,0.3,0.1,0.4c0.5,0.3,0.9,0.8,1.6,0.8c0.1,0,0.2-0.2,0.2-0.2c-0.2-0.6-0.9-0.6-1.3-0.9C208.8,431.3,208.7,431.3,208.6,431.2
	z M219.9,450.3c0.2,0.9,0.9,1.8,1.7,2C221.5,451.6,221.5,451.6,219.9,450.3z M160.3,458.9c0.6-0.8,1.7-1.2,2.3-2
	C161.5,457.2,160.8,457.9,160.3,458.9z M190.1,484.9c1-0.6,1.1-1.5,0.7-2.5C190.5,483.3,190.3,484.1,190.1,484.9z M169.4,470.2
	c0.1-0.7,0.8-1.1,0.3-1.7c-0.1-0.2-0.4-0.3-0.5-0.1C168.9,468.9,168.8,469.4,169.4,470.2z M185.5,409.3c-0.3,0-0.8-0.1-0.9,0.6
	c-0.1,0.6,0.4,0.5,0.7,0.5c0.6,0.1,0.7-0.4,0.7-0.8C186.1,409.3,186,409.1,185.5,409.3z M174.4,474.5c0.2-0.8,0.6-1.2,0.2-1.7
	c-0.1-0.2-0.7-0.2-0.8,0.1C173.7,473.3,174,473.8,174.4,474.5z M194.2,471.9c0.9-0.9,0.6-1.7,0.4-2.4
	C194.4,470.2,194.2,470.9,194.2,471.9z M184.7,487.8c0.4-0.8,0.6-1.7,0.8-2.7C184.5,486,184.5,486.9,184.7,487.8z M187,469.8
	c-1.2,0.4-0.6,1.6-1.5,2.4C187,471.7,186.5,470.5,187,469.8z M155.6,463.5c0.2,0.2,0.4,0,0.6,0c0.6-0.1,0.6-0.7,0.7-1.1
	c0-0.2-0.1-0.3-0.2-0.2c-0.4,0-0.7,0.4-0.8,0.7C155.7,463.1,155.4,463.2,155.6,463.5z M185.3,437.1c-0.4,1-0.7,1.9-0.7,3
	C185.4,439.3,185.7,438.4,185.3,437.1z M226.1,439.1c-0.3,0.7-1.1,1.2-0.1,1.7C226.6,439.9,226.6,439.9,226.1,439.1z M170.5,435.9
	c-1.2,0.4-1.6,1.1-2,1.9C169.3,437.4,169.9,436.7,170.5,435.9z M207.2,433.2c0.1,0.5,0.3,0.9,0.4,1.4c0,0.2,0,0.4,0.2,0.4
	c0.1,0,0.3-0.2,0.4-0.3C208.6,433.8,207.7,433.6,207.2,433.2z M198,476.4c0.1-1,0-1.9-0.4-2.8C197.5,474.6,197.7,475.5,198,476.4z
	 M228.6,436.5c-0.4,1.4-0.4,1.4,0.9,1.5C229.2,437.5,229.2,436.9,228.6,436.5z M209.7,473.4c0.1,1,0,1.7,0.4,2.4
	C210.3,475,210.7,474.2,209.7,473.4z M226.9,434.8c-0.5-0.3-0.9-0.6-1.3-0.8c-0.1-0.1-0.3,0.1-0.3,0.2c0.1,0.6,0.5,0.9,1,1.1
	C226.6,435.5,226.6,435,226.9,434.8z M174.4,472.3c0.2-0.1,0.7,0.1,0.6-0.4c-0.1-0.5-0.7-0.4-1-0.5c-0.2-0.1-0.5-0.1-0.5,0.3
	C173.5,472.2,173.9,472.3,174.4,472.3z M192.4,433.7c0.6-0.5,0.4-1.1,0.3-1.6c-0.1-0.3-0.3-0.5-0.5-0.4c-0.2,0.1-0.1,0.4-0.1,0.6
	C192.2,432.8,192.3,433.2,192.4,433.7z M218,470.6c-0.9,1-0.6,1.6,0.4,2.2C218.3,472.1,218.1,471.4,218,470.6z M162.4,466.2
	c0.6-0.8,1.1-1.6,1-2.8C162.9,464.4,162.6,465.3,162.4,466.2z M205.8,464.2c0.2,0.5,0.3,1.1,0.9,1.2c0.2,0,0.4-0.5,0.3-0.7
	C206.9,464,206.3,464.4,205.8,464.2z M195.9,489.8c0.2-0.3,0.3-0.5,0.4-0.6c0.3-0.5,0.1-0.9-0.1-1.3c0-0.1-0.2-0.2-0.3,0
	c-0.3,0.3-0.2,0.7-0.2,1.1C195.7,489.2,195.8,489.4,195.9,489.8z M206.2,477c-0.4,0.3-0.3,0.7-0.3,1.1c0,0.4,0.3,0.7,0.6,0.6
	c0.5-0.1,0.1-0.5,0.1-0.7C206.5,477.6,206.5,477.2,206.2,477z M197.6,477.6c-0.1,0.7-0.1,1.4-0.2,2.2
	C198.5,479.1,198.1,478.3,197.6,477.6z M220.3,430.8c1.1,0.9,1.7,1.1,2.9,0.8C222.1,431.3,221.3,431,220.3,430.8z M182.5,470.1
	c-0.8-0.2-1.1,0.4-1.5,0.7c-0.2,0.1-0.4,0.3-0.2,0.5c0.2,0.2,0.4,0.1,0.5,0C181.8,471,182.2,470.7,182.5,470.1z M230.1,428.9
	c0.6,0.6,1.2,0.4,1.8,0.4c0.1,0,0.2-0.2,0.1-0.3c-0.4-0.4-0.9-0.1-1.4-0.2C230.5,428.8,230.4,428.9,230.1,428.9z M169.5,437.8
	c-1.2,0.7-1.7,1.4-1.7,2.1C168.4,439.2,169.3,438.7,169.5,437.8z M201.7,438.5c-0.1,0.7-0.2,1.3,0.1,1.9c0.1,0.1,0.2,0.2,0.4,0.2
	c0.1,0,0.2-0.1,0.1-0.2C202,439.8,202.3,439.1,201.7,438.5z M178.6,472.1c0.5,0.5,1.1,0.2,1.6,0c0.1-0.1,0.2-0.3,0-0.4
	c-0.4-0.3-0.9,0-1.3,0.1C178.8,471.8,178.6,471.8,178.6,472.1z M218.2,446.4c-0.1-0.8,0.1-1.6-0.6-2.4
	C217.6,445,217.7,445.7,218.2,446.4z M203.7,470.7c0.2,0.8-0.2,1.7,0.7,2.4C204.3,472.1,204.1,471.3,203.7,470.7z M164.7,463.7
	c-0.5,0.9-1,1.7-1,2.7C164.2,465.6,164.6,464.7,164.7,463.7z M202.7,472.9c0.1,0.8,0.5,1.5,0.9,2.3
	C203.8,474.1,203.6,473.4,202.7,472.9z M219.5,433.3c-0.1-1.2-0.9-1-1.6-1C218.3,433,218.9,433,219.5,433.3z M163.6,461.4
	c-0.8,0.6-1.2,1.4-1.2,2.6C162.9,463,163.3,462.2,163.6,461.4z M214.9,451.3c0,0.3-0.1,0.5-0.1,0.8c0,0.3-0.4,0.6,0,0.9
	c0,0,0.2,0,0.3-0.1c0.2-0.3,0.5-0.7,0.3-1.1C215.3,451.6,215.3,451.4,214.9,451.3z M160.9,459.3c0.9,0,1.4-0.4,1.6-1.2
	C161.8,458.3,161.4,458.7,160.9,459.3z M224.7,457c-0.8-0.7-1.4-1.2-2-1.7C223.1,456,223.3,457.1,224.7,457z M152.5,471.9
	c-0.6,0.2-1.1,0.2-1.1,0.7c0,0.2,0.4,0.7,0.5,0.7C152.4,473.1,152.3,472.5,152.5,471.9z M178.8,431c-0.8,0.6-1.3,0.9-2.1,1.5
	C177.9,432.5,178.3,432,178.8,431z M203.1,471.7c0.3-0.6,0.2-1,0-1.4c-0.1-0.2-0.4,0-0.4,0.1C202.3,470.9,202.8,471.2,203.1,471.7z
	 M174.6,452.7c0.7,0.1,1.1-0.2,1.3-0.7c0.1-0.2-0.2-0.3-0.3-0.3C174.9,451.7,174.9,452.2,174.6,452.7z M210.4,478.7
	c-0.1-0.9,0.3-1.7-0.4-2.2C210,477.2,209.8,477.9,210.4,478.7z M193.6,485.2c-0.3,0.8-0.1,1.5,0,2.3
	C194.1,486.7,193.9,486,193.6,485.2z M207.4,477c0.1-0.5,0.2-1-0.1-1.5c0,0-0.2,0-0.3,0.1C206.7,476.2,207.3,476.6,207.4,477z
	 M216.9,434.3c-0.1,0.1-0.1,0.1-0.2,0.2c0.3,0.3,0.6,0.7,0.9,1c0.1,0.1,0.4,0.3,0.5,0.1c0.2-0.2,0-0.4-0.2-0.5
	C217.6,434.8,217.3,434.6,216.9,434.3z M171.5,462.1c0.1-0.8-0.1-1.4-1-1.7C170.7,461.2,170.9,461.7,171.5,462.1z M200.8,467.7
	c0-0.1,0-0.2,0-0.3c-0.1-0.5-0.1-1-0.6-1.3c-0.1,0-0.2,0.1-0.2,0.1c-0.1,0.5,0.3,0.9,0.5,1.3C200.5,467.6,200.6,467.8,200.8,467.7z
	 M185.7,474.1c-0.3,0.3-0.6,0.7-0.7,1.1c0,0.2,0.1,0.4,0.3,0.3c0.4-0.2,0.5-0.7,0.6-1.1C186,474.2,185.9,474.1,185.7,474.1z
	 M207.3,471.4c0.1,0.8,0.1,1.5,0.6,2.4C208.1,472.7,207.6,472,207.3,471.4z M181,448.1c0.1,0,0.3-0.1,0.4-0.1c0.5,0,0.6-0.4,0.8-0.7
	c0-0.1,0-0.3-0.2-0.3c-0.4,0-0.5,0.3-0.7,0.5C181.1,447.6,180.9,447.8,181,448.1z M192.7,469.7c-0.5,0.6-1.1,1.1-1.4,2.2
	C192.1,471.1,192.5,470.4,192.7,469.7z M224.8,454c0.4,0.5,0.8,0.8,1.4,1C226.1,454,225.7,453.7,224.8,454z M198.1,457.5
	c-0.1,0.8,0,1.3,0.3,1.8C199.1,458.5,198.6,458.1,198.1,457.5z"/>
<linearGradient id="SVGID_5_" gradientUnits="userSpaceOnUse" x1="312.5851" y1="7" x2="312.5851" y2="497.2195">
	<stop  offset="0" style="stop-color:#39B54A"/>
	<stop  offset="0.6759" style="stop-color:#39B54A"/>
	<stop  offset="0.706" style="stop-color:#39B54A"/>
	<stop  offset="0.7462" style="stop-color:#948518"/>
	<stop  offset="0.7915" style="stop-color:#F37C24"/>
	<stop  offset="0.8065" style="stop-color:#552800"/>
	<stop  offset="0.8769" style="stop-color:#000000"/>
	<stop  offset="0.9548" style="stop-color:#000000"/>
</linearGradient>
<path class="st4" d="M283.7,325.7c-1-0.9-1.8-2-3-2.5c-1.9-0.8-1.7-1.7-0.3-3.1c-2.8-0.5-4.2-1.7-4-4.3c2.9-0.6,4.3,4.1,7.1,1.7
	c-2.3-3.6-4.7-7-6.7-10.6c-0.7-1.3-1.1-3.4-0.6-4.8c1.2-3.5-1.8-4.5-3.4-6.2c-0.5-0.5-2.7,0.5-4.3,0.9c0-1,0-2.4,0-4
	c0.8-0.3,1.9-0.7,2.9-1.1c0,0.2-0.1,0.5-0.1,0.7c0.8,0.3,1.6,0.4,2.3,0.8c1.5,0.8,3.2,1.4,4.3,2.6c1.5,1.8,2.7,2.5,4.3,1.2
	c1.6,1.6,3.1,3,4.5,4.5c0.3-0.2,0.5-0.3,0.8-0.5c0.1-0.8,0.2-1.5,0.4-3.1c1.2,1.7,2.1,2.8,2.9,3.9c2.8-0.4,5.5-0.8,8.2-1.2
	c0.2,0.3,0.4,0.5,0.6,0.8c0.2-1.4,0.5-2.9,0.8-4.9c-2.6,0.5-4.8,1-7.1,1.2c-0.7,0.1-1.5-0.5-2.1-1c-0.9-0.7-1.1-2.7-3.2-1.1
	c-0.4,0.3-2.8-2.1-4.3-3.4c-0.3-0.2-0.1-1.2-0.3-1.2c-4-1.4-2-4.7-2.7-7.8c3.9,2.4,7.2,4.4,10.6,6.5c0.2-0.1,0.4-0.3,0.6-0.4
	c-1.2-2-2.3-4-3.5-6.1c-0.1-0.3-0.4-0.5-0.4-0.8c-0.4-2.6-0.9-5.2-1.1-7.9c-0.1-1.8,0.2-3.5,0.3-5.7c1.6,0.7,3.2,1.5,4.8,2.3
	c0.3-1.8,0.7-3.4,0.6-5c0-0.7-1.1-1.8-1.9-2c-3.1-0.7-3.4-1-4.6-4c-0.4-1.1-1.6-1.9-2.4-2.8c0.3-0.3,0.6-0.7,0.9-1
	c2.8,2,5.6,4,8.7,6.3c0.5-1.1,0.9-2.1,1.3-3c-4-2.5-6-5.9-5.2-9.4c3.5,3.6,7,6.9,11.6,8.6c0.3-0.3,0.6-0.6,0.9-0.9
	c-2.1-2.4-4-5-6.3-7.3c-1.3-1.3-3.4-2-4.7-3.4c-1.6-1.6-2.6-3.7-4.1-6c2.8-0.9,5.3,6.2,6.8-0.4c3.6,2.6,7.3,5.1,10.9,7.6
	c0.3-0.3,0.6-0.6,0.9-0.9c-1-1.2-1.9-2.6-3.1-3.5c-2-1.6-4.5-2.6-6.2-4.3c-1.7-1.7-2.6-4-4.3-6.8c2.2,0.3,3.5,0.5,5,0.8
	c-1.6-3.4-3.2-6.9-5.1-11c3.2,0.8,4.5,0.2,3.2-3c1.1,0.3,1.8,0.6,2.7,0.8c-0.5-3.2-1-6.3-1.4-9.3c0.2-0.1,0.4-0.1,0.7-0.2
	c1.6,1.7,3.1,3.3,4.7,5c0.2-0.1,0.5-0.2,0.7-0.3c-1.1-4-2.2-7.9-3.4-12.4c1.1,0.8,1.8,1.4,3.5,2.6c-0.6-3.2-1.1-5.6-1.6-8
	c0.3-0.2,0.5-0.4,0.8-0.6c0.2,0.5,0.2,1,0.6,1.4c0.5,0.5,1.1,0.8,1.7,1.1c0.4-0.6,1-1.3,1-1.9c0.2-2.9,0.3-5.8,0.4-9.3
	c2.6,3.3,4.4,5.6,6.3,8c0.4-0.2,0.8-0.4,1.1-0.7c-0.5-1.5-1-3.1-1.5-4.6c-1.5-4.6-1.5-4.6,2.7-8.5c1,0.3,2,0.6,2.7,0.8
	c-0.3-2.2-0.6-4.4-0.8-6.5c0.3-0.1,0.6-0.1,0.8-0.2c1.3,3.2,3.7,6,2.7,10c-0.2,1,0.3,2.2,0.5,3.3c0.4,0,0.8-0.1,1.2-0.1
	c0-2.4,0-4.8,0-7.2c0.2-0.1,0.4-0.1,0.6-0.2c0.5,0.9,1.5,1.8,1.4,2.7c-0.1,3.1,1.3,5.1,3.4,7.1c0.7,0.7,0.7,2.3,0.9,3.5
	c0.2,1.1,0.3,2.1,0.5,3.8c1.7-1.9,2.8-3.2,4-4.6c0.3,0.1,0.6,0.3,0.9,0.4c-1,3.8-2.1,7.6-3.1,11.4c0.2,0.1,0.5,0.3,0.7,0.4
	c1.4-1.2,2.8-2.4,4.1-3.4c1.1,7.2-3.2,11.7-8.5,15.5c2.8,3.8,3,3.9,5.7,1.4c0.2,0.9,0.4,1.6,0.7,2.9c1.1-1,1.9-1.8,2.8-2.5
	c1.3,3.1-3.6,5.9,0.4,9.6c-3.2,4-6.6,8.2-10,12.4c2.6,3.5,4.5,0.1,6.3-0.4c1.9-0.6,3.3-2.6,5-4c0.3,0.2,0.5,0.4,0.8,0.7
	c-1.7,2.7-3.4,5.4-5,8.1c0.2,0.2,0.4,0.3,0.7,0.5c1.9-1.1,3.9-2.2,6.2-3.4c-0.1,1.2-0.2,2.1-0.3,2.9c1.5,0.4,3.3,0.2,1.5,2.7
	c-1,1.5-0.7,3.9-1.5,5.5c-1.3,2.5-2.6,5.5-4.7,6.8c-2.7,1.7-1.6,3.2-1.4,4.7c1.6-0.5,3.2-0.7,4.4-1.4c1.7-1,3.1-2.6,4.7-3.8
	c0.9-0.6,2-0.7,3.1-1.1c0,1.1,0.2,2.3-0.2,3.2c-2.1,4.2-4.4,8.2-6.6,12.3c-0.2,0.4-0.2,1-0.3,1.5c0.5,0,1.1,0.1,1.6,0.1
	c2.1-0.3,4.1-0.7,7.2-1.2c-1.2,1.6-2,2.6-3.1,4c0,0.3,0.1,1.3,0.2,2.6c0.6-0.4,1.3-0.8,2-1.2c1.5,2.3,0.9,3.6-1.6,3.9
	c0,1.3,0,2.5,0,3.2c2.9-0.3,6.3-0.7,9.7-1.1c0.6,3.2-1.2,3.6-3.6,3.7c0.7,1,1.1,1.6,1.5,2.1c-3.1,1.8-6,3.8-9.3,5.2
	c-1.7,0.8-3.9,0.6-5.9,0.8c-0.3,0-0.7,0-0.8,0.1c-1.5,2-3.1,4-4.2,6.2c-0.3,0.6,0.7,2.3,1.6,3c2,1.6,3.9-0.1,5.8-0.7
	c3.9-1.2,7.7-2.5,11.6-3.5c0.5-0.2,1.3,0.6,2.2,1c-1.2,1.5-2.2,2.8-3.1,4c0.2,0,0.3,0.1,0.5,0.1c-3.1,2.4-6.6,4.5-9.1,7.5
	c-1.5,1.8-4.8,3.4-3.3,7.6c1.2-1.5,2.1-2.7,2.9-3.8c4.6,1.7,4.9,0.4,5.6-1.3c3.4-1.5,6.1-2.7,9-3.9c1.3,2,1.2,3.8-0.7,5.8
	c-2.1,2.2-3.8,4.7-6.7,6c-0.4,0.2-0.5,1.1-0.7,1.7c0.7,0.2,1.4,0.6,2,0.4c0.6-0.2,1-0.9,1.5-1.4c2.1,1.7,1,3.5,0.2,5.3
	c-0.8,1.8-1.6,3.5-2.4,5.3c0.2,0.2,0.5,0.5,0.7,0.7c1.2-0.4,2.5-0.7,4-1.2c0.4,0.6,0.9,1.4,1.6,2.4c-1.2,0.4-2.1,0.7-3,1
	c-0.1,1-0.2,2.1-0.3,3.3c-0.9-0.2-1.7-0.3-2.6-0.5c-0.2,0.2-0.3,0.3-0.5,0.5c1.2,1.4,2.4,2.7,3.9,4.4c-1.4,0.4-2.3,0.7-3.4,1
	c-0.1,0.9-0.2,1.8-0.4,3c-0.7-0.1-1.3-0.2-2.2-0.3c-0.3,0.8-0.6,1.6-0.8,2c-3.4,0-6.4,0-9.4,0c-0.6,0-1.5,0.1-1.7-0.2
	c-1.7-3.1-4.6-1.1-6.9-1.7c-2.2-0.6-2.7,1-2.9,2.7c-0.2,1.7,0,2.9,2.1,3.2c1.4,0.2,2.7,0.9,4.1,1.2c1.8,0.4,3.5,0.7,5.5,1.1
	c0.1,0.4,0.3,1.2,0.5,2.1c-1.7,1.3-3.2,3.4-5,3.7c-1.9,0.3-4.1-1.1-6-2c-0.6-0.3-0.7-1.7-0.8-1.9c-2.2-0.7-4.2-1.3-6.5-2
	c0.6,8.9-0.3,14-0.2,20.9c-0.3,0.1-4,2.9-7.2,4.6c-0.5,0.3,0.1-0.8,0.1-2.6c0-1.4,0.7-2.5,0.8-3.5c0.1-1.2,0.6-3.7,0.8-5.5
	c0.2-1.6,0.2-7.5,0.2-11.4c0.4-0.1-2-2.3-3.3-0.9c-2,2.3-3.9,4-7.3,3.4c-0.8-0.1-2,1.3-2.9,2.1c-1.6,1.4-2.9,1.9-3.7-0.8
	c-0.1-0.4-1-0.5-1.6-0.7c0,0.8,0.1,1.5,0.1,2.5c-2.7,1.7-4.5,1.2-5.8-1.7c-0.2-0.6-1.1-0.8-1.4-1.4c-0.7-1-1.2-2.1-1.7-3.2
	c1-0.3,2-1,2.9-0.8c2,0.6,4.5-1.1,6.2,1.1c0,0,0.8-0.6,1.2-0.9c0.8-0.5,1.8-1.5,2.4-1.3c2.5,0.8,2.9-0.7,3.2-2.5
	c2.4-0.2,4.7-0.5,7-0.7c-0.2-1.8-0.2-1.8-9.1-1.9c-0.1-0.7-0.2-1.5-0.5-3.2c-1.6,1.8-2.7,3.1-3.8,4.3c-1.5,0.3-3.2,0.6-5.6,1
	c0,0-0.5-0.8-1.2-1.2c-0.6-0.4-1.7-0.8-2.2-0.5c-3.1,1.9-6.1,1-7.8-2.4c-0.4-0.7-1.3-1.2-1.8-1.9c-0.6-0.8-1-1.7-1.5-2.6
	c0.2-0.3,0.4-0.6,0.6-0.9c2.5,0.9,5.1,1.8,7.8,2.7c0.2-0.3,0.5-0.9,0.8-1.4c0.3,0.1,0.5,0.1,0.6,0.2c1.6,1.6,2.9,3.9,5.2,0.5
	c0.4-0.6,2.3-0.1,4-0.1c-0.2-0.9-0.1-1.9-0.6-2.4c-2-1.9-4-3.8-6.2-5.3c-4.4-3.1-7.3-7.4-10.1-11.8c-0.3-0.5,0.2-1.5,0.3-2.3
	c-3.5-0.6-4.7-2-4.3-5c2.4,1,4.8,2,7.6,3.1C281.8,327.4,282.8,326.5,283.7,325.7c0.1,0.7-0.3,1.9,0.1,2.2c1.3,0.9,2.8,1.5,4.2,2.2
	c0.5-1.8,0.9-3.6,1.6-6.4C287.3,324.4,285.5,325.1,283.7,325.7z M299,272.8c1.1,0.4,2.5,0.9,4,1.4c0.2-0.1,0.4-0.3,0.6-0.4
	c-1.4-2.1-2.4-4.6-4.3-6.3c-1.1-1-3.4-0.5-5.2-0.7c-0.1,0.3-0.2,0.6-0.4,0.9C295.5,269.3,297.1,271,299,272.8z M304,223.1
	c-0.1,0.9-0.6,2.2-0.4,2.3c1.6,0.8,3.3,1.4,5,2.1c0.2-0.4,0.4-0.7,0.5-1.1C307.7,225.4,306.2,224.4,304,223.1z M322.7,347.4
	c-1.5-0.8-2.4-1.4-3.3-1.6c-0.3,0-1.1,1.3-1,2c0,0.5,1.1,1.5,1.6,1.4C320.7,349.1,321.4,348.3,322.7,347.4z M328.4,264.8
	c-1.6,0.5-2.8,0.9-3.9,1.4c-0.4,0.2-0.7,0.9-0.7,1.4c0,0.3,0.8,1,0.9,0.9C326.2,267.7,328.4,267.8,328.4,264.8z M324.1,222.1
	c-2.3,1.8-4.1,3.3-6,4.8C321.4,227.1,323.8,225.4,324.1,222.1z M309.2,296.5c-0.4,0.3-0.7,0.7-1.1,1c-0.3,2.9,3.4,1.5,3.9,3.5
	c0.3-0.3,0.6-0.6,0.8-0.8C311.7,298.9,310.5,297.7,309.2,296.5z M295.7,303.7c-0.5,0-1,0.1-1.6,0.1c-0.1,1-0.1,2-0.2,3
	c0.8,0,1.7,0,2.5,0C296.2,305.8,296,304.7,295.7,303.7z M314.6,236c0-0.3,0-0.6,0-0.8c-1.4-0.4-2.8-0.8-4.2-1.1
	c-0.1,0.3-0.2,0.6-0.3,0.9c0.6,0.7,1.3,1.4,2,2.3C312.9,236.8,313.8,236.4,314.6,236z"/>
<linearGradient id="SVGID_6_" gradientUnits="userSpaceOnUse" x1="193.2378" y1="7" x2="193.2378" y2="497.2195">
	<stop  offset="0" style="stop-color:#0D5500"/>
	<stop  offset="0.6759" style="stop-color:#0D5500"/>
	<stop  offset="0.706" style="stop-color:#0D5500"/>
	<stop  offset="0.7462" style="stop-color:#0D5500"/>
	<stop  offset="0.7915" style="stop-color:#F37C24"/>
	<stop  offset="0.8065" style="stop-color:#552800"/>
	<stop  offset="0.8769" style="stop-color:#000000"/>
	<stop  offset="0.9548" style="stop-color:#000000"/>
</linearGradient>
<path class="st5" d="M174,264.1c-2.9-0.1-5.7,0.2-7.9,2.5c-0.6,0.6-2.2,1.2-2.6,0.9c-5.1-3.7-9.9-0.5-14.8,0.5
	c-1.1,0.2-2.8,1.6-3.3-0.3c-0.4-1.7,1.7-1.5,2.7-2.2c8.9-6.3,19.9-8.2,28.9-14.4c1.3-0.9,3.6-1.4,3-3.2c-0.8-2.3-3.6-2.7-5.4-1.8
	c-3.2,1.6-6.3,1-9.9,0.9c4.5-5.7,10.3-8.4,16.5-10.7c3.5-1.3,6-5.5,5.3-8.9c-0.6-2.9-4.4-4.7-6.8-2.8c-5,4.1-11.7,4.7-16.8,8.7
	c-2.3,1.8-4.9,0.7-6.9-1.2c6.4-4.9,13.3-9,18.9-14.9c1.1-1.2,2.4-2.2,1.3-3.5c-1.3-1.5-2.9,0.2-3.5,1.1c-2.7,4.2-7.7,5.3-11.4,6.1
	c-3.9,0.8-8.5,2.1-13.1,0.8c0.5-2.4,2.5-2,3.8-2.4c5.5-2,11-4.9,15.2-8.3c3.1-2.5,6.8-5.5,9.1-9.1c2.7-4.3,6.8-6.8,10.3-10.1
	c1.2-1.1,2.6-2.1,3.5-3.4c1.2-1.8,3.7-3.6,2.7-5.7c-0.9-1.8-3.5-0.5-5.4-0.3c-2.1,0.2-4-1.2-6.2-0.1c-0.7,0.4-1.5-0.5-1.7-1.3
	c-0.3-1.1,0.8-1.2,1.3-1.8c4.4-4.6,8.9-9.2,13.1-14.3c-4.2,0.4-7.7,2.9-11.9,2.9c-0.8,0-1.8,1.2-2.4-0.3c-0.4-0.9,0.3-1.6,0.9-2.1
	c4.5-3.5,6.9-8.9,10.9-12.9c2.1-2.1-1.1-3.9-0.3-5.5c1.5-3.2-0.1-3.3-2.6-3.7c-2.6-0.4-1.7-2.2-0.6-3.6c1.6-2.1,2.9-4.4,3.3-7
	c0.3-2.2,1.3-5.7-3.5-4.4c-1.9,0.6-3.2-0.2-1.4-2.2c4.7-5.6,6.4-12.6,8.2-19.5c2.2,0.9,2.3,2.8,2.6,4.5c0.5,4.1,1.5,8,4.1,11.2
	c2,2.4-0.4,5.2-0.7,5.4c-4.2,2.2-1.4,4.7-0.6,7c0.5,1.7,1.5,3.2,2.1,4.9c0.2,0.7,1.2,2.1-0.6,2.2c-1.5,0.1-3.8,0.1-3,1.6
	c0.9,1.8,0.5,4.7,3.5,5.5c2.3,0.6,4.4,1.7,6.9,2.8c-1.2,1.9-5.4,2.2-2.6,5.8c1,1.3-1.6,3.9-2.4,4.2c-3.8,1.6-2.3,2.6-0.3,4.5
	c4,3.7,9.1,6.6,10.4,12.6c0.1,0.6,0.1,1.4,0.9,1.4c0.6,0,0.5-0.3-0.1-0.2c-0.3,0-0.7,0.5-0.9,0.4c-3-1.1-7.8,2.3-9-3.5
	c-0.2-0.9-0.9-1.4-1.8-0.9c-0.8,0.4-1.3,1-1.1,2c0.4,1.7,0.4,3.8,1.4,5.1c4,5.3,6,12.3,13.6,14.7c3.8,1.2,6.6,4.7,7.7,8.6
	c0.9,3,2.5,5,5,6.7c-0.3,0.4-0.5,0.8-0.8,1.2c-6.5-2.9-13.1-5.7-20.3-8.9c0.9,5.1,5.3,6.4,7.3,9.5l0-0.1c-2.8-1.8-5.8-0.4-8.8-0.4
	c-0.8,0-1.7,0.9-1,2.1c1,2.1,2.2,4.7,4.3,5.1c4.8,0.9,7.7,4.4,10.3,7.6c3,3.8,8.8,4.5,10.6,10.1c-10.3,0.2-16.5-10.7-27-9.3
	c0.6,3.2,4.1,3.3,5.7,5.4c1.6,2.1,5.3,2.3,5.3,6.1c0,1,1.6,0.6,2.6,0.8c4,0.9,7.9,1.2,11.7,3.7c2.5,1.7,2.3,4.8,4.9,6
	c0.7,0.3,0,1.9-1.3,1.6c-1.4-0.3-2.7-1.1-4.1-1.5c-3.6-1-7-4.5-10.8,0.3c-1.2,1.6-4.4,0.9-6.6-0.4c-2.1-1.3-4.2-3-7.1-3
	c0.7,2.6,1.7,4.2,4.1,5.1c2.4,0.9,5.2,1.8,5.8,5c0.1,0.3,0.4,0.6,0.7,0.7c6.4,1.6,9,7.8,13.9,11.3c3.6,2.6,7.9,3.5,12.5,4.9
	c-4.7,4.4-9,3.5-14.2,1.1c-3.1-1.4-6.7-3.9-10.9-2.5c-2.2,0.7-3.5-1.2-4.9-2.5c-2.9-2.6-5.9-4.7-10-2.1c0.2,2.3,4.8,4.1,1.4,7.6
	c-0.5,0.5,0.5,2.2,1.7,2.6c4,1.4,5.7,4.5,6.8,8.3c0.5,1.8,2.6,2.3,4.2,2.6c5.9,1.3,10.4,5.1,15.4,7.9c0.7,0.4,1.8,1.1,1.1,1.7
	c-3.9,3.2,0.8,4.8,1.7,7.7c-4.2-0.4-6.5-3.6-9.9-4.6c-5-1.5-9.5-4.9-14.3-7.1c-3.2-1.4-6.4-2-8.7-5.1c-1.3-1.7-5.7,1.2-5.6,3.8
	c0.2,2.7,0.7,5.5,3.3,7.3c4.1,2.8,7.2,6.9,12,8.7c1.3,0.5,2.4,1.7,2.7,3.3c-1.9,1-4,0.7-5.1-0.6c-2.6-3.1-6.7-1.9-9.8-3.8
	c-1.7-1.1-1.7,1.2-1.2,2.4c1.3,3.2,3.7,5.5,7,6.3c3.4,0.9,5.4,2.6,5.4,6.1c-3.8,2-7-2.4-10.7-0.9c-0.7,0.3-1.8-1.3-2.4,0.3
	c-0.4,1,0.4,1.7,1,2.5c2.1,2.9,4.7,5.2,7.7,7.3c-0.3,0.5-0.5,0.9-0.8,1.4c-5.9-1.3-6.1,1.4-6.3,6.7c-0.4,9.6-0.5,19.2-0.1,28.7
	c0.5,12.7-0.7,21.7,4.8,34c-2.5,1-3.1,1.6-5.8-0.1c-2.4-1.6-4.3-1-6.8,0.4c-1.8,1-3.8,1.7-2.9-0.1c3.4-6.3,0.7-10.2,1.7-16.8
	c1.7-11.5,2.9-23.2,2.2-34.9c-0.4-6-1-12-0.7-18c0.2-3.8-1.6-4.3-4.2-3.3c-2.7,1.1-5.3,0.9-8.8,0.8c3.5-1.8,6.3-3.6,9.2-4.8
	c2.2-0.9,1.9-2.7,1.6-4c-0.3-1.6-2-1.4-3.5-1.4c-4.2-0.2-8.4,0.9-13.9,1.1c6.8-4.2,12.5-7,17.1-11.6c1.1-1.1,3-2.2,1.7-4
	c-1.1-1.6-3.2-0.9-4.5-0.3c-3.5,1.6-7.1,1.9-11.1,1.9c6.6-2.8,10.5-8.4,14.7-13.7c0.7-0.9,2.1-2.2,0.8-3.3c-1.1-0.9-2.5-2.5-4.3-1.2
	c-2.4,1.8-5.9,1.4-7.7,4.2c-0.2,0.3-0.5,0.7-0.7,0.6c-8.5-0.5-16.2,3.8-24.7,3.5c-1.2,0-2.3-0.3-3.2-1.3c6.3-2.9,12.5-6.1,19-8.3
	c2-0.7,1.9-2.6,3.7-3.2c2.8-1.1,5.2-3,8.2-4.2c5.7-2.2,6-8.6,8.5-13.3c0.3-0.5,0-1.5-0.9-1.2c-1.6,0.4-3.3-2.1-4.8,0.3
	c-1.5,2.4-2.8,5-6.2,1.9c-1.1-1-2.3,0.7-3.5,1.2c-3,1.4-5.9,2.4-9.8,1.1c3.6-3.6,8.7-4.3,11.4-8.2c0.3-0.3,0.9-0.7,0.8-0.8
	C175,263.3,174.5,263.8,174,264.1z"/>
<linearGradient id="SVGID_7_" gradientUnits="userSpaceOnUse" x1="251.1246" y1="7" x2="251.1246" y2="497.2195">
	<stop  offset="0" style="stop-color:#057F00"/>
	<stop  offset="0.6759" style="stop-color:#057F00"/>
	<stop  offset="0.706" style="stop-color:#057F00"/>
	<stop  offset="0.7462" style="stop-color:#057F00"/>
	<stop  offset="0.7915" style="stop-color:#F37C24"/>
	<stop  offset="0.8065" style="stop-color:#552800"/>
	<stop  offset="0.8769" style="stop-color:#000000"/>
	<stop  offset="0.9548" style="stop-color:#000000"/>
</linearGradient>
<path class="st6" d="M306.9,370.2c-2.5-0.3-2.9-0.8-1.5-2.8c0.9-1.3,0.3-1.6-0.7-2.1c-1.4-0.6-2.9-0.4-4.5-0.5
	c0.6-1.2,1.2-2.2,1.7-3.3c0.3-0.7,0.6-1.8,0-2.1c-1.8-0.8-1.2-2.1-1-3.4c0.1-1.3,0.2-2.9-2-1.9c-0.8,0.3-1.4-0.3-2-0.8
	c-0.6-0.4-0.7-1.3-1.7-1.3c-0.1,0.8-0.2,1.7-0.4,2.5c-0.3,1.1-0.8,2.5-2.2,2.2c-1.4-0.2-2.2-1.4-2.1-2.9c0-0.8,0.4-1.6-0.3-2.3
	c-0.4-0.4,0-0.5,0.3-0.8c1-0.9,0.5-0.5-0.3-1.4c-1.4-1.7-1.1,0.1-1.5,0.4c-1.4,1.1-2.8,1.8-4.7,2.2c0.3-1.5,1.7-1.8,1.8-2.9
	c-1.2,0.1-1.9,1.1-3.1,1.5c-0.2-0.8-0.3-1.5-0.5-2.3c-1.3,0.6-2.4,1.3-3.5,1.8c-0.5,0.2-1.4,0.5-1.1-0.3c0.3-1.1-0.2-3,1.9-3.2
	c0.5,0,0.9-0.3,0.9-0.9c0-0.6-0.4-0.9-0.9-0.9c-1.6,0.1-2.9-0.5-4.1-1.4c-1.4-1-3.1-0.9-4.6-1.5c-0.4-0.2-1-0.3-1-0.9
	c0-0.7,0.6-0.8,1.1-1c1.6-0.5,2.7,0.3,3.7,1.5c0.4,0.4,0.9,1.6,1.4,0.8c0.9-1.4,1.7-0.6,2.3-0.1c1.6,1.2,4.4,0.8,4.9,3.7
	c0.3-0.5,0.5-0.7,0.5-0.9c0.1-0.8,0.3-1.6,1.3-1.6c0.9,0,0.7,0.8,1,1.3c0.3,0.6,0.5,1.5,1.3,1.4c1.5-0.3,2.8,0.4,4.4,0.7
	c-0.8-1.1-1.4-2-2.2-3.1c4.2,2,4.2,2,4.6-0.2c1.1,0.4,2.3,0.4,3.3,1c0.6,0.4,1.9,0.5,1.9-0.3c0-1.7-0.7-3.3-2-4.6
	c-0.3-0.3-1.3,0.2-1-0.8c0.2-0.6,1-0.2,1.5-0.3c0.7-0.1,1.1,0.4,1.6,0.8c0.7,0.6,1.4,1.2,2.6,1.2c-0.3-0.5-0.5-0.7-0.6-1
	c-0.3-0.7-1.4-1.1-1.1-1.8c0.4-0.9,1.5-0.7,2.4-0.7c0.5,0,1.5,0.1,1.4-0.3c-0.3-1.8,1.5-1,2.1-1.7c-2.1-1.6-2.1-1.6,0.3-2.7
	c1.9-0.8,2.3-2.3,2.3-4.2c-1.4,0.5-2.1,1.7-3.2,2.4c-0.4,0.3-0.8,0.9-1.4,0.6c-0.5-0.3-0.1-0.9-0.1-1.3c0-0.7,0.1-1.3-0.6-1.9
	c-1.1,0.6-1.2,1.8-1.6,2.8c-0.2,0.5-0.3,1.3-1,1c-1.8-0.7-2.7,1.1-4.2,1.4c-0.4,0.1-1.5-0.4-1.8,0.6c-0.6,2.3-2.9,1.9-4.5,3
	c-0.1-1.2,1.1-1.7,0.3-2.8c-2.1,1.3-3.8,3.6-6.8,2.8c-2.5-0.7-4.6-2.2-6.9-3.4c2.2-0.4,4.3-0.4,6,1.2c0.5,0.5,1.4,1.1,1.8,0.5
	c1-1.8,2.5-0.8,3.9-0.7c-0.7-1.6-2.3-2.4-3-3.9c2.2,0.1,3.9,1.3,5.9,2.3c-0.5-1.6,1.4-3.1-0.9-4.4c1.2-0.2,1.9-0.5,2.7-0.6
	c1.5-0.2,3.3-1.6,3.4-2c0.2-2,1.3-1.3,2.3-1.1c0.3-0.9-1.3-2.4,1.1-2.3c0.8,0,1.5-1.8,3-1.8c0,0,0.1-0.3,0.1-0.3
	c-1.3-1.2-0.8-2.4-0.2-3.6c0.1-0.2-0.3-0.9-0.3-0.9c-1.6,0.2-2.7-1.6-4.5-0.7c-2,0.9-4.3,1.3-7,0.8c1.9-1.3,4-1.1,5.5-1.9
	c0.2-0.8-1.4-0.4-0.6-1.4c0.4-0.5,1.2-0.5,1.5-1.3c-1.7,0-3,1.1-4.7,1.1c0.1-0.3,0.2-0.6,0.3-0.8c0.1-0.3,0.4-0.6-0.1-0.9
	c-4.1,3.2-8.6,2.4-13.1,1.2c-1.6-0.4-3-1.1-4.3-3c2.2,0.5,4.1,0,5.4,1.7c0.1,0.1,0.3,0.5,0.6,0.1c1.3-1.2,2.9-0.4,4.3-0.6
	c1.2-0.1,2.7,0.8,3.5,0c1.5-1.4,3.4-1.4,4.9-1.3c1.6,0.1,2.5-0.1,3.3-1.5c-0.7-0.4-1.4-0.9-2.1-1.3c0-0.1,0.1-0.2,0.1-0.4h3.5
	c-1.2-0.8-2.4,0-3.2-0.9c1-0.6,2.1-1.1,3-1.8c0.5-0.3,1.2-0.8,0.7-1.5c-0.4-0.6-1,0-1.4,0.3c-0.8,0.5-1.6,1.1-2.5,1.8
	c-0.1-1.2,1.4-1.8,0.7-2.9c-1.5,0.3-2.2,3.1-4.2,1.2c0,0-0.1,0.1-0.1,0.1c-0.2,1.7-1.7,1.3-2.7,1.7c-1.6,0.8-3.5,1.5-5.3,1.1
	c-3.2-0.8-6.3-1.8-9.4-2.7c-0.7-0.2-1.5-0.3-2-1.2c1.2-0.5,2.2-0.2,3.1,0.3c0.6,0.3,1.3,0.6,1.8-0.1c0.7-0.9,1.2-0.5,1.8,0.1
	c0.6,0.6,1.1,1.2,1.8,1.7c0.3,0.3,0.6,0.6,1.2,0.1c1.6-1.4,3.4-2.7,5.8-2.1c0.7,0.2,1.4,0.3,2.6,0.5c-0.5-0.5-0.7-0.6-0.9-0.7
	c-0.5-0.4-1.5-0.6-1.2-1.4c0.3-0.7,1.1-0.1,1.7-0.1c1.5,0.1,3,0.5,4.4-0.6c-0.7-1-1.8,0.2-2.4-0.8c0.6-0.7,1.6-0.3,2.3-0.8
	c0.4-0.2,1.2-0.5,0.7-1c-1.5-1.4,0.1-1.4,0.7-1.8c1.1-0.7,2.4-1.2,3.2-2.3c-0.5-0.4-0.8-0.2-1.2-0.1c-1.9,0.3-3.9,0.8-4.1-2.1
	c0-0.3-0.2-0.7-0.6-0.7c-0.4,0-0.6,0.3-0.7,0.6c-0.6,2.6-2.4,3.5-4.8,3.6c0.1-0.8,1.4-1.2,0.9-2.4c-1.6,0.8-2.4,2.2-3.8,3.1
	c-0.4-1.9-0.4-1.9-2-1c-0.6,0.4-1.1,0.8-1.7,1.2c-0.4,0.3-1,0.6-1.3,0.2c-0.9-1.5-2.6-2.3-3.8-3.7c1.5-0.4,2.8-0.1,4,0.3
	c1,0.3,2.3,0.5,2.8-0.6c0.7-1.4,1.6-1.2,2.7-0.9c1.8,0.4,3.7-0.6,4.9-2c1.5-1.7,0.5-4.9,3.5-5.7c-1.3,0-2.3,0.9-3.5,0.9
	c-0.1-0.7,0.8-1.1,0.3-1.6c-0.5-0.4-1,0.2-1.5,0.3c-0.5,0.2-0.7,0.8-1.4,0.6c-0.7-2.2-0.8-2.2-2.5-0.7c-0.5,0.4-0.8,1.2-1.7,1.1
	c0.2-2.1-0.6-1.8-2.2-1.2c-0.9,0.4-2.2,2.8-3.3,0.1c-0.1-0.2-0.5,0-0.7,0.2c-1.3,1.4-3.3,1.6-4.6,3c-0.3,0.3-0.7,0.6-1.1,0.4
	c-1.4-0.8-3-0.5-4.5-0.8c-0.8-0.2-1.8-0.2-1.6-1.4c0.2-0.9,1-1.3,1.9-1c0.9,0.3,1.6-0.1,1.8-0.8c0.4-1.8,1.3-1.1,2.3-0.7
	c0.7,0.3,1.6,1.1,2,0.4c1.2-2.3,2.9-1.6,4.6-1.2c0.3,0.1,0.9,0,1.1-0.3c1.2-1.1,2.2-0.7,3.2,0.2c0.4,0.3,1,0.8,1.4,0.2
	c0.8-0.9,1.9-0.6,2.7-1c2.1-1.1,4.9,0.2,6.8-2.2c0.7-0.9,1-1.3,0.3-2c-0.6-0.6-0.9-1,0.1-1.5c0.7-0.3,1.1-0.9,0.9-1.6
	c-0.2-0.8-1-0.9-1.7-0.9c-0.6-0.1-1.5,0.1-1.7-0.8c-0.4-2.1-1.5-1.2-2.5-0.6c-1.3,0.9-2.3,2.6-4.2,1c-0.2-0.2-0.9,0.2-1.3,0.4
	c-0.6,0.2-1.5,0.8-1.9,0.6c-2.2-1.2-4.3-0.1-6.4,0.1c-3.6,0.3-6.4-1-8.3-4.3c2.5-0.9,5.1-2.4,7.1,0.9c0.1,0.1,0.2,0.2,0.3,0.2
	c0.4,0.2,0.8,0.7,1.3,0.3c0.5-0.3,0.2-0.9,0.1-1.3c-0.6-1.6,0.2-1.9,1.6-1.9c1,0.1,1.8,0.4,2.5,1.1c0.3,0.3,0.9,1,1.1,0.3
	c0.6-2.3,1.8-1.1,3-0.8c0.8,0.2,2.5,0.2,2.4-0.3c-0.4-1.7,0.9-1.4,1.7-1.7c-0.8-1.5-2.1-2.3-3.3-3.4c1.5-0.4,2.8-0.6,4.1-1.1
	c1.5-0.5,2.2-2.1,2.5-3.4c0.2-0.9-1.5,0.1-2.2-0.3c-0.3-0.2-0.6-0.3-0.9-0.5c-0.5-0.4-1.1-0.3-1.5,0.1c-1.4,1.3-2.9,1.3-4.7,1.2
	c-1.8-0.1-3.1,0-1.9-2.2c-2.2-0.9-3.7,2.3-5.3,1.1c-1.6-1.2-4.1,1-4.8-1.8c3.9-2.5,8.9-2.3,13.5-4.7c-2.5-1.1-4.6-1-6.7-1.1
	c-2.1-0.1-2.8-1.3-2-3.3c1,1.3,1.9,2.7,3.9,1.3c1.1-0.8,3.3,0.4,3.7-0.1c1.1-1.8,2.3-0.9,3.6-0.7c1.1,0.1,2.1,0,3.1-0.7
	c-0.3-0.9-1.6-0.6-1.9-1.7c1.4-0.1,2.2-1.2,3.3-1.8c0.4-0.2,1-0.8,0.3-1.1c-1.9-0.7-0.3-1.2,0-1.8c0.3-0.6,1.6-0.9,0.8-1.8
	c-0.6-0.6-1.4,0-2,0.4c-0.5,0.3-0.9,0.8-1.4,1.2c-0.3,0.3-0.6,0.6-1,0.2c-1.8-1.8-2.4,0-3.1,1.1c-1.3,2.3-3.5,2.7-6.1,1
	c1.7-0.8,4.1-0.8,4.6-2.7c0.4-1.6,1.8-2.8,1.9-5c-1.9,1.9-4.5,2.2-5.6,4.4c-0.1,0.2-0.4,0.3-0.8,0.2c0.3-1.6,0.9-3.2,0.6-5
	c-0.6,1-1,2-1.3,3c-0.4,1.1-1.2,1.5-2,0.9c-1.1-0.8-2.3-0.7-3.5-0.8c-0.4,0-1.1,0.2-1.1-0.6c0-0.5,0.4-0.9,0.9-1
	c0.4-0.1,0.8-0.2,1.2-0.3c1.9-0.4,3.3-2.3,3.2-4.5c-1.2,0.9-2.3,1.7-3.4,2.4c-0.5,0.4-1.1,0.8-1.6,0.1c-0.5-0.6,0-1.2,0.3-1.7
	c0.4-0.6,1-0.7,1.6-0.9c0.8-0.3,1.7-0.5,2.3-1.4c-1.3-0.5-2.7,0-3.6-0.9c-1.1-1-1.4-0.4-1.9,0.5c-0.3,0.7-0.5,1.6-1.3,2
	c-1.1,0.7-1.2-1-2-1.1c-0.3,0.9-0.6,1.6-0.9,2.4c-0.3,0.9-1.1,1-1.9,0.9c-0.5-0.1-1.1-0.1-1.2-0.6c-0.2-0.7,0.7-0.9,1.1-1.4
	c0.3-0.3,0.6-0.7,0.9-1c-0.5-0.8-2,0-1.8-1.3c0.1-0.9,1.2-0.6,1.9-0.8c0.6-0.2,1.8-0.4,1.8-0.7c0.1-1.7,1.6-1.3,2.6-1.9
	c-1.8-0.9-1.1-1.7,0.2-2c2.6-0.5,4.2-1.8,4.7-4.4c-1.2-0.3-2.1,1-3.3,0.9c0-0.8,1.1-0.9,0.6-1.9c-2.2,1.7-4.1,3.7-6.5,5.1
	c-0.5,0.3-0.9,1.4-1.6,0.7c-0.6-0.5-1.7-1.1-1.6-2c0.1-0.7,1.3-0.5,2-0.6c0.6-0.1,1.2-0.1,1.8-0.2c1.1-0.3,2-1.1,1.7-2.2
	c-0.3-1.1,0.4-1.1,1-1.3c1.4-0.5,2.9-0.6,4.1-1.9c-1.6-0.9-3.3-0.1-5.2-0.6c1.6-0.9,2.9-1.8,1.5-3.5c-1.2,1.1-2.4,2.3-3.6,3.4
	c-0.3,0.3-0.7,0.7-1.2,0.5c-0.5-0.2-0.7-0.7-0.7-1.1c0-0.6,0.4-0.8,0.8-1c2.9-1.4,3.1-1.8,3-4.5c0-0.3,0.6-0.4,0.3-0.9
	c-2,0.6-3.7,1.6-5.5,2.7c-0.4,0.3-0.8,0.7-1.4,0.3c-0.3-0.2-0.3-0.6-0.3-0.9c0-0.7,0.6-1,1.1-1c2.8,0.2,3.8-2.3,6.2-3.2
	c-1.3-0.7-2.5,0.1-3.6-0.6c0.7-1,1.7-1.9,2.4-1.6c1.8,0.9,2-0.7,2.9-1.4c0.6-0.5,0.3-1,0.1-1.5c-0.2-0.6-0.7-0.5-1.2-0.5
	c-0.6,0-1.2,0.8-1.6,0c-0.7-1.3-1.1-0.7-1.7,0.1c-0.4,0.6-0.8,1.1-1.3,1.6c-0.4,0.4-0.9,1.5-1.2,1.1c-0.9-1.1-2.9-0.2-3.4-1.9
	c-0.1-0.4-0.3-0.7,0-0.9c1.6-1.3,2.9-3.1,5-3.6c1.3-0.3,1.9-0.9,2.4-1.9c0.2-0.4,0.6-0.8,0.2-1.3c-0.3-0.3-0.8-0.1-1.2,0
	c-1.3,0.3-2.2-0.9-3.6-0.7c-0.6,0.1-0.1-0.8,0.2-1.2c0.5-0.6,1.3-1,0.9-2.3c-1,1.6-2.3-0.4-3,0.4c-0.7,0.8,0.2,2.3-0.9,3.2
	c-1-0.8,0.2-2.7-1-3c-2.4-0.7-2-2.4-2.1-4.1c-0.1-1.2-0.3-2.3-0.4-3.6c-1.6,0.6-2,2-3.1,3.1c-0.4-1.9-0.6-3.7-1.7-5.8
	c0,1.7,0.9,2.8-1.5,3.3c-1.7,0.3-3-0.4-4.7-0.4c1,2.4,3.3,3.6,4.1,5.9c-2.7,0.4-4.8-1.1-7.2-2c0.1,1.3,0.7,2,1.5,2.4
	c2,1.1,1.5,1.8-0.2,2.4c0.8,1.4,2.7,1.5,3.6,3.1c-1.6-0.1-2.7-0.9-3.7-1.6c-1.1-0.7-2.2-1.5-3.3-2.3c-0.1,1.3,1.2,2.2,0.7,3.3
	c-0.5,0.8-0.5,0.9,0.4,1.2c1,0.4,1.5,1.6,0.9,2.5c-0.4,0.6-1.5,1.5-2.4-0.1c-0.5-0.8-1.2,0-1.7,0.4c-0.6,0.4-0.9,0.9-0.3,1.5
	c1.1,1.1,1.8,3,4,1.8c0.2-0.1,0.6,0,0.6,0c0.3,1.8,2,1.4,3,2.1c0.4,0.3,0.9,0.6,0.8,1.1c-0.2,0.7-0.9,0.4-1.4,0.3
	c-1.8-0.2-3.3-1-5-1.7c-0.8-0.3-2.2-1.2-2.7-0.3c-0.5,1,1,1.5,1.8,2.1c0.1,0.1,0.1,0.2,0.2,0.4c-0.7,0.4-2.1,0-2.1,1.2
	c0,1,1.2,1.3,2.1,1.3c1.1,0,1.6,1,2.5,1.3c0.4,0.1,0.8,0.4,0.7,0.9c-0.2,0.6-0.8,0.5-1.2,0.3c-0.7-0.3-1.3-0.7-1.9-1.1
	c-2.3-1.4-4.5-2.7-6.8-4.1c0.9,1.8,0.1,2.7-1.7,3.3c0.7,0.4,1.2,0.6,1.6,0.8c0.6,0.3,1.5,0.2,1.8,0.9c0.4,1.1-1.5,0.3-1.2,1.3
	c1.4,0.4,2.9,0.3,4.2,1.3c-1.3,0.4-2.3-0.3-3.4-0.3c-2.5-0.2-2.5-0.1-1.7,2c-1,0.6-2.2-0.3-3.5,0.1c1.5,1.1,2.5,3.3,4.4,1.9
	c2-1.4,3.1,1.9,4.8,0.5c0.1,0,0.1-0.1,0.2-0.1c0.9-0.1,2.1-0.5,2.5-0.1c0.6,0.7,0,1.8-0.2,2.7c-0.3,1-0.7,1.7-1.6,0.4
	c-0.8-1.2-1.6-1.6-2.4,0.1c-0.2,0.5-0.8,0.9-1.3,0.4c-1.4-1.4-3.8-0.8-5.2-2.5c-0.1-0.2-0.5-0.2-0.8-0.2c-0.3,0-0.8,0.1-0.9,0.3
	c-0.2,0.3,0.1,0.7,0.3,0.9c1.2,0.8,0.9,1.5-0.3,2c0.9,0.7,1.7,1.4,2.6,2.1c-1.3,0.8-3.2-1-3.9,1.1c-0.4,1.2,0.3,2.3,0.9,3.1
	c0.5,0.7,1.2-0.8,1.9-0.9c0.4,2,0.4,2,1.9,2.7c0.1,0.1,0.2,0.2,0.3,0.3c1.4,0.8,3.7,0.8,4.4,0.3c2.6-1.9,2.5,0,2.8,1.6
	c0,0.2,0.2,0.3,0.3,0.4c0.6-0.2,0.6-0.8,0.9-1.1c0.4-0.4,0.9-0.8,1.4-0.2c0.5,0.6-0.3,0.8-0.6,1c-0.5,0.3-0.9,0.6-0.6,1.3
	c0.3,0.7-0.1,1-0.8,1.1c-2.2,0.3-4.4,1.2-6.4-0.6c-0.2-0.2-0.4-0.5-0.7-0.2c-1.6,1.6-2,0.2-2.4-1c-0.3-0.9-0.7-1.5-1.7-0.7
	c-0.3,0.2-0.8,0.4-1.1,0.4c-1.5,0-1.4,0.8-0.7,1.7c0.3,0.4,0.5,0.6-0.1,0.9c-0.6,0.3-0.4,0.5,0,0.8c0.6,0.4,1.3,0.8,1.9,1.1
	c0.4,0.2,1.2,0.1,0.9,0.8c-0.3,0.7-1,0.6-1.5,0.1c-0.5-0.5-1.3-0.9-1.4-0.2c-0.1,1.1-1.1,1.7-1.2,2.9c2.9-0.2,5.3,2,8.2,1.4
	c0.5-0.1,1.2-0.2,1.4,0.5c0.2,0.6-0.3,0.8-0.7,1.2c-0.4,0.5-0.9,1.1-1.5,0.5c-1.7-1.6-4.1-0.8-5.9-1.9c-0.7-0.4-1.2,0.1-1.7,0.3
	c-0.9,0.3,0.8,1.4-0.5,1.7c0.3,0.4,0.7,0.3,1.1,0.3c0.8,0.1,1.9-1,2.3,0c0.4,0.9-1.2,1.1-1.6,1.9c0,0.1,0.1,0.2,0.1,0.3
	c3.6-0.1,6.3,1.6,8.7,3.9c-2.4,0.2-4.7,0-6.7-0.9c-2-0.9-4.4-0.7-6-2.3c-0.1-0.1-0.6,0-0.8,0.1c-0.5,0.4-0.9,0.2-1.2-0.2
	c-0.7-0.9-1.6-2.2-2.5-1.2c-1.2,1.3,0.7,2,1.4,2.6c1.2,1,1.5,1.8,0,2.9c0.8,0.2,1.3,0.4,1.8,0.5c0.7,0.2,1,0.5,0.5,1.1
	c-1.3,1.4-0.1,1.8,0.9,2.3c1,0.5,2,0.2,3,0.4c0.5,0.1,1.2-0.2,1.5,0.7c0.5,1.5,1.7,2,3.1,2.2c-0.6,1.1-1.1,2.2-1.6,3.3c0,0,0,0,0,0
	c0,0,0,0,0,0c1.6-0.7,3.2-1.4,4.8-1.9c0.7-0.2,1.6-1.3,2.2,0.3c0.1,0.4,0.9,0,1.3,0c1.4-0.1,2.8-0.3,4.2-0.2c-2.1,1.6-4.3,2.9-7,1.9
	c-1-0.4-1.8,0-2.6,0.7c-1.7,1.4-2,1.3-3-0.8c0,0,0,0-0.1,0c0,0,0,0,0-0.1c-0.6-0.4-1.2-0.8-1.1,0.6c0.1,0.6,0.1,1.4-0.6,1.6
	c-0.6,0.2-0.8-0.6-1.2-1c-0.9-1-1.7-1.9-2.8-2.6c-0.5,0.5,0.5,1.3-0.3,1.6c-0.6,0.2-0.9-0.5-1.4-0.7c-0.8-0.4-1.8-2-2.4,0.3
	c-0.1,0.5-0.7,0.1-1-0.1c-1.6-1-3.4-1.7-3.8-3.9c-0.1-0.6-0.4-1.1-1.1-1c-0.6,0.1-1.3,0.1-1.7,0.6c-0.3,0.4-0.1,0.8,0.2,1.1
	c2.3,1.7,3.4,4.1,4.5,6.8h-2.8c3.6,1.1,6.6,3.9,10.7,3.1c0.9-0.2,1.7,0.3,2.6,0.5c0.5,0.1,1.6-0.2,1.3,0.7c-0.2,0.8-1.2,1-1.9,0.5
	c-1.6-1.1-3.3-0.9-4.9-0.3c-1.8,0.6-3.5,0.2-5.2-0.4c-0.4-0.2-0.9-0.9-1.4-0.2c-0.3,0.5-0.3,1.2,0.1,1.8c0.3,0.6,0.9,0.9,1.5,0.9
	c0.7,0,1.1,0.4,1.3,1.1c0.1,0.7-0.3,1.1-0.9,1.5c-0.3,0.2-0.8,0.2-0.7,0.8c1.1,0,2.2-0.9,3.2-0.3c1.8,1.1,3.4,0.4,5-0.3
	c1.2-0.6,2-0.4,3,0.4c0.7,0.6,1.5,1.6,2.3,1.2c2.3-1.3,4.4,1.1,6.8-0.4c-0.5,3-2.5,3.1-4.4,3.2c-0.8,0-1.1,0.1-0.9,1
	c0.1,0.6,0.8,1.5-0.1,1.8c-0.8,0.3-1.2-0.7-1.7-1.2c-0.3-0.3-0.5-0.6-0.8-0.9c-0.7-0.9-1.4-1.5-2.3-0.2c-0.6,0.8-1.4,0.4-2.2,0
	c-1.2-0.6-2.3-1.7-3.8-2.1c-0.2,1.2,1,1.9,0.7,3.1c-1.8-0.6-3-1.9-4.3-3c-1.1-1-2.1-2-3.2-2.9c-0.6-0.5-1.2-0.6-1.2,0.5
	c0.1,1.5-0.6,2.3-1.8,2.9c-1.1,0.6-1.1,1.3-0.4,2.3c1.1,1.6,1.8,3.5,2.6,5.7c-1.8-0.9-2.9-2-4-3.1c-1.7-1.7-3.2-1.6-4.4,0.3
	c-0.4,0.6-1.6,1.3-0.6,2c1,0.7,0.6,1.1,0,1.7c-0.5,0.5-1.2,1-1.2,1.9c0.6,0.3,1.1,0,1.6,0c1.1-0.1,2.3-0.4,2,1.4
	c-0.1,0.9,0.6,1.1,1.4,1c0.5,0,1.2-0.5,1.6,0.1c-0.1,0.7-0.9,0.9-0.8,1.8c2.8-1.1,5.7,0.8,8.5-0.5c0.2-0.1,0.5,0,1,0.1
	c-1.5,1.3-3.4,1.3-4.8,2.5c1.4,0.6,2.1-0.6,3.2-0.9c0.1,1.6,1,2.9,1.6,4.3c-1.5,0.1-2.7,0.3-3.9,0.9c-1.3,0.6-1.9,1.6-1.4,2.7
	c0.6,1.2,1.8,1.2,3,0.5c0.4-0.2,0.8-0.6,1.3-0.4c0.6,0.2,1.1,0.7,0.9,1.4c-0.2,0.8-1,0.8-1.7,0.7c-1.7-0.2-3.3,0.1-4.8,1.5
	c0.6,0,0.9,0.1,1.2,0.1c1.6-0.3,3-0.5,3.7,1.6c0.3,1,1.3,0.6,1.8-0.1c0.8-1.1,1.8-1.1,2.9-1c0.8,0.1,1.4,0.6,0.5,1.1
	c-1.2,0.8-0.4,1.4-0.2,2.1c0.4,1.5,1.8,0.8,2.5,1.4c0.8,0.7,1,0.4,1.7-0.5c0.8-1,2.7-1,4.1-1.5c0,0.1,0.1,0.3,0.1,0.4
	c0.9,1.4,2.3,1.5,3.7,1.1c0.5-0.2,1.1-0.5,1.5,0c0.7,0.9,1.6,1.4,2.4,2.2c-5.2,0.4-10.3,2.3-15.6-0.4c0.1,0.7,0.2,1,0.2,1.3
	c0.1,0.7,0.4,1.5-0.2,1.9c-0.8,0.5-1.2-0.3-1.7-0.7c-0.7-0.6-1.3-0.7-2-0.1c-1.4,1.2-1.8,0.3-2.2-0.9c-0.8-2.2-1.8-4.3-3.6-5.9
	c-0.8,1.8-0.8,1.8-3.1,1.2c-0.5,0.6,0,1.5-0.8,2c-0.5-0.6-0.8-1.3-1.4-1.7c-1-0.8-2.4-1-3.1,0.1c-0.8,1.3-2.1,2.9,0.1,4.3
	c0.2,0.1,0.5,0.5,0.1,0.9c-1.2-0.8-2.2-2.1-3.7-2.4c-0.6-0.2-1.7,0-1.5,0.3c1.1,1.7-3.4,3.6,0.3,5c0.1,0,0,0.5-0.1,0.8
	c-0.5,1-0.3,1.5,0.9,1.4c1.3-0.2,1.6,0.6,1.2,1.6c-0.7,2.1,0.2,2.4,2,2c0.5-0.1,1.4-0.6,1.2,0.6c-0.1,0.7-1.2,1.9,0.9,1.5
	c0.5-0.1,0.7,1.6,1.8,1.3c0.8-0.2,1.5-0.7,2.2-1c0.6-0.3,1.5-0.6,1.9-0.1c0.6,0.6-0.4,1-0.7,1.5c-0.2,0.4-0.7,0.8-0.3,1.3
	c0.4,0.5,0.9,0,1.3-0.1c1.1-0.5,2.2-1.2,3.3-1.5c0.5-0.2,2.2-1.8,1.6,0.8c-0.1,0.5,0.5,0.6,0.8,0.7c1,0.3,1.4,1,1.4,2.1
	c-3.4,0-6.7-1.2-10.3-0.8c2.5,1.2,3.5,3,2.8,5.7c-0.2,0.9,0.6,0.6,1.1,0.3c1.1-0.8,2.2-1.6,3.3-2.5c0.4-0.4,0.7-1,1.2-0.4
	c0.5,0.6-0.3,0.8-0.6,1.2c-1.4,1.6-2.8,3.2-3.7,5.2c1-0.8,2.3,0.4,2.9-0.1c1.3-1.4,2.3-0.4,3.5,0.1c0.1-0.5,0.2-0.9,0.4-1.2
	c0.1-0.4-0.1-0.9,0.4-1.2c1.8,2.1,1.9,2.2,2.8-0.3c0.6-1.5,1.9-0.6,2.8-1.1c0.3-0.2,0.7,0.1,0.6,0.5c-0.1,1,0.4,1.8,0.8,2.7
	c0.4,0.8,0.1,1.5-0.8,1.7c-2.4,0.5-4.7,1.1-7.1,1.5c-3,0.5-5.4,1.3-6.4,4.5c-0.4,1.1-1,1.8-1.8,0.3c-0.5-0.9-1.1-1.2-2-0.6
	c-1.5,1.1-2.2,0.4-2.6-1c-0.2-0.5-0.5-1-0.8-1.4c-0.5-0.6-1.3-2.4-1.7,0.1c-0.1,0.7-0.8,0.7-1.3,0.6c-0.6-0.1-1.2-0.3-2.1-0.5
	c0.4,0.5,0.8,1,0.8,1c-1.7,1.5-0.1,1.7,0.9,2.3c0.4,0.2,1,0.6,0.8,1.1c-0.3,0.7-0.9,0.2-1.4,0.1c-1.7-0.4-3.2-1.3-5.4-0.8
	c0.9,1,1.8,1.6,2.3,2.5c0.8,1.3-1.3,1.4-1.2,2.6c2.9-0.5,3-0.6,3.5-0.1c0.9,0.9,1.8,0.6,2.8,0.3c2.2-0.8,2.4-0.7,2.3,1.6
	c-0.1,1.6,0.8,1.4,1.7,1.3c0.7-0.1,1.2-0.5,1.9-0.8c0.6-0.2,1.4-0.9,1.7-0.5c1.4,1.9,1.6-0.1,2.3-0.6c0.4-0.3,0.6-1,1.3-0.5
	c0.3,0.8-0.8,1.3-0.4,2.3c2.1-1.1,2.9-0.2,3,1.9c0,0.4,0.5,1.1,0.9,0.8c1.4-1.1,3.5-0.6,4.5-2.1c0.9-1.3,2.1-1.6,3.4-1.9
	c1-0.2,2.3,0.2,2.6-1.4c0.1-0.6,0.7-0.2,0.9,0.2c0.3,0.4,0.7,0.9,1,1.3c0.3,0.4,0.8,0.7,0.5,1.2c-0.3,0.6-0.9,0.5-1.4,0.4
	c-0.8-0.1-1.7-0.9-2.3-0.2c-0.7,0.8,0.3,1.6,0.5,2.4c0.1,0.2,0.1,0.5,0.1,0.9c-1.3-0.1-2.4-0.2-3.6-0.2c-0.8,0-1.6,0.1-2,0.8
	c-0.4,0.7,1.1,0.4,0.8,1.6c-2.4-0.9-5.3,1.5-7.5-1.4c-0.5-0.7-2-0.8-2.1-0.1c-0.2,2.2-1.8,1.8-3.3,2c1.5,1.3,3.2,1.1,4.6,1.8
	c-0.4,0.9-1.9,0.1-1.8,1c0,1,1.1,1.3,1.9,1.7c0.8,0.4,1.8,0.5,2.4,1.2c-0.9,1.1-1.8-0.2-2.6,0.4c0.3,0.8,0.7,2.4,0.2,2.3
	c-1.3-0.3-2.5,1-3.7-0.1c-1.2-1.1-2.8-0.9-4.3-1c-1,0-2.5,0.2-1.9,1.5c0.4,1-0.9,3.9,2.2,2.8c0.4-0.1,1-0.4,1.3,0.1
	c0.3,0.5-0.3,0.8-0.5,1.2c-0.9,1.1-0.5,2.5,0.1,3.3c0.4,0.6,1.3,1.6,2.1,1.7c1.2,0.1,0.8-1.5,1.4-2.2c0.2-0.3,0.4-0.5,0.7-0.7
	c1.4-0.9,3-0.9,4.5-1.2c1.3-0.3,2.5-0.2,3.4-1.5c0.6-1,2.4-0.7,2.9,0.4c0.3,0.6,0,2,1.1,1.8c0.8-0.2,0.6-1.4,0.7-2.2
	c0-0.2-0.1-0.6,0.3-0.7c0.7,0.2,0.9,1.6,1.9,1.2c0.9-0.4,0.6-1.4,0.6-2.2c-0.1-1.1,0.8-0.9,1.4-0.8c1,0.1,2,0.4,2.5-0.8
	c0.8-1.9,2.6-2.3,4.6-3.3c-0.4,0.8-0.6,1.1-0.7,1.5c-1.9,3.8-5.7,5.5-8.9,7.9c-1.4,1.1-3,1.6-4.8,1.3c-1.4-0.2-2.8-0.3-4.3-0.2
	c-2.8,0.3-3.9,1-4.9,3.5c-0.1,0.2-0.3,0.3-0.4,0.4c-2.3,0.6-4.4,1.6-6.5,2.7c-2,1-3.8,2.4-6,2.9c-0.4,0.1-0.9,0.6-0.8,1.3
	c1.5,0.1,1.5,0.1,1.5,1.3c0.6-0.4,1.3-0.8,1.9-1.1c0.3-0.2,1,0,0.9,0.1c-1,2.1,1.2,1.1,1.6,1.8c0.4,0.6-1.3,1.3-0.1,1.7
	c0.8,0.3,0.6,0.4,0.2,0.9c-0.9,0.9-1.9,1.6-3,2.2c-1.8,1-3.6,1.9-5.4,2.9c2.1-0.4,4.1-0.4,6.1,0.1c0.5,0.1,1.2-0.1,1.5-0.4
	c0.9-0.9,1.6-0.3,2.4,0.1c0.6,0.3,0.8,1.1,1.7,1c0.1-0.6,0.3-1.2,0.4-1.8c0.1-0.7,0.3-1,1-0.9c1.3,0.2,3.2,1.3,2.9-1.5
	c0,0,0.1-0.1,0.2-0.1c2-0.6,1.1-1.5,0.3-2.5c-0.2-0.3-0.5-0.5-0.4-0.9c0.2-0.4,0.7-0.4,1.1-0.3c0.7,0,1.2,0.4,1.5,1
	c0.5,0.9,0.9,0.6,1.5,0.1c1.2-0.9,0.8-2.3,1.2-3.5c0.7,0.6,1.3,1.2,1.9,1.5c0.4,0.3,1,0.7,1.5,0.3c0.7-0.4,0.1-1-0.1-1.4
	c-0.4-1.2-0.5-2.2,1.3-1.9c0.2,0,0.6-0.1,0.7-0.2c1.3-1.2,3.3-1.6,3.5-4c0.6,1.8,1.8,2.1,3.1,2.6c1.6,0.6,1.7,0,1.6-1.2
	c0-0.6-0.5-1.4,0.4-1.5c1.5-0.2,1.6-1.5,2-3.3c0.7,1.9,1.6,1.8,2.7,1.5c1.3-0.4,0.5-1.4,0.6-2.1c0.3-1.1,0.1-2.3,1-3.8
	c0,3,2.2,2.1,3.7,2.8c-1.8,1.5-3.8,2.4-4.9,4.3c-0.2,0.3-0.9,0.6,0.1,1.3c1,0.8,3,1.3,2.6,3.2c2.1,0,2.7-1.4,2.8-3.1
	c0-0.1,0.1-0.4,0.2-0.4c2.1,0.7,1.5-1.7,2.4-2.4c1.2,1.1,1.8,2.7,3.7,3.4c-0.6-1.4-0.4-2.4,0.1-3.5c0.3-0.6,0.4-1.3,0-2
	c-1.2-2.3,0.3-3.7,1.8-5.2c0.1,0.2,0.2,0.3,0.2,0.4c-0.2,11.4-0.1,23.1-0.6,34.4c2.6-0.1,3.9-0.2,6.5-0.6c1-0.1,3.1-0.4,4-0.4
	c0-8.3-0.1-17.3-0.1-25.7c0-1.1-0.2-2.3,0.1-3.3c0.4-1.3,2-0.8,3-1.3c1.2-0.6,1.5-1,0.2-1.9c-1.2-0.8-2.1-1.8-2.7-3.6
	c1,0.4,1.6,0.7,2.2,0.9c3,1.3,3.2,1.6,3.2,4.9c0,1.2,0,2.3,0.2,3.5c0.2,1.2,0.6,3,1.8,2.8c1.1-0.2,0.1-1.9,0.1-2.9
	c0-0.5-0.6-1.2,0.2-1.4c0.7-0.3,1,0.5,1.3,1c0.2,0.4,0.3,0.8,0.4,1.1c0.3,0.9,0.4,1.9,1.7,0.9c0.8-0.6,1.6-0.1,2.1,0.7
	c0.4,0.7,0.8,1.4,1.1,2.2c0.5,1.1,1.1,1.4,1.7,0.1c0.3-0.7,0.7-1.5,1.6-1.2c0.8,0.2,0.8,1,0.7,1.7c0,0.6-0.3,1.3,0.5,1.6
	c0.7,0.4,1.5,0.3,2.1-0.3c0.6-0.7,1.2-0.8,1.8-0.3c2.6,2.6,6.2,2.7,9.4,3.7c3.2,1,6.2,3.1,9.8,1.5c0.8-0.3,1.9,0,2-1.2
	c0.1-1.1-0.6-1.7-1.7-1.9c-0.6-0.1-1.6-0.2-1.5-1.1c0.2-1.7-1.1-2-2.2-2.5c-1.5-0.7-3.5-1-4.2-2.4c-1.3-2.8-3.3-4.5-6.1-5.5
	c-0.1,0-0.2-0.2-0.3-0.3c-0.8-1.1-1.9-1.1-3.1-0.8c-2.4,0.6-4.8-0.6-5.8-2.9c-0.4-1-0.3-2,0.5-2.9c0.5-0.5,1-1.1,1.8-0.7
	c1,0.5,0.6,1.6,0.6,2.4c0,2.6,0.4,2.8,2.7,1.7c0.4-0.2,0.7-0.4,1.1-0.5c1.6-0.8,3-1.1,4.3,0.7c0.5,0.8,1.4,1.4,2.7,0.8
	c2.3-1,2.9-0.7,4.4,1.3c0.9,1.3,1.9,3.3,4.1,1.3c0.2-0.2,0.7-0.2,1-0.1c2.1,1.4,4.2,1,6.4,0.2c0.7-0.3,1.9,0.1,1.8-1.3
	C309,370.8,308.2,370.3,306.9,370.2z M297,322.4c-1.4,0.8-2.9,0.6-4.3,0.9C293.8,321.8,295.1,321.4,297,322.4z M228.8,291.6
	c-1,0.4-1.7-0.8-2.7-0.5c0,0.1,0,0.3,0,0.4c0.4,0.9,2,1.5,1.2,2.5c-0.9,1.1-1.9-0.2-2.8-0.7c-0.2-0.1-0.5-0.1-0.9,0.1
	c1.2,1.1,2.3,2.1,3.5,3.2c-0.3,0.3-0.4,0.4-0.5,0.4c-2.8-1.8-6.3-1.1-9.3-2.3c-1-0.4-1.1-0.8-0.5-1.3c0.5-0.6-0.3-2.7,1.6-1.6
	c1.4,0.8,1.8,0,2.4-0.9c0.6-1,1.2-2.8,2.2-0.1c0.2,0.5,0.6,0.5,1,0.1c1.3-1.4,3.9-0.8,4.9-2.9V291.6z M234.9,290.4
	c-0.7,0.2-1.4,0.4-2.2,0.5c-0.6,0.1-1.3,0.2-2.4,0.4c1.8,1.1,3.3,1.8,4.6,2.8c0.3,0.3,0.8,0.5,0.4,0.9c-0.3,0.4-0.7,0.1-1-0.1
	c-0.9-0.5-1.8-1-2.7-1.5c-2.4-1.3-2.7-2.9-1-5c0-0.1,0.1-0.1,0.1-0.2c0.2-0.2,4.9,0.3,5.1,0.6C236.3,289.9,235.5,290.2,234.9,290.4z
	 M238.7,241.5c-1.2,0.7-2.4,0.5-3.4-0.4c-0.7-0.6-1.4-1.5-0.8-2.3c0.5-0.7,1.4,0,1.9,0.4c1.7,1.4,3.3,0,5.2,0.2
	C240.6,240.1,239.7,240.9,238.7,241.5z M268.5,325.8c-0.7-0.2-3-4.3-2.8-4.9c0.1-0.3,0.4-0.4,0.6-0.3c0.8,0.4,2,0.1,2.5,1.1
	c0.2,0.5,0.4,1,0.6,1.6c2.9-3.3,2.2,1.5,4,1.4c0.4-0.1-0.1-1,0.5-1.3c1.1,0.6,0.8,2.1,1.9,2.8c0.6-0.8,0.3-1.7,0.3-2.5
	c0-1.2,0.6-1.8,1.7-1.2c3.5,2.3,7.3,0.4,10.9,0.7c0.8,0.1,1.6-0.3,2.6,0.8c-1.4,0.2-2.5,0.5-3.5,0.5c-1.8,0.1-3.3,0.4-4.6,1.8
	c-0.8,0.9-2.1,1-3.2,1C276,327.7,272.2,326.7,268.5,325.8z"/>
</svg>
