<?xml version="1.0" encoding="utf-8"?>
<!-- Generator: Adobe Illustrator 21.0.0, SVG Export Plug-In . SVG Version: 6.00 Build 0)  -->
<svg version="1.1" id="Warstwa_1_kopia_2" xmlns="http://www.w3.org/2000/svg" xmlns:xlink="http://www.w3.org/1999/xlink" x="0px"
	 y="0px" viewBox="0 0 512 512" style="enable-background:new 0 0 512 512;" xml:space="preserve">
<style type="text/css">
	.st0{fill:url(#SVGID_1_);}
	.st1{fill:#603813;}
	.st2{fill:url(#SVGID_2_);}
	.st3{fill:url(#SVGID_3_);}
	.st4{fill:url(#SVGID_4_);}
	.st5{fill:url(#SVGID_5_);}
	.st6{fill:url(#SVGID_6_);}
</style>
<linearGradient id="SVGID_1_" gradientUnits="userSpaceOnUse" x1="263" y1="7" x2="263" y2="497.2195">
	<stop  offset="0" style="stop-color:#FCEE21"/>
	<stop  offset="0.6759" style="stop-color:#F48924"/>
	<stop  offset="0.7915" style="stop-color:#F37C24"/>
	<stop  offset="0.8065" style="stop-color:#603813"/>
	<stop  offset="0.8769" style="stop-color:#603813"/>
	<stop  offset="0.9548" style="stop-color:#603813"/>
</linearGradient>
<path class="st0" d="M50.5,15.2h231.1C348.9,16,398.3,38,429.8,81.3c30.5,42.9,45.7,96.5,45.7,160.9c0,64-15.2,117.4-45.7,160.2
	c-31.5,43.7-80.9,65.9-148.3,66.8H50.5V15.2z M127.8,403.8l124.2,0.8c59-0.4,98.6-16.1,118.9-47c10.6-14.9,18-32.4,22-52.3
	c2.6-9.7,4.3-20,5.1-30.8c0.4-11,0.6-21.8,0.6-32.4c0.8-47.1-8.4-85.8-27.7-116.1c-10.2-14.7-25.1-26.1-44.5-34.2
	c-19.7-8.1-44.4-12.1-74.3-12.1l-124.2-1.1V403.8z"/>
<path class="st1" d="M307.7,498.3c-0.1,0-0.3,0-0.4,0c-0.2-0.5-0.5-1-0.3-1.7c0.3-1.8-0.1-3.4-0.8-5.1c-1.4,0.5-1.4,1.6-1.6,2.6
	c-0.2,0.6-0.2,1.4-1,1.2c-0.6-0.2-0.5-1-0.3-1.6c0.5-1.7,0.9-3.3,1.4-5c0.4-1.2,0.3-2.7-0.4-3.3c-0.8-0.8-5.2,1.5-5.6,2.9
	c-0.5,1.8-1.3,1-2.1,0.3c-0.3-0.3-0.4-0.8-0.7-1.2c-0.9-1.4-2.8-0.6-3.8-1.8c-0.1-0.1-0.3,1.3-0.7,1.9c-0.8,1.4,1.2,0.8,1.4,2
	c-1.8-1.3-1.9-0.1-2.3,1c-0.5,1.6-0.6,3.1-0.6,4.7c0,0.4,0,0.9-0.5,1c-0.7,0.1-0.6-0.6-0.7-1c-0.3-1.6,0.4-3,0.6-4.5
	c0.1-0.9,0.7-2-1.1-1.4c-0.7,0.2-0.8-0.2-0.9-1c-0.2-1.2,0.4-2.4-0.2-3.8c-0.3,0.5-0.6,0.8-0.8,1.1c-0.2,0.5-0.2,1.3-0.9,0.9
	c-0.7-0.3-0.4-1,0.1-1.5c0.6-0.6,0.8-1.3,0.9-1.9c-1-0.9-1.2,1.9-2.2,0.2c-0.8-1.4-1.4-0.7-1.8,0.1c-0.5,1.3-1.9,1.5-2.6,2.5
	c-0.1,0.2-1,0.6-1.4-0.3c-0.1-0.3-0.5-0.7-0.1-0.7c1.4-0.1,1.8-1.6,2.9-2c1.8-0.6,2-1.4,0.4-3.1c1.6,0.6,2.7,0.1,2.7-0.9
	c0-1.1,0.4-0.9,1-0.9c1-0.1,2.2,0.4,3.1-0.4c-1-1.9-2.8,0.4-4-0.8c0.6-0.8,1.5-1,2.3-1c0.9,0,1.9,0,2.8,0.3c1.2,0.5,1.6-0.6,1.9-1.4
	c0.2-0.4,0.7-1,0-1.4c-0.9-0.4-1.5,0.1-1.8,0.9c-0.2,0.5-0.6,0.6-1.1,0.2c-0.5-0.4-1.3-0.9-1.8-0.7c-2.6,0.8-5.4,0.7-7.7,2.3
	c-0.6,0.4-1.2,0.8-1.9,1.1c-0.3,0.2-0.8,0.7-1.2,0c-0.2-0.6,0.3-0.7,0.6-0.8c1.2-0.7,2.6-1.2,3.5-2.4c0.3-0.4,0.8-0.7,1.4-0.6
	c2.6,0.4,4.2-1.9,6.5-2.3c0.9-0.1,1.6-0.8,2.4-1.3c0.3-0.2,0.7-0.4,0.4-1c-0.2-0.4-0.5-0.7-0.9-0.6c-1.5,0.4-3.2-0.3-4.6,0.2
	c-1.4,0.4-2.3,0.6-3.6-0.3c-0.8-0.6-2.1-1.2-3.4-0.4c-0.4,0.2-1.1,0.3-1.9-0.8c4.1,0.5,7.7-0.8,11.4-0.4c0.8,0.1,2,0.5,2.3-0.5
	c0.3-1-1-0.4-1.4-0.9c-0.1-0.1-0.3-0.2-0.3-0.3c-0.2-1.6-2-0.9-2.6-2c-0.4-0.6-0.7,0.1-1,0.4c-0.5,0.6-0.5,1.6-1.5,1.7
	c-0.2-1.4,1.3-1.9,1.5-3.1c-1.4-0.3-2.7-0.8-2.9-2.5c0-0.4-0.6-0.7-0.9-0.4c-0.4,0.3-1.4,0.8-0.8,1.3c0.7,0.6,0.7,1,0,1.3
	c-0.7,0.3-0.9-0.4-0.9-1c0-0.8-0.5-1.3-1.1-0.8c-1.6,1.6-3.1,0-4.6,0.1c0.8-0.7,1.8-0.7,2.7-0.6c1.2,0.1,2-0.6,2.9-1.1
	c0.8-0.5,0.6-1.2,0.3-1.8c-0.3-0.7-0.9-0.3-1.3,0c-0.4,0.2-0.9,0.4-1.3-0.2c0.9-0.7,2-1.1,3.1-1.2c1-0.1,1.7-0.2,1.7-1.4
	c0-0.4,0.3-0.5,0.6-0.7c1.6-0.7,2.4-2.4,3.7-3.3c-1.5-1.5-3.5,0.4-5.5-1c1.6-0.1,2.8-0.1,3.9-0.3c0.5-0.1,1.1-0.1,1.1-1
	c0-0.6,0.3-1.2-0.3-1.6c-0.7-0.5-1,0.2-1.3,0.4c-1.4,1.2-2,0.5-2-0.9c0-1.2-0.5-1.3-1.4-1.2c-1.3,0.1-2.5,0.1-3.8,0.3
	c-0.9,0.1-2.3-1.2-2.8,0c-0.5,1.2,1.1,1.5,2,2c0.3,0.1,0.6,0.4,0.3,0.8c-0.2,0.4-0.6,0.7-1,0.3c-1.5-1.7-2.3-0.6-3.2,1.2
	c0-2.3-1.6-3.1-2.7-4.2c-0.9-1-1.9-2.5-3.8-1.6c-1.9-2.1-2.9,0.1-4.1,1c-0.5,0.3-0.4,1.2-1.3,1.3c-0.1-0.9,0.6-1.4,0.8-2
	c0.2-0.4,0.8-0.7,0.2-1.4c-0.4-0.6-0.9-0.5-1.4-0.4c-1.2,0.4-2.4,0.8-3.4,1.6c-0.6,0.5-1.2,1.5-1.9,0.9c-1-1,0.6-1.1,0.8-1.7
	c0.2-0.8,0.8-0.7,1.4-0.9c3.6-0.9,7.3-1.9,10.9-2.9c-0.3-0.6-1.3,0.1-1.1-0.8c0.1-0.6,0.7-0.5,1.3-0.6c2-0.1,4.8,1.9,5.5-1.9
	c0-0.1,0.3-0.2,0.5-0.2c1-0.5,1.7-1.4,2.5-2.2c-1.8-0.7-3.4,0.2-5.1-0.4c-1.7-0.5-3.3,0.9-3.9,3.1c-0.1-1.5-0.4-1.7-1.8-1.5
	c-2.1,0.2-3.7,1.5-5.7,1.9c-0.5,0.1-0.9,0.4-1.1-0.3c-0.2-0.6,0-1,0.8-1.1c1.3,0,2.9,0.2,3-1.9c0-0.1,0.6-0.3,0.9-0.2
	c3.2,0.8,6-0.8,8.9-1.3c0.6-0.1,1.6-0.8,1.4-1.1c-0.5-0.9-0.9-2-1.9-2.3c-1.1-0.4-1.1,0.6-1.4,1.2c-0.2,0.3-0.1,1.2-1,0.7
	c-1.2-0.7-2.5-1.3-2.8-3.3c-0.8,1.7-1,3-2.3,3.6c-0.3-0.7,0.1-1.1,0.4-1.5c0.2-0.3,0.3-0.6,0.1-0.9c-1.5,0.7-1.7-1.5-2.9-1.4
	c-0.5,0-1-0.2-1.4,0.2c0.2,0.8,1.3,0.2,1.3,1c0,0.3-0.3,1.1-0.6,0.9c-0.7-0.4-2.5,0.7-2.1-1.4c0.1-0.5-0.4-0.8-0.7-0.7
	c-1.1,0.6-2.2-0.6-3.3-0.1c-0.3,0.1-1.1,0.3-1-0.7c0.1-0.6-0.4-0.4-0.6-0.2c-1,1.2-2.6,0.7-4,1.4c0.3-1.7,1.8-1.3,2.6-2
	c-0.2-0.8-1.2-0.2-1.5-0.9c0.8-0.5,1.6-0.3,2.3-0.4c0.5,0,1.2,0.3,1.3-0.4c0.1-0.7-0.8-1.5-1.1-1.4c-1.7,0.4-3.3-1-5-0.3
	c0-0.3,0-0.5,0-0.8c1.3,0.3,1.6-1.3,2.4-1.4c3.6-0.2,7.3,0.7,10.9-0.6c0.3-0.1,0.6,0.1,1,0.2c2.1,0.3,4.1,1.7,6.3,0.7
	c0.3-0.1,0.7,0,1,0.1c2.5,0.7,4.8-0.8,7.3-0.3c0,0,0-0.1,0.1-0.3c-0.9-0.4-2.1-0.4-2.5-1.5c-0.1-0.2-0.9-0.6-1.5-0.3
	c-1.9,1.2-3.3-0.8-5.4-0.2c0.8-1,1.4-0.7,2-0.8c0.4-0.1,1-0.3,0.9-0.7c-0.4-1.8,0.7-1.2,1.5-1c1.9,0.4,3.6,1.2,5.2,2.5
	c0.6,0.5,1.3,1.5,2,1.1c1.7-1,3.9-0.9,5.2-2.5c-1-0.8-2.5,1.2-3.2-0.9c3.9-0.4,7.6-0.3,11,1.7c0.9,0.5,1.7,0.4,2.6-0.3
	c1.7-1.2,3.1-2.9,5.1-3.3c1.3-0.3,1.8-0.9,2.1-2c0.6-2,1,6.5,1.5,4.2c2.4,0,3.9-10.3,6.3-10.3c0,4.8-0.3,4.1,4.4,6.4
	c0.4,0.2,0.8,0.2,1.1,0.4c1.6,1,3.9,1,4.8,2.6c0.8,1.4,3.1,1.2,3.1,3.3c0,0.3,0.7,0.3,1,0c0.3-0.4,0.6-0.8,1.2-0.9
	c-0.6,1.7,0.6,1.6,1.5,1.5c3.1-0.5,6.4,0.3,9.5-0.7c0.7-0.2,1.5-0.3,2.1,0.2c0.1,0.1,0.1,0.5,0,0.7c-0.5,0.9-1.7,0.9-2.1,0.7
	c-1.4-0.7-2.6,0.3-3.9,0.3c-0.4,0-0.9,0-0.9,0.6c0,0.6,0.6,0.4,0.9,0.6c1.6,1,3.7,1,5.2,2.4c-2.6-1-5.4-0.9-8.1-1.4
	c0.8,0.6,1.7,1,0.9,2.3c1.1-0.7,2.2-0.2,3.1-0.6c0.4-0.2,0.7-0.3,1.1-0.1c-0.9,1.6,1.5,1.1,1.4,2.2c-0.3,0-0.5,0.1-0.8,0.1
	c-0.3,0-0.6-0.1-1-0.1c-1-0.1-0.8,0.5-0.4,1c0.5,0.8,1.2,0.3,1.8,0.2c0.8-0.1,1.6-0.6,2.4-0.1c-0.1,0.6-0.4,0.6-0.7,0.7
	c-0.6,0.2-1.7-0.4-1.7,0.5c0,0.9,1.1,0.7,1.8,0.8c1.1,0.2,2.3-0.4,3.4,0.5c-0.5,0.6-1.5-0.1-1.7,0.9c2.3,0.7,4.9-0.2,7.3,2.1
	c-3.4-0.5-6.2-0.8-9.1-0.7c0.1,1.6,1.6,3,2.2,3.2c2.4,0.7,4.1,2.8,6.4,3.1c2.3,0.3,2.8,1.7,3.2,3.6c-0.7,0.1-1.2-0.9-1.7-0.5
	c-1.8,1.6-3.5,0.9-5.3-0.1c0.5-0.9,1.8,0.1,1.9-0.9c0.1-0.8-0.7-1.1-1.5-1.2c-0.5-0.1-0.4-0.6-0.6-0.9c-0.4-0.7-0.9-0.6-1.5-0.2
	c-0.6,0.4-0.6,0.8-0.2,1.4c0.4,0.6,1,0.9,1.6,1.3c-2.1,1.9-3.4-2.7-5.4-0.4c-1.7-0.9-3.5-1.7-5.7-1.6c0.6,0.7,1.2,1.2,1.9,1.4
	c1.9,0.6,3.7,1.4,4.9,3.1c0.2,0.2,0.4,0.2,0.7,0.2c1.7-0.1,3.1,1.1,4.8,0.7c0.3-0.1,0.7,0.2,0.7,0.6c0,0.6-0.5,0.4-0.9,0.5
	c-0.9,0.2-1.7-0.8-2.9-0.2c3.5,2.6,7.1,4.2,11.6,4c-0.1,0.2-0.1,0.4-0.2,0.6c-0.8,0-1.5,0.1-2.6,0.1c0.9,0.8,1.6,1.3,2.3,2
	c0.2,0.2,0.6,0.4,0.3,0.8c-0.3,0.4-0.7,0.1-0.9-0.1c-1.4-2.2-4.1-2.2-6-3.7c-0.3-0.3-0.7-0.7-1.2-0.3c0.4,0.9-0.1,2.5-0.8,3.4
	c-0.8,1.1-1.4,0.6-2.2,0.1c-0.4-0.3-0.7-1.1-1.6-0.8c0.6,1.8,1.5,2.9,3.6,3.1c0.8,0.1,2.5,0,2.3,1.2c-0.1,1.1-1.5-0.4-2.2,0.1
	c-0.1,1.1,0.8,1.5,1.5,2.1c0.3,0.3,0.6,0.6,0.2,1c-0.3,0.4-0.8,0.4-1,0c-0.8-1.3-3.7-0.9-3-3.5c0-0.1-0.5-0.4-0.6-0.4
	c-2.7,0.8-3.4-1.8-5-2.9c-1.9-1.4-3.9-2.3-6.6-2.8c0.6,1.1,1.4,1.8,1,2.6c-0.3,0.7-0.1,0.8,0.5,1c1,0.3,1.3,1.3,1.9,1.9
	c0.4,0.4,0.9,0.8,0.4,1.4c-0.4,0.6-0.8-0.1-1.2-0.2c-0.4-0.1-0.8-0.5-1.2,0.1c-0.2,0.4-0.1,0.6,0.2,0.8c1.6,1.1-0.3,1.8-0.2,2.7
	c-0.2-0.3-0.2-0.7-0.3-0.9c-0.9-1.7-1.9-3.2-1.7-5.3c0-0.5-0.7-0.9-1.2-0.9c-0.7,0-1,0.5-0.9,1.1c0.1,0.7,0.1,1.5-0.7,1.1
	c-1.6-0.8-1.2,0-1.1,1c0,0.6,0.8,1.5,0.1,1.8c-1,0.5-1.2,1.4-0.7,1.8c0.8,0.6,1.7,1.5,2.9,1.1c0.5-0.2,1.2-0.6,1.5-0.2
	c1.4,1.6,3.4,2.3,5.2,3.3c-1.8,0.2-3.5-1-5.4-0.4c0,0-0.1-0.2-0.1-0.4c-0.2-0.6-0.7-0.4-1-0.2c-0.4,0.3-0.8,0.6-0.9,1
	c-0.1,0.5,0.5,0.4,0.8,0.6c0.6,0.4,2.2,0.1,1.9,1c-0.6,2,0.8,1.9,2.2,2.2c-2.1,0.6-1.6,1.7-0.9,2.7c1.5,1.9,1.4,4.9,4.4,6
	c-1.2,0.5-1.7,0-2.4-0.3c-1.9-0.9-3.5-2.4-5.6-2.8c-0.4-0.1-0.8-0.5-0.9,0.2c-0.1,0.4-0.2,0.9,0.3,1c0.4,0.2,1.3,0,1,0.8
	c-0.3,0.8-0.9,0-1.4-0.1c-0.3,0-0.7-0.3-1-0.2c-0.6,0.2-1.6-0.8-1.7,0.6c-0.1,1.2,0.5,2.5,1.6,2.3c1.6-0.3,2.5,0.5,4.3,1.1
	c-1.9,0.3-3.2-0.9-4.8-0.1c1.7,0.9,2.9,2.1,3.6,3.7c-1.2,0.2-2.1-0.5-3.1-0.3c-0.5,0.1-1,0.1-1.3-0.6c-0.3-0.9-0.9-1.5-1.7-2.1
	c-0.8-0.6-1.3-2.4-2.3-1.8c-1.3,0.8,0,2.1,0.4,3.2c0,0.1,0,0.1,0.1,0.2c0.3,0.4,0.1,0.8-0.3,1c-0.6,0.3-0.6-0.3-0.8-0.6
	c0,0-2.6-2-2.6-2c-0.1-0.4,0.3-0.6,0.5-0.8c0.5-0.5,0.8-1.1,0.3-1.8c-0.6-0.8-1,0.1-1.5,0.3c-0.6,0.1-1.1,0.5-1.7,0.2
	c0.5-1.5-1.1-2.7-3.6-2.7c0.4,0.9,1,1.7,1.2,2.7c0.2,1.7,1,2.2,2.7,2.1c0.6-0.1,1.8,0,1.3,1.3c-0.2,0.5,0.2,0.7,0.5,0.9
	c1.2,0.8,2.2,2,3.6,2.4c1.4,0.4,2.1,1.3,2.1,2.8c-1.9,0.7-2.9-1.2-4.6-1.6c0.6-0.2,1.1-0.2,1.3-0.5c0.2-0.3-0.2-0.7-0.4-0.7
	c-1.7-0.2-2.5-1.9-4.1-2.2c1.2,1.5,1.5,3.7,2.8,4.7c1.7,1.3,0.8,3,1.5,4.3c0.1,0.3,0.2,0.9-0.3,1c-0.6,0.1-0.8-0.3-0.8-0.9
	c0-4-2.9-6.4-4.8-9.2c-0.7,0.2-0.1,1.2-1,1.1c-0.4-4.6-0.6-5.2-2.2-6.8c-0.6,1.6,0,3,0.5,4.4c0.3,0.8,1,1.6,0.5,2.6
	c-0.7,1.1-0.1,1.9,0.6,2.6c1.3,1.2,2.7,2.3,4,3.4c-0.4,0.4-0.8,0.2-1.2,0.3c-1.1,0.2-2.3,0.5-2.4,1.9c-0.1,1.4,0.8,1.9,2.1,2.2
	c1,0.3,2.1,0.5,3,1.6c-2.7-0.3-5.3-0.4-7.4-2.4C308,493.1,308.7,495.7,307.7,498.3z M277.1,434.2c-0.5,1.3-2.4,1.8-0.8,3.2
	c1.1,0.9,2.6,1.4,3.9,2c1.2,0.5,2-0.5,2.7-1.1c0.2-0.2-0.1-1.4-1.1-1.4c-0.3,0-0.5-0.2-0.5-0.5c0-0.6,0.6-0.7,0.8-0.7
	c2.6,0.5,4.7-1.3,7.2-1.3c0.5,0,1.6,0,1.7-1c0.1-0.6-0.1-1.4-0.6-1.4c-1.9,0.2-3.7-2.2-5.7-0.2c-0.3,0.3-0.7,0.6-1,0.9
	c-0.5,0.4-1.2,0.5-1-0.4c0.2-0.9,0-1.4-0.8-1.3c-0.9,0-1.7,0.6-1.7,1.6c0,0.8,0.1,1.6,0.1,2.4c0,0.8,0.4,1.8-0.5,2.2
	c-1.2,0.6-0.5-0.8-1-1.1c-0.1-0.1-0.3,0-0.4,0C276.8,436.8,277.6,435.2,277.1,434.2z M311.7,417.7c0-0.5,0.1-0.9,0-1.3
	c-0.2-1.2-1.1-1.6-2.1-1.8c-0.8-0.1-1.7-0.4-2.1,0.6c-0.8,2-2.6,3.6-2.2,6.1c0.1,0.5-0.5,1.2,0,1.5c0.6,0.3,1.4,0,1.9-0.4
	c0.8-0.6,1.4-1.5,2.4-1.7C311.3,420.3,312,419.3,311.7,417.7z M300.3,481.3c1.5,0.1,2.8-0.2,3.5-1.6c0.7-1.5-1.9-5.4-3.6-5.3
	c-0.6,0-1.2,0.4-1.1,1.2c0.2,1.3-0.8,1.9-1.4,2.7c-0.8,0.9-0.8,1.5,0.2,2.2C298.5,481,299.3,481.6,300.3,481.3z M302.6,416.1
	c0-2.1-0.5-2.4-2.3-1.5c-1.4,0.6-2.5,1.7-3.8,2.6c-0.6,0.5-1.1,1.3-0.8,2.1c0.3,0.8,1,1.2,1.9,1.3c0.9,0.1,1.4-0.2,1.5-1.1
	c0.2-0.8,1-0.9,1.6-1C302.3,418.2,302.7,417.3,302.6,416.1z M312.7,454.2c1.8,0.2,2,0.3,1.8,0.8c-0.5,1,0.2,1.1,0.7,1.4
	c2,1.1,4.1,0.6,5.6-1.3c0.3-0.3,0.9-0.6,0.4-1.1c-0.3-0.4-0.7-0.8-1.2-0.6c-1.3,0.6-3.1-0.8-4,1.1c-0.1,0.2-0.5,0.1-0.7,0
	C314.5,454,313.6,454.3,312.7,454.2z M335.1,443.8c1.2,2.3,3.1,3.4,5.1,4.4c0.8,0.4,1.8,1,2.2-0.1c0.3-0.9,0-2.2-1.4-2.5
	c-0.8-0.2-1.4-0.4-1.9-0.9C338,443.6,336.7,443.4,335.1,443.8z M296.8,446.4c0-1.9-2.2-0.3-2.4-1.6c-1,0.3-0.6,1.2-0.8,1.8
	c-0.4,1.5,0.8,1.6,1.7,1.6C296.7,448.4,296.5,447.2,296.8,446.4z M319.6,447.1c0.4-0.1,1.3,0,1.3-0.8c-0.1-1.5-2.1-1-2.6-2.3
	c-0.1-0.2-0.9,0.1-1.1,0.7C316.6,446,317.7,447.1,319.6,447.1z M293.2,480.4c-0.7,0.1-0.7,0.5-0.8,1c-0.1,0.7,0.7,1.3,0.2,1.9
	c-0.7,1,0.2,1,0.7,1.4c0.5,0.4,1.2,0.6,1.6,0.2c0.5-0.5,0.3-1.2-0.1-1.6c-0.6-0.6-0.7-1.4-1.1-2.1
	C293.5,480.9,293.7,480.4,293.2,480.4z M314.5,446.8c-1-1.5-1-3-2.2-3.9c-0.3-0.2-0.6-1.1-0.9-0.4c-0.3,0.5-1.3,1.4-0.3,2
	C312.1,445,312.7,446.2,314.5,446.8z M288.5,443.2c-0.7,0-1.4,0.1-1.8,0.7c-0.1,0.1,0.2,0.5,0.4,0.6c1.2,0.3,2.4,0.6,3.7,0.7
	c0.5,0.1,0.9-0.3,0.9-0.8c0-0.4-0.1-1.1-0.4-0.9C290.2,444.2,289.4,443,288.5,443.2z M295.3,430.6c-1.9-0.2-2.6-0.8-1.4-2.2
	c0.2-0.2,0.7-0.8,0.1-1.2c-0.4-0.3-0.9,0-1.3,0.2c-1.4,1-0.5,2-0.1,3.1C293.3,431.9,294.1,431.7,295.3,430.6z M307,439
	c-1-0.5-2.1-1.2-3.1-0.7c-0.4,0.2-0.4,1.5,0.3,2C305.7,441.3,306.1,439.6,307,439z M271.2,442.5c0.8-0.6-0.2-1.7,0.9-2.2
	c0.5-0.2-0.1-0.8-0.2-1.2c-0.3-0.6-0.8-0.3-1.2-0.2c-0.5,0.1-0.8,0.4-0.8,1C270,440.8,270.3,441.8,271.2,442.5z M319.2,424.3
	c-0.8,0-1,0.4-0.9,0.9c0.2,0.9,0.5,1.7,1.6,1.7c1,0,1.4-1.1,1.3-1.7C321.2,423.9,319.5,425.4,319.2,424.3z M311.5,471.6
	c0.7,0.6,1.4,0.8,2.2,0.9c0.4,0,0.7,0.6,1.1,0.1c0.3-0.4,0.1-0.8-0.1-1.1C314.1,469.7,313.3,469.8,311.5,471.6z M323.3,443.4
	c0.3-1.5-0.5-0.6-0.7-0.7c-0.8-0.3-1.7-0.3-1.8,0.8c-0.1,0.9,0.9,1.4,1.4,1.4C323.3,445,323.2,443.9,323.3,443.4z M284,459
	c1.3,0.4,2.2-0.2,3.2-0.2c0.4,0,1-0.4,0.9-0.9c-0.1-0.8-0.8-0.6-1.3-0.6C285.7,457.3,284.8,457.9,284,459z M312.2,435.9
	c-0.6,0.2-1.4-0.1-1.4,0.9c0,1.1,0.9,1.5,1.8,1.8c0.4,0.2,0.9-0.6,0.7-0.7C312.7,437.3,313.2,436.1,312.2,435.9z M328.1,446.1
	c0.6-0.6,1.6-0.8,1.5-1.4c-0.3-1-1.6-1.2-2.3-1.8c-0.4-0.3-0.6,0.4-0.5,0.8C326.8,444.6,327.5,445.2,328.1,446.1z M315.3,422.4
	c0.1-1.2-0.7-1.4-1.5-1.6c-0.8-0.2-0.9,0.6-1,1.2c-0.1,1.1,0.9,1,1.6,1.2C315.2,423.5,315.1,422.7,315.3,422.4z M289.7,446.2
	c-0.9-0.2-1.4-0.4-1.9-0.4c-0.7,0-1.1,0.3-1.3,1c-0.1,0.4-0.1,0.8,0.3,1.1c0.7,0.5,0.9-0.2,1.3-0.5
	C288.6,447.2,289,446.8,289.7,446.2z M316.4,449c1,1.8,2.2,1.5,3.2,1.1c0.2-0.1,0.6-0.7,0.1-0.7c-1.2-0.1-0.6-0.4-0.2-0.7
	c0.4-0.3,1,0,1.4-0.7C319.3,447.7,318.4,449.8,316.4,449z M311.4,428.7c-1.2,0.2-1.2,0.9-1.2,1.7c0,0.6,0.2,1.2,0.8,1.1
	c1.1-0.1,0.9-1.3,1.1-2C312.2,429,311.7,428.7,311.4,428.7z M301.5,463.3c0.8-0.1,1.3-0.4,1.2-1.2c0-0.5-0.2-0.9-0.7-0.6
	c-0.6,0.3-1.6,0.2-1.7,1.1C300.2,463.1,301,463.2,301.5,463.3z M287.2,452.7c-0.1-0.8-0.7-0.9-1.3-0.9c-0.5,0-1.1,0.1-1.1,0.8
	c0,0.6,0.4,1,1,0.8C286.2,453.2,287,453.4,287.2,452.7z M295.9,471.3c0.5,0,0.9-0.1,0.7-0.7c-0.1-0.5-0.3-1-0.9-1.1
	c-0.6,0-0.8,0.4-0.8,0.9C294.7,471.3,295.5,471.1,295.9,471.3z M298.9,471.1c2.1,0.7,2.1,0.7,3.5-0.2
	C301.1,469.7,300,469.9,298.9,471.1z M321.4,432.7c-0.3-0.5-0.4-1.4-1.1-1.4c-0.7-0.1-0.7,0.7-0.8,1.2c-0.1,0.7,0.3,1,1,1
	C320.9,433.4,321.4,433.5,321.4,432.7z M305.2,472.4c0.2,0.5-0.3,1.5,0.6,1.6c0.6,0.1,0.8-0.7,0.9-1.4c0.1-0.7-0.2-1.2-0.9-1.3
	C305,471.3,305.2,471.9,305.2,472.4z M330.4,438.5c-1.2-1-2.6-0.9-3.6-1.8C327.4,438.4,328.5,439,330.4,438.5z M317.5,464.5
	c-1.1-1.7-2.6-1-4.3-1.6C314.6,464.4,315.9,464.3,317.5,464.5z M303,472.3c-0.5,0.6-1.4,0.8-1.2,1.6c0.2,0.7,0.8,1.2,1.8,1
	C303.5,474.1,303.3,473.3,303,472.3z M252.3,420.2c1.8,0.8,3.5-0.3,5.3,0C255.8,419.8,254.1,419.7,252.3,420.2z"/>
<linearGradient id="SVGID_2_" gradientUnits="userSpaceOnUse" x1="239.1113" y1="7" x2="239.1113" y2="497.2195">
	<stop  offset="0" style="stop-color:#FCEE21"/>
	<stop  offset="0.6759" style="stop-color:#F48924"/>
	<stop  offset="0.7915" style="stop-color:#F37C24"/>
	<stop  offset="0.8065" style="stop-color:#603813"/>
	<stop  offset="0.8769" style="stop-color:#603813"/>
	<stop  offset="0.9548" style="stop-color:#603813"/>
</linearGradient>
<path class="st2" d="M272.7,462.7c0.6,1.1,0.5,2,1.3,2.6c0.1-2-0.5-3.7-0.7-5.6c-0.1-0.6-0.9-1.7,0.2-1.9c0.9-0.2,0.8,1.1,0.9,1.7
	c0.6,2.3,0.9,4.7,1.4,7c0.5,2.2,0.6,4.6,1.6,6.8c2-2.4,2.5-6.4,1.1-8.7c-0.3-0.5-0.5-1.1-0.5-1.7c-0.1-2.2-0.1-4.4-0.6-6.5
	c-0.3-1.3,0.9-0.2,1-0.8c-0.5-0.7-1.4-1-1.7-2c-1.9-6.8-5.9-12.4-11-17.2c-1.4-1.3-2.4-2.7-3.2-4.5c-1.4-3.3-2.8-6.8-5.7-8.9
	c-2.8-2.1-4.4-5-6.7-7.3c-1-1-0.9-2.2-1.1-3.3c-1.6,0-3.1,0.1-4.7,0.4c-2.8,0.5-5.5,1-8.3,1.1c0,0-0.1,0-0.1,0c0,0.7-0.1,1.3-0.1,2
	c-0.1,1.3-0.8,2-2,2.3c-1.8,0.4-3.5,1.1-5.1,2.1c-4.9,2.9-8.8,6.9-9.5,12.7c-0.4,3.6-1.9,6.5-3.4,9.5c-1.3,2.7-2.4,5.2-2.2,8.1
	c0.1,1.3-0.4,2.1-1.3,3c-2,1.8-4.3,3.6-5.1,6.3c-1.1,3.2-2.8,5.8-5.4,7.9c-0.2,0.1-0.1,0.2,0,0.3c1.1-0.5,1.8-1.8,3.1-2.2
	c0.2,0.8-0.6,1.4,0.1,2.3c0.4-2.6,2.1-4.4,2.7-6.9c1-4.4,4.6-7,8.2-9.8c-0.2,1.4,0.4,2.7-0.6,3.5c-3.3,2.7-4.9,6.4-6.4,10.3
	c-1.4,3.5-3.7,6.4-6.7,8.8c-2.3,1.9-3.7,3.9-3.8,5.8c2.8-4.4,5.4-6.5,8.3-6.7c-1.2,1.7-2.7,3.3-3.2,5.5c1.2-0.3,1.1-1.7,2.3-1.9
	c0.1,1.5-0.2,3.1,0.3,4.5c0.3-3.6,0.4-7.4,4.3-10c-0.2,2.6-0.2,4.8-0.5,7c-0.4,3.1-1.1,6.2-3.1,8.5c-1.6,1.8-1.9,4-3.1,5.9
	c-0.2,0.4-0.5,0.9,0.2,1.3c3.3-3.4,4.3-8.7,9.1-10.8c1.1,2.9-0.7,5.7-0.4,8.6c1.5-3,4.2-5,5.1-8.2c1,2.9,0.6,5.3-2.2,7.3
	c1.1,0,1.2-1.1,2.3-0.8c-0.3,2.6-1.7,5-1.5,7.8c1.8-5.4,3.3-10.9,8.8-14.1c-0.3,1.4-0.5,2.6-0.7,3.7c0.7-1,1.1-2.1,1.6-3.2
	c0.5-1,0.5-2.4,2.7-3.1c-2,6.4-4.5,12.3-4.3,18.7c0.7-2.9,1.2-6,2.7-8.7c-0.2,3.5-0.3,6.9,1.2,10.6c-0.4-5.8-0.4-5.8,1.8-8.8
	c0.5,2,0.9,3.9,1.3,5.8c0-2.7-0.8-5.5-0.3-8.1c0.4-2.5,2.1-4.8,3.2-7.2c0.3,6.5-1.5,13,1.8,19c-0.7-2.7-1.4-5.5-1.4-8.4
	c0-0.6-0.2-1.5,0.3-1.7c1.6-0.6,2.2-2.4,3.8-3.3c-0.4,1.2-0.8,2.2-1.2,3.2c1.2-0.5,1.1-1.9,2.3-2.5c-0.1,1.1,0.8,2,0.3,3.1
	c-0.2-0.3-0.4-0.5-0.5-0.7c-0.1-0.3-0.3-0.4-1-0.2c3.3,3.5,1.1,6.6-0.6,9.8c-0.5,0.9-1,1.7-0.8,3.1c1.2-2.6,2.5-4.9,4.2-7.1
	c1.4,2.3,1.4,4.8,2.1,7.6c0.3-2.8-0.2-5-0.9-7.1c-1-3.3-0.4-6.5,1.5-9.4c0.3-0.4,0.6-1.3,1.3-1c0.6,0.2,0.3,1,0.4,1.5
	c0.3,2.9,0.2,5.8,1,8.7c0.7-0.1,0.6-1,1.3-1c0.3,1.4,0,2.9,1,4.7c-0.2-2.5-0.4-4.5-0.4-6.4c0-1-0.7-2.7,0.4-2.9
	c1.4-0.2,2.1,1.5,2.7,2.6c0.2,0.4,0,1.1,0,1.6c-0.1,3.4,1.3,6,3.9,8.1c-0.1-0.7-0.5-1.3-0.9-2c-0.2-0.5-0.7-0.9-0.3-1.5
	c1.3-1.7,0.7-3.4,0.2-5.1c-0.5-1.7-0.6-1.7,1.1-2.5c0.3,0.7-0.9,0.8-0.3,1.8c0.6-0.6,1.2-1,1.7-1.6c0.9-1.3,1.3-0.6,1.8,0.3
	c1.3,2.7,0.9,5.5-0.2,8.1c-0.5,1.2-1.1,2.3-1.6,3.4c3-3.6,4.3-7.5,2.3-12c-0.5-1.2-0.5-2.1,0.2-3.2c1.3-2.2,2.1-4.6,2.2-7.2
	c0,0,0,0,0,0.1c0,0,0,0,0,0c-0.5,0.6,0,1.7-1.3,2.1c0.6-3.2-1.7-6.2,0.2-9.9c0.4,1.7,0.6,2.9,1.1,4c0.6,1.2,0,2.5,0,3.8
	c0,0,0,0,0-0.1c0,0,0,0,0,0c0.5-0.5-0.1-1.4,0.6-1.7c2.3,2.4,3.1,5.3,2,7.7c-0.5-0.1,0.1-0.9-0.8-0.9c0.6,3-2.1,5.3-1.4,8.4
	c0.6-2,1.8-3.6,2.9-5.3c1.4-2.1,2.1-4.4,1-6.8c-1.1-2.4-1.1-4.9-1-7.4c0-0.6,0.2-1.3-0.4-2c-0.4,1.6,0.1,3.1-0.6,4.7
	c-1.8-3.6-0.5-6.5,1.3-9.6c1.3,2.7,3.2,5,3,8c-0.1,0.8-0.2,1.6,0.5,2.2c-0.3-0.3-0.5-0.9-0.2-1c2-0.3,0.7-1.5,0.6-2.3
	c-0.7-3.6-2.6-6.6-4.5-9.6c-0.6-0.9-1-1.8-0.5-2.9c0.8,0.7,1.5,1.3,2.2,2c0,0,0,0,0,0c-0.7-1.2-1.4-2.4-2.2-3.6
	c-0.4-0.7-0.6-1.4-0.6-2.1c0.1-1,0.5-2.3,1.4-2.4c0.9-0.1,0.9,1.2,1,2c0.5,2,0.4,4.1,0.3,6.2c0,0,0,0,0,0.1c0,0,0,0,0,0c0,0,0,0,0,0
	c0.5,1,0.9,2.1,1.6,3c1.9,2.6,2.9,5.5,2.5,8.7c-0.2,1.8-0.4,3.7-0.6,5.5c-0.1,0.9-0.3,1.9,0.5,2.7c1.8-1.8,1.7-4,1.6-6.3
	c-0.1-1.9-0.7-3.9,0.9-5.6c1.9,4.2,7.2,6.7,5.7,12.5c0.3-0.3,0.6-0.5,0.7-0.8c1.3-2.9,0.2-5.2-1.6-7.3
	C273.6,474.9,272.9,469.1,272.7,462.7z M229.8,460.6c0.5-0.9,1-1.7,1.8-2.8c0.7,1.9-0.7,2.7-1.3,3.7c0,0-0.4-0.1-0.4-0.2
	C229.8,461.1,229.7,460.8,229.8,460.6z M231.6,452.4c0.8-1.6,2.1-2.8,3.4-4C234.3,450,233.1,451.4,231.6,452.4z M235.1,452.3
	c-0.1,1.6-0.5,2.5-2.5,5.3C232.5,455,234.3,453.9,235.1,452.3z M228.9,442.5c-0.1,4-0.8,4.9-4.9,6.6
	C225,446.3,225.7,443.5,228.9,442.5z M224,454.6c-0.4,0.9,0.6,2.4-1.1,2.8c-0.3-3.9,0.5-5.4,3.2-6.2c0.3-0.1,0.7-0.4,0.9-0.1
	c0.3,0.3,0.2,0.8,0,1.1c-0.7,1.2-1.5,2.4-2.3,3.5C224,455.6,224.5,454.9,224,454.6z M222,466.7c-0.4-2,1.5-2.9,2.1-4.5
	C225.1,464.3,224.8,464.8,222,466.7z M228,456.6c1,3.3-0.9,4.6-2.5,6.5C224.5,460.1,226.8,458.9,228,456.6z M224.4,428.2
	c0.9-1.3,2.3-2.1,2.9-3.6c0.1-0.3,0.5-0.7,1-0.4c0.3,0.2,0.2,0.6,0,0.9c-1.5,1.9-2.6,4-4.3,5.7c-0.3,0.3-0.5,0.7-1.1,0.4
	C222.9,429.9,223.7,429.1,224.4,428.2z M226.2,431.1c-0.7,4.5-3.1,7.2-7.1,7.9C221,435.7,223.3,433.3,226.2,431.1z M223.4,438.8
	c-1.3,3.6-1.6,7.5-5.5,9.9C218.5,444.5,217.8,440.1,223.4,438.8z M217.4,451c0.2-0.8,0.2-0.8,1.2-0.4c0.2,0.1,0.5-0.1,0.7-0.4
	c0.3-0.4,0-1.1,0.9-1.4c-0.6,1.9-0.1,4.4-3.1,4.7C217.2,452.5,217.3,451.7,217.4,451z M214.6,461c0.9-2.1,2.4-3.8,4-5.5
	C219.2,458.5,219,458.8,214.6,461z M215,451.2c-0.2-2.5,0.6-4.3,1.3-6.1C215.8,447,216.9,449.2,215,451.2z M216.6,455.8
	c-1.6,2.6-3.7,4.8-5.1,7.5C211.9,459.8,213.9,457.6,216.6,455.8z M218,460.8c0.4,4.4-1,6.2-6.5,8.3
	C213.4,465.8,214.3,462.3,218,460.8z M206.4,471.3c2.4-2.4,3.6-4.9,4.7-7.6C211.6,467.5,209.6,470.9,206.4,471.3z M213.3,479.2
	c0.2,2.6-1.3,3.8-3.6,5.4c1.9-4.6,1.6-8.8,1.7-13.1c0-1.2,0.5-1.7,1.5-2.1c1.1-0.4,2.3-0.9,3.5-1.4c0.4,1-0.3,1.6-0.7,2.3
	C214.1,473.1,213.1,476,213.3,479.2z M214.6,485c-0.1-2.4-0.3-4.4,2.2-5.8C216.1,481.4,215.6,483.1,214.6,485z M215.3,476.8
	c0.6-2.8,1.8-5,3.6-6.8C217.7,472.2,217.8,474.9,215.3,476.8z M226.1,473.7c-2.6,3.6-3,8.3-5.6,12c-0.5,0.7-0.9,1.4-1.8,1.9
	c0-3.5-0.1-6.7,0.3-9.9c0.3-2.1,1.6-3.4,3.3-4.4c1-0.6,1.7-0.8,0-1.2c-0.5-0.1-0.4-0.7-0.1-1c1-1,1.8-2.1,3.3-3.1
	c-0.2,1.2,0.7,2.1-0.3,3c-0.5,0.4-0.2,0.4,0.2,0.5C226.8,471.9,226.6,473,226.1,473.7z M229.2,465.3c0.2,2.1-1.1,3.3-1.9,4.9
	C225.7,467.5,225.9,467.2,229.2,465.3z M228.5,494.4c-0.1-2,0.3-3.4,0.9-4.9C229.8,491.4,229.8,491.4,228.5,494.4z M228.1,479.1
	c0.8-2.2,1.4-3.9,2.1-5.6C231.5,475.5,231.2,476.6,228.1,479.1z M230.8,466.9c-1-2.2,0.1-3.6,1.6-4.8
	C233.1,463.6,233.1,463.7,230.8,466.9z M233.4,468.2c-0.4,1.9-0.7,3.3-1.5,4.7C230.7,470.9,232.1,469.8,233.4,468.2z M231.1,488.2
	c-0.8-4.4,2.1-7.6,3.6-11.3C234.8,481.1,232.8,484.6,231.1,488.2z M234,462.2c-1-2-0.1-3.5,1.3-5.2C235.6,459,235,460.6,234,462.2z
	 M234.5,442.3c-0.1,1.7-2.2,1.7-3.5,2.4c1.1-2.9,1.5-6.2,4.6-8.1C235.8,438.7,234.7,440.4,234.5,442.3z M237.5,484.1
	c-0.8-2.8-1-5-0.7-7.2C237.5,479.1,238.2,481.3,237.5,484.1z M238.2,469.8c-0.4-2.1-0.1-2.8,1.6-4.3
	C240.6,467.4,238.5,468.1,238.2,469.8z M238.7,452.9c-0.1-2,0.4-3.6,1-5.6C240.1,449.4,240.9,451.2,238.7,452.9z M242.9,460.4
	c1.8,1.1,1.7,2.4,0.9,3.9c-0.2-0.1-0.6-0.4-0.6-0.4C244,462.8,242.7,461.7,242.9,460.4z M242.9,487.8c-0.6-1.4-1.4-2.7,0.5-3.9
	C244.1,485.4,244.6,486.7,242.9,487.8z M241.6,483c0.5-2.2,0.9-4.1,1.3-6C245.4,479.8,245.1,481.4,241.6,483z M264.1,444.3
	c-1.7,0-2.6-0.3-2.4-2.4c0.2-2.7-0.4-5.5-1.1-8.2C262.5,437,263.4,440.6,264.1,444.3z M259.7,448.9c0,0.1,0.1,0.4,0.2,0.5
	c1.4,0.8,1.4,0.8,1.6,3.5c-2.9-2.2-4.6-4.8-4.9-8.8C258.3,445.7,260.5,446.4,259.7,448.9z M257,437.8c-2.7-1.7-2.6-4-3-6.1
	C255.3,433.4,256,435.3,257,437.8z M253.7,469.8c-0.1-0.3-0.2-0.5-0.2-0.8c-0.1-1.2,0.8-1.9,1.6-2c0.9-0.1,0.9,1.1,0.9,1.7
	c-0.1,2.5-0.4,5.1-0.7,7.9c-1.2-0.7-1.2-1.4-1.1-2.2C254.4,472.8,254.2,471.3,253.7,469.8z M254.9,465.4c0.2,0.5,0.1,0.8-0.3,1
	c-0.6,0.2-0.6-0.3-0.7-0.7c-0.4-1.6-0.8-3.2-1.2-4.8c0.1,0,0.2-0.1,0.3-0.1C253.7,462.4,254.3,463.9,254.9,465.4z M254.5,453.6
	c1.3,1.7,0.9,3.5,1.3,5.1C254.6,457.3,254.3,455.6,254.5,453.6z M255.2,445.5c-1.8-1.8-3-3.9-4-6.6
	C253.5,440.9,255.4,442.4,255.2,445.5z M247,455.8c1.1,2.2,1.2,2.8,0.8,4.8C247.2,459,246.8,457.6,247,455.8z M247.7,468.7
	c-0.2,0-0.5,0-0.7,0v-5.2C248,465.2,248.1,466.9,247.7,468.7z M247.3,473.1c0.3-0.2,0.6-0.6,1.1-0.3c0.4,0.3,0.4,0.7,0.2,1.1
	c-0.4,1.2-0.8,2.4-1.2,3.6C246.5,476,245.1,474.5,247.3,473.1z M248.9,488.9c-1.3-2.4-1.5-5-1.3-7.8
	C251.1,483.4,249.5,486.2,248.9,488.9z M250,444c-0.5-1.7-1.8-2.5-1.2-4.2C250.4,440.8,250.2,442.1,250,444z M248.3,424.4
	c2.3,1.9,2.7,4.6,3.3,7.7C248.7,430,248.8,427.1,248.3,424.4z M256,490.8c-0.6,1.1-1.8,1.9-2.8,2.6c-0.7,0.4-0.9-0.6-1.3-1
	c-1.3-1.5-0.9-3.3,0.8-4c0.8-0.3,0.7-0.9,0.5-1.3c-1.4-2.7-0.2-5.3,0.4-8.4c1.2,3.7-0.4,7.2,0.8,10.5c0.4-0.2,0-0.9,0.6-1.1
	C255.5,489,256.5,489.9,256,490.8z M257,488.4c-0.7-1.9-0.5-3.4,0.5-5.4C257.6,485,258,486.6,257,488.4z M258.6,485.7
	c-0.8-1.9-1.1-3.6,0.2-5.7C259.6,482.1,259,483.8,258.6,485.7z M259.7,472.1c-0.3-2.9-0.7-5.7-1.9-8.6
	C260.9,466,261.1,468.9,259.7,472.1z M261.9,459.2c-0.6-1.2-1.2-2.3-1.9-3.7C262.4,456,262,457.7,261.9,459.2z M262.2,450.3
	c0.9,1.4,1.8,2.9,1.8,5C261.9,453.9,262.4,452,262.2,450.3z M264.4,447.6c-1.3-0.4-1.7-1.6-2.2-2.7
	C264.1,445,264.8,445.8,264.4,447.6z M274.6,452.6c-2.4-1.2-3-2.4-3.9-7.1C272.2,446.5,273.9,449.5,274.6,452.6z M265.6,439.8
	c2,2.2,3.2,4.9,4.5,7.8C265.3,446.6,266.5,442.7,265.6,439.8z M268.9,449.4c-1.5-0.3-2.4-0.8-2.2-2.4
	C268.1,447.2,269,447.8,268.9,449.4z M266.6,452.4c0.1-0.5-0.1-1.7,0.5-1.5c0.7,0.3,1.9-0.3,2.3,1c0.6,2,1,4-0.6,6.3
	C267.9,456.1,266.2,454.7,266.6,452.4z M268.4,461.2c1.4,3.7,2.8,6.8,2.9,10.3C269.6,468.5,266.6,465.8,268.4,461.2z M271.5,455.8
	c0.2,2.5,0.3,5.1,0.5,7.8C269.3,461.1,269.3,460.4,271.5,455.8z M270.8,451.4c1.5,1.3,2.1,3,2.7,4.8c0.1,0.3,0.1,0.7-0.3,0.8
	c-0.4,0.1-0.6-0.3-0.7-0.5C271.9,454.8,271.3,453.1,270.8,451.4z"/>
<linearGradient id="SVGID_3_" gradientUnits="userSpaceOnUse" x1="177.6239" y1="7" x2="177.6239" y2="497.2195">
	<stop  offset="0" style="stop-color:#FCEE21"/>
	<stop  offset="0.6759" style="stop-color:#F48924"/>
	<stop  offset="0.7915" style="stop-color:#F37C24"/>
	<stop  offset="0.8065" style="stop-color:#603813"/>
	<stop  offset="0.8769" style="stop-color:#603813"/>
	<stop  offset="0.9548" style="stop-color:#603813"/>
</linearGradient>
<path class="st3" d="M218.6,482.3c-0.5,1.2,0.7,1.6,1.3,2.2c0.5,0.6,1.4,0.8,2.1,1.2c0.8,0.5,1.5,1.4,2.1,2.2
	c0.4,0.5,0.8,0.8,1.5,0.9c1,0.2,2.1,0.4,3.1,0.7c0.2,0.1,0.5,0.2,0.4,0.5c-0.1,0.3-0.4,0.2-0.6,0.1c-2.1-0.6-4.3-0.7-6.4-1
	c-0.7-0.1-1.4-0.5-2-0.4c-1,0.1-1.2-0.7-1.8-0.9c-0.8-0.3-1.3-0.8-1.8-1.5c-0.5-0.7-0.9-1.4-1.2-2.2c-0.2-0.7-0.5-1.1-1.3-0.5
	c0.5-0.4,1-0.7,0.7-1.4c-0.6-1.5-0.7-3.1-1.1-4.6c-0.3-1.1-0.5-2.2-1.1-3.4c-0.2,0.5,0.2,0.9-0.2,1.3c-0.4,0.1-0.2-0.5-0.6-0.4
	c0.3,1.8,0.1,3.6,1.1,5.3c0.1,0.1,0.1,0.4,0.1,0.5c-0.9,1.7,0.1,3.4,0.2,5c0.1,0.7,0.1,1.4,0.1,2.2c0,0.3,0,0.6,0,0.9
	c0,1.5-0.1,3,1.1,4.3c-0.5-0.4-1-0.8-1.6-1.2c-0.1,0-0.2,0-0.2-0.2c0.5-2.2-0.6-4.2-1.1-6.2c-0.2-0.7-0.5-1.6-0.8-2.4
	c-0.4-0.9-1.1-0.4-1.5-0.3c-0.7,0.1-0.1-0.4-0.3-0.5l0,0c1.5,0.1,2-0.5,1.3-1.9c-0.2-0.5-0.4-1-0.4-1.8c-0.5,0.5,0,1.2-0.7,1.4
	c-0.3-0.2-0.1-0.5-0.2-0.7c-0.1-0.3-0.2-0.6-0.5-0.6c-0.3,0-0.3,0.3-0.3,0.6c0,0.2,0,0.4-0.2,0.4c-0.3,0-0.4-0.3-0.5-0.5
	c-0.3-1-0.5-2.1-0.7-3.1c-0.2-0.9-0.8-1.5-1.5-2.1c-0.7,2.8-0.2,4.2,1.5,4.4c-0.8,0.1-1.1,0.2-0.7,0.9c0.6,0.9,0.3,2.2,1,3.2
	c-0.9-0.5-1.1-1.6-2.1-2.3c0.6,2.7,2.4,4.6,3.3,7.3c-2-2.1-2.7-4.5-3.6-6.8c-0.1-0.3,0-1-0.6-0.8c-0.5,0.1-0.3,0.7-0.3,1.1
	c0,1.5,1.2,2.6,1.4,4c-0.4-0.1-0.3-0.5-0.6-0.7c0.1,1.2,0.5,2.2,0.4,3.4c-0.6-0.1-0.6-0.5-0.7-0.9c-0.1-0.5-0.2-1.1-0.9-0.9
	c-0.2,0.1-0.3-0.1-0.2-0.1c0.2-0.2,0-0.7,0.4-0.5c0.5,0.3,0.5,0,0.4-0.3c-0.2-0.7-0.5-1.4-0.4-2.2c0-0.1-0.1-0.3-0.1-0.4
	c-1.7-0.5-1.4-1.9-1.4-3c0-1.5-0.2-2.8-1.6-3.7c-0.6,2-0.8,4-0.1,6.1c0.4,1.1,0.7,2.2,0.9,3.4c0,0.1,0,0.2,0,0.3
	c0.2,0.5,0.5,1.1-0.1,1.4c-1.1-1.1,0.1-2.6-0.8-4c0,0.4-0.1,0.7-0.1,1c-0.4,0,0.1-1.1-0.7-0.6c0.3-0.9,0.5-1.7-1-1.3
	c-0.3,0.1-0.3-0.3-0.5-0.3c-0.3-0.1-0.5-0.3-0.8-0.1c-0.2,0.2-0.1,0.5,0,0.7c0.2,0.6,0.4,1.1,0.6,1.7c0.2,0.4,0.3,1.1,0.8,1.1
	c0.6-0.1,0.6-0.8,0.7-1.3c0-0.2,0.1-0.3,0.2-0.5c0,0.6,0,1.1-0.2,1.7c-0.3,0.6-0.3,1.2-0.1,1.8c0.3,0.8,0.3,1.7-0.3,2.5
	c0.1-0.9,0-1.8-0.4-2.7c-0.4-0.8-1.2-1.4-1.5-2.3c-0.4,2.9,2.3,5,1.7,7.9c-0.4-1.2-0.4-2.5-1.5-3.6c-0.3,2-0.3,3.9-1,5.7
	c0.2-1.3,0.4-2.6,0.4-3.9c0-1.2,0.6-2.5-0.3-3.9c-0.1,0.9-0.3,1.7-0.8,2.7c-0.2-1.6,0-2.9,0.1-4.2c0.1-1.2-0.1-2.3-0.4-3.3
	c-0.1-0.4-0.4-0.6-0.7-0.4c-0.4,0.2,0,0.4,0.1,0.7c0.3,1,0.5,2,0.6,3c-0.5-1.3-0.6-2.6-1.6-3.7c0.3,2.1-0.5,4.1,0.2,6.2
	c0.5,1.4,0.4,2.9-0.1,4.1c-0.3,0.8-0.9,1.5-1.3,2.6c-0.1-1.7,1.2-3.3-0.5-4.7c-0.2,1.1-1.4,2-0.5,3.3l0,0c-0.9-0.7-1.1,0.3-1.8,0.7
	c0.2-0.4,0.3-0.7,0.4-1c-0.1,0-0.2,0-0.2,0c-0.2,0.3-0.7,0.3-0.5,0.8c0.5,1.1,0.6,2.1,0.2,3.3c-0.1,0.4,0.3,1,0.5,1.5
	c-1-0.8-1.7-2.5-1.6-4c0-0.2,0.1-0.4,0.1-0.5c-0.1-0.7-0.4-1.6-1.1-1.6c-0.6,0-0.3,0.8-0.3,1.3c-0.1,0.7,0,1.4,0,2.1
	c0-0.9-1.1-1.3-0.9-2.3c0.1-1,0-2-0.1-3c0-0.2-0.1-0.4-0.2-0.5c-0.2-0.1-0.4,0.1-0.5,0.2c-0.2,0.4-0.5,0.7-0.5,1.1
	c-0.2,1.5-0.5,3,0,4.5c0.2,0.4,0.1,0.9,0.1,1.4c-0.3-0.6-0.3-1.4-0.7-2.1c-0.8,0.7-0.9,1.7-1.5,2.5c0-0.6,0.3-1.1,0.5-1.7
	c0.4-1.1,1.1-2.2,0.2-3.2c-0.9-0.9-0.4-1.6,0-2.6c-1.6,1.6-1.8,2.1-1.9,4.5c0.1-1.1-0.4-2.2-0.2-3.3c0.2-1.1,0.3-2.2,0.1-3.4
	c-0.6,1-1.2,2-1.3,3.1c-0.2,1.2,0.2,2.3,0.2,3.8c-0.2-0.9-0.4-1.6-0.6-2.4c-0.2,0.3-0.4,0.5-0.5,0.7c0-0.9,0.7-1.7,0.2-2.6
	c-0.1,0.9-0.6,1.7-0.2,2.6c-0.6,0.7-0.2,1.5-0.5,2.4c-0.2-1.3-0.3-2.5-0.3-3.7c-0.6,1.1-0.6,2.4-1,3.6c-0.1-3.1,1-5.9,1.5-8.9
	c-0.9,0.5-0.8,1.6-1.2,2.3c-0.3-0.4,0.1-0.8,0-1.3c-2.1,1.4-2.4,3.6-3.3,5.6c-0.2-1.3,0.8-2.3,0.4-3.6c0.6-0.4,1-1,1.3-1.6
	c0.6-1.5,1.1-3,1.6-4.5c0.4-1.1,0.5-2.1,0.1-3.4c-0.6,1.1-1,2.1-1.4,3c-0.7,1.4-1.4,2.9-1.2,4.6c0,0.2,0,0.5,0,0.6
	c-0.4,0.8-0.4,0.8-0.3,1.3c-1.4-1.2-1.2,0.9-2.2,1c0.4-0.9,0.4-1.9,0.4-2.9c0-0.5-0.1-0.7-0.6-0.5c0.4-0.7,0.6-1.4,0.5-2.2
	c-0.1-1.6,0.4-3.1,1.1-4.6c0.1-0.2,0.4-0.5,0-0.9c-1,0.6-1.7,1.4-1.8,2.5c-0.2,1.8-0.1,3.7-0.6,5.6c0.4-0.2,0.6-0.3,0.8-0.4
	c-1.3,1.4-2,3.2-2.9,4.9c-0.1,0.2-0.1,0.4-0.6,0.4c0.5-1.1,0.6-2.2,1.3-3.3c0.8-1.2,1.1-2.7,1.3-4.1c0-0.4,0.1-0.7,0.1-1.1
	c0-0.5,0.4-1.1-0.1-1.3c-0.4-0.1-0.6,0.6-0.8,1c-0.5,0.7-0.6,1.6-0.4,2.6c-0.7-0.8-0.2-1.5-0.5-2.2c-0.4,0-0.4,0.5-0.8,0.6
	c0.3-1,0.7-1.8,1.1-2.6c-1.2,0.5-2.1,1.3-2.8,2.4c0.2-0.6,0-1.2,0-1.9c-0.1-1.8-1-3.4-1.3-5.2c-0.1-0.6-0.1-1.2-0.2-1.8
	c-0.3,0.8,0,1.6-0.5,2.4c-0.3-1.4-0.1-2.9,0-4.5c-0.8,0.8-0.8,1.7-1.4,2.3c-0.2,0.2-0.1,0.6,0.2,0.7c0.2,0,0.3-0.3,0.3,0.2
	c0.1,2.7,1.2,5.1,2.3,7.4c0.1,0.3,0.3,0.2,0.5,0.2c-0.5,0.8,0.1,1.8-0.5,2.8c-0.2-0.9,0-1.8-0.3-2.6c-0.2-0.4,0-1-0.8-0.9
	c-0.2,0-0.2-0.5-0.3-0.7c-0.3-1.2-0.5-2.5-1.2-3.6c-0.3,1.8-1.8,3.3-1,5.4l0,0c-0.3-0.1-0.6-0.4-0.8,0.2c-0.5,1.8-1.3,3.5-1.2,5.4
	c-0.4-2.4-0.5-4.8-1.4-7.2c-0.4,0.2-0.4,0.7-0.8,1c0.1-1.2,0.2-2.4,0.3-3.5c-1.6,1.5-1.2,3.9-2.6,5.6c0-1.3,0.9-2.3,0.7-3.6
	c-0.8,0.2-1.4,0.8-2.1,1.1c0.1-0.8,0.7-1,1.2-1.3c0.9-0.5,1.3-1.2,1.4-2.2c0.1-1.8,0.5-3.6-0.1-5.4c-0.2-0.4,0.4-1.2-0.1-1.3
	c-0.5-0.2-0.7,0.7-1.1,1c-0.6,0.5-0.9,1.3-1.3,1.9c0-1.2-0.3-2.2-1-3.4c-0.8,3.1,0.4,5.6,1,8.3c-0.8-1.2-0.9-2.7-1.6-4.2
	c0,0.9,0,1.5,0,2.2c-0.3-1.7,0.2-3.5-0.3-5.2c-0.1,0-0.2,0-0.3,0c0,2.1,0,4.1,0,6.2c-1.4-2.5-0.3-5.4-1.8-7.9c-0.4,0.6,0,1.2-0.3,2
	c-0.7-0.9-0.4-2.1-1.3-2.7c-0.4,1.3-0.4,2.7,0.1,4c0.5,1.1,0.9,2.2,2,2.8c-0.6,0.2-0.8-0.3-1.3-0.3c-0.1,1.2,0.8,2.2,1,3.6
	c-1.3-1.8-1.4-3.7-2.1-5.5c-0.9,2,0.7,3.9,0.1,5.8c-0.5-0.2-0.2-0.7-0.6-1c-0.4,1.2-0.7,2.3-1.1,3.4c-0.2-0.9,0.4-1.8,0.3-2.7
	c-0.1-0.4,0-0.4-0.5-0.3c0.7-1.9,0-3.9,0.4-5.8c-0.8,0.2-0.6,0.8-0.9,1.1c0,0-0.1,0-0.1,0c0-0.1,0-0.2,0-0.3
	c0.6-1.7,0.4-3.4,0.4-5.2c-1.1,0.5-1.3,1.2-1.1,2.2c0.2,1,0.5,2.1,0.7,3.1c-0.4,0-0.2,0.6-0.7,0.6c-0.2-1.2,0.3-2.5-0.8-3.5
	c-0.3,0.5-0.2,0.9-0.1,1.4c0,0.2,0.1,0.4-0.2,0.4c-0.2,0.1-0.3-0.1-0.4-0.3c-0.1-0.3-0.1-0.7-0.1-1c0.1-1.4,0.5-2.8,0.9-4.4
	c-1.1,0.3-1.5,0.9-1.6,2c-0.3-0.3-0.2-0.9-0.6-0.6c-0.6,0.5-1.4,0.6-1.6,1.5c-0.1,0.8-0.3,1.5-0.6,2.3c-0.4,1.1,0.4,1.7,1.1,2.3
	c0.5,0.5,1.2,0.7,1.8,1.1c0.3,0.2,0.8,0.2,0.9,0.8c-0.8-0.2-1.5-0.6-2.1-0.9c-0.6-0.3-1-0.9-1.8-0.8c-0.3,0-0.5-0.4-0.6-0.7
	c-0.1-1-0.5-0.7-1.1-0.3c-0.7,0.5-1.5,1-2.2,1.5c-1,0.7-1.8,1.4-2.2,2.8c-0.3-0.9,0.1-1.4,0.6-1.9c1.2-1.3,2.7-2,4-3.2
	c0.5-0.4,0.7-0.8,0.4-1.5c-0.4-1-0.8-1.3-1.8-0.9c-0.6,0.2-1.3,0.4-2,0.1c0.4-0.4,0.9-0.4,1.3-0.5c1.2-0.1,2.3-0.6,3.4-1.1
	c0.5-0.2,0.7-0.6,0.6-1.1c-0.1-0.5-0.6-0.3-1-0.3c-1.1,0-2.2,0.3-3.2,0.6c-1.4,0.4-2.7,0.4-4-0.6c2,0.9,3.9,0.2,5.8-0.4
	c0.5-0.2,1.1-0.1,1.7-0.1c1.1,0,2.1-0.3,3-1c0.2-0.2,0.4-0.4,0.3-0.6c-0.2-0.3-0.5-0.1-0.7,0c-0.6,0.6-1.4,0.5-2.1,0.4
	c-0.6-0.1-1.2,0.2-1.8,0.3c0.1-1,0.5-1.9,0.4-2.8c-1.2,0.7-2.7,0.1-3.8,1.3c0.6-1.2,1.6-1.8,2.8-2.1c0.7-0.2,1.1-0.5,1.3-1.3
	c-1.1,0.2-1.8,1-2.9,1.3c0.2-0.4,0.4-0.7,0.6-1.1c-5.1,0.5-10,1.6-14.9,0.1c2.6-0.2,5.3-0.4,7.9-0.6c2.8-0.2,5.6-0.5,8.3-1
	c1.7-0.3,2.4-1.8,3.6-2.7c-1.9,0.4-3.7,1-5.3,2.3c0.3-0.7,0.6-1.1,1.5-1.5c0.5-0.3,0.9-0.5,1.4-0.7c2.7-0.9,5.1-2.2,7.4-4.1
	c1.2-1,2.5-2.2,4.1-2.9c0.7-0.3,0-0.9,0.1-1.3c0.1-0.5-0.4-0.3-0.6-0.3c-1.4,0.1-2.6,0.5-3.9,1.1c-0.4,0.2-0.8,0.5-1.1,0.1
	c-0.3-0.5,0.3-0.7,0.5-1c1-0.9,2.3-1,3.6-1.2c0.6-0.1,1.2,0,1.9-0.4c-0.6-0.3-1.1-0.1-1.5,0c-2.2,0.5-4.4,1-6.5,1.4
	c-1.1,0.2-2.2,0.3-3.3,0c-0.7-0.2-1.2-0.6-1.7-1.5c2.3,2.1,4.7,1.2,6.9,0.6c1.7-0.5,3.4-0.9,5.1-1.2c0.6-0.1,0.7-0.2,0.6-0.8
	c-0.4-1.8-0.7-1.9-2.3-1.1c-2.3,1.2-4.6,2.1-7.3,3c0.6-0.8,1.3-0.9,1.8-1.2c1.5-0.7,3-1.4,4.4-2c0.2-0.1,0.5-0.1,0.4-0.5
	c-0.1-0.2-0.3-0.2-0.4-0.2c-1.6-0.2-3.3-0.3-4.9,0c-1.4,0.3-2.6,1.1-3.5,2.4c0.2-1.8,2.6-3,4.5-3.1c1.5-0.1,2.9-0.1,4.4,0.2
	c0.2,0,0.4,0,0.6,0.1c1.4,0.1,1.9-0.4,1.8-2c-0.7,0.6-1.3,1.1-1.9,1.6c-0.1,0-0.1-0.1-0.2-0.1c1.4-1.8,0.5-4,1-6
	c0.2-0.8,0.4-1.5,0.6-2.2c0.2-0.5,0-0.6-0.5-0.5c-0.5,0.1-0.8,0.3-1,0.8c-0.4,1.1-0.9,2.2-1.4,3.2c-0.3,0.6-0.7,1.3-1.6,1.5
	c0-0.6,0.3-1.1,0.6-1.5c0.4-0.9,0.9-1.8,1.4-2.6c0.2-0.5,0.3-0.9-0.5-0.7c-1.2,0.2-2.4,0.5-3.6,0.6c-0.8,0.1-1.3,0.6-1.9,1.3
	c0-1.2-0.7-1-1.3-0.9c-0.8,0.2-1.5,0.4-2.3,0.6c-0.6,0.1-0.9,0.5-1.2,1.2c-0.5-1,0.1-1.3,0.7-1.6c1.2-0.6,2.6-0.6,3.9-1
	c2.2-0.7,4.4-1.4,6.8-1.8c0.4-0.1,0.6-0.3,0.8-0.7c0.2-0.4,0.4-0.5,0.8-0.2c0.6,0.4,1,0,1.2-0.6c0.8-2.9,1.4-5.9,1.1-9
	c0-0.3-0.1-0.6-0.2-0.9c-0.5-1.3-1.3-1.5-2.3-0.5c-0.2,0.2-0.3,0.4-0.5,0.5c-0.4,0.5-0.7,0.3-0.9-0.2c-0.6-1.3-0.4-1.7,0.9-2.2
	c1.2-0.5,2.2-1.2,3.2-1.9c0.4-0.3,0.7-0.3,1.2-0.2c1.8,0.6,3.7,1.1,5.5,1.6c1.2,0.4,1.8,0,2.2-1.2c-0.2-0.2-0.4,0-0.4,0.1
	c-0.6,1-1.6,0.2-2.4,0.5c-0.1,0-0.3,0-0.3-0.2c0-0.2,0.1-0.4,0.3-0.4c2.1-0.1,3.9-1.6,6.1-1.2c0.7,0.1,1.5-0.7,1.6-1.4
	c0-0.4-0.3-0.4-0.5-0.4c-1.2,0.2-2.5-0.2-3.3,1.1c-0.6,0.9-1.7,0.7-2.6,1c0.3-0.4,0.8-0.5,1.3-0.7c0.4-0.1,0.7-0.3,1-0.6
	c0.1-0.2,0.3-0.3,0.2-0.6c-0.1-0.3-0.4-0.2-0.6-0.1c-1.1,0.1-2.2,0.2-3.3,0.4c-0.2,0-0.5,0.1-0.5-0.2c-0.1-0.3,0.2-0.4,0.4-0.4
	c2.1-0.1,4.2-0.9,6.3-0.8c1.3,0,2.4,0.2,3.6-0.7c0.6-0.4,1.6-0.4,2.6-0.1c-0.3-0.6-0.6-0.9-1-1.2c-0.3-0.1-0.3-0.4-0.2-0.6
	c0-0.3,0.1-0.6,0.3-0.9c0.9-1.9,0.9-1.9-1.1-2.4c0-0.3,0.3-0.4,0.4-0.4c1.3,0.3,2.2-0.4,2.9-1.3c-1.2-0.5-2.1,0.1-2.8,1.3
	c-0.4-0.5,0.1-0.7,0.1-1c0-0.5-0.6,0-0.7-0.4c0.8-1,2.1-0.1,3.1-0.7c-0.6-0.3-1.1,0-1.6-0.4c-0.1-0.5,0.6-0.2,0.6-0.7
	c-0.8-0.3-1,0.4-1.4,0.9c-0.4-0.6,0.2-0.9,0.2-1.3c-0.4-0.2-0.6,0.4-0.9,0.3c0.3-0.9,0.3-0.9-2.2-0.9c1-1.5,2.3-0.9,3.7-0.6
	c-0.5-1-0.9-1.8-2.1-1.9c-0.6,0-1.3-0.2-1.6-0.8c0.7-0.1,0.7-1,1.4-1.3c0.3-0.1,0.5-0.1,0.7,0.1c0.6,0.4,1.1,0.8,1.5,1.4
	c0.3,0.4,0.6,0.9,1,1.3c1,1.1,1.3,1.1,2.7,0.5c0.3-0.1,1.2-1.5,1.2,0.3c0,0.2,0.3,0,0.3,0.1c0.4,0.3,0.7,0.6,0.1,1
	c-0.2,0.2-0.6,0.2-0.5,0.6c0.2,0.4,0.5,0,0.8,0c0.2,0,0.4-0.1,0.6-0.2c0.5-0.2,1.2,0.3,1.5-0.5c0.3-1,0.7-2,0.3-3
	c-0.2-0.5-0.3-1-0.2-1.6c0.4-3.1,0-6.2,0.7-9.2c0.2-0.8,0.2-3.1,0.2-3.4c0.1-1.7,6-6.8,6-3.1c0,0.7,2,7.4,1.3,9.1
	c-0.4,0.9-0.2,2,0.3,2.9c0.3,0.6,0.3,1.1,0.2,1.8c-0.4,2.6-0.4,5.2,0.9,7.6c0.1,0.1,0.1,0.3,0.1,0.4c-0.1,1.2,0.6,1.6,1.5,2
	c1,0.4,1.9,0.4,2.7-0.2c0.7-0.4,1.3-0.8,2.1-0.8c0.6,0,1.1-0.3,1.5-0.9c0.2,0.7-0.5,0.8-0.7,1.2c0.4,0.2,0.8,0.1,1.1,0.2
	c-0.1,0.1-0.1,0.2-0.1,0.2c-0.8,0.1-1.5,0.4-0.6,1.3c0.2,0.2,0.1,0.5,0.2,0.8c0.3,1.6,1.3,2.6,2.6,3.6c1.2,1,2.9,1.2,3.7,2.5
	c1.1,1.6,2.7,2.9,3.5,4.7c0.5,1,1.7,1.4,2.6,2.2c0.5,0.4,0.9,0.7,1.4,1.1c0.7,0.5,1.4,0.9,2.3,1.2c2.6,0.6,5.2,0.1,7.7,0.6
	c2.8,0.5,5.5,0.5,8.2-0.2c0.5-0.1,0.5-0.1,1.6,0.3c-4,1.5-7.9,1.1-11.8,0.4c0.5,0.5,1,0.5,1.6,0.6c1.3,0.2,2.5,0.4,3.8,0.4
	c1.3,0,2.3,0.7,3.4,1c0.2,0.1,0.4,0.2,0.2,0.4c-0.2,0.3-0.5,0.3-0.7,0.1c-1.2-0.9-2.5-0.6-3.9-0.6c-1.1,0-1.1,1-1.5,1.4
	c-0.3,0.3,0.4,0.9,1,1.1c0.2,0.1,0.3,0.3,0.5,0.4c-0.6-0.1-1.2,0.1-1.6-0.6c-0.6-1.1-1.5-1.3-2.8-0.8c1.1,0.8,2.5,1,3.7,1.9
	c-2.3-0.5-4.2-1.7-6.2-2.5c0.5,0.9,1.3,1.5,2.1,2.1c0.3,0.2,0.6,0.6,1,0.4c0.3-0.1,0.6-0.1,0.5,0.2c-0.1,0.2,0.4,0.9-0.4,0.7
	c-0.2,0-0.4,0-0.3,0.3c0,0.2,0.2,0.4,0.4,0.3c1.6-0.2,3.2,0.3,4.7,0.7c0.1-1-0.6-1.6-0.7-2.4c0.6,0.3,0.8,0.9,1,1.4
	c0.2,0.6,0.6,1.1,1.4,0.8c0.8-0.2,1.5,0.1,1.9,0.7c0.5,0.8,1.3,1,2.1,1.3c1.1,0.4,2.2,0.9,3.2,1.4c-0.9,0.1-1.6-0.3-2.4-0.3
	c-0.7,0-1.4-1-2.1,0c-0.1,0.1-0.1-0.1-0.1-0.2c-0.4-0.8-1.2-0.7-1.8-0.8c-0.9-0.1,0,0.7-0.5,1c-0.6-2.2-2.6-1.4-4.1-1.9
	c0.9,1.2,2,2.3,2,3.9c-0.5-1.5-1.4-2.5-2.5-3.5c-0.3-0.2-0.5-0.5-0.9-0.5c-0.4,0-0.9-0.1-1.1,0.3c-0.2,0.5,0.4,0.6,0.6,0.8
	c0.4,0.3,0.9,0.5,1.2,1c-0.6-0.3-1.2-0.5-1.9-0.8c0.8,2,2.6,2.6,4.2,3.4c1.1,0.6,2.2,1.3,3.3,2.3c-0.9,0.2-1.5-0.4-2.1-0.3
	c0.1,0.5,0.4,0.8,0.2,1.4c-1.1-0.5-1.6-1.6-2.8-2.2c0.1,0.8,0.2,1.5,0.8,2c0.2,0.1,0.3,0.3,0.3,0.5c0,1.4,1.1,2,2,2.9
	c0.4,0.3,0.8,0.3,1.2,0.4c0.2,0,0.4,0.1,0.4,0.3c0.1,0.4-0.4,0.1-0.4,0.4c-0.1,0.5-0.2,0-0.4-0.1c-0.2-0.1-0.3-0.2-0.6-0.3
	c1.8,2.7,3.4,5.4,4.8,8.4c-1.4-1.8-2.5-3.7-3.9-5.5c-0.4-0.6-1.1-0.9-1.5-1.4c-0.2-0.2-0.5-0.2-0.6,0.1c-0.2,0.6-0.7,0.8-1.1,1.2
	c0.2-0.3,0.4-0.7,0.6-1c0.3-0.7,0.4-1.4-0.3-1.9c-1.2-0.8-2.6-1.2-4.1-1.5c-0.3-0.1-0.7,0-0.8,0.4c-0.1,0.3,0.2,0.5,0.4,0.7
	c1.6,0.9,2.9,2.1,3.1,4.2c0.4-0.4,0.5-0.8,1-0.8c-0.7,1.2-0.9,2.5-0.2,3.9c-0.6-0.1-0.4-1.8-1.5-0.4c0.6-0.9,0.6-1.8,0.1-2.5
	c-0.6-0.9-1.5-1.5-2.3-2.3c-0.2-0.2-0.4,0-0.4,0.2c0,0.7-0.4,0.6-0.9,0.4c-0.4-0.1-0.9-0.2-1.2,0.1c-0.3,0.3,0.1,0.7,0.2,1
	c-0.6-0.3-0.7-1.3-1.8-1c-0.7,0.2-1.5,0.2-2.3,0.2c-0.5,0-0.6,0.1-0.5,0.6c0.1,0.7,0.4,1,1,1.1c1.2,0.3,2.4,0.6,3.7,0.7
	c0.2,0,0.4,0.4,0.6,0.2c0.3-0.2-0.1-0.5-0.2-0.7c0.9,0.9,1.3,2.2,2.7,2.6c0.3,0.1,0.3,0.4,0,0.4c-0.4-0.1,0,0.8-0.5,0.4
	c-0.4-0.4-0.9-0.3-1.7-0.5c0.9,1,1.7,1.9,2.5,2.7c0.2,0.2,0.5,0.2,0.2,0.5c-0.2,0.2-0.5,0.1-0.6-0.1c-0.6-0.6-1.2-1.2-1.8-1.8
	c-0.2-0.2-0.4-0.4-0.7-0.7c-0.2-0.2-0.6-0.6-0.7-0.1c-0.1,0.3-0.6,0.9,0,1.1c0.7,0.3,0.8,0.8,1,1.4c0.5,1.4,0.8,1.6,2.2,1.5
	c0.5,0,0.7,0.2,1,0.6c-0.4,0.3-1.2-0.3-1.4,0.6c-0.1,0.6-0.1,0.7,0.5,1c0.2,0.1,0.2,0.3,0.2,0.4c0.2,2.7,0.6,5.3,1.7,7.7
	c0.4,0.9,1,1.8,1.2,2.8c0.1,0.5,0.9,0.2,1.2,0.6c0.5,0.6,0.9,1.2,1.8,1.3c0.1,0,0.4,0.3,0.1,0.2c-0.5-0.1-0.1,0.9-0.7,0.4
	c-0.5-0.5-1-1-1.5-1.5c-0.1-0.1-0.3-0.2-0.5-0.1c-0.1,0.1-0.1,0.2,0,0.4c0.1,0.5,0.5,0.8,0.8,1c0.9,0.7,1.8,1.4,2.3,2.4
	c0.5,1,0.6,2-0.2,3c-0.4-0.9-1.2-1.6-1.4-2.6c-0.2-0.9-1.1-0.8-1.7-1.1c-0.1-0.1-0.2,0.1-0.3,0.2c-0.1,0.2,0.1,0.3,0.2,0.4
	c0.8,0.8,0.8,0.8,0.9,1.6c-0.1,0-0.1,0.1-0.2,0c-1.7-1.1-1.7-1.1-2.5,0.7c-0.2,0.5-0.4,1.3-0.8,1.1c-0.5-0.3,0.4-0.7,0.5-1.2
	c0.1-0.3,0.4-0.6,0.5-1c0.1-0.4,0-0.6-0.5-0.8c-0.4-0.1-0.9,0.2-1.3-0.3c-0.1-0.2,0,0.5-0.2,0.6c0,0-0.1-0.1-0.1-0.1
	c-0.1-0.4,0.1-1-0.4-1c-0.4,0-0.4,0.7-0.5,1.1c-0.1,0.7,0,1.3,0.2,2c0.1,0.3,0.2,0.7,0.7,0.7c0.2,0,0.4-0.2,0.3,0.1
	c-0.3,0.9,0.4,1.3,0.8,2c0.5,0.8,1.1,1.5,0.6,2.8c-0.5-1-0.9-1.8-1.4-2.6C219,482.1,218.8,482.1,218.6,482.3c0-0.3,0-0.7-0.2-1
	c-0.9-1-1.1-2.3-1.5-3.5c-0.1-0.4,0-0.9-0.6-0.8c-0.5,0.1-0.5,0.7-0.4,1.1c0.2,1.6,0.7,3.1,1.7,4.4
	C218.1,483.2,218.4,483.1,218.6,482.3z M172.1,478.8c-1.2,0.3-1,1.6-1.6,2.3C171.6,480.7,171.7,479.7,172.1,478.8
	c-0.1-1.3,0.7-2.4,0.9-3.7C172.3,476.2,171.5,477.3,172.1,478.8z M166.6,452c0,0.1-0.1,0.3,0,0.3c0.7,0.2,1.4,0.1,1.9-0.3
	c0.4-0.3,0.6-0.9,0.2-1.5c0.5-0.7,0.9-1.3,1.4-2.1c-0.8,0-1,0.7-1.6,0.9c0.1,0.4-0.9,0.9,0.2,1.2c-0.5,0.4-1.1,0.8-1.6,1.3
	c0.1-0.4,0.5-0.6,0.5-0.9c-0.3-0.3-0.5,0.1-0.8,0c-0.4-0.1-0.5,0.4-0.6,0.7C166,452,166.4,451.9,166.6,452z M194.1,460.5
	c0.4,1.1,1.2,0.4,1.6,0.2c0.6-0.3-0.1-0.6-0.2-1c-0.1-0.2-0.3-0.4-0.6-0.3C194.4,459.7,193.9,459.9,194.1,460.5
	c-0.5-0.5-0.8,0-1,0.4c-0.1,0.2-0.1,0.5,0.2,0.5c0.5,0,0.9-0.1,0.8-0.7C194.1,460.6,194.1,460.6,194.1,460.5z M195.5,463.5
	c0.3,0.2,0.6,0.5,1,0c0.3-0.5,0.2-1.2,0-1.6c-0.3-0.4-0.6,0.1-0.8,0.2C194.6,462.5,195.4,463,195.5,463.5c-0.5-0.6-1-1.2-1.9-0.5
	C194.1,463.6,194.8,463.5,195.5,463.5z M166.9,457.8c0-1.2-0.9-1.6-1.6-2.3c0.2,0.9,0.6,1.7,0.9,2.5c0.1,0.2,0.3,0.3,0.5,0.1
	c-0.1,0.6-0.3,1.3,0.8,1.1c-0.3,0.3-0.1,0.6,0.1,0.8c0.5,0.7,1.2,1.2,2,1.7c0.2,0.2,0.7,0.5,1,0.3c0.3-0.2,0.1-0.6,0.1-1
	c0-0.5-0.1-0.9-0.1-1.3c0-0.8-0.3-0.9-1-0.6c0.4-0.6,0-1.6-0.7-1.9c-0.2-0.1-0.4-0.3-0.6-0.1c-0.2,0.2-0.3,0.4-0.2,0.7
	c0.2,0.5,0.4,0.9,0.7,1.5c-0.5-0.1-0.7-0.6-1.1-0.2C167.8,458.4,167.7,458,166.9,457.8z M198.2,470.1c-0.2,0.6,0,1.2,0.2,1.9
	c0.6-0.5,1.1-1.1,0.9-1.8c-0.2-0.7-0.2-1.3-0.3-2c-0.3-0.2-0.1-0.4-0.1-0.7c0-0.8-0.3-0.7-0.9-0.1c0.4-1.1-0.6-1.5-0.9-2.2
	c-0.2,0.7-0.5,1.4-0.5,2.1c0,0.5,0.1,1.5,1.2,1c0.3-0.2,0.8-0.1,1.1-0.1c-0.3,0.3-0.6,0.7-0.5,1.2
	C198.6,469.8,198.5,470,198.2,470.1c0-0.1,0.1-0.2,0.1-0.3c0.1-0.4,0.1-0.9-0.4-1c-0.3-0.1-0.6,0.1-0.5,0.3
	C197.6,469.5,197.3,470.3,198.2,470.1z M210.5,442.8c-0.2-0.2-0.3-0.5-0.5-0.7c-0.4-0.4-0.9-0.2-1.3-0.2c-0.1,0-0.3,0.3-0.1,0.3
	c0.6,0.3,0.2,1.8,1.5,1.1c0.3-0.2,0.2,0.2,0.3,0.3c0.6,1.1,1.6,1.4,2.7,1.5c-0.3-0.4-0.7-0.7-1.2-0.8
	C211.1,444.1,210.6,443.6,210.5,442.8c0.6,1.3,2.1,1.3,3.1,2.2c0-0.3,0.1-0.5,0-0.6c-0.7-1-1.8-1.6-2.8-2.2
	C210.4,442,210.5,442.5,210.5,442.8z M193,458c-0.1,0.4,0,0.7,0.4,0.8c0.4,0.1,0.7-0.2,0.7-0.5c0.1-0.6-0.4-0.8-0.7-1.2
	C193.3,457.5,193.1,457.7,193,458c0.1-0.5,0.1-0.9-0.2-1.4c-0.1-0.2-0.1-0.4-0.4-0.4c-0.2,0-0.4,0.1-0.5,0.3
	c-0.5,0.8-0.5,2.6,0.1,3.4c0.2,0.3,0.3,0.4,0.6,0.1c0.2-0.3,0.9-0.6,0.3-1.2C192.7,458.5,192.7,458.2,193,458z M214.5,448.3
	c0.8,0.9,1.8,0,2.8,0.3c-1.1-0.3-1.7-1.2-2.6-1.6c-0.2-0.1-0.4,0.1-0.4,0.4C214.3,447.7,214.3,448.1,214.5,448.3
	c-0.2-0.5-0.5-0.6-1.1-0.3c-0.1-0.5,0.5-0.6,0.4-1.1c-0.9,0-1.8-0.1-2.7-0.3c-0.2-0.1-0.7-0.2-0.6,0.4c0.1,1.4,1,2.1,2.4,2
	c0.4,0,0.8-0.2,1.3-0.2C214.5,448.9,214.6,448.7,214.5,448.3z M201.7,470.5c0-0.2,0-0.4,0.1-0.5c0.1-0.4,0-0.7-0.4-0.9
	c-0.1-0.1-0.3-0.1-0.3,0.1c-0.1,0.5-0.2,1.1,0.1,1.5C201.3,471,201.5,470.5,201.7,470.5c0.1,0.1,0.1,0.3,0.2,0.3
	c0.7,0.3,1.3,0,1.4-0.8c0.2-1.6,0.7-3.2-0.1-4.8c-0.1-0.2,0.5-0.6-0.2-0.7c-0.5,0-0.5,0.4-0.6,0.7c-0.2,0.6-0.4,1.3-0.6,1.9
	c-0.3,0.7-0.4,1.3,0.3,1.9C202.7,469.6,202.5,470.2,201.7,470.5z M167.2,438.2c1.5-1.6,2.2-3.7,4.1-5.1c-0.5-0.1-0.7,0.1-0.9,0.3
	c-2.4,2-3.8,4.8-6,6.9c-0.1,0.1-0.2,0.3-0.1,0.5c0.1,0.1,0.3,0.1,0.5,0c0.4-0.2,0.6-0.6,0.9-1c-0.3,0.6-0.1,0.8,0.5,0.5
	c0.9-0.5,1.7-1,2.5-1.5c0.2-0.1,0.4-0.4,0.2-0.8c-0.6,0.4-1.1,0.8-1.6,1.2c0.3-0.5,0.7-0.9,1.1-1.2c1.2-0.8,2.4-1.5,3.3-2.7
	c0.2-0.3,0.6-0.5,0.5-1c-0.1-0.3-0.4-0.6-0.7-0.7c-0.5-0.1-0.6,0.4-0.8,0.7C169.8,435.7,168.7,437.2,167.2,438.2z M199.4,449.8
	c-0.2-0.6,0.4-1.1,0.2-1.9c-0.5,0.4-0.7,0.9-0.9,1.3c-0.1,0.2-0.2,0.5,0,0.7C199,450.1,199.2,449.8,199.4,449.8c0,0.3-0.4,0.6-0.2,1
	c0.4,0.9,0.1,1.7-0.5,2.3c-0.7,0.6-0.7,1.2-0.1,1.9c-0.9-0.8-1-0.8-1.5,0.3c-0.2,0.4-0.3,0.7-0.4,1.1c-0.2,0.4-0.2,0.8,0.3,1.1
	c0.8,0.5,1.3-0.2,2-0.4c0.6-0.2,0-0.6,0-0.8c0.5,0.4,0.9,0.4,1-0.4c0.1-0.5,0.2-1,0.3-1.6c0.4-1.4,1.1-2.7,1.3-4.3
	c0.1-1.1,0.4-2.3,0.6-3.4c0.1-0.3,0.1-0.8-0.2-1c-1.4,1.9-1.4,1.9-0.9,4c0.1,0.5,0.4,1.1-0.1,1.7c-0.6-0.8-0.4-1.7-0.9-2.4
	C199.6,449.1,199.9,449.7,199.4,449.8z M177,452.4c0.1,0,0.3,0.1,0.3,0.1c0.6-1.5,2-2.4,3.1-3.4c0.5-0.5,0.5-1.3-0.2-1.7
	c-0.2-0.2-0.2-0.2-0.2-0.4c-0.2-0.9-0.2-1.8-0.1-2.7c-0.4,0-0.6,0.3-0.9,0.5c-0.7,0.5-1.5,1-0.9,2.1c0.1,0.2,0.3,0.9-0.6,0.7
	c-0.4-0.1-1,0.8-1,0.9c0.6,0.9-0.3,1.4-0.4,2.2c-0.2,0-0.3,0.5-0.6,0.3c0-0.6,0.3-1.1,0-2c-0.5,1.8-1,3.4-1.4,5
	c-0.4-0.2-0.2-0.5-0.2-0.7c0-0.4-0.2-0.2-0.4,0c0.4-1.6,1.5-3.1,1.5-4.9c-1.9,0.9-2.4,1.9-1.9,3.9c0.1,0.2,0,0.4-0.1,0.6
	c-0.4,0.5-0.4,0.5,0.4,0.7c-0.4,0.6-0.9,1.3-1.3,1.9c0.1-0.5-0.2-0.7-0.5-0.9c-0.2-0.1-0.4,0.1-0.4,0.2c0.3,1-0.6,0.4-0.9,0.7
	c0.3-1,0-1.1-1.9-0.9c0.3-0.3,0.7-0.6,0.5-1c-0.2-0.4-0.7-0.2-1.1-0.2c-0.2,0-0.4,0-0.5,0c-0.2,0-0.5,0-0.5,0.2
	c0,0.1,0.1,0.3,0.2,0.4c0.7,0.7,1.3,1.7,2.8,0.9c-0.2,0.3-0.2,0.4-0.3,0.5c-0.1,0.2-0.7,0.1-0.3,0.6c0.3,0.3,0.5,0.2,0.8-0.1
	c0.1-0.1,0.2-0.3,0.3-0.4c-0.1,0.6-0.6,1-0.7,1.6c0,0.2-0.2,0.4,0,0.6c0.3,0.3,0.5,0,0.7-0.2c0.2-0.1,0.4-0.3,0.7-0.1
	c-0.3,0.3-1.2,0.3-0.7,0.9c0.4,0.6,1.3,0.5,2,0.9c0.3,0.2,0.5-0.4,0.9-0.5c0.2,0.4,0.4,0.7,0,1.1c-0.3,0.2-0.1,0.6-0.1,0.9
	c-0.7,0.2-1.3,0.5-1.7,1.1c-0.3,0.4-0.1,0.7,0.4,0.6c0.7-0.1,1.6-0.2,2-1c-0.1,0.3,0,0.6,0.4,0.5c0.4-0.1,0.9,0,1-0.6
	c0.3-1.5,1-2.8,1.9-4.1c0.6-0.9,0.2-2.8-0.6-3.5C177.1,453.3,177,452.8,177,452.4z M218.1,470.8c-0.7-0.1-1.2,0.1-0.8,0.8
	c0.5,0.8,0.8,1.7,1.2,2.6c0.5,1.2,1.5,1.8,2.7,2c0.5,0.1,0.7,0,1-0.4c0.3-0.5-0.1-0.6-0.4-0.8C220.3,473.9,219.4,472.1,218.1,470.8
	c0.2,0.4,0.5,0.8,1.2,0.7c-0.5-2.1-0.1-4.2-0.7-6.5c-0.3,0.7-0.3,1.3-1,1.6c0.5-0.5,0.5-1.1,0.3-1.7c-0.3-0.8-0.6-1.5-1-2.2
	c-0.2-0.4-0.4-0.5-0.7-0.1c-0.2,0.2-0.4,0.6-0.8,0.3c-0.3-0.2-0.5-0.5-0.3-0.9c0.4,0,0.2,0.8,0.6,0.6c0.4-0.1,0.7-0.5,0.7-1
	c0.1-0.8-1.1-2.2-1.9-2.4c-0.2,0-0.6-0.3-0.7,0c-0.2,0.3,0.2,0.5,0.3,0.7c0.1,0.1,0.4,0.3,0.2,0.6c-0.8,0.8-0.9,1-0.1,1.8
	c0.6,0.7,1.3,1.3,2,2.1c-1.2-0.2-0.8,0.7-1,1.5c0-1,0.1-1.7-0.6-2.2c-0.4,0.2,0.3,0.5-0.2,0.7c-0.1-0.8-0.8-0.6-1.5-1
	c0.2,1-0.1,2,1.1,2.3c0.2,0,0,0.2,0.1,0.2C214.9,467.9,215.8,470,218.1,470.8z M198.4,437.1c-1.9,0.7-2.4,1.4-1.7,2.4
	c-0.7-0.4-1.1,0-1.6,0.4c-0.4,0.4-0.8,0.8-1.1,1.2c-0.6,0.8-1.5,1.5-1.7,2.5c-0.2,1-0.4,2.1-0.7,3.1c-0.3,1.3,0.5,3,1.5,3.4
	c-0.2,0.3-0.7-0.1-0.7,0.2c0,0.6,0.1,1.3,0.6,1.6c0.5,0.3,0.7-0.3,0.9-0.6c1.7-2.9,4-5.4,6.1-8.1c0.5-0.7,1.1-1.3,1.4-2.1
	c0.2-0.5,0-0.6-0.5-0.5c-1.5,0.3-2.8,0.7-2.9,2.7c-0.6-1.9,0.2-2.9,2-3.3c1.8-0.4,1.9-0.6,0.8-2c0,0,0-0.1-0.1-0.1
	c-0.6-0.4-1.2-1-2.1-0.5c-0.7,0.5-1.4,1-0.8,2c0.1,0.2,0.1,0.4-0.1,0.5c-0.2,0.1-0.4-0.1-0.4-0.3c-0.1-0.3-0.1-0.5,0-0.8
	C197.7,438.3,198.1,437.7,198.4,437.1z M154.8,433c0.6-0.1,0.8-0.4,1.1-0.7c0.9-0.9,2-1.5,3.2-1.9c0.9-0.4,1.2-0.9,0.9-1.8
	c-0.3-0.7,0-1.3,0.3-1.9c0.1-0.4,0.5-0.7,0.4-1.2c-0.7,0.5-0.7,1.2-1.2,1.7c0.2-0.6,0.3-1.3,0.7-1.8c0.4-0.6-0.1-0.7-0.4-0.7
	c-1.3-0.1-2.2,0.5-2.8,1.7c-0.3,0.6-0.6,1.2-1.2,1.6c-0.6,0.4-0.8,1.2-0.9,1.9C154.8,430.8,154.8,431.8,154.8,433z M156.1,446.1
	c1.7-3,3.8-5.7,5.5-8.7c0.4-0.7,0.5-1.7,0.9-2.8c-2,1.8-3.1,3.8-3.3,6.3c-0.5-0.4-0.1-0.9-0.6-1.1c-0.6,1.1-1.2,2.2-1.8,3.2
	c-0.1-0.1-0.2-0.1-0.3-0.2c1.5-2.7,2.9-5.5,5-7.8c0.5-0.6,1.2-1,1-2c-0.4,0-0.5,0.3-0.7,0.5c-1.1,1.4-2.2,2.7-3.1,4.2
	c-0.9,1.4-1.7,2.7-2.8,4c-0.4,0.4-1,0.9-0.7,1.6C155.7,444.2,156,445.1,156.1,446.1z M192.7,440.1c1-0.9,1.6-2.1,2.5-3
	c1.1-1.1,1.3-2.2,0.6-3.5c-0.1-0.2-0.2-0.5-0.3-0.7c-0.2-0.6-0.7-1-1.2-0.9c-0.6,0.1-0.4,0.7-0.4,1.2c-0.1,2-0.5,3.9-0.9,6
	c-0.3-0.5-0.5-0.8-0.4-1.3c0.2-1,0.3-2,0.5-2.9c0.1-0.6-0.4-1-0.2-1.5c0,0-0.3-0.2-0.4-0.2c-0.4,0-1.3,1.6-1.2,2
	c0.1,0.2,0.2,0.4,0.5,0.3c0.2,0,0.4-0.4,0.4,0c0.1,0.3-0.1,0.4-0.4,0.3c-0.4-0.1-0.4,0.3-0.3,0.5C192,437.6,191.8,439,192.7,440.1z
	 M205.3,455.2c-1,1.2-2,2-1.6,3.5c0.3,1.2,0.6,2.4,0.7,3.6c0.1,1.5,1,2.1,2.3,2.6C207.3,461.6,205.7,458.6,205.3,455.2z
	 M169.5,479.4c-0.2-0.6-0.7-1.1-0.1-1.6c0.2-0.1-0.1-0.5-0.3-0.6c-1-0.8-1.2-1.9-1.3-3.1c0-0.4,0.1-1-0.5-0.9
	c-0.7,0.1-0.3,0.7-0.3,1c0.1,0.9,0.2,1.9-0.1,3c-0.5-1.4-0.2-2.6-0.7-3.6c-0.2,3.1,0.4,6,3,8.3c0.2-0.7,0.8-1.2,1.2-1.9
	c0.4-0.6,0.6-1.2,0.7-1.9c0-0.3-0.1-0.7-0.4-0.8c-0.3-0.1-0.5,0.3-0.5,0.6C170.3,478.5,169.8,478.8,169.5,479.4z M189.8,452.3
	c-0.4-0.4-0.5-0.8-0.4-1.2c0.1-1.2-0.1-2.4-0.8-3.4c-0.2-0.3-0.4-0.8-0.9-0.5c-0.5,0.2-0.6,0.5-0.5,1c0.1,1.3,0.1,2.7,0.2,4
	c0.1,0.9,0.6,1.6,1.2,2.2c0.6,0.5,0.6-0.6,1.1-0.6c0.2,0,0.4,0.1,0.6,0.1c0.5-0.2,0.9-0.4,0.6-1.1c-0.3-0.7-0.6-1.4-1.3-1.9
	C189.4,451.4,190.1,451.7,189.8,452.3z M178.4,439.1c-1.7,1.1-1.9,2.7-2.6,4.1c-0.5-0.6-0.5-0.6-1.3-0.1c0.4-0.8,0.9-1.5,1.4-2.2
	c0.5-0.6,0.6-1.6,0.2-2c-0.9-0.6-0.3-1.2-0.2-1.8c0.1-0.3,0.2-0.5,0.1-0.8c0-0.4-0.1-0.9-0.5-0.9c-0.6-0.1-0.5,0.5-0.6,0.8
	c0,0.3-0.1,0.7,0,1.1c0.4,2,0,3.9-0.9,5.8c-0.4,0.7-0.4,1.4,0,2.1c0.4,0.6,0.7,0.8,1.2,0c0.5-1,1.1-2,1.7-2.9
	C177.5,441.4,177.8,440.3,178.4,439.1z M163.3,477c-0.4,2.3-1.9,3.8-2,5.9c-0.5-1.7-0.1-3.2,0.2-4.8c-0.9,1.3-1.7,2.5-1.4,4.2
	c0.3,1.5,0.8,2.9,0.9,4.4c1-2.4,1.9-4.8,2.6-7.3C163.9,478.7,163.9,478,163.3,477z M158.8,445.1c0.5-1.7,1.8-2.9,2.3-4.5
	c-2.3,1.6-3,4.3-4.5,6.5c0.5-0.1,1-0.3,1.5-0.2c1.1,0.3,1.6-0.4,2-1.3c0.4-0.9,0.8-1.7,1.1-2.6c0.3-0.8,1-1.4,1-2.5
	C160.8,441.9,160,443.7,158.8,445.1z M159.8,431.3c-1.3,0.3-2.5,0.9-3.5,1.8c-0.5,0.4-1.4,0.7-1.4,1.3c-0.2,1.3-0.6,2.5-0.8,3.7
	c0,0.3-0.2,0.7,0.1,0.9c0.3,0.2,0.6-0.2,0.7-0.4c0.9-1.3,1.6-2.6,2.2-4.1C157.7,433.3,158.3,432,159.8,431.3z M166.2,461.3
	c-0.1-0.8-0.9-1.3-1.7-1.8c-0.6-0.3-1.4-0.5-1.9,0c-0.4,0.4,0,1.1,0.1,1.7c0.1,0.3,0.2,0.5,0.3,0.8c0.3,0.6,2.5,1.9,2.9,1.6
	c0.5-0.5,0.3-1.2,0.2-1.9C166.1,461.6,166.1,461.5,166.2,461.3z M172.9,411.5c0,0,0.1,0,0.1,0c0.3,1,0.6,1.9,0.9,2.9
	c0.2,0.9,1,1,1.7,0.9c0.7-0.1,0.4-0.8,0.5-1.2c0.2-1,0.1-1.9-0.9-2.5c-0.4-0.2-0.8-0.1-1.2-0.1c-0.1-0.9-1-0.5-1.4-0.9
	c-0.3-0.4-0.5,0-0.7,0.3c-0.2,0.3-0.3,0.6,0.1,0.8c0.3,0.2,0.6,0.5,1.1,0.8C172.9,412,172.9,411.8,172.9,411.5z M155.5,467.2
	c-0.6,2.2,0.6,4.3,0,6.5c-0.6-1.3-0.4-2.8-0.9-4.5c-1.1,2.4,0.5,4,0.8,6.2c0.8-1,1.6-1.6,1.1-2.9c-0.2-0.7-0.2-1.5-0.2-2.2
	C156.5,469.3,156,468.3,155.5,467.2z M180.7,449.4c-2.4,1.4-3.2,2.8-2.8,4.9c0,0.2,0.1,0.4,0.1,0.5c-0.1,0.3-0.5,0.7,0,0.9
	c0.5,0.3,0.7-0.3,1.1-0.5c0.3-0.2,0.3-0.5,0.5-0.8C180.4,452.9,179.8,451.2,180.7,449.4z M182.5,433c-1.8,2.7-2.5,5.3-2.4,7.8
	c0,0.2-0.1,0.6,0.2,0.7c0.3,0.1,0.5-0.2,0.7-0.4c1-1.2,1.2-2.6,1.3-4.2c-0.4,0.2-0.4,0.8-0.9,0.9C181.7,436.2,182.5,434.8,182.5,433
	z M142,465.8c0.1-1.3-0.6-0.5-1-0.6c-0.5-0.2-0.6,0.1-0.6,0.4c-0.1,0.7-0.2,1.4-0.2,2.1c0.5-0.1,0.9-0.1,1.3-0.2
	c2-0.2,2.7-0.8,3.1-2.7c0.1-0.3-0.1-0.6-0.3-0.4C143.6,465,142.3,464.4,142,465.8z M172.5,425.4c-3.3-0.3-5.2,0.1-6.3,1.6
	c0.8,0.1,1.6,0.2,2.5-0.4c-0.6,0.7-1,0.9-1.7,0.9c-0.6,0-1.3,0.1-1.9,0.2c-0.3,0-0.5,0.3-0.5,0.6c0,0.2,0.1,0.4,0.3,0.3
	c1-0.6,2.1-0.1,3.1-0.7c1.2-0.7,2.5-1.4,3.9-1.7C172.2,425.9,172.4,425.9,172.5,425.4z M213.5,469.9c1.8,1.9,2.1,4.4,2.4,6.9
	c0.9-0.7,1.5-1.4,1.2-2.6c-0.1-0.4-0.4-0.6-0.5-1C216.1,471.6,214.9,470.7,213.5,469.9z M161,461.6c-0.2,0.9,0.1,1.5,0.7,2
	c0.9,0.8,2.1,1.2,3,1.9c0.4,0.3,0.8,0.7,1.4,0.5c0.3-0.1,0.4-0.3,0.3-0.6c-0.1-0.7-0.6-0.9-1.1-1.1c-0.3-0.1-0.6-0.4-0.8-0.3
	c-0.7,0.5-0.9-0.2-1.2-0.5C162.7,462.6,161.9,462.2,161,461.6z M158.5,480.1c0.2-0.1,0.3-0.2,0.3-0.2c1.1-2.7,2.1-5.3,2.6-8.2
	c0-0.3,0.1-0.6-0.3-0.7c-0.3,0-0.3,0.3-0.4,0.5c-0.3,1.2-0.6,2.5-0.9,3.7c-0.1,0.3-0.1,0.7-0.4,0.8c-0.4,0-0.4-0.4-0.5-0.7
	c-0.1-0.2-0.1-0.5-0.5-0.6C158.8,476.5,158.9,478.3,158.5,480.1z M167.3,468c-0.1,0-0.1,0-0.2,0c-0.1-0.4-0.2-0.8-0.4-1.2
	c-0.1-0.2-0.3-0.3-0.5-0.2c-0.2,0.1-0.2,0.2-0.2,0.4c0.2,1.2,1.4,2.3,2.6,2.4c0.9,0.1,1.2-0.2,0.8-1.1c-0.2-0.4-0.2-0.9-0.3-1.3
	c0-0.2,0-0.5-0.3-0.5c-0.5-0.1-0.8,0.6-1.4,0.3c-0.1,0,0,0.5-0.1,0.8C167.3,467.8,167.3,467.9,167.3,468z M167.3,432.7
	c-0.4,0.3-0.8,0.5-1.2,0.8c-1.5,1.1-2.5,2.5-2.9,4.4c0,0.3-0.1,0.5,0.1,0.7c0.3,0.2,0.5-0.1,0.6-0.3c1-1,1.6-2.2,2.4-3.5
	c-0.7,0.3-0.8,1.1-1.5,1.3C165.3,434.6,166.5,433.9,167.3,432.7z M169.3,432.2c0.3,0.2,0.6,0.1,0.9-0.1c0.9-0.7,1.9-1.2,3.1-1.1
	c0.3,0,0.7-0.2,0.8-0.6c0.1-0.4,0.5-0.8,0.2-1.2c-0.4-0.4-0.8-0.3-1.2,0c-0.5,0.3-1.1,0.5-1.6,0.9
	C170.6,430.7,169.7,431.2,169.3,432.2z M208.5,455.2c0.1,1.4,0.8,2.5,0.7,3.9c0,0.9,0.8,0.7,1.3,0.9c0.6,0.2,0.7,0,0.5-0.6
	c-0.4-1-0.8-2-1-3c-0.2-1.1-0.6-0.1-0.9-0.2C209.4,455.6,209.4,455.2,208.5,455.2z M211.5,434.6c0.6-0.1,0.6,0.3,0.8,0.6
	c0.2,0.3,0.4,0.6,0.7,0.3c0.2-0.2,0.6-0.7,0.2-0.9c-1.3-0.7-2.5-1.8-4.4-1.8c1.3,1.6,2.3,3.1,4.2,3.7
	C212.3,436.1,212.1,435.2,211.5,434.6z M221.3,442.4c-0.1-0.3-0.3-0.7-0.4-1c-0.3-1.2-1.3-1.2-2.2-1.3c-0.4-0.1-0.7,0.2-0.9,0.6
	c-0.1,0.4-0.2,0.9,0.2,1c0.9,0.4,1.8,0.8,2.7,1.1C221,442.8,221.3,442.8,221.3,442.4z M177.1,439.3c2-1.4,2.6-2.7,2-4.3
	C176.5,437.4,176.5,437.4,177.1,439.3z M165.4,442.1c-1.2,1.8-2.5,3.1-3.9,4.4c2.4-1.4,5.1-2.2,6.9-4.4c-0.7,0.3-1.3,0.7-2,1.1
	c-0.6,0.3-1,1-1.9,1C164.8,443.4,165.4,443,165.4,442.1z M172.6,443.7c0,0.1,0.1,0.1,0.1,0.2c-0.3,0.5-0.7,1-1,1.5
	c-0.2,0.3-0.3,0.6,0.1,0.8c0.3,0.1,0.7,0.2,0.9-0.3c0.1-0.2,0.1-0.3,0.1-0.5c0.2-1.2,0.3-2.4,1.1-3.5c0.4-0.5,0.6-1.3,0.4-2
	c-2.6,3.6-2.8,3.8-2.5,4.7C172.1,444.3,172.3,444,172.6,443.7z M215.6,482.8c0.5,1.3,0.9,2.4,1.7,3.2c0.6,0.7,1.3,1.2,2.1,1.6
	c0.3,0.2,1.2,0.1,1.3-0.1c0.2-0.4-0.3-0.7-0.7-0.9c-0.5-0.3-1-0.5-1.3-1c-0.1-0.1-0.2-0.3-0.4-0.1c-0.4,0.2-0.4,0.2-0.4-0.2
	c0-0.3-0.1-0.5-0.3-0.6C216.8,484.2,216.4,483.5,215.6,482.8z M158.3,452.3c1.1-0.4,1.8-0.8,2.4-1.4c0.1-0.1,0.4-0.3,0.2-0.5
	c-0.2-0.4-0.2-0.4,0-0.6c0.8-1,2-1.7,3-2.6C161,447.6,159.9,450,158.3,452.3z M172.4,464.8c0-0.8-0.3-1.1-1.4-1.1
	c-0.6,0-1.5-0.1-1.3,1c0.1,0.5-0.4,1.2,0.7,1.2C171.9,465.8,172.4,465.6,172.4,464.8z M194.3,425.1c0,1,0,1.8,0.5,2.6
	c0.2,0.3,0.4,0.6,0.8,0.3c0.4-0.4,0.9-0.6,1.4-0.9c0.4-0.2,0.6-0.4,0.1-0.7C196.1,425.9,195.3,425.5,194.3,425.1z M166,469.5
	c0.8,1.9,0.8,1.9,1.8,1.4c-0.9-1.1-2-2.1-2.4-3.5c-0.1-0.3-0.3-0.5-0.7-0.3c-0.4,0.2-0.2,0.4-0.2,0.7c0.2,0.7,0.3,1.4,0.4,2.1
	c0.1,0.5,0.3,0.9,0.9,1.1C166,470.5,166,470.1,166,469.5z M212.2,463.9c0-1.1-0.3-1.9-0.7-2.7c-0.2-0.5-1.8-0.8-2-0.5
	c-0.2,0.3,0.3,1.8,0.7,2C210.8,463,211.5,463.2,212.2,463.9z M199.6,432c0.1-0.7-0.7-2.7-1.2-2.9c-0.3-0.1-0.7-0.2-0.9,0.1
	c-0.2,0.2,0.1,0.5,0.2,0.6c0.1,0.1,0.2,0.1,0.3,0.2c-0.2,0-0.5,0.1-0.6,0c-0.2-0.1-0.3-0.4-0.4-0.6c-0.1-0.2-0.2-0.4-0.5-0.2
	c-0.2,0.1-0.3,0.3-0.2,0.5c0.1,0.3,0.3,0.6,0.6,0.7C197.8,430.9,198.7,431.4,199.6,432z M151,460.6c-0.3,0.7-0.6,1.1-0.7,1.6
	c-0.5,1.8-0.8,3.6-1.7,5.2c-0.1,0.2-0.1,0.6-0.1,0.9c0,0.2,0,0.4,0.2,0.5c0.3,0.1,0.4-0.1,0.5-0.3c0.3-0.4,0.4-1,0.5-1.5
	c0.3-1.8,0.2-3.6,1.4-5.1C151.3,461.7,151.3,461.3,151,460.6z M156.6,462.1c-0.1,0.7-0.1,1.5-0.3,2.2c-0.2,1,0.3,1.8,1,2.4
	c0.1,0.1,0.3,0.3,0.5,0.2c0.2-0.1,0.1-0.4,0.1-0.6C158.1,464.8,157.2,463.6,156.6,462.1z M219,429.8c-1.6-1.4-3.6-1.8-5.6-2.1
	C215,429.4,217.1,429.4,219,429.8z M169.1,456.4c-1.2-0.9-2.2-1.8-2.9-2.9c-0.1-0.1-0.4-0.3-0.4-0.1c-0.2,0.5-0.8,0.9-0.2,1.6
	C166.4,456,167.5,456.4,169.1,456.4z M193.3,411.4c-1.1,0-1.3,0.2-1,1.2c0.1,0.3,0.1,0.7,0.2,1c0.1,0.3,0,0.6,0.4,0.6
	c0.3,0,0.5-0.2,0.6-0.5c0.1-0.4,0.3-0.8,0.5-1.3C194.4,411.7,194.2,411.4,193.3,411.4z M145.5,466.2c2-0.9,2.8-1.8,2.7-3
	C145.7,464,145.6,464.1,145.5,466.2z M174.8,469.7c1.6-1.4,1.6-3.2,2.1-5C174.9,466,175,467.7,174.8,469.7z M214.3,477
	c0.1-2.1-0.4-4-1.7-5.6c-0.1-0.2-0.2-0.5-0.6-0.2c-0.3,0.2-0.1,0.4,0,0.7c0.2,0.4,0.4,0.7,0.6,1.1
	C213.4,474.2,213.7,475.7,214.3,477z M198,459.8c0-0.8-0.8-1-1.3-1.4c-0.1-0.1-0.3-0.4-0.5-0.2c-0.2,0.2-0.3,0.4-0.2,0.7
	c0.2,0.5,0.4,1,0.6,1.4c0.2,0.4,0.1,1.2,0.7,1.1c0.5-0.1,0.5-0.8,0.6-1.3C197.9,460,198,459.9,198,459.8z M189,488.7
	c-0.1,0.5,0.2,1-0.6,1.3c-0.6,0.3-0.4,1.1-0.2,1.7c0.1,0.3,0.3,0.9,0.7,0.5c0.4-0.4,1.1-0.7,1-1.5C189.8,490,189,489.6,189,488.7z
	 M165.6,441.1c-0.8,0.1-1.6-0.1-2,0.5c-0.6,1.1-1.1,2.3-1.7,3.4C163.5,444.1,164.3,442.5,165.6,441.1z M205,465.7
	c-0.2,0-0.3,0.1-0.3,0.3c0.1,1,0.2,2.1,0.4,3.1c0,0.1,0.2,0.2,0.3,0.2c0.2,0,0.3-0.2,0.3-0.3c0.4-0.7,0.4-1.5,0.5-2.2
	C206.3,466.1,205.4,466,205,465.7z M197.9,479.7c-0.3-1.7-0.3-3.4-1.1-5c0.3,1.2,0.1,2.4-0.2,3.6C196.5,479.1,197,479.5,197.9,479.7
	z M146.4,457.7c-1.5,0.8-2.5,1.9-3.5,3.2C144.5,460.7,146,459.4,146.4,457.7z M170.5,475c0.2-0.3,0.3-0.4,0.4-0.6
	c0.6-0.9,0.2-1.7-0.8-2c-0.4-0.1-0.9,0.2-1.1,0.4c-0.3,0.3,0.2,0.5,0.4,0.7C169.7,474,170.1,474.4,170.5,475z M147.5,465.9
	c-1.6,0.8-3,1.5-3,3.5C145.7,468.4,146.9,467.6,147.5,465.9z M180.1,489.6c0.8-1.7,1.4-3.5,1.4-5.4
	C180.9,486,179.7,487.6,180.1,489.6z M172.6,449.9c-0.8,0.6-1.4,1.1-1.9,1.6c-0.2,0.2-0.4,0.5-0.1,0.8c0.5,0.5,1.6,0.3,1.8-0.4
	C172.6,451.3,172.7,450.7,172.6,449.9z M160.3,478c0.6-0.7,1-1.3,1.5-1.8c1-1.3,1.1-1.6,0.1-3.2C162,474.8,160.5,476,160.3,478z
	 M201.4,471.4c-0.2,0.3-0.1,0.6-0.1,0.8c0.2,0.7,0.1,1.8,0.9,1.8c0.6,0,0.4-1.1,0.7-1.7c0.2-0.5,0.3-1-0.5-1.1
	c-0.9-0.2-0.6,0.6-0.8,0.9C201.4,472,201.7,471.6,201.4,471.4z M194.8,412.2c-0.2,0.6-1.1,1-0.3,1.8c0.3,0.3,0.6,1,1.1,0.8
	c0.4-0.2,0.8-0.4,0.4-1C195.6,413.3,195.2,412.8,194.8,412.2z M148.1,470.3c-0.5,1.7,0.1,3.4,0.3,5.1
	C148.6,473.7,149.1,472,148.1,470.3z M191.5,454.2c-0.1-0.2,0-0.7-0.3-0.5c-0.5,0.3-1,0.2-1.4,0.4c-0.3,0.2-0.8,0.5-0.8,1
	c0,0.3,0.2,0.5,0.4,0.5C190,456,191.5,454.8,191.5,454.2z M146,460.1c1.6-0.4,1.9-1.9,2.7-3.3C146.5,457.1,147.1,459.2,146,460.1z
	 M172.3,470.6c-0.2,0-1.7,1.3-1.7,1.4c0,0.1,0.1,0.2,0.3,0.3c0.4,0.2,0.7,0.7,1.1,0.5c0.4-0.3,0.8-0.7,1-1.2
	C173.1,471.1,172.5,470.9,172.3,470.6z M194.5,470.6c-0.5,1.3-0.3,2.4,0.7,3.7C195.6,473.4,195.6,473.4,194.5,470.6z M159.2,473.6
	c0.3-0.8,0.5-1.5,0.8-2.3c0.2-0.6-0.2-0.6-0.6-0.7c-0.5-0.1-0.6,0-0.7,0.5C158.3,471.9,158.7,472.7,159.2,473.6z M172.3,414.8
	c0.1-0.1,0.2-0.2,0.3-0.2c0.5-0.7,0.1-1.3-0.5-1.8c-0.4-0.3-0.8-1-1.3-0.5c-0.6,0.6,0.2,1,0.6,1.5c0.2,0.3,0.4,0.5,0.6,0.7
	C172.1,414.7,172.2,414.7,172.3,414.8z M171,450.4c1.8-1.4,2-1.8,1.4-3.3C171,447.8,171.6,449.3,171,450.4z M179.2,441
	c-0.4,0.6-0.9,1.2-1.4,1.7c-1,1-1,1-0.7,1.8c0.6-0.6,1.2-1.2,1.9-1.7C179.6,442.3,179.8,441.8,179.2,441z M171.5,476.7
	c0.4-0.8,0.7-1.4,1-2.1c0.2-0.5-0.1-0.6-0.4-0.8c-0.3-0.2-0.4,0.1-0.6,0.3C171,474.9,170.5,475.7,171.5,476.7z M170.6,417.5
	c0.9,0,1.5-0.6,1.5-1.3c0-0.7-0.6-0.5-0.9-0.5c-0.3-0.1-1.3,1.1-1.2,1.5C170.1,417.6,170.4,417.5,170.6,417.5z M176.9,474.2
	c0.5-0.9,1-1.7,1.4-2.5c0.1-0.2,0.2-0.5,0-0.7c-0.2-0.1-0.4,0.1-0.6,0.2C176.8,471.7,176.5,472.6,176.9,474.2z M168.8,439.5
	c-1.3,0.5-1.8,1-2.4,2.5C168.5,441.2,169,440.7,168.8,439.5z M168.6,473.8c-0.2,0.1-0.3,0.2-0.3,0.4c0,1,0.6,1.8,1.3,2.5
	c0.1,0.1,0.3,0.1,0.4-0.1c0.8-1-0.9-1.2-0.7-2.1C169.3,474.2,168.9,474,168.6,473.8z M190.4,490c0.8-1.5,1.1-2.8,0.7-4.2
	C190.5,487.1,189.9,488.3,190.4,490z M190.5,412.5c0.3,0.6,0.1,1.6,1,1.9c0.3,0.1,0.5-0.2,0.4-0.5c-0.2-0.7,0.1-1.7-0.9-2
	C190.7,411.7,190.4,411.9,190.5,412.5z M156.8,469c-0.2,1.2-0.3,2.4,0,3.6c0,0.2,0,0.6,0.4,0.4c0.4-0.2,0.6-1.6,0.3-1.8
	c-0.4-0.3-0.3-0.6-0.2-1C157.3,469.8,157.2,469.4,156.8,469z M167.8,444c-0.8,0.3-1.4,0.6-2,0.9c-0.6,0.3-1.3,0.4-1.8,1.1
	C167.2,445.6,167.2,445.6,167.8,444z M170.8,448.3c-1.1,0.9-1.4,1.9-1.6,3.1c0,0.2-0.2,0.5,0.1,0.6c0.3,0.1,0.5-0.1,0.6-0.3
	C170.3,450.6,170.8,449.6,170.8,448.3z M212,457.8c-0.1,0.9,0.1,1.7,0.5,2.5c0.1,0.2,0.2,0.4,0.4,0.4c0.3,0,0.3-0.3,0.4-0.5
	C213.7,459,212.9,458.5,212,457.8z M162.9,436.6c0.7-0.9,1.2-2,2-2.8c0.2-0.2,0.7-0.3,0.4-0.7c-0.3-0.3-0.7-0.2-1,0.2
	C163.5,434.2,163.2,435.4,162.9,436.6z M168,429.1c-0.3-0.2-0.4-0.3-0.4-0.3c-0.4-0.1-3.6,1.4-3.8,1.8c0,0.1,0,0.2,0.1,0.3
	c0.1,0.1,0.2,0.1,0.3,0C165.3,430.3,166.5,429.5,168,429.1z M146.4,470.7c1.4-0.9,1.2-2.4,1.5-3.8
	C146.9,467.9,146.8,469.3,146.4,470.7z M152.6,469.3c0.4,1.2-0.4,2.7,1,3.7C153.5,471.6,153.9,470.2,152.6,469.3z M167.3,419.5
	c0.9-0.1,2-0.3,3.2-0.4c0.3,0,0.6-0.2,0.6-0.5c0-0.2-0.2-0.3-0.4-0.2c-1.2,0.5-2.4,0.6-3.7,0.7c-0.2,0-0.4,0.1-0.4,0.4
	C166.6,419.6,166.8,419.5,167.3,419.5z M167.3,448.8c0,0-0.1-0.1-0.1-0.1c-0.3,0.3-0.7,0.8-1,0.8c-0.9-0.1-1,0.6-1.4,1
	c-0.2,0.3-0.2,0.5,0.1,0.7c0.3,0.2,0.5,0.2,0.7-0.1C166.2,450.3,166.8,449.5,167.3,448.8z M151.1,468.2c-1.4,0.8-1.6,2.3-0.6,3.4
	C151.1,470.6,150.4,469.4,151.1,468.2z M207.2,427.9c0.9,1,1.4,2.3,2.9,2.4C209.4,428.9,208.4,428.1,207.2,427.9z M159.4,435.1
	c1.4-0.5,3.1-2.7,2.8-3.6C161.4,432.8,160.1,433.7,159.4,435.1z M167.9,429.6c-1,0.5-2.2,0.6-3,1.6c-0.1,0.2-0.4,0.3-0.2,0.5
	c0.2,0.3,0.4,0.1,0.6,0C166.3,431.2,167.2,430.5,167.9,429.6z M193.1,467.6c-0.1-1.3-0.2-2.5-0.8-3.6
	C192.5,465.1,191.8,466.6,193.1,467.6z M191.7,484.2c-0.3,1.4,0.2,2.7,0.2,4.1C192.4,486.9,192.4,485.5,191.7,484.2z M213.7,429.3
	c-1.6-1.4-2.1-1.7-3-1.4C211.3,428.9,212.5,429.5,213.7,429.3z M165.8,459.2c-0.6-1.4-1.8-1.7-3.1-2c-0.2,0-0.6-0.2-0.6,0.1
	c-0.1,0.4,0.3,0.4,0.5,0.5C163.8,457.9,164.9,458.3,165.8,459.2z M173.4,422.8c-1.4-1-2.1,0.7-3.2,0.5
	C171.1,423.9,171.2,423.9,173.4,422.8z M153.8,469.4c1.1-1.3,0.3-2.5,0.3-3.7C153.5,466.9,153.6,468,153.8,469.4z M181.8,463.8
	c-1,0.7-1.1,1.5-1.3,2.3c-0.1,0.4,0.2,0.6,0.5,0.7c0.3,0.2,0.4-0.1,0.4-0.3C181.3,465.6,181.8,464.8,181.8,463.8z M198.2,450.5
	c-1,0.8-0.8,1.8-0.5,2.7C198.8,451.9,198.8,451.9,198.2,450.5z M178,441.7c1-1,1.7-2,1.8-3.6C178.5,439.1,178.4,440.4,178,441.7z
	 M160.5,427.9c0.9-1.1,1.5-2.2,2.1-3.4C161.4,425,160.4,426.6,160.5,427.9z M169.6,433.1c-1.8,0.7-2.2,2.5-3.2,3.9
	C167.6,435.8,168.4,434.3,169.6,433.1z M179.1,466.8c-0.8,0.4-1.2,1.2-1.3,2.6C178.9,468.7,179.2,468.2,179.1,466.8z M168.8,465.2
	c-0.7-0.4-0.4-1.3-1.3-1.4c-0.3,0-0.6,0.1-0.5,0.4c0.2,0.6,0.4,1.3,1,1.6C168.4,466,168.2,465.2,168.8,465.2z M146.3,463
	c1.6-0.4,2.1-0.7,2.7-1.6C147.4,461.4,146.9,461.7,146.3,463z M178.7,473.8c-0.5,1.2-1.5,1.9-0.9,3.2
	C178.5,476.1,179.2,475.3,178.7,473.8z M173,464.2c-0.4-0.1-0.5,0.1-0.5,0.3c0,0.3-0.2,0.7,0.1,0.9c0.5,0.3,2-0.6,2-1.1
	c0-0.4-0.4-0.4-0.5-0.3C173.9,464.5,173.4,464.4,173,464.2z M169.8,467.2c0.1,0.8,0.3,1.4,0.6,2.1c0.5-0.6,1.1-1,1.4-1.8
	C171,467.7,170.5,467.4,169.8,467.2z M193,476.4c0.3,0.2-0.1,1,0.5,0.9c0.6-0.1,0.6-0.9,0.8-1.4c0.1-0.2-0.6-0.8-0.8-0.8
	C193.2,475.3,193.1,475.9,193,476.4z M194.1,465.6c-0.1,0-0.2,0.1-0.3,0.1c0.1,0.8,0.2,1.5,0.3,2.3c0.1,0.4,0.4,0.8,0.8,0.7
	c0.4-0.1,0.2-0.6,0.1-0.9C194.7,467.1,194.4,466.3,194.1,465.6z M187.1,490.2c0.3-1,0.4-1.8,0.4-2.6c0-0.4-0.3-0.5-0.6-0.6
	c-0.2-0.1-0.3,0.1-0.3,0.3C186.7,488.3,186.6,489.2,187.1,490.2z M199.5,429.9c-0.1-0.8,0.1-1.5-0.5-2.1c-0.5-0.4-0.8-0.1-1.1,0.2
	c-0.1,0.1-0.4,0.5-0.2,0.5C198.6,428.5,199,429.2,199.5,429.9z M212.3,453.2c0.4-0.4,1.3,0.3,1.3-0.3c0-0.7-0.9-0.8-1.5-0.9
	c-0.5-0.1-0.3,0.7-0.8,0.7C211.5,453.2,211.9,453.1,212.3,453.2z M218.6,443.4c-0.5-1.1-1.5-1.1-2.4-1.4c-0.1,0-0.3,0-0.3,0.2
	c-0.1,0.2,0,0.4,0.2,0.4C216.8,443,217.6,443.5,218.6,443.4z M174.2,465.8c-1.4,0.3-2.6,0.6-3.8,0.8c0,0.1,0,0.2,0.1,0.3
	C171.8,467.1,173,467,174.2,465.8z M183.3,481.4c0.5-1.1,0.2-2.1,0.2-3C182.6,479.3,182.4,480.2,183.3,481.4z M173.8,483.9
	c1.1-1.2,1.1-2.9,1.9-4.3C174.7,480.9,173.9,482.3,173.8,483.9z M205.4,436.1c0,0.8,0.3,1.6,0.6,2.3c0.1,0.3,0.4,0.4,0.6,0.1
	C207,438,206.1,436.3,205.4,436.1z M209.9,429.1c0.9,1.1,1.6,2.2,3,2.2C212.4,430.3,211.3,429.5,209.9,429.1z M168.1,416.3
	c0.4,0.2,0.6,0.2,0.7,0.3c0.3,0.2,0.6,0.7,0.9,0.1c0.2-0.3,0.7-0.7,0.4-1.1c-0.1-0.2-0.8-0.1-1.2,0
	C168.8,415.7,168.6,416,168.1,416.3z M177,436.3c0.5-0.5,1.1-1,1.6-1.5c0.3-0.2,0.4-0.5,0.1-0.8c-0.4-0.3-0.5,0.1-0.7,0.3
	C177.4,434.9,177.1,435.5,177,436.3z M207.6,475.2c0.2-1.3-0.9-1.6-1.3-2.3c-0.1-0.2-0.3-0.5-0.6-0.2c-0.2,0.2-0.2,0.5,0,0.7
	C206.5,473.8,206.8,474.7,207.6,475.2z M162.1,461.4c0.1-0.7-0.2-1.1-0.3-1.5c-0.1-0.3-0.4-0.4-0.7-0.4c-0.2,0-0.5,0-0.5,0.3
	c-0.1,0.3,0,0.6,0.3,0.8C161.3,460.8,161.7,461.1,162.1,461.4z M162.4,454.3c-1.5-0.8-2.1-0.6-2.2,0.9
	C160.8,454.9,161.5,454.7,162.4,454.3z M216.3,441.2c0.3-0.2,0.5-0.4,0.7-0.6c0.3-0.2,0.7-0.5,0.4-0.8c-0.2-0.3-0.8-0.5-1.1-0.3
	c-0.2,0.1-0.6,0.5-0.4,0.9C216,440.7,216.1,440.9,216.3,441.2z M167.2,480.6c0.1,0.7,0.2,1.2,0.4,1.7c0.1,0.2-0.1,0.6,0.3,0.7
	c0.2,0,0.3-0.2,0.5-0.4c0.2-0.2,0.3-0.4,0.1-0.7C168.2,481.4,167.9,480.9,167.2,480.6z M217.3,453.6c0-0.1,0.1-0.2,0.1-0.3
	c-1.1-0.3-2.3-0.5-3.4-0.8C214.9,453.7,216.2,453.3,217.3,453.6z M179.2,478.2c-1.2,1-1.3,1.5-0.7,2.4
	C178.9,479.9,179.4,479.2,179.2,478.2z M167.7,428.3c1.7-0.1,2.8-0.9,3.8-1.7C170.2,426.9,169.1,427.4,167.7,428.3z M158.3,465.5
	c0,0.6,0,1.2,0,1.8c0,0.3,0.2,0.4,0.5,0.5c0.3,0,0.3-0.2,0.4-0.4C159.7,466.3,158.9,466,158.3,465.5z M207.7,444
	c-0.1,0-0.2,0.1-0.2,0.1c-0.2,0.2,0.3,2,0.6,2.1c0.2,0.1,0.5,0.1,0.6-0.1c0.2-0.3,0-0.7-0.1-1C208.3,444.7,208.2,444.3,207.7,444z
	 M173.4,448.6c0.3-0.4,0.6-0.8,0.9-1.1c0.1-0.2,0.3-0.4,0-0.5c-0.2-0.2-0.4-0.6-0.8-0.5c-0.2,0-0.5,0.3-0.4,0.5
	C173.3,447.3,172.9,447.8,173.4,448.6z M173.3,472c-0.5,0.2-0.9,0.6-1,1.1c-0.1,0.3,0.3,0.7,0.5,0.6c0.5-0.2,0.8-0.6,1-1.1
	C174,472.3,173.6,472.1,173.3,472z M198.7,461.2c-1,0.6-1.1,1.8,0,2.5C198.6,462.8,198.9,462,198.7,461.2z M173.7,431.6
	c-0.8,0.3-1.3,0.8-1.8,1.2c-0.3,0.3-0.2,0.5,0.1,0.7c0.3,0.3,0.5,0.3,0.7-0.1C173,432.9,173.5,432.4,173.7,431.6z M143,462.6
	c-0.7,0.3-1.4,0.1-1.8,0.7c-0.1,0.2-0.3,0.5-0.1,0.8c0.3,0.3,0.7,0.1,0.8-0.1C142.2,463.6,142.7,463.4,143,462.6z M195.2,453.7
	c-0.6,0.5-1,0.7-1.3,1c-0.3,0.3-0.2,0.6,0,0.9c0.1,0.3,0.3,0.4,0.6,0.4c0.4,0,0.3-0.4,0.3-0.7C194.9,454.9,195,454.4,195.2,453.7z
	 M158.5,449.1c0-0.1-0.1-0.1-0.1-0.2c-0.5,0.2-1.1,0.5-1.6,0.7c-0.2,0.1-0.5,0.2-0.4,0.4c0.1,0.2,0.3,0.5,0.5,0.6
	c0.2,0.1,0.4-0.1,0.5-0.2C157.8,449.9,158.1,449.5,158.5,449.1z M162.5,456.2c0.9,0.3,1.7,0.6,2.5,0.9
	C164.5,455.9,163.9,455.6,162.5,456.2z M169.3,418c-0.3-0.5-0.8-0.5-1.2-0.7c-0.3-0.2-0.5-0.2-0.7,0.2c-0.1,0.2-0.3,0.6-0.3,0.8
	c0.1,0.3,0.5,0.2,0.7,0.1C168.3,418.3,168.8,418.3,169.3,418z M171.6,418.7c1.7,0,2-0.2,2.1-1.4
	C172.8,417.4,172.2,417.9,171.6,418.7z M198.4,425.2c-0.8-0.5-1.5-1.4-2.9-1C196.5,425,197.4,425.2,198.4,425.2z M200.7,437
	c-0.6-0.6-0.7-1.5-1-2.3C198.7,435.5,199.1,436.5,200.7,437z M191.8,431.1c1.3-0.7,1-1.6,0.8-2.7C192.1,429.3,192,430.1,191.8,431.1
	z M161.7,464.6c0.5,0.8,0.9,1.6,1.8,2.2C163.7,465.5,162.7,465,161.7,464.6z M182.3,429.8c-0.3-0.4-0.5-1-1-1.2
	c-0.4-0.1-0.8,0.2-0.8,0.5c0.1,0.7,0.8,0.6,1.2,0.9C181.9,430.1,182.2,430.1,182.3,429.8z M159.5,449.7c-0.9,0.1-1.2,0.8-1.7,1.3
	c-0.2,0.2-0.5,0.4-0.2,0.6c0.3,0.3,0.6,0.1,0.8-0.2C158.7,450.9,159.1,450.3,159.5,449.7z M167.2,460.7c0.1,0.6,0,1.1,0.2,1.5
	c0.2,0.4,0.6,0.6,1,0.4c0.4-0.2,0-0.6-0.1-0.8C168.1,461.4,167.8,461,167.2,460.7z M184.8,484.3c-0.2,1.1-0.3,1.9-0.5,2.8
	C185.5,486.3,185.5,486.3,184.8,484.3z M180.3,435.6c0.4-0.9,0.5-1.9-0.2-3C179.8,433.8,180.4,434.7,180.3,435.6z M200.3,474
	c-0.3,0.9,0.6,0.9,0.8,1.4c0.1,0.2,0.4,0.6,0.7,0.2c0.3-0.3,0-0.6-0.2-0.8C201.3,474.3,200.7,474.4,200.3,474z M204.2,429.1
	c0.3,1.4,1.7,0.8,2.4,1.3C205.9,429.7,205,429.3,204.2,429.1z M221.7,472.6c0-1-0.2-1.8-1-2.6C220.7,471.1,221,471.9,221.7,472.6z
	 M186.4,484.3c0.4-0.6,0.5-1.2,0.6-1.8c0-0.1-0.1-0.3-0.1-0.4c-0.2-0.1-0.3,0-0.5,0.1C185.8,482.9,186.1,483.5,186.4,484.3z
	 M181.6,449.6c-0.1,0.7-0.2,1.2-0.3,1.7c0,0.3-0.4,0.9,0.1,1c0.4,0.1,0.2-0.6,0.3-0.9C181.9,450.8,182.4,450.3,181.6,449.6z
	 M179.9,479.1c0.6-1.2,0.6-1.6,0.5-2.4C179.5,477.6,179.5,477.6,179.9,479.1z M174,418.1c0.4-0.2,0.6-0.3,0.8-0.4
	c0.4-0.2,0.8-0.5,0.9-1c0-0.2-0.1-0.3-0.3-0.2c-0.5,0.2-1.1,0.3-1.2,1C174.2,417.6,174.1,417.7,174,418.1z M189.5,482
	c0.2-0.8,0.5-1.4,0.2-2c-0.1-0.2-0.2-0.4-0.5-0.3c-0.2,0.1-0.3,0.3-0.2,0.4C189.2,480.7,189.1,481.4,189.5,482z M192.9,487.5
	c-0.1,0.7-0.8,1.5,0.2,2.2c0.1,0.1-0.1,0.5,0.3,0.7C193.7,489.3,193.2,488.4,192.9,487.5z M176.9,435.1c0.3-0.6,0.6-1,0.8-1.4
	c0.2-0.4,0.1-0.6-0.2-0.8c-0.4-0.2-0.6,0.2-0.7,0.4C176.7,433.9,176.6,434.4,176.9,435.1z M159.5,470.1c0.5,0,0.7-0.1,0.7-0.6
	c0-0.5-0.3-0.7-0.7-0.6c-0.5,0-0.5,0.5-0.5,0.9C158.9,470.2,159.3,470.1,159.5,470.1z M176.4,478.9c1.1-0.9,1.2-1.1,0.8-2.2
	C176.8,477.4,176.2,477.9,176.4,478.9z M174,408.7c0-0.1-0.1-0.2-0.1-0.2c-0.4,0.2-0.9,0.3-1.3,0.5c-0.4,0.2-0.2,0.6,0,0.8
	c0.3,0.3,0.4,0.1,0.6-0.1C173.4,409.3,173.7,409,174,408.7z M169,424.4c-0.9-0.3-1.4,0.2-2.1,0.2c-0.3,0-0.3,0.2-0.2,0.5
	c0.1,0.3,0.3,0.5,0.5,0.2C167.7,424.9,168.3,424.8,169,424.4z M197.4,431.2c-0.1,0-0.2,0.1-0.2,0.1c0,0.1,0,0.3,0.1,0.4
	c0.5,0.3,0.9,0.8,1.6,0.8c0.1,0,0.2-0.2,0.2-0.2c-0.2-0.6-0.9-0.6-1.3-0.9C197.7,431.3,197.5,431.3,197.4,431.2z M208.8,450.3
	c0.2,0.9,0.9,1.8,1.7,2C210.3,451.6,210.3,451.6,208.8,450.3z M149.1,458.9c0.6-0.8,1.7-1.2,2.3-2
	C150.4,457.2,149.6,457.9,149.1,458.9z M178.9,484.9c1-0.6,1.1-1.5,0.7-2.5C179.4,483.3,179.1,484.1,178.9,484.9z M158.2,470.2
	c0.1-0.7,0.8-1.1,0.3-1.7c-0.1-0.2-0.4-0.3-0.5-0.1C157.7,468.9,157.7,469.4,158.2,470.2z M174.3,409.3c-0.3,0-0.8-0.1-0.9,0.6
	c-0.1,0.6,0.4,0.5,0.7,0.5c0.6,0.1,0.7-0.4,0.7-0.8C174.9,409.3,174.8,409.1,174.3,409.3z M163.3,474.5c0.2-0.8,0.6-1.2,0.2-1.7
	c-0.1-0.2-0.7-0.2-0.8,0.1C162.5,473.3,162.8,473.8,163.3,474.5z M183.1,471.9c0.9-0.9,0.6-1.7,0.4-2.4
	C183.2,470.2,183,470.9,183.1,471.9z M173.5,487.8c0.4-0.8,0.6-1.7,0.8-2.7C173.3,486,173.3,486.9,173.5,487.8z M175.8,469.8
	c-1.2,0.4-0.6,1.6-1.5,2.4C175.8,471.7,175.3,470.5,175.8,469.8z M144.4,463.5c0.2,0.2,0.4,0,0.6,0c0.6-0.1,0.6-0.7,0.7-1.1
	c0-0.2-0.1-0.3-0.2-0.2c-0.4,0-0.7,0.4-0.8,0.7C144.5,463.1,144.3,463.2,144.4,463.5z M174.1,437.1c-0.4,1-0.7,1.9-0.7,3
	C174.2,439.3,174.5,438.4,174.1,437.1z M214.9,439.1c-0.3,0.7-1.1,1.2-0.1,1.7C215.5,439.9,215.5,439.9,214.9,439.1z M159.4,435.9
	c-1.2,0.4-1.6,1.1-2,1.9C158.2,437.4,158.7,436.7,159.4,435.9z M196,433.2c0.1,0.5,0.3,0.9,0.4,1.4c0,0.2,0,0.4,0.2,0.4
	c0.1,0,0.3-0.2,0.4-0.3C197.4,433.8,196.6,433.6,196,433.2z M186.8,476.4c0.1-1,0-1.9-0.4-2.8C186.3,474.6,186.5,475.5,186.8,476.4z
	 M217.4,436.5c-0.4,1.4-0.4,1.4,0.9,1.5C218.1,437.5,218,436.9,217.4,436.5z M198.5,473.4c0.1,1,0,1.7,0.4,2.4
	C199.2,475,199.6,474.2,198.5,473.4z M215.7,434.8c-0.5-0.3-0.9-0.6-1.3-0.8c-0.1-0.1-0.3,0.1-0.3,0.2c0.1,0.6,0.5,0.9,1,1.1
	C215.4,435.5,215.4,435,215.7,434.8z M163.2,472.3c0.2-0.1,0.7,0.1,0.6-0.4c-0.1-0.5-0.7-0.4-1-0.5c-0.2-0.1-0.5-0.1-0.5,0.3
	C162.3,472.2,162.7,472.3,163.2,472.3z M181.2,433.7c0.6-0.5,0.4-1.1,0.3-1.6c-0.1-0.3-0.3-0.5-0.5-0.4c-0.2,0.1-0.1,0.4-0.1,0.6
	C181,432.8,181.1,433.2,181.2,433.7z M206.8,470.6c-0.9,1-0.6,1.6,0.4,2.2C207.1,472.1,207,471.4,206.8,470.6z M151.3,466.2
	c0.6-0.8,1.1-1.6,1-2.8C151.7,464.4,151.4,465.3,151.3,466.2z M194.6,464.2c0.2,0.5,0.3,1.1,0.9,1.2c0.2,0,0.4-0.5,0.3-0.7
	C195.7,464,195.1,464.4,194.6,464.2z M184.7,489.8c0.2-0.3,0.3-0.5,0.4-0.6c0.3-0.5,0.1-0.9-0.1-1.3c0-0.1-0.2-0.2-0.3,0
	c-0.3,0.3-0.2,0.7-0.2,1.1C184.5,489.2,184.6,489.4,184.7,489.8z M195,477c-0.4,0.3-0.3,0.7-0.3,1.1c0,0.4,0.3,0.7,0.6,0.6
	c0.5-0.1,0.1-0.5,0.1-0.7C195.4,477.6,195.4,477.2,195,477z M186.4,477.6c-0.1,0.7-0.1,1.4-0.2,2.2
	C187.3,479.1,186.9,478.3,186.4,477.6z M209.1,430.8c1.1,0.9,1.7,1.1,2.9,0.8C210.9,431.3,210.1,431,209.1,430.8z M171.4,470.1
	c-0.8-0.2-1.1,0.4-1.5,0.7c-0.2,0.1-0.4,0.3-0.2,0.5c0.2,0.2,0.4,0.1,0.5,0C170.6,471,171.1,470.7,171.4,470.1z M219,428.9
	c0.6,0.6,1.2,0.4,1.8,0.4c0.1,0,0.2-0.2,0.1-0.3c-0.4-0.4-0.9-0.1-1.4-0.2C219.3,428.8,219.2,428.9,219,428.9z M158.4,437.8
	c-1.2,0.7-1.7,1.4-1.7,2.1C157.2,439.2,158.1,438.7,158.4,437.8z M190.6,438.5c-0.1,0.7-0.2,1.3,0.1,1.9c0.1,0.1,0.2,0.2,0.4,0.2
	c0.1,0,0.2-0.1,0.1-0.2C190.9,439.8,191.1,439.1,190.6,438.5z M167.4,472.1c0.5,0.5,1.1,0.2,1.6,0c0.1-0.1,0.2-0.3,0-0.4
	c-0.4-0.3-0.9,0-1.3,0.1C167.6,471.8,167.4,471.8,167.4,472.1z M207,446.4c-0.1-0.8,0.1-1.6-0.6-2.4
	C206.4,445,206.5,445.7,207,446.4z M192.5,470.7c0.2,0.8-0.2,1.7,0.7,2.4C193.2,472.1,192.9,471.3,192.5,470.7z M153.5,463.7
	c-0.5,0.9-1,1.7-1,2.7C153,465.6,153.4,464.7,153.5,463.7z M191.5,472.9c0.1,0.8,0.5,1.5,0.9,2.3
	C192.6,474.1,192.4,473.4,191.5,472.9z M208.4,433.3c-0.1-1.2-0.9-1-1.6-1C207.1,433,207.7,433,208.4,433.3z M152.5,461.4
	c-0.8,0.6-1.2,1.4-1.2,2.6C151.7,463,152.1,462.2,152.5,461.4z M203.8,451.3c0,0.3-0.1,0.5-0.1,0.8c0,0.3-0.4,0.6,0,0.9
	c0,0,0.2,0,0.3-0.1c0.2-0.3,0.5-0.7,0.3-1.1C204.1,451.6,204.1,451.4,203.8,451.3z M149.8,459.3c0.9,0,1.4-0.4,1.6-1.2
	C150.6,458.3,150.2,458.7,149.8,459.3z M213.6,457c-0.8-0.7-1.4-1.2-2-1.7C212,456,212.2,457.1,213.6,457z M141.3,471.9
	c-0.6,0.2-1.1,0.2-1.1,0.7c0,0.2,0.4,0.7,0.5,0.7C141.2,473.1,141.1,472.5,141.3,471.9z M167.6,431c-0.8,0.6-1.3,0.9-2.1,1.5
	C166.7,432.5,167.2,432,167.6,431z M192,471.7c0.3-0.6,0.2-1,0-1.4c-0.1-0.2-0.4,0-0.4,0.1C191.1,470.9,191.6,471.2,192,471.7z
	 M163.4,452.7c0.7,0.1,1.1-0.2,1.3-0.7c0.1-0.2-0.2-0.3-0.3-0.3C163.7,451.7,163.7,452.2,163.4,452.7z M199.2,478.7
	c-0.1-0.9,0.3-1.7-0.4-2.2C198.9,477.2,198.6,477.9,199.2,478.7z M182.5,485.2c-0.3,0.8-0.1,1.5,0,2.3
	C182.9,486.7,182.7,486,182.5,485.2z M196.3,477c0.1-0.5,0.2-1-0.1-1.5c0,0-0.2,0-0.3,0.1C195.5,476.2,196.1,476.6,196.3,477z
	 M205.7,434.3c-0.1,0.1-0.1,0.1-0.2,0.2c0.3,0.3,0.6,0.7,0.9,1c0.1,0.1,0.4,0.3,0.5,0.1c0.2-0.2,0-0.4-0.2-0.5
	C206.5,434.8,206.1,434.6,205.7,434.3z M160.3,462.1c0.1-0.8-0.1-1.4-1-1.7C159.6,461.2,159.7,461.7,160.3,462.1z M189.6,467.7
	c0-0.1,0-0.2,0-0.3c-0.1-0.5-0.1-1-0.6-1.3c-0.1,0-0.2,0.1-0.2,0.1c-0.1,0.5,0.3,0.9,0.5,1.3C189.3,467.6,189.4,467.8,189.6,467.7z
	 M174.5,474.1c-0.3,0.3-0.6,0.7-0.7,1.1c0,0.2,0.1,0.4,0.3,0.3c0.4-0.2,0.5-0.7,0.6-1.1C174.8,474.2,174.7,474.1,174.5,474.1z
	 M196.1,471.4c0.1,0.8,0.1,1.5,0.6,2.4C196.9,472.7,196.4,472,196.1,471.4z M169.8,448.1c0.1,0,0.3-0.1,0.4-0.1
	c0.5,0,0.6-0.4,0.8-0.7c0-0.1,0-0.3-0.2-0.3c-0.4,0-0.5,0.3-0.7,0.5C169.9,447.6,169.7,447.8,169.8,448.1z M181.6,469.7
	c-0.5,0.6-1.1,1.1-1.4,2.2C180.9,471.1,181.3,470.4,181.6,469.7z M213.6,454c0.4,0.5,0.8,0.8,1.4,1C214.9,454,214.5,453.7,213.6,454
	z M187,457.5c-0.1,0.8,0,1.3,0.3,1.8C187.9,458.5,187.4,458.1,187,457.5z"/>
<linearGradient id="SVGID_4_" gradientUnits="userSpaceOnUse" x1="301.4088" y1="-2.9037" x2="301.4088" y2="515.8773">
	<stop  offset="0" style="stop-color:#39B54A"/>
	<stop  offset="0.6759" style="stop-color:#39B54A"/>
	<stop  offset="0.706" style="stop-color:#39B54A"/>
	<stop  offset="0.7462" style="stop-color:#948518"/>
	<stop  offset="0.7758" style="stop-color:#F37C24"/>
	<stop  offset="0.803" style="stop-color:#603813"/>
	<stop  offset="0.9121" style="stop-color:#603813"/>
	<stop  offset="0.9548" style="stop-color:#603813"/>
</linearGradient>
<path class="st4" d="M272.5,325.7c-1-0.9-1.8-2-3-2.5c-1.9-0.8-1.7-1.7-0.3-3.1c-2.8-0.5-4.2-1.7-4-4.3c2.9-0.6,4.3,4.1,7.1,1.7
	c-2.3-3.6-4.7-7-6.7-10.6c-0.7-1.3-1.1-3.4-0.6-4.8c1.2-3.5-1.8-4.5-3.4-6.2c-0.5-0.5-2.7,0.5-4.3,0.9c0-1,0-2.4,0-4
	c0.8-0.3,1.9-0.7,2.9-1.1c0,0.2-0.1,0.5-0.1,0.7c0.8,0.3,1.6,0.4,2.3,0.8c1.5,0.8,3.2,1.4,4.3,2.6c1.5,1.8,2.7,2.5,4.3,1.2
	c1.6,1.6,3.1,3,4.5,4.5c0.3-0.2,0.5-0.3,0.8-0.5c0.1-0.8,0.2-1.5,0.4-3.1c1.2,1.7,2.1,2.8,2.9,3.9c2.8-0.4,5.5-0.8,8.2-1.2
	c0.2,0.3,0.4,0.5,0.6,0.8c0.2-1.4,0.5-2.9,0.8-4.9c-2.6,0.5-4.8,1-7.1,1.2c-0.7,0.1-1.5-0.5-2.1-1c-0.9-0.7-1.1-2.7-3.2-1.1
	c-0.4,0.3-2.8-2.1-4.3-3.4c-0.3-0.2-0.1-1.2-0.3-1.2c-4-1.4-2-4.7-2.7-7.8c3.9,2.4,7.2,4.4,10.6,6.5c0.2-0.1,0.4-0.3,0.6-0.4
	c-1.2-2-2.3-4-3.5-6.1c-0.1-0.3-0.4-0.5-0.4-0.8c-0.4-2.6-0.9-5.2-1.1-7.9c-0.1-1.8,0.2-3.5,0.3-5.7c1.6,0.7,3.2,1.5,4.8,2.3
	c0.3-1.8,0.7-3.4,0.6-5c0-0.7-1.1-1.8-1.9-2c-3.1-0.7-3.4-1-4.6-4c-0.4-1.1-1.6-1.9-2.4-2.8c0.3-0.3,0.6-0.7,0.9-1
	c2.8,2,5.6,4,8.7,6.3c0.5-1.1,0.9-2.1,1.3-3c-4-2.5-6-5.9-5.2-9.4c3.5,3.6,7,6.9,11.6,8.6c0.3-0.3,0.6-0.6,0.9-0.9
	c-2.1-2.4-4-5-6.3-7.3c-1.3-1.3-3.4-2-4.7-3.4c-1.6-1.6-2.6-3.7-4.1-6c2.8-0.9,5.3,6.2,6.8-0.4c3.6,2.6,7.3,5.1,10.9,7.6
	c0.3-0.3,0.6-0.6,0.9-0.9c-1-1.2-1.9-2.6-3.1-3.5c-2-1.6-4.5-2.6-6.2-4.3c-1.7-1.7-2.6-4-4.3-6.8c2.2,0.3,3.5,0.5,5,0.8
	c-1.6-3.4-3.2-6.9-5.1-11c3.2,0.8,4.5,0.2,3.2-3c1.1,0.3,1.8,0.6,2.7,0.8c-0.5-3.2-1-6.3-1.4-9.3c0.2-0.1,0.4-0.1,0.7-0.2
	c1.6,1.7,3.1,3.3,4.7,5c0.2-0.1,0.5-0.2,0.7-0.3c-1.1-4-2.2-7.9-3.4-12.4c1.1,0.8,1.8,1.4,3.5,2.6c-0.6-3.2-1.1-5.6-1.6-8
	c0.3-0.2,0.5-0.4,0.8-0.6c0.2,0.5,0.2,1,0.6,1.4c0.5,0.5,1.1,0.8,1.7,1.1c0.4-0.6,1-1.3,1-1.9c0.2-2.9,0.3-5.8,0.4-9.3
	c2.6,3.3,4.4,5.6,6.3,8c0.4-0.2,0.8-0.4,1.1-0.7c-0.5-1.5-1-3.1-1.5-4.6c-1.5-4.6-1.5-4.6,2.7-8.5c1,0.3,2,0.6,2.7,0.8
	c-0.3-2.2-0.6-4.4-0.8-6.5c0.3-0.1,0.6-0.1,0.8-0.2c1.3,3.2,3.7,6,2.7,10c-0.2,1,0.3,2.2,0.5,3.3c0.4,0,0.8-0.1,1.2-0.1
	c0-2.4,0-4.8,0-7.2c0.2-0.1,0.4-0.1,0.6-0.2c0.5,0.9,1.5,1.8,1.4,2.7c-0.1,3.1,1.3,5.1,3.4,7.1c0.7,0.7,0.7,2.3,0.9,3.5
	c0.2,1.1,0.3,2.1,0.5,3.8c1.7-1.9,2.8-3.2,4-4.6c0.3,0.1,0.6,0.3,0.9,0.4c-1,3.8-2.1,7.6-3.1,11.4c0.2,0.1,0.5,0.3,0.7,0.4
	c1.4-1.2,2.8-2.4,4.1-3.4c1.1,7.2-3.2,11.7-8.5,15.5c2.8,3.8,3,3.9,5.7,1.4c0.2,0.9,0.4,1.6,0.7,2.9c1.1-1,1.9-1.8,2.8-2.5
	c1.3,3.1-3.6,5.9,0.4,9.6c-3.2,4-6.6,8.2-10,12.4c2.6,3.5,4.5,0.1,6.3-0.4c1.9-0.6,3.3-2.6,5-4c0.3,0.2,0.5,0.4,0.8,0.7
	c-1.7,2.7-3.4,5.4-5,8.1c0.2,0.2,0.4,0.3,0.7,0.5c1.9-1.1,3.9-2.2,6.2-3.4c-0.1,1.2-0.2,2.1-0.3,2.9c1.5,0.4,3.3,0.2,1.5,2.7
	c-1,1.5-0.7,3.9-1.5,5.5c-1.3,2.5-2.6,5.5-4.7,6.8c-2.7,1.7-1.6,3.2-1.4,4.7c1.6-0.5,3.2-0.7,4.4-1.4c1.7-1,3.1-2.6,4.7-3.8
	c0.9-0.6,2-0.7,3.1-1.1c0,1.1,0.2,2.3-0.2,3.2c-2.1,4.2-4.4,8.2-6.6,12.3c-0.2,0.4-0.2,1-0.3,1.5c0.5,0,1.1,0.1,1.6,0.1
	c2.1-0.3,4.1-0.7,7.2-1.2c-1.2,1.6-2,2.6-3.1,4c0,0.3,0.1,1.3,0.2,2.6c0.6-0.4,1.3-0.8,2-1.2c1.5,2.3,0.9,3.6-1.6,3.9
	c0,1.3,0,2.5,0,3.2c2.9-0.3,6.3-0.7,9.7-1.1c0.6,3.2-1.2,3.6-3.6,3.7c0.7,1,1.1,1.6,1.5,2.1c-3.1,1.8-6,3.8-9.3,5.2
	c-1.7,0.8-3.9,0.6-5.9,0.8c-0.3,0-0.7,0-0.8,0.1c-1.5,2-3.1,4-4.2,6.2c-0.3,0.6,0.7,2.3,1.6,3c2,1.6,3.9-0.1,5.8-0.7
	c3.9-1.2,7.7-2.5,11.6-3.5c0.5-0.2,1.3,0.6,2.2,1c-1.2,1.5-2.2,2.8-3.1,4c0.2,0,0.3,0.1,0.5,0.1c-3.1,2.4-6.6,4.5-9.1,7.5
	c-1.5,1.8-4.8,3.4-3.3,7.6c1.2-1.5,2.1-2.7,2.9-3.8c4.6,1.7,4.9,0.4,5.6-1.3c3.4-1.5,6.1-2.7,9-3.9c1.3,2,1.2,3.8-0.7,5.8
	c-2.1,2.2-3.8,4.7-6.7,6c-0.4,0.2-0.5,1.1-0.7,1.7c0.7,0.2,1.4,0.6,2,0.4c0.6-0.2,1-0.9,1.5-1.4c2.1,1.7,1,3.5,0.2,5.3
	c-0.8,1.8-1.6,3.5-2.4,5.3c0.2,0.2,0.5,0.5,0.7,0.7c1.2-0.4,2.5-0.7,4-1.2c0.4,0.6,0.9,1.4,1.6,2.4c-1.2,0.4-2.1,0.7-3,1
	c-0.1,1-0.2,2.1-0.3,3.3c-0.9-0.2-1.7-0.3-2.6-0.5c-0.2,0.2-0.3,0.3-0.5,0.5c1.2,1.4,2.4,2.7,3.9,4.4c-1.4,0.4-2.3,0.7-3.4,1
	c-0.1,0.9-0.2,1.8-0.4,3c-0.7-0.1-1.3-0.2-2.2-0.3c-0.3,0.8-0.6,1.6-0.8,2c-3.4,0-6.4,0-9.4,0c-0.6,0-1.5,0.1-1.7-0.2
	c-1.7-3.1-4.6-1.1-6.9-1.7c-2.2-0.6-2.7,1-2.9,2.7c-0.2,1.7,0,2.9,2.1,3.2c1.4,0.2,2.7,0.9,4.1,1.2c1.8,0.4,3.5,0.7,5.5,1.1
	c0.1,0.4,0.3,1.2,0.5,2.1c-1.7,1.3-3.2,3.4-5,3.7c-1.9,0.3-4.1-1.1-6-2c-0.6-0.3-0.7-1.7-0.8-1.9c-2.2-0.7-4.2-1.3-6.5-2
	c0.6,8.9-0.2,29.3,0,36.2c-0.3,0.1-3.8,1.2-7,1.6c-0.6,0.1-0.3-13.1-0.2-14.9c0-1.4,0.7-2.5,0.8-3.5c0.1-1.2,0.6-3.7,0.8-5.5
	c0.2-1.6,0.2-7.5,0.2-11.4c0.4-0.1-2-2.3-3.3-0.9c-2,2.3-3.9,4-7.3,3.4c-0.8-0.1-2,1.3-2.9,2.1c-1.6,1.4-2.9,1.9-3.7-0.8
	c-0.1-0.4-1-0.5-1.6-0.7c0,0.8,0.1,1.5,0.1,2.5c-2.7,1.7-4.5,1.2-5.8-1.7c-0.2-0.6-1.1-0.8-1.4-1.4c-0.7-1-1.2-2.1-1.7-3.2
	c1-0.3,2-1,2.9-0.8c2,0.6,4.5-1.1,6.2,1.1c0,0,0.8-0.6,1.2-0.9c0.8-0.5,1.8-1.5,2.4-1.3c2.5,0.8,2.9-0.7,3.2-2.5
	c2.4-0.2,4.7-0.5,7-0.7c-0.2-1.8-0.2-1.8-9.1-1.9c-0.1-0.7-0.2-1.5-0.5-3.2c-1.6,1.8-2.7,3.1-3.8,4.3c-1.5,0.3-3.2,0.6-5.6,1
	c0,0-0.5-0.8-1.2-1.2c-0.6-0.4-1.7-0.8-2.2-0.5c-3.1,1.9-6.1,1-7.8-2.4c-0.4-0.7-1.3-1.2-1.8-1.9c-0.6-0.8-1-1.7-1.5-2.6
	c0.2-0.3,0.4-0.6,0.6-0.9c2.5,0.9,5.1,1.8,7.8,2.7c0.2-0.3,0.5-0.9,0.8-1.4c0.3,0.1,0.5,0.1,0.6,0.2c1.6,1.6,2.9,3.9,5.2,0.5
	c0.4-0.6,2.3-0.1,4-0.1c-0.2-0.9-0.1-1.9-0.6-2.4c-2-1.9-4-3.8-6.2-5.3c-4.4-3.1-7.3-7.4-10.1-11.8c-0.3-0.5,0.2-1.5,0.3-2.3
	c-3.5-0.6-4.7-2-4.3-5c2.4,1,4.8,2,7.6,3.1C270.6,327.4,271.6,326.5,272.5,325.7c0.1,0.7-0.3,1.9,0.1,2.2c1.3,0.9,2.8,1.5,4.2,2.2
	c0.5-1.8,0.9-3.6,1.6-6.4C276.1,324.4,274.3,325.1,272.5,325.7z M287.8,272.8c1.1,0.4,2.5,0.9,4,1.4c0.2-0.1,0.4-0.3,0.6-0.4
	c-1.4-2.1-2.4-4.6-4.3-6.3c-1.1-1-3.4-0.5-5.2-0.7c-0.1,0.3-0.2,0.6-0.4,0.9C284.3,269.3,286,271,287.8,272.8z M292.8,223.1
	c-0.1,0.9-0.6,2.2-0.4,2.3c1.6,0.8,3.3,1.4,5,2.1c0.2-0.4,0.4-0.7,0.5-1.1C296.5,225.4,295,224.4,292.8,223.1z M311.5,347.4
	c-1.5-0.8-2.4-1.4-3.3-1.6c-0.3,0-1.1,1.3-1,2c0,0.5,1.1,1.5,1.6,1.4C309.5,349.1,310.2,348.3,311.5,347.4z M317.2,264.8
	c-1.6,0.5-2.8,0.9-3.9,1.4c-0.4,0.2-0.7,0.9-0.7,1.4c0,0.3,0.8,1,0.9,0.9C315,267.7,317.2,267.8,317.2,264.8z M312.9,222.1
	c-2.3,1.8-4.1,3.3-6,4.8C310.2,227.1,312.6,225.4,312.9,222.1z M298.1,296.5c-0.4,0.3-0.7,0.7-1.1,1c-0.3,2.9,3.4,1.5,3.9,3.5
	c0.3-0.3,0.6-0.6,0.8-0.8C300.5,298.9,299.3,297.7,298.1,296.5z M284.6,303.7c-0.5,0-1,0.1-1.6,0.1c-0.1,1-0.1,2-0.2,3
	c0.8,0,1.7,0,2.5,0C285,305.8,284.8,304.7,284.6,303.7z M303.4,236c0-0.3,0-0.6,0-0.8c-1.4-0.4-2.8-0.8-4.2-1.1
	c-0.1,0.3-0.2,0.6-0.3,0.9c0.6,0.7,1.3,1.4,2,2.3C301.8,236.8,302.6,236.4,303.4,236z"/>
<linearGradient id="SVGID_5_" gradientUnits="userSpaceOnUse" x1="182.0615" y1="7" x2="182.0615" y2="497.2195">
	<stop  offset="0" style="stop-color:#0D5500"/>
	<stop  offset="0.6759" style="stop-color:#0D5500"/>
	<stop  offset="0.706" style="stop-color:#0D5500"/>
	<stop  offset="0.7462" style="stop-color:#0D5500"/>
	<stop  offset="0.7915" style="stop-color:#F37C24"/>
	<stop  offset="0.8065" style="stop-color:#603813"/>
	<stop  offset="0.8769" style="stop-color:#603813"/>
	<stop  offset="0.9548" style="stop-color:#603813"/>
</linearGradient>
<path class="st5" d="M162.8,264.1c-2.9-0.1-5.7,0.2-7.9,2.5c-0.6,0.6-2.2,1.2-2.6,0.9c-5.1-3.7-9.9-0.5-14.8,0.5
	c-1.1,0.2-2.8,1.6-3.3-0.3c-0.4-1.7,1.7-1.5,2.7-2.2c8.9-6.3,19.9-8.2,28.9-14.4c1.3-0.9,3.6-1.4,3-3.2c-0.8-2.3-3.6-2.7-5.4-1.8
	c-3.2,1.6-6.3,1-9.9,0.9c4.5-5.7,10.3-8.4,16.5-10.7c3.5-1.3,6-5.5,5.3-8.9c-0.6-2.9-4.4-4.7-6.8-2.8c-5,4.1-11.7,4.7-16.8,8.7
	c-2.3,1.8-4.9,0.7-6.9-1.2c6.4-4.9,13.3-9,18.9-14.9c1.1-1.2,2.4-2.2,1.3-3.5c-1.3-1.5-2.9,0.2-3.5,1.1c-2.7,4.2-7.7,5.3-11.4,6.1
	c-3.9,0.8-8.5,2.1-13.1,0.8c0.5-2.4,2.5-2,3.8-2.4c5.5-2,11-4.9,15.2-8.3c3.1-2.5,6.8-5.5,9.1-9.1c2.7-4.3,6.8-6.8,10.3-10.1
	c1.2-1.1,2.6-2.1,3.5-3.4c1.2-1.8,3.7-3.6,2.7-5.7c-0.9-1.8-3.5-0.5-5.4-0.3c-2.1,0.2-4-1.2-6.2-0.1c-0.7,0.4-1.5-0.5-1.7-1.3
	c-0.3-1.1,0.8-1.2,1.3-1.8c4.4-4.6,8.9-9.2,13.1-14.3c-4.2,0.4-7.7,2.9-11.9,2.9c-0.8,0-1.8,1.2-2.4-0.3c-0.4-0.9,0.3-1.6,0.9-2.1
	c4.5-3.5,6.9-8.9,10.9-12.9c2.1-2.1-1.1-3.9-0.3-5.5c1.5-3.2-0.1-3.3-2.6-3.7c-2.6-0.4-1.7-2.2-0.6-3.6c1.6-2.1,2.9-4.4,3.3-7
	c0.3-2.2,1.3-5.7-3.5-4.4c-1.9,0.6-3.2-0.2-1.4-2.2c4.7-5.6,6.4-12.6,8.2-19.5c2.2,0.9,2.3,2.8,2.6,4.5c0.5,4.1,1.5,8,4.1,11.2
	c2,2.4-0.4,5.2-0.7,5.4c-4.2,2.2-1.4,4.7-0.6,7c0.5,1.7,1.5,3.2,2.1,4.9c0.2,0.7,1.2,2.1-0.6,2.2c-1.5,0.1-3.8,0.1-3,1.6
	c0.9,1.8,0.5,4.7,3.5,5.5c2.3,0.6,4.4,1.7,6.9,2.8c-1.2,1.9-5.4,2.2-2.6,5.8c1,1.3-1.6,3.9-2.4,4.2c-3.8,1.6-2.3,2.6-0.3,4.5
	c4,3.7,9.1,6.6,10.4,12.6c0.1,0.6,0.1,1.4,0.9,1.4c0.6,0,0.5-0.3-0.1-0.2c-0.3,0-0.7,0.5-0.9,0.4c-3-1.1-7.8,2.3-9-3.5
	c-0.2-0.9-0.9-1.4-1.8-0.9c-0.8,0.4-1.3,1-1.1,2c0.4,1.7,0.4,3.8,1.4,5.1c4,5.3,6,12.3,13.6,14.7c3.8,1.2,6.6,4.7,7.7,8.6
	c0.9,3,2.5,5,5,6.7c-0.3,0.4-0.5,0.8-0.8,1.2c-6.5-2.9-13.1-5.7-20.3-8.9c0.9,5.1,5.3,6.4,7.3,9.5l0-0.1c-2.8-1.8-5.8-0.4-8.8-0.4
	c-0.8,0-1.7,0.9-1,2.1c1,2.1,2.2,4.7,4.3,5.1c4.8,0.9,7.7,4.4,10.3,7.6c3,3.8,8.8,4.5,10.6,10.1c-10.3,0.2-16.5-10.7-27-9.3
	c0.6,3.2,4.1,3.3,5.7,5.4c1.6,2.1,5.3,2.3,5.3,6.1c0,1,1.6,0.6,2.6,0.8c4,0.9,7.9,1.2,11.7,3.7c2.5,1.7,2.3,4.8,4.9,6
	c0.7,0.3,0,1.9-1.3,1.6c-1.4-0.3-2.7-1.1-4.1-1.5c-3.6-1-7-4.5-10.8,0.3c-1.2,1.6-4.4,0.9-6.6-0.4c-2.1-1.3-4.2-3-7.1-3
	c0.7,2.6,1.7,4.2,4.1,5.1c2.4,0.9,5.2,1.8,5.8,5c0.1,0.3,0.4,0.6,0.7,0.7c6.4,1.6,9,7.8,13.9,11.3c3.6,2.6,7.9,3.5,12.5,4.9
	c-4.7,4.4-9,3.5-14.2,1.1c-3.1-1.4-6.7-3.9-10.9-2.5c-2.2,0.7-3.5-1.2-4.9-2.5c-2.9-2.6-5.9-4.7-10-2.1c0.2,2.3,4.8,4.1,1.4,7.6
	c-0.5,0.5,0.5,2.2,1.7,2.6c4,1.4,5.7,4.5,6.8,8.3c0.5,1.8,2.6,2.3,4.2,2.6c5.9,1.3,10.4,5.1,15.4,7.9c0.7,0.4,1.8,1.1,1.1,1.7
	c-3.9,3.2,0.8,4.8,1.7,7.7c-4.2-0.4-6.5-3.6-9.9-4.6c-5-1.5-9.5-4.9-14.3-7.1c-3.2-1.4-6.4-2-8.7-5.1c-1.3-1.7-5.7,1.2-5.6,3.8
	c0.2,2.7,0.7,5.5,3.3,7.3c4.1,2.8,7.2,6.9,12,8.7c1.3,0.5,2.4,1.7,2.7,3.3c-1.9,1-4,0.7-5.1-0.6c-2.6-3.1-6.7-1.9-9.8-3.8
	c-1.7-1.1-1.7,1.2-1.2,2.4c1.3,3.2,3.7,5.5,7,6.3c3.4,0.9,5.4,2.6,5.4,6.1c-3.8,2-7-2.4-10.7-0.9c-0.7,0.3-1.8-1.3-2.4,0.3
	c-0.4,1,0.4,1.7,1,2.5c2.1,2.9,4.7,5.2,7.7,7.3c-0.3,0.5-0.5,0.9-0.8,1.4c-5.9-1.3-6.1,1.4-6.3,6.7c-0.4,9.6-0.5,19.2-0.1,28.7
	c0.5,12.7-0.7,21.7,4.8,34c-2.5,1-3.1,1.6-5.8-0.1c-2.4-1.6-4.3-1-6.8,0.4c-1.8,1-3.8,1.7-2.9-0.1c3.4-6.3,0.7-10.2,1.7-16.8
	c1.7-11.5,2.9-23.2,2.2-34.9c-0.4-6-1-12-0.7-18c0.2-3.8-1.6-4.3-4.2-3.3c-2.7,1.1-5.3,0.9-8.8,0.8c3.5-1.8,6.3-3.6,9.2-4.8
	c2.2-0.9,1.9-2.7,1.6-4c-0.3-1.6-2-1.4-3.5-1.4c-4.2-0.2-8.4,0.9-13.9,1.1c6.8-4.2,12.5-7,17.1-11.6c1.1-1.1,3-2.2,1.7-4
	c-1.1-1.6-3.2-0.9-4.5-0.3c-3.5,1.6-7.1,1.9-11.1,1.9c6.6-2.8,10.5-8.4,14.7-13.7c0.7-0.9,2.1-2.2,0.8-3.3c-1.1-0.9-2.5-2.5-4.3-1.2
	c-2.4,1.8-5.9,1.4-7.7,4.2c-0.2,0.3-0.5,0.7-0.7,0.6c-8.5-0.5-16.2,3.8-24.7,3.5c-1.2,0-2.3-0.3-3.2-1.3c6.3-2.9,12.5-6.1,19-8.3
	c2-0.7,1.9-2.6,3.7-3.2c2.8-1.1,5.2-3,8.2-4.2c5.7-2.2,6-8.6,8.5-13.3c0.3-0.5,0-1.5-0.9-1.2c-1.6,0.4-3.3-2.1-4.8,0.3
	c-1.5,2.4-2.8,5-6.2,1.9c-1.1-1-2.3,0.7-3.5,1.2c-3,1.4-5.9,2.4-9.8,1.1c3.6-3.6,8.7-4.3,11.4-8.2c0.3-0.3,0.9-0.7,0.8-0.8
	C163.8,263.3,163.3,263.8,162.8,264.1z"/>
<linearGradient id="SVGID_6_" gradientUnits="userSpaceOnUse" x1="239.9483" y1="5.5481" x2="239.9483" y2="499.9546">
	<stop  offset="0" style="stop-color:#057F00"/>
	<stop  offset="0.6759" style="stop-color:#057F00"/>
	<stop  offset="0.706" style="stop-color:#057F00"/>
	<stop  offset="0.7462" style="stop-color:#057F00"/>
	<stop  offset="0.7915" style="stop-color:#F37C24"/>
	<stop  offset="0.8065" style="stop-color:#603813"/>
	<stop  offset="0.8769" style="stop-color:#603813"/>
	<stop  offset="0.9548" style="stop-color:#603813"/>
</linearGradient>
<path class="st6" d="M295.8,370.2c-2.5-0.3-2.9-0.8-1.5-2.8c0.9-1.3,0.3-1.6-0.7-2.1c-1.4-0.6-2.9-0.4-4.5-0.5
	c0.6-1.2,1.2-2.2,1.7-3.3c0.3-0.7,0.6-1.8,0-2.1c-1.8-0.8-1.2-2.1-1-3.4c0.1-1.3,0.2-2.9-2-1.9c-0.8,0.3-1.4-0.3-2-0.8
	c-0.6-0.4-0.7-1.3-1.7-1.3c-0.1,0.8-0.2,1.7-0.4,2.5c-0.3,1.1-0.8,2.5-2.2,2.2c-1.4-0.2-2.2-1.4-2.1-2.9c0-0.8,0.4-1.6-0.3-2.3
	c-0.4-0.4,0-0.5,0.3-0.8c1-0.9,0.5-0.5-0.3-1.4c-1.4-1.7-1.1,0.1-1.5,0.4c-1.4,1.1-2.8,1.8-4.7,2.2c0.3-1.5,1.7-1.8,1.8-2.9
	c-1.2,0.1-1.9,1.1-3.1,1.5c-0.2-0.8-0.3-1.5-0.5-2.3c-1.3,0.6-2.4,1.3-3.5,1.8c-0.5,0.2-1.4,0.5-1.1-0.3c0.3-1.1-0.2-3,1.9-3.2
	c0.5,0,0.9-0.3,0.9-0.9c0-0.6-0.4-0.9-0.9-0.9c-1.6,0.1-2.9-0.5-4.1-1.4c-1.4-1-3.1-0.9-4.6-1.5c-0.4-0.2-1-0.3-1-0.9
	c0-0.7,0.6-0.8,1.1-1c1.6-0.5,2.7,0.3,3.7,1.5c0.4,0.4,0.9,1.6,1.4,0.8c0.9-1.4,1.7-0.6,2.3-0.1c1.6,1.2,4.4,0.8,4.9,3.7
	c0.3-0.5,0.5-0.7,0.5-0.9c0.1-0.8,0.3-1.6,1.3-1.6c0.9,0,0.7,0.8,1,1.3c0.3,0.6,0.5,1.5,1.3,1.4c1.5-0.3,2.8,0.4,4.4,0.7
	c-0.8-1.1-1.4-2-2.2-3.1c4.2,2,4.2,2,4.6-0.2c1.1,0.4,2.3,0.4,3.3,1c0.6,0.4,1.9,0.5,1.9-0.3c0-1.7-0.7-3.3-2-4.6
	c-0.3-0.3-1.3,0.2-1-0.8c0.2-0.6,1-0.2,1.5-0.3c0.7-0.1,1.1,0.4,1.6,0.8c0.7,0.6,1.4,1.2,2.6,1.2c-0.3-0.5-0.5-0.7-0.6-1
	c-0.3-0.7-1.4-1.1-1.1-1.8c0.4-0.9,1.5-0.7,2.4-0.7c0.5,0,1.5,0.1,1.4-0.3c-0.3-1.8,1.5-1,2.1-1.7c-2.1-1.6-2.1-1.6,0.3-2.7
	c1.9-0.8,2.3-2.3,2.3-4.2c-1.4,0.5-2.1,1.7-3.2,2.4c-0.4,0.3-0.8,0.9-1.4,0.6c-0.5-0.3-0.1-0.9-0.1-1.3c0-0.7,0.1-1.3-0.6-1.9
	c-1.1,0.6-1.2,1.8-1.6,2.8c-0.2,0.5-0.3,1.3-1,1c-1.8-0.7-2.7,1.1-4.2,1.4c-0.4,0.1-1.5-0.4-1.8,0.6c-0.6,2.3-2.9,1.9-4.5,3
	c-0.1-1.2,1.1-1.7,0.3-2.8c-2.1,1.3-3.8,3.6-6.8,2.8c-2.5-0.7-4.6-2.2-6.9-3.4c2.2-0.4,4.3-0.4,6,1.2c0.5,0.5,1.4,1.1,1.8,0.5
	c1-1.8,2.5-0.8,3.9-0.7c-0.7-1.6-2.3-2.4-3-3.9c2.2,0.1,3.9,1.3,5.9,2.3c-0.5-1.6,1.4-3.1-0.9-4.4c1.2-0.2,1.9-0.5,2.7-0.6
	c1.5-0.2,3.3-1.6,3.4-2c0.2-2,1.3-1.3,2.3-1.1c0.3-0.9-1.3-2.4,1.1-2.3c0.8,0,1.5-1.8,3-1.8c0,0,0.1-0.3,0.1-0.3
	c-1.3-1.2-0.8-2.4-0.2-3.6c0.1-0.2-0.3-0.9-0.3-0.9c-1.6,0.2-2.7-1.6-4.5-0.7c-2,0.9-4.3,1.3-7,0.8c1.9-1.3,4-1.1,5.5-1.9
	c0.2-0.8-1.4-0.4-0.6-1.4c0.4-0.5,1.2-0.5,1.5-1.3c-1.7,0-3,1.1-4.7,1.1c0.1-0.3,0.2-0.6,0.3-0.8c0.1-0.3,0.4-0.6-0.1-0.9
	c-4.1,3.2-8.6,2.4-13.1,1.2c-1.6-0.4-3-1.1-4.3-3c2.2,0.5,4.1,0,5.4,1.7c0.1,0.1,0.3,0.5,0.6,0.1c1.3-1.2,2.9-0.4,4.3-0.6
	c1.2-0.1,2.7,0.8,3.5,0c1.5-1.4,3.4-1.4,4.9-1.3c1.6,0.1,2.5-0.1,3.3-1.5c-0.7-0.4-1.4-0.9-2.1-1.3c0-0.1,0.1-0.2,0.1-0.4h3.5
	c-1.2-0.8-2.4,0-3.2-0.9c1-0.6,2.1-1.1,3-1.8c0.5-0.3,1.2-0.8,0.7-1.5c-0.4-0.6-1,0-1.4,0.3c-0.8,0.5-1.6,1.1-2.5,1.8
	c-0.1-1.2,1.4-1.8,0.7-2.9c-1.5,0.3-2.2,3.1-4.2,1.2c0,0-0.1,0.1-0.1,0.1c-0.2,1.7-1.7,1.3-2.7,1.7c-1.6,0.8-3.5,1.5-5.3,1.1
	c-3.2-0.8-6.3-1.8-9.4-2.7c-0.7-0.2-1.5-0.3-2-1.2c1.2-0.5,2.2-0.2,3.1,0.3c0.6,0.3,1.3,0.6,1.8-0.1c0.7-0.9,1.2-0.5,1.8,0.1
	c0.6,0.6,1.1,1.2,1.8,1.7c0.3,0.3,0.6,0.6,1.2,0.1c1.6-1.4,3.4-2.7,5.8-2.1c0.7,0.2,1.4,0.3,2.6,0.5c-0.5-0.5-0.7-0.6-0.9-0.7
	c-0.5-0.4-1.5-0.6-1.2-1.4c0.3-0.7,1.1-0.1,1.7-0.1c1.5,0.1,3,0.5,4.4-0.6c-0.7-1-1.8,0.2-2.4-0.8c0.6-0.7,1.6-0.3,2.3-0.8
	c0.4-0.2,1.2-0.5,0.7-1c-1.5-1.4,0.1-1.4,0.7-1.8c1.1-0.7,2.4-1.2,3.2-2.3c-0.5-0.4-0.8-0.2-1.2-0.1c-1.9,0.3-3.9,0.8-4.1-2.1
	c0-0.3-0.2-0.7-0.6-0.7c-0.4,0-0.6,0.3-0.7,0.6c-0.6,2.6-2.4,3.5-4.8,3.6c0.1-0.8,1.4-1.2,0.9-2.4c-1.6,0.8-2.4,2.2-3.8,3.1
	c-0.4-1.9-0.4-1.9-2-1c-0.6,0.4-1.1,0.8-1.7,1.2c-0.4,0.3-1,0.6-1.3,0.2c-0.9-1.5-2.6-2.3-3.8-3.7c1.5-0.4,2.8-0.1,4,0.3
	c1,0.3,2.3,0.5,2.8-0.6c0.7-1.4,1.6-1.2,2.7-0.9c1.8,0.4,3.7-0.6,4.9-2c1.5-1.7,0.5-4.9,3.5-5.7c-1.3,0-2.3,0.9-3.5,0.9
	c-0.1-0.7,0.8-1.1,0.3-1.6c-0.5-0.4-1,0.2-1.5,0.3c-0.5,0.2-0.7,0.8-1.4,0.6c-0.7-2.2-0.8-2.2-2.5-0.7c-0.5,0.4-0.8,1.2-1.7,1.1
	c0.2-2.1-0.6-1.8-2.2-1.2c-0.9,0.4-2.2,2.8-3.3,0.1c-0.1-0.2-0.5,0-0.7,0.2c-1.3,1.4-3.3,1.6-4.6,3c-0.3,0.3-0.7,0.6-1.1,0.4
	c-1.4-0.8-3-0.5-4.5-0.8c-0.8-0.2-1.8-0.2-1.6-1.4c0.2-0.9,1-1.3,1.9-1c0.9,0.3,1.6-0.1,1.8-0.8c0.4-1.8,1.3-1.1,2.3-0.7
	c0.7,0.3,1.6,1.1,2,0.4c1.2-2.3,2.9-1.6,4.6-1.2c0.3,0.1,0.9,0,1.1-0.3c1.2-1.1,2.2-0.7,3.2,0.2c0.4,0.3,1,0.8,1.4,0.2
	c0.8-0.9,1.9-0.6,2.7-1c2.1-1.1,4.9,0.2,6.8-2.2c0.7-0.9,1-1.3,0.3-2c-0.6-0.6-0.9-1,0.1-1.5c0.7-0.3,1.1-0.9,0.9-1.6
	c-0.2-0.8-1-0.9-1.7-0.9c-0.6-0.1-1.5,0.1-1.7-0.8c-0.4-2.1-1.5-1.2-2.5-0.6c-1.3,0.9-2.3,2.6-4.2,1c-0.2-0.2-0.9,0.2-1.3,0.4
	c-0.6,0.2-1.5,0.8-1.9,0.6c-2.2-1.2-4.3-0.1-6.4,0.1c-3.6,0.3-6.4-1-8.3-4.3c2.5-0.9,5.1-2.4,7.1,0.9c0.1,0.1,0.2,0.2,0.3,0.2
	c0.4,0.2,0.8,0.7,1.3,0.3c0.5-0.3,0.2-0.9,0.1-1.3c-0.6-1.6,0.2-1.9,1.6-1.9c1,0.1,1.8,0.4,2.5,1.1c0.3,0.3,0.9,1,1.1,0.3
	c0.6-2.3,1.8-1.1,3-0.8c0.8,0.2,2.5,0.2,2.4-0.3c-0.4-1.7,0.9-1.4,1.7-1.7c-0.8-1.5-2.1-2.3-3.3-3.4c1.5-0.4,2.8-0.6,4.1-1.1
	c1.5-0.5,2.2-2.1,2.5-3.4c0.2-0.9-1.5,0.1-2.2-0.3c-0.3-0.2-0.6-0.3-0.9-0.5c-0.5-0.4-1.1-0.3-1.5,0.1c-1.4,1.3-2.9,1.3-4.7,1.2
	c-1.8-0.1-3.1,0-1.9-2.2c-2.2-0.9-3.7,2.3-5.3,1.1c-1.6-1.2-4.1,1-4.8-1.8c3.9-2.5,8.9-2.3,13.5-4.7c-2.5-1.1-4.6-1-6.7-1.1
	c-2.1-0.1-2.8-1.3-2-3.3c1,1.3,1.9,2.7,3.9,1.3c1.1-0.8,3.3,0.4,3.7-0.1c1.1-1.8,2.3-0.9,3.6-0.7c1.1,0.1,2.1,0,3.1-0.7
	c-0.3-0.9-1.6-0.6-1.9-1.7c1.4-0.1,2.2-1.2,3.3-1.8c0.4-0.2,1-0.8,0.3-1.1c-1.9-0.7-0.3-1.2,0-1.8c0.3-0.6,1.6-0.9,0.8-1.8
	c-0.6-0.6-1.4,0-2,0.4c-0.5,0.3-0.9,0.8-1.4,1.2c-0.3,0.3-0.6,0.6-1,0.2c-1.8-1.8-2.4,0-3.1,1.1c-1.3,2.3-3.5,2.7-6.1,1
	c1.7-0.8,4.1-0.8,4.6-2.7c0.4-1.6,1.8-2.8,1.9-5c-1.9,1.9-4.5,2.2-5.6,4.4c-0.1,0.2-0.4,0.3-0.8,0.2c0.3-1.6,0.9-3.2,0.6-5
	c-0.6,1-1,2-1.3,3c-0.4,1.1-1.2,1.5-2,0.9c-1.1-0.8-2.3-0.7-3.5-0.8c-0.4,0-1.1,0.2-1.1-0.6c0-0.5,0.4-0.9,0.9-1
	c0.4-0.1,0.8-0.2,1.2-0.3c1.9-0.4,3.3-2.3,3.2-4.5c-1.2,0.9-2.3,1.7-3.4,2.4c-0.5,0.4-1.1,0.8-1.6,0.1c-0.5-0.6,0-1.2,0.3-1.7
	c0.4-0.6,1-0.7,1.6-0.9c0.8-0.3,1.7-0.5,2.3-1.4c-1.3-0.5-2.7,0-3.6-0.9c-1.1-1-1.4-0.4-1.9,0.5c-0.3,0.7-0.5,1.6-1.3,2
	c-1.1,0.7-1.2-1-2-1.1c-0.3,0.9-0.6,1.6-0.9,2.4c-0.3,0.9-1.1,1-1.9,0.9c-0.5-0.1-1.1-0.1-1.2-0.6c-0.2-0.7,0.7-0.9,1.1-1.4
	c0.3-0.3,0.6-0.7,0.9-1c-0.5-0.8-2,0-1.8-1.3c0.1-0.9,1.2-0.6,1.9-0.8c0.6-0.2,1.8-0.4,1.8-0.7c0.1-1.7,1.6-1.3,2.6-1.9
	c-1.8-0.9-1.1-1.7,0.2-2c2.6-0.5,4.2-1.8,4.7-4.4c-1.2-0.3-2.1,1-3.3,0.9c0-0.8,1.1-0.9,0.6-1.9c-2.2,1.7-4.1,3.7-6.5,5.1
	c-0.5,0.3-0.9,1.4-1.6,0.7c-0.6-0.5-1.7-1.1-1.6-2c0.1-0.7,1.3-0.5,2-0.6c0.6-0.1,1.2-0.1,1.8-0.2c1.1-0.3,2-1.1,1.7-2.2
	c-0.3-1.1,0.4-1.1,1-1.3c1.4-0.5,2.9-0.6,4.1-1.9c-1.6-0.9-3.3-0.1-5.2-0.6c1.6-0.9,2.9-1.8,1.5-3.5c-1.2,1.1-2.4,2.3-3.6,3.4
	c-0.3,0.3-0.7,0.7-1.2,0.5c-0.5-0.2-0.7-0.7-0.7-1.1c0-0.6,0.4-0.8,0.8-1c2.9-1.4,3.1-1.8,3-4.5c0-0.3,0.6-0.4,0.3-0.9
	c-2,0.6-3.7,1.6-5.5,2.7c-0.4,0.3-0.8,0.7-1.4,0.3c-0.3-0.2-0.3-0.6-0.3-0.9c0-0.7,0.6-1,1.1-1c2.8,0.2,3.8-2.3,6.2-3.2
	c-1.3-0.7-2.5,0.1-3.6-0.6c0.7-1,1.7-1.9,2.4-1.6c1.8,0.9,2-0.7,2.9-1.4c0.6-0.5,0.3-1,0.1-1.5c-0.2-0.6-0.7-0.5-1.2-0.5
	c-0.6,0-1.2,0.8-1.6,0c-0.7-1.3-1.1-0.7-1.7,0.1c-0.4,0.6-0.8,1.1-1.3,1.6c-0.4,0.4-0.9,1.5-1.2,1.1c-0.9-1.1-2.9-0.2-3.4-1.9
	c-0.1-0.4-0.3-0.7,0-0.9c1.6-1.3,2.9-3.1,5-3.6c1.3-0.3,1.9-0.9,2.4-1.9c0.2-0.4,0.6-0.8,0.2-1.3c-0.3-0.3-0.8-0.1-1.2,0
	c-1.3,0.3-2.2-0.9-3.6-0.7c-0.6,0.1-0.1-0.8,0.2-1.2c0.5-0.6,1.3-1,0.9-2.3c-1,1.6-2.3-0.4-3,0.4c-0.7,0.8,0.2,2.3-0.9,3.2
	c-1-0.8,0.2-2.7-1-3c-2.4-0.7-2-2.4-2.1-4.1c-0.1-1.2-0.3-2.3-0.4-3.6c-1.6,0.6-2,2-3.1,3.1c-0.4-1.9-0.6-3.7-1.7-5.8
	c0,1.7,0.9,2.8-1.5,3.3c-1.7,0.3-3-0.4-4.7-0.4c1,2.4,3.3,3.6,4.1,5.9c-2.7,0.4-4.8-1.1-7.2-2c0.1,1.3,0.7,2,1.5,2.4
	c2,1.1,1.5,1.8-0.2,2.4c0.8,1.4,2.7,1.5,3.6,3.1c-1.6-0.1-2.7-0.9-3.7-1.6c-1.1-0.7-2.2-1.5-3.3-2.3c-0.1,1.3,1.2,2.2,0.7,3.3
	c-0.5,0.8-0.5,0.9,0.4,1.2c1,0.4,1.5,1.6,0.9,2.5c-0.4,0.6-1.5,1.5-2.4-0.1c-0.5-0.8-1.2,0-1.7,0.4c-0.6,0.4-0.9,0.9-0.3,1.5
	c1.1,1.1,1.8,3,4,1.8c0.2-0.1,0.6,0,0.6,0c0.3,1.8,2,1.4,3,2.1c0.4,0.3,0.9,0.6,0.8,1.1c-0.2,0.7-0.9,0.4-1.4,0.3
	c-1.8-0.2-3.3-1-5-1.7c-0.8-0.3-2.2-1.2-2.7-0.3c-0.5,1,1,1.5,1.8,2.1c0.1,0.1,0.1,0.2,0.2,0.4c-0.7,0.4-2.1,0-2.1,1.2
	c0,1,1.2,1.3,2.1,1.3c1.1,0,1.6,1,2.5,1.3c0.4,0.1,0.8,0.4,0.7,0.9c-0.2,0.6-0.8,0.5-1.2,0.3c-0.7-0.3-1.3-0.7-1.9-1.1
	c-2.3-1.4-4.5-2.7-6.8-4.1c0.9,1.8,0.1,2.7-1.7,3.3c0.7,0.4,1.2,0.6,1.6,0.8c0.6,0.3,1.5,0.2,1.8,0.9c0.4,1.1-1.5,0.3-1.2,1.3
	c1.4,0.4,2.9,0.3,4.2,1.3c-1.3,0.4-2.3-0.3-3.4-0.3c-2.5-0.2-2.5-0.1-1.7,2c-1,0.6-2.2-0.3-3.5,0.1c1.5,1.1,2.5,3.3,4.4,1.9
	c2-1.4,3.1,1.9,4.8,0.5c0.1,0,0.1-0.1,0.2-0.1c0.9-0.1,2.1-0.5,2.5-0.1c0.6,0.7,0,1.8-0.2,2.7c-0.3,1-0.7,1.7-1.6,0.4
	c-0.8-1.2-1.6-1.6-2.4,0.1c-0.2,0.5-0.8,0.9-1.3,0.4c-1.4-1.4-3.8-0.8-5.2-2.5c-0.1-0.2-0.5-0.2-0.8-0.2c-0.3,0-0.8,0.1-0.9,0.3
	c-0.2,0.3,0.1,0.7,0.3,0.9c1.2,0.8,0.9,1.5-0.3,2c0.9,0.7,1.7,1.4,2.6,2.1c-1.3,0.8-3.2-1-3.9,1.1c-0.4,1.2,0.3,2.3,0.9,3.1
	c0.5,0.7,1.2-0.8,1.9-0.9c0.4,2,0.4,2,1.9,2.7c0.1,0.1,0.2,0.2,0.3,0.3c1.4,0.8,3.7,0.8,4.4,0.3c2.6-1.9,2.5,0,2.8,1.6
	c0,0.2,0.2,0.3,0.3,0.4c0.6-0.2,0.6-0.8,0.9-1.1c0.4-0.4,0.9-0.8,1.4-0.2c0.5,0.6-0.3,0.8-0.6,1c-0.5,0.3-0.9,0.6-0.6,1.3
	c0.3,0.7-0.1,1-0.8,1.1c-2.2,0.3-4.4,1.2-6.4-0.6c-0.2-0.2-0.4-0.5-0.7-0.2c-1.6,1.6-2,0.2-2.4-1c-0.3-0.9-0.7-1.5-1.7-0.7
	c-0.3,0.2-0.8,0.4-1.1,0.4c-1.5,0-1.4,0.8-0.7,1.7c0.3,0.4,0.5,0.6-0.1,0.9c-0.6,0.3-0.4,0.5,0,0.8c0.6,0.4,1.3,0.8,1.9,1.1
	c0.4,0.2,1.2,0.1,0.9,0.8c-0.3,0.7-1,0.6-1.5,0.1c-0.5-0.5-1.3-0.9-1.4-0.2c-0.1,1.1-1.1,1.7-1.2,2.9c2.9-0.2,5.3,2,8.2,1.4
	c0.5-0.1,1.2-0.2,1.4,0.5c0.2,0.6-0.3,0.8-0.7,1.2c-0.4,0.5-0.9,1.1-1.5,0.5c-1.7-1.6-4.1-0.8-5.9-1.9c-0.7-0.4-1.2,0.1-1.7,0.3
	c-0.9,0.3,0.8,1.4-0.5,1.7c0.3,0.4,0.7,0.3,1.1,0.3c0.8,0.1,1.9-1,2.3,0c0.4,0.9-1.2,1.1-1.6,1.9c0,0.1,0.1,0.2,0.1,0.3
	c3.6-0.1,6.3,1.6,8.7,3.9c-2.4,0.2-4.7,0-6.7-0.9c-2-0.9-4.4-0.7-6-2.3c-0.1-0.1-0.6,0-0.8,0.1c-0.5,0.4-0.9,0.2-1.2-0.2
	c-0.7-0.9-1.6-2.2-2.5-1.2c-1.2,1.3,0.7,2,1.4,2.6c1.2,1,1.5,1.8,0,2.9c0.8,0.2,1.3,0.4,1.8,0.5c0.7,0.2,1,0.5,0.5,1.1
	c-1.3,1.4-0.1,1.8,0.9,2.3c1,0.5,2,0.2,3,0.4c0.5,0.1,1.2-0.2,1.5,0.7c0.5,1.5,1.7,2,3.1,2.2c-0.6,1.1-1.1,2.2-1.6,3.3c0,0,0,0,0,0
	c0,0,0,0,0,0c1.6-0.7,3.2-1.4,4.8-1.9c0.7-0.2,1.6-1.3,2.2,0.3c0.1,0.4,0.9,0,1.3,0c1.4-0.1,2.8-0.3,4.2-0.2c-2.1,1.6-4.3,2.9-7,1.9
	c-1-0.4-1.8,0-2.6,0.7c-1.7,1.4-2,1.3-3-0.8c0,0,0,0-0.1,0c0,0,0,0,0-0.1c-0.6-0.4-1.2-0.8-1.1,0.6c0.1,0.6,0.1,1.4-0.6,1.6
	c-0.6,0.2-0.8-0.6-1.2-1c-0.9-1-1.7-1.9-2.8-2.6c-0.5,0.5,0.5,1.3-0.3,1.6c-0.6,0.2-0.9-0.5-1.4-0.7c-0.8-0.4-1.8-2-2.4,0.3
	c-0.1,0.5-0.7,0.1-1-0.1c-1.6-1-3.4-1.7-3.8-3.9c-0.1-0.6-0.4-1.1-1.1-1c-0.6,0.1-1.3,0.1-1.7,0.6c-0.3,0.4-0.1,0.8,0.2,1.1
	c2.3,1.7,3.4,4.1,4.5,6.8h-2.8c3.6,1.1,6.6,3.9,10.7,3.1c0.9-0.2,1.7,0.3,2.6,0.5c0.5,0.1,1.6-0.2,1.3,0.7c-0.2,0.8-1.2,1-1.9,0.5
	c-1.6-1.1-3.3-0.9-4.9-0.3c-1.8,0.6-3.5,0.2-5.2-0.4c-0.4-0.2-0.9-0.9-1.4-0.2c-0.3,0.5-0.3,1.2,0.1,1.8c0.3,0.6,0.9,0.9,1.5,0.9
	c0.7,0,1.1,0.4,1.3,1.1c0.1,0.7-0.3,1.1-0.9,1.5c-0.3,0.2-0.8,0.2-0.7,0.8c1.1,0,2.2-0.9,3.2-0.3c1.8,1.1,3.4,0.4,5-0.3
	c1.2-0.6,2-0.4,3,0.4c0.7,0.6,1.5,1.6,2.3,1.2c2.3-1.3,4.4,1.1,6.8-0.4c-0.5,3-2.5,3.1-4.4,3.2c-0.8,0-1.1,0.1-0.9,1
	c0.1,0.6,0.8,1.5-0.1,1.8c-0.8,0.3-1.2-0.7-1.7-1.2c-0.3-0.3-0.5-0.6-0.8-0.9c-0.7-0.9-1.4-1.5-2.3-0.2c-0.6,0.8-1.4,0.4-2.2,0
	c-1.2-0.6-2.3-1.7-3.8-2.1c-0.2,1.2,1,1.9,0.7,3.1c-1.8-0.6-3-1.9-4.3-3c-1.1-1-2.1-2-3.2-2.9c-0.6-0.5-1.2-0.6-1.2,0.5
	c0.1,1.5-0.6,2.3-1.8,2.9c-1.1,0.6-1.1,1.3-0.4,2.3c1.1,1.6,1.8,3.5,2.6,5.7c-1.8-0.9-2.9-2-4-3.1c-1.7-1.7-3.2-1.6-4.4,0.3
	c-0.4,0.6-1.6,1.3-0.6,2c1,0.7,0.6,1.1,0,1.7c-0.5,0.5-1.2,1-1.2,1.9c0.6,0.3,1.1,0,1.6,0c1.1-0.1,2.3-0.4,2,1.4
	c-0.1,0.9,0.6,1.1,1.4,1c0.5,0,1.2-0.5,1.6,0.1c-0.1,0.7-0.9,0.9-0.8,1.8c2.8-1.1,5.7,0.8,8.5-0.5c0.2-0.1,0.5,0,1,0.1
	c-1.5,1.3-3.4,1.3-4.8,2.5c1.4,0.6,2.1-0.6,3.2-0.9c0.1,1.6,1,2.9,1.6,4.3c-1.5,0.1-2.7,0.3-3.9,0.9c-1.3,0.6-1.9,1.6-1.4,2.7
	c0.6,1.2,1.8,1.2,3,0.5c0.4-0.2,0.8-0.6,1.3-0.4c0.6,0.2,1.1,0.7,0.9,1.4c-0.2,0.8-1,0.8-1.7,0.7c-1.7-0.2-3.3,0.1-4.8,1.5
	c0.6,0,0.9,0.1,1.2,0.1c1.6-0.3,3-0.5,3.7,1.6c0.3,1,1.3,0.6,1.8-0.1c0.8-1.1,1.8-1.1,2.9-1c0.8,0.1,1.4,0.6,0.5,1.1
	c-1.2,0.8-0.4,1.4-0.2,2.1c0.4,1.5,1.8,0.8,2.5,1.4c0.8,0.7,1,0.4,1.7-0.5c0.8-1,2.7-1,4.1-1.5c0,0.1,0.1,0.3,0.1,0.4
	c0.9,1.4,2.3,1.5,3.7,1.1c0.5-0.2,1.1-0.5,1.5,0c0.7,0.9,1.6,1.4,2.4,2.2c-5.2,0.4-10.3,2.3-15.6-0.4c0.1,0.7,0.2,1,0.2,1.3
	c0.1,0.7,0.4,1.5-0.2,1.9c-0.8,0.5-1.2-0.3-1.7-0.7c-0.7-0.6-1.3-0.7-2-0.1c-1.4,1.2-1.8,0.3-2.2-0.9c-0.8-2.2-1.8-4.3-3.6-5.9
	c-0.8,1.8-0.8,1.8-3.1,1.2c-0.5,0.6,0,1.5-0.8,2c-0.5-0.6-0.8-1.3-1.4-1.7c-1-0.8-2.4-1-3.1,0.1c-0.8,1.3-2.1,2.9,0.1,4.3
	c0.2,0.1,0.5,0.5,0.1,0.9c-1.2-0.8-2.2-2.1-3.7-2.4c-0.6-0.2-1.7,0-1.5,0.3c1.1,1.7-3.4,3.6,0.3,5c0.1,0,0,0.5-0.1,0.8
	c-0.5,1-0.3,1.5,0.9,1.4c1.3-0.2,1.6,0.6,1.2,1.6c-0.7,2.1,0.2,2.4,2,2c0.5-0.1,1.4-0.6,1.2,0.6c-0.1,0.7-1.2,1.9,0.9,1.5
	c0.5-0.1,0.7,1.6,1.8,1.3c0.8-0.2,1.5-0.7,2.2-1c0.6-0.3,1.5-0.6,1.9-0.1c0.6,0.6-0.4,1-0.7,1.5c-0.2,0.4-0.7,0.8-0.3,1.3
	c0.4,0.5,0.9,0,1.3-0.1c1.1-0.5,2.2-1.2,3.3-1.5c0.5-0.2,2.2-1.8,1.6,0.8c-0.1,0.5,0.5,0.6,0.8,0.7c1,0.3,1.4,1,1.4,2.1
	c-3.4,0-6.7-1.2-10.3-0.8c2.5,1.2,3.5,3,2.8,5.7c-0.2,0.9,0.6,0.6,1.1,0.3c1.1-0.8,2.2-1.6,3.3-2.5c0.4-0.4,0.7-1,1.2-0.4
	c0.5,0.6-0.3,0.8-0.6,1.2c-1.4,1.6-2.8,3.2-3.7,5.2c1-0.8,2.3,0.4,2.9-0.1c1.3-1.4,2.3-0.4,3.5,0.1c0.1-0.5,0.2-0.9,0.4-1.2
	c0.1-0.4-0.1-0.9,0.4-1.2c1.8,2.1,1.9,2.2,2.8-0.3c0.6-1.5,1.9-0.6,2.8-1.1c0.3-0.2,0.7,0.1,0.6,0.5c-0.1,1,0.4,1.8,0.8,2.7
	c0.4,0.8,0.1,1.5-0.8,1.7c-2.4,0.5-4.7,1.1-7.1,1.5c-3,0.5-5.4,1.3-6.4,4.5c-0.4,1.1-1,1.8-1.8,0.3c-0.5-0.9-1.1-1.2-2-0.6
	c-1.5,1.1-2.2,0.4-2.6-1c-0.2-0.5-0.5-1-0.8-1.4c-0.5-0.6-1.3-2.4-1.7,0.1c-0.1,0.7-0.8,0.7-1.3,0.6c-0.6-0.1-1.2-0.3-2.1-0.5
	c0.4,0.5,0.8,1,0.8,1c-1.7,1.5-0.1,1.7,0.9,2.3c0.4,0.2,1,0.6,0.8,1.1c-0.3,0.7-0.9,0.2-1.4,0.1c-1.7-0.4-3.2-1.3-5.4-0.8
	c0.9,1,1.8,1.6,2.3,2.5c0.8,1.3-1.3,1.4-1.2,2.6c2.9-0.5,3-0.6,3.5-0.1c0.9,0.9,1.8,0.6,2.8,0.3c2.2-0.8,2.4-0.7,2.3,1.6
	c-0.1,1.6,0.8,1.4,1.7,1.3c0.7-0.1,1.2-0.5,1.9-0.8c0.6-0.2,1.4-0.9,1.7-0.5c1.4,1.9,1.6-0.1,2.3-0.6c0.4-0.3,0.6-1,1.3-0.5
	c0.3,0.8-0.8,1.3-0.4,2.3c2.1-1.1,2.9-0.2,3,1.9c0,0.4,0.5,1.1,0.9,0.8c1.4-1.1,3.5-0.6,4.5-2.1c0.9-1.3,2.1-1.6,3.4-1.9
	c1-0.2,2.3,0.2,2.6-1.4c0.1-0.6,0.7-0.2,0.9,0.2c0.3,0.4,0.7,0.9,1,1.3c0.3,0.4,0.8,0.7,0.5,1.2c-0.3,0.6-0.9,0.5-1.4,0.4
	c-0.8-0.1-1.7-0.9-2.3-0.2c-0.7,0.8,0.3,1.6,0.5,2.4c0.1,0.2,0.1,0.5,0.1,0.9c-1.3-0.1-2.4-0.2-3.6-0.2c-0.8,0-1.6,0.1-2,0.8
	c-0.4,0.7,1.1,0.4,0.8,1.6c-2.4-0.9-5.3,1.5-7.5-1.4c-0.5-0.7-2-0.8-2.1-0.1c-0.2,2.2-1.8,1.8-3.3,2c1.5,1.3,3.2,1.1,4.6,1.8
	c-0.4,0.9-1.9,0.1-1.8,1c0,1,1.1,1.3,1.9,1.7c0.8,0.4,1.8,0.5,2.4,1.2c-0.9,1.1-1.8-0.2-2.6,0.4c0.3,0.8,0.7,2.4,0.2,2.3
	c-1.3-0.3-2.5,1-3.7-0.1c-1.2-1.1-2.8-0.9-4.3-1c-1,0-2.5,0.2-1.9,1.5c0.4,1-0.9,3.9,2.2,2.8c0.4-0.1,1-0.4,1.3,0.1
	c0.3,0.5-0.3,0.8-0.5,1.2c-0.9,1.1-0.5,2.5,0.1,3.3c0.4,0.6,1.3,1.6,2.1,1.7c1.2,0.1,0.8-1.5,1.4-2.2c0.2-0.3,0.4-0.5,0.7-0.7
	c1.4-0.9,3-0.9,4.5-1.2c1.3-0.3,2.5-0.2,3.4-1.5c0.6-1,2.4-0.7,2.9,0.4c0.3,0.6,0,2,1.1,1.8c0.8-0.2,0.6-1.4,0.7-2.2
	c0-0.2-0.1-0.6,0.3-0.7c0.7,0.2,0.9,1.6,1.9,1.2c0.9-0.4,0.6-1.4,0.6-2.2c-0.1-1.1,0.8-0.9,1.4-0.8c1,0.1,2,0.4,2.5-0.8
	c0.8-1.9,2.6-2.3,4.6-3.3c-0.4,0.8-0.6,1.1-0.7,1.5c-1.9,3.8-5.7,5.5-8.9,7.9c-1.4,1.1-3,1.6-4.8,1.3c-1.4-0.2-2.8-0.3-4.3-0.2
	c-2.8,0.3-3.9,1-4.9,3.5c-0.1,0.2-0.3,0.3-0.4,0.4c-2.3,0.6-4.4,1.6-6.5,2.7c-2,1-3.8,2.4-6,2.9c-0.4,0.1-0.9,0.6-0.8,1.3
	c1.5,0.1,1.5,0.1,1.5,1.3c0.6-0.4,1.3-0.8,1.9-1.1c0.3-0.2,1,0,0.9,0.1c-1,2.1,1.2,1.1,1.6,1.8c0.4,0.6-1.3,1.3-0.1,1.7
	c0.8,0.3,0.6,0.4,0.2,0.9c-0.9,0.9-1.9,1.6-3,2.2c-1.8,1-3.6,1.9-5.4,2.9c2.1-0.4,4.1-0.4,6.1,0.1c0.5,0.1,1.2-0.1,1.5-0.4
	c0.9-0.9,1.6-0.3,2.4,0.1c0.6,0.3,0.8,1.1,1.7,1c0.1-0.6,0.3-1.2,0.4-1.8c0.1-0.7,0.3-1,1-0.9c1.3,0.2,3.2,1.3,2.9-1.5
	c0,0,0.1-0.1,0.2-0.1c2-0.6,1.1-1.5,0.3-2.5c-0.2-0.3-0.5-0.5-0.4-0.9c0.2-0.4,0.7-0.4,1.1-0.3c0.7,0,1.2,0.4,1.5,1
	c0.5,0.9,0.9,0.6,1.5,0.1c1.2-0.9,0.8-2.3,1.2-3.5c0.7,0.6,1.3,1.2,1.9,1.5c0.4,0.3,1,0.7,1.5,0.3c0.7-0.4,0.1-1-0.1-1.4
	c-0.4-1.2-0.5-2.2,1.3-1.9c0.2,0,0.6-0.1,0.7-0.2c1.3-1.2,3.3-1.6,3.5-4c0.6,1.8,1.8,2.1,3.1,2.6c1.6,0.6,1.7,0,1.6-1.2
	c0-0.6-0.5-1.4,0.4-1.5c1.5-0.2,1.6-1.5,2-3.3c0.7,1.9,1.6,1.8,2.7,1.5c1.3-0.4,0.5-1.4,0.6-2.1c0.3-1.1,0.1-2.3,1-3.8
	c0,3,2.2,2.1,3.7,2.8c-1.8,1.5-3.8,2.4-4.9,4.3c-0.2,0.3-0.9,0.6,0.1,1.3c1,0.8,3,1.3,2.6,3.2c2.1,0,2.7-1.4,2.8-3.1
	c0-0.1,0.1-0.4,0.2-0.4c2.1,0.7,1.5-1.7,2.4-2.4c1.2,1.1,1.8,2.7,3.7,3.4c-0.6-1.4-0.4-2.4,0.1-3.5c0.3-0.6,0.4-1.3,0-2
	c-1.2-2.3,0.3-3.7,1.8-5.2c0.1,0.2,0.2,0.3,0.2,0.4c-0.2,11.4-0.2,24.9-0.7,36.2c2.6-0.1,4.3,0.3,6.9,0c1-0.1,3.1-0.7,4.1-0.8
	c0-8.3-0.4-19.4-0.4-27.7c0-1.1-0.2-2.3,0.1-3.3c0.4-1.3,2-0.8,3-1.3c1.2-0.6,1.5-1,0.2-1.9c-1.2-0.8-2.1-1.8-2.7-3.6
	c1,0.4,1.6,0.7,2.2,0.9c3,1.3,3.2,1.6,3.2,4.9c0,1.2,0,2.3,0.2,3.5c0.2,1.2,0.6,3,1.8,2.8c1.1-0.2,0.1-1.9,0.1-2.9
	c0-0.5-0.6-1.2,0.2-1.4c0.7-0.3,1,0.5,1.3,1c0.2,0.4,0.3,0.8,0.4,1.1c0.3,0.9,0.4,1.9,1.7,0.9c0.8-0.6,1.6-0.1,2.1,0.7
	c0.4,0.7,0.8,1.4,1.1,2.2c0.5,1.1,1.1,1.4,1.7,0.1c0.3-0.7,0.7-1.5,1.6-1.2c0.8,0.2,0.8,1,0.7,1.7c0,0.6-0.3,1.3,0.5,1.6
	c0.7,0.4,1.5,0.3,2.1-0.3c0.6-0.7,1.2-0.8,1.8-0.3c2.6,2.6,6.2,2.7,9.4,3.7c3.2,1,6.2,3.1,9.8,1.5c0.8-0.3,1.9,0,2-1.2
	c0.1-1.1-0.6-1.7-1.7-1.9c-0.6-0.1-1.6-0.2-1.5-1.1c0.2-1.7-1.1-2-2.2-2.5c-1.5-0.7-3.5-1-4.2-2.4c-1.3-2.8-3.3-4.5-6.1-5.5
	c-0.1,0-0.2-0.2-0.3-0.3c-0.8-1.1-1.9-1.1-3.1-0.8c-2.4,0.6-4.8-0.6-5.8-2.9c-0.4-1-0.3-2,0.5-2.9c0.5-0.5,1-1.1,1.8-0.7
	c1,0.5,0.6,1.6,0.6,2.4c0,2.6,0.4,2.8,2.7,1.7c0.4-0.2,0.7-0.4,1.1-0.5c1.6-0.8,3-1.1,4.3,0.7c0.5,0.8,1.4,1.4,2.7,0.8
	c2.3-1,2.9-0.7,4.4,1.3c0.9,1.3,1.9,3.3,4.1,1.3c0.2-0.2,0.7-0.2,1-0.1c2.1,1.4,4.2,1,6.4,0.2c0.7-0.3,1.9,0.1,1.8-1.3
	C297.8,370.8,297,370.3,295.8,370.2z M285.8,322.4c-1.4,0.8-2.9,0.6-4.3,0.9C282.6,321.8,283.9,321.4,285.8,322.4z M217.6,291.6
	c-1,0.4-1.7-0.8-2.7-0.5c0,0.1,0,0.3,0,0.4c0.4,0.9,2,1.5,1.2,2.5c-0.9,1.1-1.9-0.2-2.8-0.7c-0.2-0.1-0.5-0.1-0.9,0.1
	c1.2,1.1,2.3,2.1,3.5,3.2c-0.3,0.3-0.4,0.4-0.5,0.4c-2.8-1.8-6.3-1.1-9.3-2.3c-1-0.4-1.1-0.8-0.5-1.3c0.5-0.6-0.3-2.7,1.6-1.6
	c1.4,0.8,1.8,0,2.4-0.9c0.6-1,1.2-2.8,2.2-0.1c0.2,0.5,0.6,0.5,1,0.1c1.3-1.4,3.9-0.8,4.9-2.9V291.6z M223.7,290.4
	c-0.7,0.2-1.4,0.4-2.2,0.5c-0.6,0.1-1.3,0.2-2.4,0.4c1.8,1.1,3.3,1.8,4.6,2.8c0.3,0.3,0.8,0.5,0.4,0.9c-0.3,0.4-0.7,0.1-1-0.1
	c-0.9-0.5-1.8-1-2.7-1.5c-2.4-1.3-2.7-2.9-1-5c0-0.1,0.1-0.1,0.1-0.2c0.2-0.2,4.9,0.3,5.1,0.6C225.1,289.9,224.3,290.2,223.7,290.4z
	 M227.5,241.5c-1.2,0.7-2.4,0.5-3.4-0.4c-0.7-0.6-1.4-1.5-0.8-2.3c0.5-0.7,1.4,0,1.9,0.4c1.7,1.4,3.3,0,5.2,0.2
	C229.5,240.1,228.5,240.9,227.5,241.5z M257.3,325.8c-0.7-0.2-3-4.3-2.8-4.9c0.1-0.3,0.4-0.4,0.6-0.3c0.8,0.4,2,0.1,2.5,1.1
	c0.2,0.5,0.4,1,0.6,1.6c2.9-3.3,2.2,1.5,4,1.4c0.4-0.1-0.1-1,0.5-1.3c1.1,0.6,0.8,2.1,1.9,2.8c0.6-0.8,0.3-1.7,0.3-2.5
	c0-1.2,0.6-1.8,1.7-1.2c3.5,2.3,7.3,0.4,10.9,0.7c0.8,0.1,1.6-0.3,2.6,0.8c-1.4,0.2-2.5,0.5-3.5,0.5c-1.8,0.1-3.3,0.4-4.6,1.8
	c-0.8,0.9-2.1,1-3.2,1C264.8,327.7,261,326.7,257.3,325.8z"/>
</svg>
