<?xml version="1.0" encoding="utf-8"?>
<!-- Generator: Adobe Illustrator 21.0.0, SVG Export Plug-In . SVG Version: 6.00 Build 0)  -->
<svg version="1.1" id="Warstwa_1_kopia_2" xmlns="http://www.w3.org/2000/svg" xmlns:xlink="http://www.w3.org/1999/xlink" x="0px"
	 y="0px" viewBox="0 0 512 512" style="enable-background:new 0 0 512 512;" xml:space="preserve">
<style type="text/css">
	.st0{fill:url(#SVGID_1_);}
	.st1{fill:url(#SVGID_2_);}
	.st2{fill:url(#SVGID_3_);}
	.st3{fill:url(#SVGID_4_);}
	.st4{fill:url(#SVGID_5_);}
	.st5{fill:url(#SVGID_6_);}
	.st6{fill:url(#SVGID_7_);}
	.st7{fill:url(#SVGID_8_);}
	.st8{fill:url(#SVGID_9_);}
	.st9{fill:url(#SVGID_10_);}
	.st10{fill:url(#SVGID_11_);}
	.st11{fill:url(#SVGID_12_);}
</style>
<linearGradient id="SVGID_1_" gradientUnits="userSpaceOnUse" x1="315.437" y1="446.3333" x2="315.437" y2="506.04" gradientTransform="matrix(1 0 0 -1 0 514)">
	<stop  offset="0.809" style="stop-color:#000000"/>
	<stop  offset="0.9548" style="stop-color:#F15A24"/>
</linearGradient>
<path class="st0" d="M364.2,433.5c-4.5,0.2-8.1-1.4-11.6-4c1.2-0.6,2,0.4,2.9,0.2c0.4-0.1,0.9,0.1,0.9-0.5c0-0.4-0.4-0.7-0.7-0.6
	c-1.7,0.4-3.1-0.8-4.8-0.7c-0.3,0-0.5,0-0.7-0.2c-1.2-1.7-3-2.5-4.9-3.1c-0.7-0.2-1.3-0.7-1.9-1.4c2.2-0.1,4,0.7,5.7,1.6
	c2-2.3,3.3,2.3,5.4,0.4c-0.6-0.4-1.2-0.7-1.6-1.3c-0.4-0.6-0.4-1,0.2-1.4c0.6-0.4,1.1-0.5,1.5,0.2c0.2,0.3,0.1,0.8,0.6,0.9
	c0.8,0.1,1.6,0.4,1.5,1.2c-0.1,1-1.4,0-1.9,0.9c1.8,1,3.5,1.7,5.3,0.1c0.5-0.4,1,0.6,1.7,0.5c-0.4-1.9-0.9-3.3-3.2-3.6
	c-2.3-0.3-4-2.4-6.4-3.1c-0.3-0.1-0.7-0.4-1.1-0.9c-5.7-0.1-11.4-0.2-17.1-0.3c0,0,0,0.1,0.1,0.1c0,0.8-0.5,0.8-0.9,0.8
	c-0.7,0-1.1-0.3-1-0.9c-10-0.2-19.9-0.3-29.9-0.5c0.2,0,0.5,0.1,0.7,0c0.5,0,0.7,0.8,0.6,1.4c-0.1,1-1.2,1-1.7,1
	c-2.5,0-4.6,1.8-7.2,1.3c-0.2,0-0.8,0.1-0.8,0.7c0,0.3,0.2,0.5,0.5,0.5c1,0,1.3,1.2,1.1,1.4c-0.7,0.6-1.5,1.6-2.7,1.1
	c-1.3-0.6-2.8-1.1-3.9-2c-1.6-1.4,0.3-1.9,0.8-3.2c0.6,0.9-0.3,2.5,1.3,1.9c0.1,0,0.3-0.1,0.4,0c0.5,0.3-0.2,1.7,1,1.1
	c0.9-0.4,0.5-1.4,0.5-2.2s-0.1-1.6-0.1-2.4c0-0.3,0.1-0.6,0.2-0.8c-4-0.1-8-0.2-12-0.2c-1.7,0.5-3.4,0.8-5.2,0.3
	c-0.3-0.1-0.9,0.1-0.9,0.2c-0.1,2.1-1.7,1.9-3,1.9c-0.8,0.1-1,0.5-0.8,1.1c0.2,0.7,0.6,0.4,1.1,0.3c2-0.4,3.6-1.7,5.7-1.9
	c1.4-0.2,1.7,0,1.8,1.5c0.6-2.2,2.2-3.6,3.9-3.1c1.7,0.6,3.3-0.3,5.1,0.4c-0.8,0.8-1.5,1.7-2.5,2.2c-0.2,0-0.5,0.1-0.5,0.2
	c-0.7,3.8-3.5,1.8-5.5,1.9c-0.6,0.1-1.2,0-1.3,0.6c-0.2,0.9,0.8,0.2,1.1,0.8c-3.6,1-7.3,2-10.9,2.9c-0.6,0.2-1.2,0.1-1.4,0.9
	c-0.2,0.6-1.8,0.7-0.8,1.7c0.7,0.6,1.3-0.4,1.9-0.9c1-0.8,2.2-1.2,3.4-1.6c0.5-0.1,1-0.2,1.4,0.4c0.6,0.7,0,1-0.2,1.4
	c-0.2,0.6-0.9,1.1-0.8,2c0.9-0.1,0.8-1,1.3-1.3c1.2-0.9,2.2-3.1,4.1-1c1.9-0.9,2.9,0.6,3.8,1.6c1.1,1.1,2.7,1.9,2.7,4.2
	c0.9-1.8,1.7-2.9,3.2-1.2c0.4,0.4,0.8,0.1,1-0.3c0.3-0.4,0-0.7-0.3-0.8c-0.9-0.5-2.5-0.8-2-2s1.9,0.1,2.8,0c1.3-0.2,2.5-0.2,3.8-0.3
	c0.9-0.1,1.4,0,1.4,1.2c0,1.4,0.6,2.1,2,0.9c0.3-0.2,0.6-0.9,1.3-0.4c0.6,0.4,0.3,1,0.3,1.6c0,0.9-0.6,0.9-1.1,1
	c-1.1,0.2-2.3,0.2-3.9,0.3c2,1.4,4-0.5,5.5,1c-1.3,0.9-2.1,2.6-3.7,3.3c-0.3,0.2-0.6,0.3-0.6,0.7c0,1.2-0.7,1.3-1.7,1.4
	c-1.1,0.1-2.2,0.5-3.1,1.2c0.4,0.6,0.9,0.4,1.3,0.2c0.4-0.3,1-0.7,1.3,0c0.3,0.6,0.5,1.3-0.3,1.8c-0.9,0.5-1.7,1.2-2.9,1.1
	c-0.9-0.1-1.9-0.1-2.7,0.6c1.5-0.1,3,1.5,4.6-0.1c0.6-0.5,1.1,0,1.1,0.8c0,0.6,0.2,1.3,0.9,1s0.7-0.7,0-1.3c-0.6-0.5,0.4-1,0.8-1.3
	c0.3-0.3,0.9,0,0.9,0.4c0.2,1.7,1.5,2.2,2.9,2.5c-0.2,1.2-1.7,1.7-1.5,3.1c1-0.1,1-1.1,1.5-1.7c0.3-0.3,0.6-1,1-0.4
	c0.6,1.1,2.4,0.4,2.6,2c0,0.1,0.2,0.2,0.3,0.3c0.4,0.5,1.7-0.1,1.4,0.9s-1.5,0.6-2.3,0.5c-3.7-0.4-7.3,0.9-11.4,0.4
	c0.8,1.1,1.5,1,1.9,0.8c1.3-0.8,2.6-0.2,3.4,0.4c1.3,0.9,2.2,0.7,3.6,0.3c1.4-0.5,3.1,0.2,4.6-0.2c0.4-0.1,0.7,0.2,0.9,0.6
	c0.3,0.6-0.1,0.8-0.4,1c-0.8,0.5-1.5,1.2-2.4,1.3c-2.3,0.4-3.9,2.7-6.5,2.3c-0.6-0.1-1.1,0.2-1.4,0.6c-0.9,1.2-2.3,1.7-3.5,2.4
	c-0.3,0.1-0.8,0.2-0.6,0.8c0.4,0.7,0.9,0.2,1.2,0c0.7-0.3,1.3-0.7,1.9-1.1c2.3-1.6,5.1-1.5,7.7-2.3c0.5-0.2,1.3,0.3,1.8,0.7
	c0.5,0.4,0.9,0.3,1.1-0.2c0.3-0.8,0.9-1.3,1.8-0.9c0.7,0.4,0.2,1,0,1.4c-0.3,0.8-0.7,1.9-1.9,1.4c-0.9-0.3-1.9-0.3-2.8-0.3
	c-0.8,0-1.7,0.2-2.3,1c1.2,1.2,3-1.1,4,0.8c-0.9,0.8-2.1,0.3-3.1,0.4c-0.6,0-1-0.2-1,0.9c0,1-1.1,1.5-2.7,0.9
	c1.6,1.7,1.4,2.5-0.4,3.1c-1.1,0.4-1.5,1.9-2.9,2c-0.4,0,0,0.4,0.1,0.7c0.4,0.9,1.3,0.5,1.4,0.3c0.7-1,2.1-1.2,2.6-2.5
	c0.4-0.8,1-1.5,1.8-0.1c1,1.7,1.2-1.1,2.2-0.2c-0.1,0.6-0.3,1.3-0.9,1.9c-0.5,0.5-0.8,1.2-0.1,1.5c0.7,0.4,0.7-0.4,0.9-0.9
	c0.2-0.3,0.5-0.6,0.8-1.1c0.6,1.4,0,2.6,0.2,3.8c0.1,0.8,0.2,1.2,0.9,1c1.8-0.6,1.2,0.5,1.1,1.4c-0.2,1.5-0.9,2.9-0.6,4.5
	c0.1,0.4,0,1.1,0.7,1c0.5-0.1,0.5-0.6,0.5-1c0-1.6,0.1-3.1,0.6-4.7c0.4-1.1,0.5-2.3,2.3-1c-0.2-1.2-2.2-0.6-1.4-2
	c0.4-0.6,0.6-2,0.7-1.9c1,1.2,2.9,0.4,3.8,1.8c0.3,0.4,0.4,0.9,0.7,1.2c0.8,0.7,1.6,1.5,2.1-0.3c0.4-1.4,4.8-3.7,5.6-2.9
	c0.7,0.6,0.8,2.1,0.4,3.3c-0.5,1.7-0.9,3.3-1.4,5c-0.2,0.6-0.3,1.4,0.3,1.6c0.8,0.2,0.8-0.6,1-1.2c0.2-1,0.2-2.1,1.6-2.6
	c0.7,1.7,1.1,3.3,0.8,5.1c-0.2,0.7,0.1,1.2,0.3,1.7h0.4c1-2.6,0.3-5.2-0.5-7.6c2.1,2,4.7,2.1,7.4,2.4c-0.9-1.1-2-1.3-3-1.6
	c-1.3-0.3-2.2-0.8-2.1-2.2c0.1-1.4,1.3-1.7,2.4-1.9c0.4-0.1,0.8,0.1,1.2-0.3c-1.3-1.1-2.7-2.2-4-3.4c-0.7-0.7-1.3-1.5-0.6-2.6
	c0.5-1-0.2-1.8-0.5-2.6c-0.5-1.4-1.1-2.8-0.5-4.4c1.6,1.6,1.8,2.2,2.2,6.8c0.9,0.1,0.3-0.9,1-1.1c1.9,2.8,4.8,5.2,4.8,9.2
	c0,0.6,0.2,1,0.8,0.9c0.5-0.1,0.4-0.7,0.3-1c-0.7-1.3,0.2-3-1.5-4.3c-1.3-1-1.6-3.2-2.8-4.7c1.6,0.3,2.4,2,4.1,2.2
	c0.2,0,0.6,0.4,0.4,0.7c-0.2,0.3-0.7,0.3-1.3,0.5c1.7,0.4,2.7,2.3,4.6,1.6c0-1.5-0.7-2.4-2.1-2.8c-1.4-0.4-2.4-1.6-3.6-2.4
	c-0.3-0.2-0.7-0.4-0.5-0.9c0.5-1.3-0.7-1.4-1.3-1.3c-1.7,0.1-2.5-0.4-2.7-2.1c-0.2-1-0.8-1.8-1.2-2.7c2.5,0,4.1,1.2,3.6,2.7
	c0.6,0.3,1.1-0.1,1.7-0.2c0.5-0.2,0.9-1.1,1.5-0.3c0.5,0.7,0.2,1.3-0.3,1.8c-0.2,0.2-0.6,0.4-0.5,0.8l2.6,2c0.2,0.3,0.2,0.9,0.8,0.6
	c0.4-0.2,0.6-0.6,0.3-1c-0.1-0.1-0.1-0.1-0.1-0.2c-0.4-1.1-1.7-2.4-0.4-3.2c1-0.6,1.5,1.2,2.3,1.8c0.8,0.6,1.4,1.2,1.7,2.1
	c0.3,0.7,0.8,0.7,1.3,0.6c1-0.2,1.9,0.5,3.1,0.3c-0.7-1.6-1.9-2.8-3.6-3.7c1.6-0.8,2.9,0.4,4.8,0.1c-1.8-0.6-2.7-1.4-4.3-1.1
	c-1.1,0.2-1.7-1.1-1.6-2.3c0.1-1.4,1.1-0.4,1.7-0.6c0.3-0.1,0.7,0.2,1,0.2c0.5,0.1,1.1,0.9,1.4,0.1s-0.6-0.6-1-0.8
	c-0.5-0.1-0.4-0.6-0.3-1c0.1-0.7,0.5-0.3,0.9-0.2c2.1,0.4,3.7,1.9,5.6,2.8c0.7,0.3,1.2,0.8,2.4,0.3c-3-1.1-2.9-4.1-4.4-6
	c-0.7-1-1.2-2.1,0.9-2.7c-1.4-0.3-2.8-0.2-2.2-2.2c0.3-0.9-1.3-0.6-1.9-1c-0.3-0.2-0.9-0.1-0.8-0.6c0.1-0.4,0.5-0.7,0.9-1
	c0.3-0.2,0.8-0.4,1,0.2c0,0.2,0.1,0.4,0.1,0.4c1.9-0.6,3.6,0.6,5.4,0.4c-1.8-1-3.8-1.7-5.2-3.3c-0.3-0.4-1,0-1.5,0.2
	c-1.2,0.4-2.1-0.5-2.9-1.1c-0.5-0.4-0.3-1.3,0.7-1.8c0.7-0.3-0.1-1.2-0.1-1.8c-0.1-1-0.5-1.8,1.1-1c0.8,0.4,0.8-0.4,0.7-1.1
	c-0.1-0.6,0.2-1.1,0.9-1.1c0.5,0,1.2,0.4,1.2,0.9c-0.2,2.1,0.8,3.6,1.7,5.3c0.1,0.2,0.1,0.6,0.3,0.9c-0.1-0.9,1.8-1.6,0.2-2.7
	c-0.3-0.2-0.4-0.4-0.2-0.8c0.4-0.6,0.8-0.2,1.2-0.1c0.4,0.1,0.8,0.8,1.2,0.2c0.5-0.6,0-1-0.4-1.4c-0.6-0.6-0.9-1.6-1.9-1.9
	c-0.6-0.2-0.8-0.3-0.5-1c0.4-0.8-0.4-1.5-1-2.6c2.7,0.5,4.7,1.4,6.6,2.8c1.6,1.1,2.3,3.7,5,2.9c0.1,0,0.6,0.3,0.6,0.4
	c-0.7,2.6,2.2,2.2,3,3.5c0.2,0.4,0.7,0.4,1,0c0.4-0.4,0.1-0.7-0.2-1c-0.7-0.6-1.6-1-1.5-2.1c0.7-0.5,2.1,1,2.2-0.1
	c0.2-1.2-1.5-1.1-2.3-1.2c-2.1-0.2-3-1.3-3.6-3.1c0.9-0.3,1.2,0.5,1.6,0.8c0.8,0.5,1.4,1,2.2-0.1c0.7-0.9,1.2-2.5,0.8-3.4
	c0.5-0.4,0.9,0,1.2,0.3c1.9,1.5,4.6,1.5,6,3.7c0.2,0.2,0.6,0.5,0.9,0.1c0.3-0.4-0.1-0.6-0.3-0.8c-0.7-0.7-1.4-1.2-2.3-2
	c1.1,0,1.8-0.1,2.6-0.1C364.1,433.9,364.1,433.7,364.2,433.5z M284.8,426.2c-1.1,0.5-0.1,1.6-0.9,2.2c-0.8-0.7-1.2-1.7-1.3-2.6
	c0-0.6,0.3-0.9,0.8-1c0.4-0.1,0.9-0.4,1.2,0.2C284.7,425.4,285.3,426,284.8,426.2z M298.6,437.7c0.6,0,1.2,0.1,1.3,0.9
	c-0.2,0.8-0.9,0.5-1.4,0.7c-0.6,0.2-1-0.2-1-0.8C297.5,437.8,298.1,437.7,298.6,437.7z M299.9,444.7c-1,0-1.9,0.6-3.2,0.2
	c0.8-1.1,1.7-1.7,2.8-1.7c0.5,0,1.2-0.2,1.3,0.6C300.9,444.3,300.3,444.7,299.9,444.7z M300.8,433.3c-0.4,0.3-0.6,1-1.3,0.5
	c-0.4-0.3-0.4-0.7-0.3-1.1c0.2-0.7,0.6-1,1.3-1c0.5,0,1,0.2,1.9,0.4C301.7,432.7,301.3,433.1,300.8,433.3z M303.5,431.1
	c-1.3-0.1-2.5-0.4-3.7-0.7c-0.2-0.1-0.5-0.5-0.4-0.6c0.4-0.6,1.1-0.7,1.8-0.7c0.9-0.2,1.7,1,2.8,0.3c0.3-0.2,0.4,0.5,0.4,0.9
	C304.4,430.8,304,431.2,303.5,431.1z M315.7,458.2c0.3,1,0.5,1.8,0.6,2.6c-1,0.2-1.6-0.3-1.8-1C314.3,459,315.2,458.8,315.7,458.2z
	 M314.7,447.4c0.5-0.3,0.7,0.1,0.7,0.6c0.1,0.8-0.4,1.1-1.2,1.2c-0.5-0.1-1.3-0.2-1.2-0.7C313.1,447.6,314.1,447.7,314.7,447.4z
	 M315.1,456.8c-1.4,0.9-1.4,0.9-3.5,0.2C312.7,455.8,313.9,455.6,315.1,456.8z M307.6,470.8c-0.4,0.4-1.1,0.2-1.6-0.2
	c-0.5-0.4-1.4-0.4-0.7-1.4c0.5-0.6-0.3-1.2-0.2-1.9c0.1-0.5,0.1-0.9,0.8-1c0.5,0,0.4,0.5,0.5,0.8c0.4,0.7,0.5,1.5,1.1,2.1
	C307.9,469.6,308.1,470.3,307.6,470.8z M308.6,457.2c-0.4-0.2-1.1,0-1-0.9c0-0.5,0.2-0.9,0.8-0.9c0.6,0.1,0.8,0.6,0.9,1.1
	C309.5,457.1,309.1,457.2,308.6,457.2z M308.1,434.1c-0.9,0-2.1-0.1-1.7-1.6c0.2-0.6-0.2-1.5,0.8-1.8c0.2,1.3,2.4-0.3,2.4,1.6
	C309.2,433.1,309.4,434.3,308.1,434.1z M316.5,465.7c-0.7,1.4-2,1.7-3.5,1.6c-1,0.2-1.8-0.4-2.4-0.8c-1-0.7-1-1.3-0.2-2.2
	c0.6-0.8,1.6-1.4,1.4-2.7c-0.1-0.8,0.5-1.2,1.1-1.2C314.6,460.3,317.2,464.2,316.5,465.7z M318.5,459.9c-0.9-0.1-0.4-1.1-0.6-1.6
	c0.1-0.5-0.2-1.1,0.6-1.1c0.7,0.1,1,0.6,0.9,1.3C319.3,459.2,319.1,460,318.5,459.9z M317,426.2c-0.7-0.5-0.7-1.8-0.3-2
	c1-0.5,2.1,0.2,3.1,0.7C318.8,425.5,318.4,427.2,317,426.2z M329.9,430.6c0.2-0.6,1-0.9,1.1-0.7c0.5,1.3,2.5,0.8,2.6,2.3
	c0,0.8-0.9,0.7-1.3,0.8C330.4,433,329.4,431.9,329.9,430.6z M333.6,433.9c-0.4,0.7-1,0.4-1.4,0.7c-0.4,0.3-1,0.6,0.2,0.7
	c0.5,0,0.1,0.6-0.1,0.7c-1,0.4-2.2,0.7-3.2-1.1C331.1,435.7,332,433.6,333.6,433.9z M324.9,421.8c1,0.2,0.6,1.4,1.1,2
	c0.2,0.1-0.3,0.9-0.7,0.7c-0.9-0.3-1.8-0.7-1.8-1.8C323.5,421.7,324.3,422,324.9,421.8z M324.1,428.4c0.3-0.7,0.6,0.2,0.9,0.4
	c1.2,0.9,1.2,2.4,2.2,3.9c-1.8-0.6-2.4-1.8-3.4-2.3C322.8,429.8,323.8,428.9,324.1,428.4z M327.5,458.5c-0.4,0.5-0.7-0.1-1.1-0.1
	c-0.8-0.1-1.5-0.3-2.2-0.9c1.9-1.8,2.6-1.9,3.2-0.1C327.6,457.7,327.8,458.1,327.5,458.5z M325.9,448.8c1.7,0.6,3.2-0.1,4.3,1.6
	C328.6,450.2,327.3,450.3,325.9,448.8z M333.5,441c-1.5,1.9-3.6,2.4-5.6,1.3c-0.5-0.3-1.2-0.4-0.7-1.4c0.2-0.5,0-0.6-1.8-0.8
	c0.9,0.1,1.8-0.2,2.6,0.3c0.2,0.1,0.6,0.2,0.7,0c0.9-1.9,2.7-0.5,4-1.1c0.5-0.2,0.9,0.2,1.2,0.6C334.4,440.4,333.8,440.7,333.5,441z
	 M336,429.3c-0.1,0.5,0,1.6-1.1,1.5c-0.5,0-1.5-0.5-1.4-1.4c0.1-1.1,1-1.1,1.8-0.8C335.5,428.7,336.3,427.8,336,429.3z M340.8,432
	c-0.6-0.9-1.3-1.5-1.3-2.4c-0.1-0.4,0.1-1.1,0.5-0.8c0.7,0.6,2,0.8,2.3,1.8C342.4,431.2,341.4,431.4,340.8,432z M339.6,422.6
	c1,0.9,2.4,0.8,3.6,1.8C341.2,424.9,340.1,424.3,339.6,422.6z M355.1,434c-0.4,1.1-1.4,0.5-2.2,0.1c-2-1-3.9-2.1-5.1-4.4
	c1.6-0.4,2.9-0.2,4,0.9c0.5,0.5,1.1,0.7,1.9,0.9C355.1,431.8,355.4,433.1,355.1,434z"/>
<linearGradient id="SVGID_2_" gradientUnits="userSpaceOnUse" x1="264.15" y1="512.1858" x2="264.15" y2="5.498" gradientTransform="matrix(1 0 0 -1 0 514)">
	<stop  offset="0" style="stop-color:#FCEE21"/>
	<stop  offset="1" style="stop-color:#F15A24"/>
</linearGradient>
<path class="st1" d="M76,404.5V15.2h182.3C325.6,16,375.1,38,406.6,81.3c30.5,42.9,45.7,96.5,45.7,160.9c0,64-15.2,117.4-45.7,160.2
	c-31.5,43.7-80.9,65.9-148.3,66.8H76V404.5 M153,404.6h-0.1h75.8c59-0.4,98.6-16.1,118.9-47c10.6-14.9,18-32.4,22-52.3
	c2.6-9.7,4.3-20,5.1-30.8c0.4-11,0.6-21.8,0.6-32.4c0.8-47.1-8.4-85.8-27.7-116.1c-10.2-14.7-25.1-26.1-44.5-34.2
	c-19.7-8.1-44.4-12.1-74.3-12.1H153V404.6"/>
<linearGradient id="SVGID_3_" gradientUnits="userSpaceOnUse" x1="243.8432" y1="446.3333" x2="243.8432" y2="506.04">
	<stop  offset="0.809" style="stop-color:#000000"/>
	<stop  offset="0.9548" style="stop-color:#F15A24"/>
</linearGradient>
<path class="st2" d="M352,394c-32,8-64,28-95,14c-13-6-25-3-38-1c-30,3-61,8-90-2c-16.4-4.9-36.8-7.8-53,0.1v64.1h182.3
	c67.4-0.9,116.8-23.1,148.3-66.8c1.7-2.5,3.4-4.9,5.1-7.5C392.2,390.3,372.1,389,352,394z"/>
<linearGradient id="SVGID_4_" gradientUnits="userSpaceOnUse" x1="264.15" y1="3.4758" x2="264.15" y2="447.2676">
	<stop  offset="0" style="stop-color:#FCEE21"/>
	<stop  offset="1" style="stop-color:#F15A24"/>
</linearGradient>
<path class="st3" d="M406.6,81.3C375.1,38,325.6,16,258.3,15.2H76v389.3v0.6c16.2-7.9,36.6-5,53-0.1c29,10,60,5,90,2c13-2,25-5,38,1
	c31,14,63-6,95-14c20.1-5,40.2-3.7,59.7,0.9c27.1-41.5,40.6-92.4,40.6-152.7C452.3,177.8,437.1,124.2,406.6,81.3z M375.3,242.1
	c0,10.6-0.2,21.4-0.6,32.4c-0.8,10.8-2.5,21.1-5.1,30.8c-4,19.9-11.4,37.4-22,52.3c-20.3,30.9-59.9,46.6-118.9,47H153h-0.1h0.1V79.7
	h75.8c29.9,0,54.6,4,74.3,12.1c19.4,8.1,34.3,19.5,44.5,34.2C366.9,156.3,376.1,195,375.3,242.1z"/>
<path d="M287.4,462.7c0.6,1.1,0.5,2,1.3,2.6c0.1-2-0.5-3.7-0.7-5.6c-0.1-0.6-0.9-1.7,0.2-1.9c0.9-0.2,0.8,1.1,0.9,1.7
	c0.6,2.3,0.9,4.7,1.4,7c0.5,2.2,0.6,4.6,1.6,6.8c2-2.4,2.5-6.4,1.1-8.7c-0.3-0.5-0.5-1.1-0.5-1.7c-0.1-2.2-0.1-4.4-0.6-6.5
	c-0.3-1.3,0.9-0.2,1-0.8c-0.5-0.7-1.4-1-1.7-2c-1.9-6.8-5.9-12.4-11-17.2c-1.4-1.3-2.4-2.7-3.2-4.5c-1.4-3.3-2.8-6.8-5.7-8.9
	c-2.2-1.6-3.7-3.8-5.3-5.7c-5.3-0.1-10.7-0.2-16-0.3c-0.3,0.6-0.9,1-1.7,1.2c-1.8,0.4-3.5,1.1-5.1,2.1c-4.9,2.9-8.8,6.9-9.5,12.7
	c-0.4,3.6-1.9,6.5-3.4,9.5c-1.3,2.7-2.4,5.2-2.2,8.1c0.1,1.3-0.4,2.1-1.3,3c-2,1.8-4.3,3.6-5.1,6.3c-1.1,3.2-2.8,5.8-5.4,7.9
	c-0.2,0.1-0.1,0.2,0,0.3c1.1-0.5,1.8-1.8,3.1-2.2c0.2,0.8-0.6,1.4,0.1,2.3c0.4-2.6,2.1-4.4,2.7-6.9c1-4.4,4.6-7,8.2-9.8
	c-0.2,1.4,0.4,2.7-0.6,3.5c-3.3,2.7-4.9,6.4-6.4,10.3c-1.4,3.5-3.7,6.4-6.7,8.8c-2.3,1.9-3.7,3.9-3.8,5.8c2.8-4.4,5.4-6.5,8.3-6.7
	c-1.2,1.7-2.7,3.3-3.2,5.5c1.2-0.3,1.1-1.7,2.3-1.9c0.1,1.5-0.2,3.1,0.3,4.5c0.3-3.6,0.4-7.4,4.3-10c-0.2,2.6-0.2,4.8-0.5,7
	c-0.4,3.1-1.1,6.2-3.1,8.5c-1.6,1.8-1.9,4-3.1,5.9c-0.2,0.4-0.5,0.9,0.2,1.3c3.3-3.4,4.3-8.7,9.1-10.8c1.1,2.9-0.7,5.7-0.4,8.6
	c1.5-3,4.2-5,5.1-8.2c1,2.9,0.6,5.3-2.2,7.3c1.1,0,1.2-1.1,2.3-0.8c-0.3,2.6-1.7,5-1.5,7.8c1.8-5.4,3.3-10.9,8.8-14.1
	c-0.3,1.4-0.5,2.6-0.7,3.7c0.7-1,1.1-2.1,1.6-3.2c0.5-1,0.5-2.4,2.7-3.1c-2,6.4-4.5,12.3-4.3,18.7c0.7-2.9,1.2-6,2.7-8.7
	c-0.2,3.5-0.3,6.9,1.2,10.6c-0.4-5.8-0.4-5.8,1.8-8.8c0.5,2,0.9,3.9,1.3,5.8c0-2.7-0.8-5.5-0.3-8.1c0.4-2.5,2.1-4.8,3.2-7.2
	c0.3,6.5-1.5,13,1.8,19c-0.7-2.7-1.4-5.5-1.4-8.4c0-0.6-0.2-1.5,0.3-1.7c1.6-0.6,2.2-2.4,3.8-3.3c-0.4,1.2-0.8,2.2-1.2,3.2
	c1.2-0.5,1.1-1.9,2.3-2.5c-0.1,1.1,0.8,2,0.3,3.1c-0.2-0.3-0.4-0.5-0.5-0.7c-0.1-0.3-0.3-0.4-1-0.2c3.3,3.5,1.1,6.6-0.6,9.8
	c-0.5,0.9-1,1.7-0.8,3.1c1.2-2.6,2.5-4.9,4.2-7.1c1.4,2.3,1.4,4.8,2.1,7.6c0.3-2.8-0.2-5-0.9-7.1c-1-3.3-0.4-6.5,1.5-9.4
	c0.3-0.4,0.6-1.3,1.3-1c0.6,0.2,0.3,1,0.4,1.5c0.3,2.9,0.2,5.8,1,8.7c0.7-0.1,0.6-1,1.3-1c0.3,1.4,0,2.9,1,4.7
	c-0.2-2.5-0.4-4.5-0.4-6.4c0-1-0.7-2.7,0.4-2.9c1.4-0.2,2.1,1.5,2.7,2.6c0.2,0.4,0,1.1,0,1.6c-0.1,3.4,1.3,6,3.9,8.1
	c-0.1-0.7-0.5-1.3-0.9-2c-0.2-0.5-0.7-0.9-0.3-1.5c1.3-1.7,0.7-3.4,0.2-5.1s-0.6-1.7,1.1-2.5c0.3,0.7-0.9,0.8-0.3,1.8
	c0.6-0.6,1.2-1,1.7-1.6c0.9-1.3,1.3-0.6,1.8,0.3c1.3,2.7,0.9,5.5-0.2,8.1c-0.5,1.2-1.1,2.3-1.6,3.4c3-3.6,4.3-7.5,2.3-12
	c-0.5-1.2-0.5-2.1,0.2-3.2c1.3-2.2,2.1-4.5,2.2-7.1c-0.5,0.6,0,1.7-1.3,2.1c0.6-3.2-1.7-6.2,0.2-9.9c0.4,1.7,0.6,2.9,1.1,4
	c0.6,1.2,0,2.4,0,3.7c0.5-0.5-0.1-1.4,0.6-1.7c2.3,2.4,3.1,5.3,2,7.7c-0.5-0.1,0.1-0.9-0.8-0.9c0.6,3-2.1,5.3-1.4,8.4
	c0.6-2,1.8-3.6,2.9-5.3c1.4-2.1,2.1-4.4,1-6.8c-1.1-2.4-1.1-4.9-1-7.4c0-0.6,0.2-1.3-0.4-2c-0.4,1.6,0.1,3.1-0.6,4.7
	c-1.8-3.6-0.5-6.5,1.3-9.6c1.3,2.7,3.2,5,3,8c-0.1,0.8-0.2,1.6,0.5,2.2c-0.3-0.3-0.5-0.9-0.2-1c2-0.3,0.7-1.5,0.6-2.3
	c-0.7-3.6-2.6-6.6-4.5-9.6c-0.6-0.9-1-1.8-0.5-2.9c0.8,0.7,1.4,1.3,2.1,1.9c0,0.1,0,0.1,0,0.2c0,0,0,0,0,0.1c0.5,1,0.9,2.1,1.6,3
	c1.9,2.6,2.9,5.5,2.5,8.7c-0.2,1.8-0.4,3.7-0.6,5.5c-0.1,0.9-0.3,1.9,0.5,2.7c1.8-1.8,1.7-4,1.6-6.3c-0.1-1.9-0.7-3.9,0.9-5.6
	c1.9,4.2,7.2,6.7,5.7,12.5c0.3-0.3,0.6-0.5,0.7-0.8c1.3-2.9,0.2-5.2-1.6-7.3C288.3,474.9,287.6,469.1,287.4,462.7z M244.5,460.6
	c0.5-0.9,1-1.7,1.8-2.8c0.7,1.9-0.7,2.7-1.3,3.7c0,0-0.4-0.1-0.4-0.2C244.5,461.1,244.4,460.8,244.5,460.6z M248.1,468.2
	c-0.4,1.9-0.7,3.3-1.5,4.7C245.4,470.9,246.8,469.8,248.1,468.2z M245.5,466.9c-1-2.2,0.1-3.6,1.6-4.8
	C247.8,463.6,247.8,463.7,245.5,466.9z M247.3,457.6c-0.1-2.6,1.7-3.7,2.5-5.3C249.7,453.9,249.3,454.8,247.3,457.6z M246.3,452.4
	c0.8-1.6,2.1-2.8,3.4-4C249,450,247.9,451.4,246.3,452.4z M243.6,442.5c-0.1,4-0.8,4.9-4.9,6.6C239.7,446.3,240.4,443.5,243.6,442.5
	z M238.7,454.6c-0.4,0.9,0.6,2.4-1.1,2.8c-0.3-3.9,0.5-5.4,3.2-6.2c0.3-0.1,0.7-0.4,0.9-0.1c0.3,0.3,0.2,0.8,0,1.1
	c-0.7,1.2-1.5,2.4-2.3,3.5C238.7,455.6,239.2,454.9,238.7,454.6z M236.7,466.7c-0.4-2,1.5-2.9,2.1-4.5
	C239.8,464.3,239.5,464.8,236.7,466.7z M242.7,456.6c1,3.3-0.9,4.6-2.5,6.5C239.2,460.1,241.5,458.9,242.7,456.6z M239.1,428.2
	c0.9-1.3,2.3-2.1,2.9-3.6c0.1-0.3,0.5-0.7,1-0.4c0.3,0.2,0.2,0.6,0,0.9c-1.5,1.9-2.6,4-4.3,5.7c-0.3,0.3-0.5,0.7-1.1,0.4
	C237.6,429.9,238.4,429.1,239.1,428.2z M241,431.1c-0.7,4.5-3.1,7.2-7.1,7.9C235.7,435.7,238,433.3,241,431.1z M238.1,438.8
	c-1.3,3.6-1.6,7.5-5.5,9.9C233.2,444.5,232.5,440.1,238.1,438.8z M232.1,451c0.2-0.8,0.2-0.8,1.2-0.4c0.2,0.1,0.5-0.1,0.7-0.4
	c0.3-0.4,0-1.1,0.9-1.4c-0.6,1.9-0.1,4.4-3.1,4.7C231.9,452.5,232,451.7,232.1,451z M229.3,461c0.9-2.1,2.4-3.8,4-5.5
	C233.9,458.5,233.7,458.8,229.3,461z M229.7,451.2c-0.2-2.5,0.6-4.3,1.3-6.1C230.6,447,231.6,449.2,229.7,451.2z M231.3,455.8
	c-1.6,2.6-3.7,4.8-5.1,7.5C226.6,459.8,228.6,457.6,231.3,455.8z M232.7,460.8c0.4,4.4-1,6.2-6.5,8.3
	C228.1,465.8,229,462.3,232.7,460.8z M221.1,471.3c2.4-2.4,3.6-4.9,4.7-7.6C226.3,467.5,224.3,470.9,221.1,471.3z M228,479.2
	c0.2,2.6-1.3,3.8-3.6,5.4c1.9-4.6,1.6-8.8,1.7-13.1c0-1.2,0.5-1.7,1.5-2.1c1.1-0.4,2.3-0.9,3.5-1.4c0.4,1-0.3,1.6-0.7,2.3
	C228.8,473.1,227.8,476,228,479.2z M229.3,485c-0.1-2.4-0.3-4.4,2.2-5.8C230.8,481.4,230.4,483.1,229.3,485z M230,476.8
	c0.6-2.8,1.8-5,3.6-6.8C232.5,472.2,232.5,474.9,230,476.8z M240.8,473.7c-2.6,3.6-3,8.3-5.6,12c-0.5,0.7-0.9,1.4-1.8,1.9
	c0-3.5-0.1-6.7,0.3-9.9c0.3-2.1,1.6-3.4,3.3-4.4c1-0.6,1.7-0.8,0-1.2c-0.5-0.1-0.4-0.7-0.1-1c1-1,1.8-2.1,3.3-3.1
	c-0.2,1.2,0.7,2.1-0.3,3c-0.5,0.4-0.2,0.4,0.2,0.5C241.5,471.9,241.3,473,240.8,473.7z M243.9,465.3c0.2,2.1-1.1,3.3-1.9,4.9
	C240.5,467.5,240.6,467.2,243.9,465.3z M243.2,494.4c-0.1-2,0.3-3.4,0.9-4.9C244.5,491.4,244.5,491.4,243.2,494.4z M242.9,479.1
	c0.8-2.2,1.4-3.9,2.1-5.6C246.3,475.5,245.9,476.6,242.9,479.1z M245.9,488.2c-0.8-4.4,2.1-7.6,3.6-11.3
	C249.5,481.1,247.5,484.6,245.9,488.2z M248.8,462.2c-1-2-0.1-3.5,1.3-5.2C250.3,459,249.7,460.6,248.8,462.2z M249.3,442.3
	c-0.1,1.7-2.2,1.7-3.5,2.4c1.1-2.9,1.5-6.2,4.6-8.1C250.5,438.7,249.4,440.4,249.3,442.3z M252.2,484.1c-0.8-2.8-1-5-0.7-7.2
	C252.2,479.1,252.9,481.3,252.2,484.1z M252.9,469.8c-0.4-2.1-0.1-2.8,1.6-4.3C255.3,467.4,253.2,468.1,252.9,469.8z M253.4,452.9
	c-0.1-2,0.4-3.6,1-5.6C254.8,449.4,255.6,451.2,253.4,452.9z M257.7,460.4c1.8,1.1,1.7,2.4,0.9,3.9c-0.2-0.1-0.6-0.4-0.6-0.4
	C258.7,462.8,257.4,461.7,257.7,460.4z M257.7,487.8c-0.6-1.4-1.4-2.7,0.5-3.9C258.8,485.4,259.3,486.7,257.7,487.8z M256.3,483
	c0.5-2.2,0.9-4.1,1.3-6C260.1,479.8,259.8,481.4,256.3,483z M289.4,452.6c-2.4-1.2-3-2.4-3.9-7.1
	C286.9,446.5,288.6,449.5,289.4,452.6z M284.8,447.6c-4.8-1-3.6-4.9-4.5-7.8C282.3,442,283.5,444.7,284.8,447.6z M281.8,450.9
	c0.7,0.3,1.9-0.3,2.3,1c0.6,2,1,4-0.6,6.3c-0.9-2.1-2.6-3.5-2.2-5.8C281.4,451.9,281.2,450.7,281.8,450.9z M281.4,447
	c1.4,0.2,2.3,0.8,2.2,2.4C282.1,449.1,281.2,448.6,281.4,447z M279.1,447.6c-1.3-0.4-1.7-1.6-2.2-2.7
	C278.8,445,279.6,445.8,279.1,447.6z M274.5,448.9c0,0.1,0.1,0.4,0.2,0.5c1.4,0.8,1.4,0.8,1.6,3.5c-2.9-2.2-4.6-4.8-4.9-8.8
	C273.1,445.7,275.2,446.4,274.5,448.9z M271.7,437.8c-2.7-1.7-2.6-4-3-6.1C270,433.4,270.7,435.3,271.7,437.8z M268.4,469.8
	c-0.1-0.3-0.2-0.5-0.2-0.8c-0.1-1.2,0.8-1.9,1.6-2c0.9-0.1,0.9,1.1,0.9,1.7c-0.1,2.5-0.4,5.1-0.7,7.9c-1.2-0.7-1.2-1.4-1.1-2.2
	C269.1,472.8,268.9,471.3,268.4,469.8z M269.6,465.4c0.2,0.5,0.1,0.8-0.3,1c-0.6,0.2-0.6-0.3-0.7-0.7c-0.4-1.6-0.8-3.2-1.2-4.8
	c0.1,0,0.2-0.1,0.3-0.1C268.4,462.4,269,463.9,269.6,465.4z M269.2,453.6c1.3,1.7,0.9,3.5,1.3,5.1
	C269.3,457.3,269,455.6,269.2,453.6z M269.9,445.5c-1.8-1.8-3-3.9-4-6.6C268.2,440.9,270.1,442.4,269.9,445.5z M261.7,455.8
	c1.1,2.2,1.2,2.8,0.8,4.8C261.9,459,261.5,457.6,261.7,455.8z M262.5,468.7h-0.7v-5.2C262.7,465.2,262.9,466.9,262.5,468.7z
	 M262.1,473.1c0.3-0.2,0.6-0.6,1.1-0.3c0.4,0.3,0.4,0.7,0.2,1.1c-0.4,1.2-0.8,2.4-1.2,3.6C261.2,476,259.8,474.5,262.1,473.1z
	 M263.6,488.9c-1.3-2.4-1.5-5-1.3-7.8C265.8,483.4,264.3,486.2,263.6,488.9z M264.7,444c-0.5-1.7-1.8-2.5-1.2-4.2
	C265.1,440.8,264.9,442.1,264.7,444z M263,424.4c2.3,1.9,2.7,4.6,3.3,7.7C263.4,430,263.5,427.1,263,424.4z M270.7,490.8
	c-0.6,1.1-1.8,1.9-2.8,2.6c-0.7,0.4-0.9-0.6-1.3-1c-1.3-1.5-0.9-3.3,0.8-4c0.8-0.3,0.7-0.9,0.5-1.3c-1.4-2.7-0.2-5.3,0.4-8.4
	c1.2,3.7-0.4,7.2,0.8,10.5c0.4-0.2,0-0.9,0.6-1.1C270.2,489,271.2,489.9,270.7,490.8z M271.7,488.4c-0.7-1.9-0.5-3.4,0.5-5.4
	C272.3,485,272.7,486.6,271.7,488.4z M273.3,485.7c-0.8-1.9-1.1-3.6,0.2-5.7C274.3,482.1,273.7,483.8,273.3,485.7z M274.5,472.1
	c-0.3-2.9-0.7-5.7-1.9-8.6C275.6,466,275.8,468.9,274.5,472.1z M276.6,459.2c-0.6-1.2-1.2-2.3-1.9-3.7
	C277.2,456,276.7,457.7,276.6,459.2z M276.4,441.9c0.2-2.7-0.4-5.5-1.1-8.2c1.9,3.3,2.8,6.9,3.5,10.6
	C277.1,444.3,276.2,444,276.4,441.9z M276.9,450.3c0.9,1.4,1.8,2.9,1.8,5C276.6,453.9,277.2,452,276.9,450.3z M279.2,463.2
	c-0.4-0.7-0.6-1.4-0.6-2.1c0.1-1,0.5-2.3,1.4-2.4c0.9-0.1,0.9,1.2,1,2c0.5,1.9,0.4,3.9,0.3,5.9C280.6,465.5,280,464.3,279.2,463.2z
	 M283.1,461.2c1.4,3.7,2.8,6.8,2.9,10.3C284.3,468.5,281.3,465.8,283.1,461.2z M286.2,455.8c0.2,2.5,0.3,5.1,0.5,7.8
	C284,461.1,284,460.4,286.2,455.8z M285.5,451.4c1.5,1.3,2.1,3,2.7,4.8c0.1,0.3,0.1,0.7-0.3,0.8c-0.4,0.1-0.6-0.3-0.7-0.5
	C286.6,454.8,286,453.1,285.5,451.4z"/>
<linearGradient id="SVGID_5_" gradientUnits="userSpaceOnUse" x1="186.5366" y1="474.8873" x2="186.5366" y2="6.2635" gradientTransform="matrix(1 0 0 -1 0 514)">
	<stop  offset="0" style="stop-color:#FCEE21"/>
	<stop  offset="1" style="stop-color:#F15A24"/>
</linearGradient>
<path class="st4" d="M183.6,403.5c1.2,0.1,1.6,0.9,2.1,1.8h5.4c-0.1-0.1-0.2-0.2-0.3-0.2c0-0.1-0.3,0.1-0.3-0.1
	c0-1.8-0.9-0.4-1.2-0.3c-1.4,0.6-1.7,0.6-2.7-0.5c-0.4-0.4-0.7-0.9-1-1.3c-0.4-0.6-0.9-1-1.5-1.4c-0.2-0.2-0.4-0.2-0.7-0.1
	c-0.7,0.3-0.7,1.2-1.4,1.3C182.3,403.3,183,403.5,183.6,403.5z"/>
<linearGradient id="SVGID_6_" gradientUnits="userSpaceOnUse" x1="197.8296" y1="474.8873" x2="197.8296" y2="6.2635" gradientTransform="matrix(1 0 0 -1 0 514)">
	<stop  offset="0" style="stop-color:#FCEE21"/>
	<stop  offset="1" style="stop-color:#F15A24"/>
</linearGradient>
<path class="st5" d="M193.5,405.3h8.8c-0.6-1.9-0.5-3.9-0.2-5.8c0.1-0.7,0.1-1.2-0.2-1.8c-0.5-0.9-0.7-2-0.3-2.9
	c0.7-1.7-1.3-8.4-1.3-9.1c0-3.7-5.9,1.4-6,3.1c0,0.3,0,2.6-0.2,3.4c-0.7,3-0.3,6.1-0.7,9.2c-0.1,0.6,0,1.1,0.2,1.6
	C193.9,403.8,193.7,404.6,193.5,405.3z"/>
<linearGradient id="SVGID_7_" gradientUnits="userSpaceOnUse" x1="192.3499" y1="446.3333" x2="192.3499" y2="506.04" gradientTransform="matrix(1 0 0 -1 0 514)">
	<stop  offset="0.809" style="stop-color:#000000"/>
	<stop  offset="0.9548" style="stop-color:#F15A24"/>
</linearGradient>
<path class="st6" d="M241.7,435.7c-0.4-0.6-1.1-0.9-1.9-0.7c-0.8,0.3-1.2-0.2-1.4-0.8c-0.2-0.5-0.4-1.1-1-1.4
	c0.1,0.8,0.8,1.4,0.7,2.4c-1.5-0.4-3.1-0.9-4.7-0.7c-0.2,0.1-0.4-0.1-0.4-0.3c-0.1-0.3,0.1-0.3,0.3-0.3c0.8,0.2,0.3-0.5,0.4-0.7
	c0.1-0.3-0.2-0.3-0.5-0.2c-0.4,0.2-0.7-0.2-1-0.4c-0.8-0.6-1.6-1.2-2.1-2.1c2,0.8,3.9,2,6.2,2.5c-1.2-0.9-2.6-1.1-3.7-1.9
	c1.3-0.5,2.2-0.3,2.8,0.8c0.4,0.7,1,0.5,1.6,0.6c-0.2-0.1-0.3-0.3-0.5-0.4c-0.6-0.2-1.3-0.8-1-1.1c0.4-0.4,0.4-1.4,1.5-1.4
	c1.4,0,2.7-0.3,3.9,0.6c0.2,0.2,0.5,0.2,0.7-0.1c0.2-0.2,0-0.3-0.2-0.4c-1.1-0.3-2.1-1-3.4-1s-2.5-0.2-3.8-0.4
	c-0.6-0.1-1.1-0.1-1.6-0.6c3.9,0.7,7.8,1.1,11.8-0.4c-1.1-0.4-1.1-0.4-1.6-0.3c-2.7,0.7-5.4,0.7-8.2,0.2c-2.5-0.5-5.1,0-7.7-0.6
	c-0.9-0.3-1.6-0.7-2.3-1.2c-0.5-0.4-0.9-0.7-1.4-1.1c-0.9-0.8-2.1-1.2-2.6-2.2c-0.8-1.8-2.4-3.1-3.5-4.7c-0.3-0.5-0.7-0.8-1.2-1.1
	c-7.1-0.1-14.2-0.3-21.3-0.4c-2.6,0-5.2,0-7.8,0c0,0.1,0,0.2,0,0.3c0,0.7-0.6,1.3-1.5,1.3c-0.2,0-0.5,0.1-0.6-0.3
	c-0.1-0.3,0.4-0.9,0.8-1.3c-0.2,0-0.3,0-0.5,0c0,0.3-0.3,0.6-0.5,0.8c-0.3,0.6-0.6,0.1-0.9-0.1c-0.1-0.1-0.3-0.1-0.7-0.3
	c0,0,0.1-0.1,0.1-0.1c-1,0.4-1.9,0.3-2.9,0.3c-2.1-0.1-4.2,0.7-6.3,0.8c-0.2,0-0.5,0.1-0.4,0.4c0,0.3,0.3,0.2,0.5,0.2
	c1.1-0.2,2.2-0.3,3.3-0.4c0.2-0.1,0.5-0.2,0.6,0.1c0.1,0.3-0.1,0.4-0.2,0.6c-0.3,0.3-0.6,0.5-1,0.6c-0.5,0.2-1,0.3-1.3,0.7
	c0.9-0.3,2-0.1,2.6-1c0.8-1.3,2.1-0.9,3.3-1.1c0.2,0,0.5,0,0.5,0.4c-0.1,0.7-0.9,1.5-1.6,1.4c-2.2-0.4-4,1.1-6.1,1.2
	c-0.2,0-0.3,0.2-0.3,0.4s0.2,0.2,0.3,0.2c0.8-0.3,1.8,0.5,2.4-0.5c0-0.1,0.2-0.3,0.4-0.1c-0.4,1.2-1,1.6-2.2,1.2
	c-1.8-0.5-3.7-1-5.5-1.6c-0.5-0.1-0.8-0.1-1.2,0.2c-1,0.7-2,1.4-3.2,1.9c-1.3,0.5-1.5,0.9-0.9,2.2c0.2,0.5,0.5,0.7,0.9,0.2
	c0.2-0.1,0.3-0.3,0.5-0.5c1-1,1.8-0.8,2.3,0.5c0.1,0.3,0.2,0.6,0.2,0.9c0.3,3.1-0.3,6.1-1.1,9c-0.2,0.6-0.6,1-1.2,0.6
	c-0.4-0.3-0.6-0.2-0.8,0.2s-0.4,0.6-0.8,0.7c-2.4,0.4-4.6,1.1-6.8,1.8c-1.3,0.4-2.7,0.4-3.9,1c-0.6,0.3-1.2,0.6-0.7,1.6
	c0.3-0.7,0.6-1.1,1.2-1.2c0.8-0.2,1.5-0.4,2.3-0.6c0.6-0.1,1.3-0.3,1.3,0.9c0.6-0.7,1.1-1.2,1.9-1.3c1.2-0.1,2.4-0.4,3.6-0.6
	c0.8-0.2,0.7,0.2,0.5,0.7c-0.5,0.8-1,1.7-1.4,2.6c-0.3,0.4-0.6,0.9-0.6,1.5c0.9-0.2,1.3-0.9,1.6-1.5c0.5-1,1-2.1,1.4-3.2
	c0.2-0.5,0.5-0.7,1-0.8c0.5-0.1,0.7,0,0.5,0.5c-0.2,0.7-0.4,1.4-0.6,2.2c-0.5,2,0.4,4.2-1,6c0.1,0,0.1,0.1,0.2,0.1
	c0.6-0.5,1.2-1,1.9-1.6c0.1,1.6-0.4,2.1-1.8,2c-0.2-0.1-0.4-0.1-0.6-0.1c-1.5-0.3-2.9-0.3-4.4-0.2c-1.9,0.1-4.3,1.3-4.5,3.1
	c0.9-1.3,2.1-2.1,3.5-2.4c1.6-0.3,3.3-0.2,4.9,0c0.1,0,0.3,0,0.4,0.2c0.1,0.4-0.2,0.4-0.4,0.5c-1.4,0.6-2.9,1.3-4.4,2
	c-0.5,0.3-1.2,0.4-1.8,1.2c2.7-0.9,5-1.8,7.3-3c1.6-0.8,1.9-0.7,2.3,1.1c0.1,0.6,0,0.7-0.6,0.8c-1.7,0.3-3.4,0.7-5.1,1.2
	c-2.2,0.6-4.6,1.5-6.9-0.6c0.5,0.9,1,1.3,1.7,1.5c1.1,0.3,2.2,0.2,3.3,0c2.1-0.4,4.3-0.9,6.5-1.4c0.4-0.1,0.9-0.3,1.5,0
	c-0.7,0.4-1.3,0.3-1.9,0.4c-1.3,0.2-2.6,0.3-3.6,1.2c-0.2,0.3-0.8,0.5-0.5,1c0.3,0.4,0.7,0.1,1.1-0.1c1.3-0.6,2.5-1,3.9-1.1
	c0.2,0,0.7-0.2,0.6,0.3c-0.1,0.4,0.6,1-0.1,1.3c-1.6,0.7-2.9,1.9-4.1,2.9c-2.3,1.9-4.7,3.2-7.4,4.1c-0.5,0.2-0.9,0.4-1.4,0.7
	c-0.9,0.4-1.2,0.8-1.5,1.5c1.6-1.3,3.4-1.9,5.3-2.3c-1.2,0.9-1.9,2.4-3.6,2.7c-2.7,0.5-5.5,0.8-8.3,1c-2.6,0.2-5.3,0.4-7.9,0.6
	c4.9,1.5,9.8,0.4,14.9-0.1c-0.2,0.4-0.4,0.7-0.6,1.1c1.1-0.3,1.8-1.1,2.9-1.3c-0.2,0.8-0.6,1.1-1.3,1.3c-1.2,0.3-2.2,0.9-2.8,2.1
	c1.1-1.2,2.6-0.6,3.8-1.3c0.1,0.9-0.3,1.8-0.4,2.8c0.6-0.1,1.2-0.4,1.8-0.3c0.7,0.1,1.5,0.2,2.1-0.4c0.2-0.1,0.5-0.3,0.7,0
	c0.1,0.2-0.1,0.4-0.3,0.6c-0.9,0.7-1.9,1-3,1c-0.6,0-1.2-0.1-1.7,0.1c-1.9,0.6-3.8,1.3-5.8,0.4c1.3,1,2.6,1,4,0.6
	c1-0.3,2.1-0.6,3.2-0.6c0.4,0,0.9-0.2,1,0.3s-0.1,0.9-0.6,1.1c-1.1,0.5-2.2,1-3.4,1.1c-0.4,0.1-0.9,0.1-1.3,0.5
	c0.7,0.3,1.4,0.1,2-0.1c1-0.4,1.4-0.1,1.8,0.9c0.3,0.7,0.1,1.1-0.4,1.5c-1.3,1.2-2.8,1.9-4,3.2c-0.5,0.5-0.9,1-0.6,1.9
	c0.4-1.4,1.2-2.1,2.2-2.8c0.7-0.5,1.5-1,2.2-1.5c0.6-0.4,1-0.7,1.1,0.3c0.1,0.3,0.3,0.7,0.6,0.7c0.8-0.1,1.2,0.5,1.8,0.8
	c0.6,0.3,1.3,0.7,2.1,0.9c-0.1-0.6-0.6-0.6-0.9-0.8c-0.6-0.4-1.3-0.6-1.8-1.1c-0.7-0.6-1.5-1.2-1.1-2.3c0.3-0.8,0.5-1.5,0.6-2.3
	c0.2-0.9,1-1,1.6-1.5c0.4-0.3,0.3,0.3,0.6,0.6c0.1-1.1,0.5-1.7,1.6-2c-0.4,1.6-0.8,3-0.9,4.4c0,0.3,0,0.7,0.1,1
	c0.1,0.2,0.2,0.4,0.4,0.3c0.3,0,0.2-0.2,0.2-0.4c-0.1-0.5-0.2-0.9,0.1-1.4c1.1,1,0.6,2.3,0.8,3.5c0.5,0,0.3-0.6,0.7-0.6
	c-0.2-1-0.5-2.1-0.7-3.1s0-1.7,1.1-2.2c0,1.8,0.2,3.5-0.4,5.2v0.3h0.1c0.3-0.3,0.1-0.9,0.9-1.1c-0.4,1.9,0.3,3.9-0.4,5.8
	c0.5-0.1,0.4-0.1,0.5,0.3c0.1,0.9-0.5,1.8-0.3,2.7c0.4-1.1,0.7-2.2,1.1-3.4c0.4,0.3,0.1,0.8,0.6,1c0.6-1.9-1-3.8-0.1-5.8
	c0.7,1.8,0.8,3.7,2.1,5.5c-0.2-1.4-1.1-2.4-1-3.6c0.5,0,0.7,0.5,1.3,0.3c-1.1-0.6-1.5-1.7-2-2.8c-0.5-1.3-0.5-2.7-0.1-4
	c0.9,0.6,0.6,1.8,1.3,2.7c0.3-0.8-0.1-1.4,0.3-2c1.5,2.5,0.4,5.4,1.8,7.9v-6.2h0.3c0.5,1.7,0,3.5,0.3,5.2v-2.2
	c0.7,1.5,0.8,3,1.6,4.2c-0.6-2.7-1.8-5.2-1-8.3c0.7,1.2,1,2.2,1,3.4c0.4-0.6,0.7-1.4,1.3-1.9c0.4-0.3,0.6-1.2,1.1-1
	c0.5,0.1-0.1,0.9,0.1,1.3c0.6,1.8,0.2,3.6,0.1,5.4c-0.1,1-0.5,1.7-1.4,2.2c-0.5,0.3-1.1,0.5-1.2,1.3c0.7-0.3,1.3-0.9,2.1-1.1
	c0.2,1.3-0.7,2.3-0.7,3.6c1.4-1.7,1-4.1,2.6-5.6c-0.1,1.1-0.2,2.3-0.3,3.5c0.4-0.3,0.4-0.8,0.8-1c0.9,2.4,1,4.8,1.4,7.2
	c-0.1-1.9,0.7-3.6,1.2-5.4c0.2-0.6,0.5-0.3,0.8-0.2c-0.8-2.1,0.7-3.6,1-5.4c0.7,1.1,0.9,2.4,1.2,3.6c0.1,0.2,0.1,0.7,0.3,0.7
	c0.8-0.1,0.6,0.5,0.8,0.9c0.3,0.8,0.1,1.7,0.3,2.6c0.6-1,0-2,0.5-2.8c-0.2,0-0.4,0.1-0.5-0.2c-1.1-2.3-2.2-4.7-2.3-7.4
	c0-0.5-0.1-0.2-0.3-0.2c-0.3-0.1-0.4-0.5-0.2-0.7c0.6-0.6,0.6-1.5,1.4-2.3c-0.1,1.6-0.3,3.1,0,4.5c0.5-0.8,0.2-1.6,0.5-2.4
	c0.1,0.6,0.1,1.2,0.2,1.8c0.3,1.8,1.2,3.4,1.3,5.2c0,0.7,0.2,1.3,0,1.9c0.7-1.1,1.6-1.9,2.8-2.4c-0.4,0.8-0.8,1.6-1.1,2.6
	c0.4-0.1,0.4-0.6,0.8-0.6c0.3,0.7-0.2,1.4,0.5,2.2c-0.2-1-0.1-1.9,0.4-2.6c0.2-0.4,0.4-1.1,0.8-1c0.5,0.2,0.1,0.8,0.1,1.3
	c0,0.4-0.1,0.7-0.1,1.1c-0.2,1.4-0.5,2.9-1.3,4.1c-0.7,1.1-0.8,2.2-1.3,3.3c0.5,0,0.5-0.2,0.6-0.4c0.9-1.7,1.6-3.5,2.9-4.9
	c-0.2,0.1-0.4,0.2-0.8,0.4c0.5-1.9,0.4-3.8,0.6-5.6c0.1-1.1,0.8-1.9,1.8-2.5c0.4,0.4,0.1,0.7,0,0.9c-0.7,1.5-1.2,3-1.1,4.6
	c0.1,0.8-0.1,1.5-0.5,2.2c0.5-0.2,0.6,0,0.6,0.5c0,1,0,2-0.4,2.9c1-0.1,0.8-2.1,2.1-1c0,0,0,0,0,0c0.4,1.3-0.6,2.3-0.4,3.6
	c0.9-2,1.2-4.2,3.3-5.6c0.1,0.5-0.3,0.9,0,1.3c0.4-0.7,0.3-1.8,1.2-2.3c-0.5,3-1.6,5.8-1.5,8.9c0.4-1.2,0.4-2.5,1-3.6
	c0,1.2,0.1,2.4,0.3,3.7c0.3-0.9-0.1-1.7,0.5-2.4c-0.4-0.9,0.1-1.7,0.2-2.6c0.5,0.9-0.2,1.7-0.2,2.6c0.1-0.2,0.3-0.4,0.5-0.7
	c0.2,0.8,0.4,1.5,0.6,2.4c0-1.5-0.4-2.6-0.2-3.8c0.1-1.1,0.7-2.1,1.3-3.1c0.2,1.2,0.1,2.3-0.1,3.4c-0.2,1.1,0.3,2.2,0.2,3.3
	c0.1-2.4,0.3-2.9,1.9-4.5c-0.4,1-0.9,1.7,0,2.6c0.9,1,0.2,2.1-0.2,3.2c-0.2,0.6-0.5,1.1-0.5,1.7c0.6-0.8,0.7-1.8,1.5-2.5
	c0.4,0.7,0.4,1.5,0.7,2.1c0-0.5,0.1-1-0.1-1.4c-0.5-1.5-0.2-3,0-4.5c0-0.4,0.3-0.7,0.5-1.1c0.1-0.1,0.3-0.3,0.5-0.2
	c0.1,0.1,0.2,0.3,0.2,0.5c0.1,1,0.2,2,0.1,3c-0.2,1,0.9,1.4,0.9,2.3c0-0.7-0.1-1.4,0-2.1c0-0.5-0.3-1.3,0.3-1.3c0.7,0,1,0.9,1.1,1.6
	c0,0.1-0.1,0.3-0.1,0.5c-0.1,1.5,0.6,3.2,1.6,4c-0.2-0.5-0.6-1.1-0.5-1.5c0.4-1.2,0.3-2.2-0.2-3.3c-0.2-0.5,0.3-0.5,0.5-0.8
	c0,0,0.1,0,0.2,0c-0.1,0.3-0.2,0.6-0.4,1c0.7-0.4,0.9-1.4,1.8-0.7c-0.9-1.3,0.3-2.2,0.5-3.3c1.7,1.4,0.4,3,0.5,4.7
	c0.4-1.1,1-1.8,1.3-2.6c0.5-1.2,0.6-2.7,0.1-4.1c-0.7-2.1,0.1-4.1-0.2-6.2c1,1.1,1.1,2.4,1.6,3.7c-0.1-1-0.3-2-0.6-3
	c-0.1-0.3-0.5-0.5-0.1-0.7c0.3-0.2,0.6,0,0.7,0.4c0.3,1,0.5,2.1,0.4,3.3c-0.1,1.3-0.3,2.6-0.1,4.2c0.5-1,0.7-1.8,0.8-2.7
	c0.9,1.4,0.3,2.7,0.3,3.9c0,1.3-0.2,2.6-0.4,3.9c0.7-1.8,0.7-3.7,1-5.7c1.1,1.1,1.1,2.4,1.5,3.6c0.6-2.9-2.1-5-1.7-7.9
	c0.3,0.9,1.1,1.5,1.5,2.3c0.4,0.9,0.5,1.8,0.4,2.7c0.6-0.8,0.6-1.7,0.3-2.5c-0.2-0.6-0.2-1.2,0.1-1.8c0.2-0.6,0.2-1.1,0.2-1.7
	c-0.1,0.2-0.2,0.3-0.2,0.5c-0.1,0.5-0.1,1.2-0.7,1.3c-0.5,0-0.6-0.7-0.8-1.1c-0.2-0.6-0.4-1.1-0.6-1.7c-0.1-0.2-0.2-0.5,0-0.7
	c0.3-0.2,0.5,0,0.8,0.1c0.2,0,0.2,0.4,0.5,0.3c1.5-0.4,1.3,0.4,1,1.3c0.8-0.5,0.3,0.6,0.7,0.6c0-0.3,0.1-0.6,0.1-1
	c0.9,1.4-0.3,2.9,0.8,4c0.6-0.3,0.3-0.9,0.1-1.4v-0.3c-0.2-1.2-0.5-2.3-0.9-3.4c-0.7-2.1-0.5-4.1,0.1-6.1c1.4,0.9,1.6,2.2,1.6,3.7
	c0,1.1-0.3,2.5,1.4,3c0,0.1,0.1,0.3,0.1,0.4c-0.1,0.8,0.2,1.5,0.4,2.2c0.1,0.3,0.1,0.6-0.4,0.3c-0.4-0.2-0.2,0.3-0.4,0.5
	c-0.1,0,0,0.2,0.2,0.1c0.7-0.2,0.8,0.4,0.9,0.9c0.1,0.4,0.1,0.8,0.7,0.9c0.1-1.2-0.3-2.2-0.4-3.4c0.3,0.2,0.2,0.6,0.6,0.7
	c-0.2-1.4-1.4-2.5-1.4-4c0-0.4-0.2-1,0.3-1.1c0.6-0.2,0.5,0.5,0.6,0.8c0.9,2.3,1.6,4.7,3.6,6.8c-0.9-2.7-2.7-4.6-3.3-7.3
	c1,0.7,1.2,1.8,2.1,2.3c-0.7-1-0.4-2.3-1-3.2c-0.4-0.7-0.1-0.8,0.7-0.9c-1.7-0.2-2.2-1.6-1.5-4.4c0.7,0.6,1.3,1.2,1.5,2.1
	c0.2,1,0.4,2.1,0.7,3.1c0.1,0.2,0.2,0.5,0.5,0.5c0.2,0,0.2-0.2,0.2-0.4c0-0.3,0-0.6,0.3-0.6c0.3,0,0.4,0.3,0.5,0.6
	c0.1,0.2-0.1,0.5,0.2,0.7c0.7-0.2,0.2-0.9,0.7-1.4c0,0.8,0.2,1.3,0.4,1.8c0.7,1.4,0.2,2-1.3,1.9c0.2,0.1-0.4,0.6,0.3,0.5
	c0.4-0.1,1.1-0.6,1.5,0.3c0.3,0.8,0.6,1.7,0.8,2.4c0.5,2,1.6,4,1.1,6.2c0,0.2,0.1,0.2,0.2,0.2c0.6,0.4,1.1,0.8,1.6,1.2
	c-1.2-1.3-1.1-2.8-1.1-4.3v-0.9c0-0.8,0-1.5-0.1-2.2c-0.1-1.6-1.1-3.3-0.2-5c0-0.1,0-0.4-0.1-0.5c-1-1.7-0.8-3.5-1.1-5.3
	c0.4-0.1,0.2,0.5,0.6,0.4c0.4-0.4,0-0.8,0.2-1.3c0.6,1.2,0.8,2.3,1.1,3.4c0.4,1.5,0.5,3.1,1.1,4.6c0.3,0.7-0.2,1-0.7,1.4
	c0.8-0.6,1.1-0.2,1.3,0.5c0.3,0.8,0.7,1.5,1.2,2.2s1,1.2,1.8,1.5c0.6,0.2,0.8,1,1.8,0.9c0.6-0.1,1.3,0.3,2,0.4
	c2.1,0.3,4.3,0.4,6.4,1c0.2,0.1,0.5,0.2,0.6-0.1c0.1-0.3-0.2-0.4-0.4-0.5c-1-0.3-2.1-0.5-3.1-0.7c-0.7-0.1-1.1-0.4-1.5-0.9
	c-0.6-0.8-1.3-1.7-2.1-2.2c-0.4-0.2-0.8-0.4-1.2-0.6c0.1-0.8-0.4-1.4-0.8-2c-0.4-0.7-1.1-1.1-0.8-2c0.1-0.3-0.1-0.1-0.3-0.1
	c-0.5,0-0.6-0.4-0.7-0.7c-0.2-0.7-0.3-1.3-0.2-2c0.1-0.4,0.1-1.1,0.5-1.1c0.5,0,0.3,0.6,0.4,1l0.1,0.1c0.2-0.1,0.1-0.8,0.2-0.6
	c0.4,0.5,0.9,0.2,1.3,0.3c0.5,0.2,0.6,0.4,0.5,0.8c-0.1,0.4-0.4,0.7-0.5,1c-0.1,0.5-1,0.9-0.5,1.2c0.4,0.2,0.6-0.6,0.8-1.1
	c0.8-1.8,0.8-1.8,2.5-0.7c0.1,0.1,0.1,0,0.2,0c-0.1-0.8-0.1-0.8-0.9-1.6c-0.1-0.1-0.3-0.2-0.2-0.4c0.1-0.1,0.2-0.3,0.3-0.2
	c0.6,0.3,1.5,0.2,1.7,1.1c0.2,1,1,1.7,1.4,2.6c0.8-1,0.7-2,0.2-3s-1.4-1.7-2.3-2.4c-0.3-0.2-0.7-0.5-0.8-1c-0.1-0.2-0.1-0.3,0-0.4
	c0.2-0.1,0.4,0,0.5,0.1l1.5,1.5c0.6,0.5,0.2-0.5,0.7-0.4c0.3,0.1,0-0.2-0.1-0.2c-0.9-0.1-1.3-0.7-1.8-1.3c-0.3-0.4-1.1-0.1-1.2-0.6
	c-0.2-1-0.8-1.9-1.2-2.8c-1.1-2.4-1.5-5-1.7-7.7c0-0.1,0-0.3-0.2-0.4c-0.6-0.3-0.6-0.4-0.5-1c0.2-0.9,1-0.3,1.4-0.6
	c-0.3-0.4-0.5-0.6-1-0.6c-1.4,0.1-1.7-0.1-2.2-1.5c-0.2-0.6-0.3-1.1-1-1.4c-0.6-0.2-0.1-0.8,0-1.1c0.1-0.5,0.5-0.1,0.7,0.1
	c0.3,0.3,0.5,0.5,0.7,0.7c0.6,0.6,1.2,1.2,1.8,1.8c0.1,0.2,0.4,0.3,0.6,0.1c0.3-0.3,0-0.3-0.2-0.5c-0.8-0.8-1.6-1.7-2.5-2.7
	c0.8,0.2,1.3,0.1,1.7,0.5c0.5,0.4,0.1-0.5,0.5-0.4c0.3,0,0.3-0.3,0-0.4c-1-0.3-1.5-1-2-1.8c0,0.1-0.1,0.2-0.1,0.3
	c-1-0.3-2.3,0-3.1-0.9c-0.2,0-0.5-0.1-0.7-0.2c0.1,0.1,0.1,0.2,0.1,0.4c0,0.6-0.9-0.1-1.3,0.3c-0.4-0.1-0.8,0-1-0.5
	c0.4,0,0.3-0.6,0.6-0.7c-0.2-0.2-0.3-0.4-0.3-0.8c-0.1-0.5,0-0.6,0.5-0.6c0.8,0,1.6,0,2.3-0.2c1.1-0.3,1.2,0.7,1.8,1
	c-0.1-0.3-0.5-0.7-0.2-1c0.3-0.3,0.8-0.2,1.2-0.1c0.5,0.2,0.9,0.3,0.9-0.4c0-0.2,0.2-0.4,0.4-0.2c0.8,0.8,1.7,1.4,2.3,2.3
	c0.5,0.7,0.5,1.6-0.1,2.5c1.1-1.4,0.9,0.3,1.5,0.4c-0.7-1.4-0.5-2.7,0.2-3.9c-0.5,0-0.6,0.4-1,0.8c-0.2-2.1-1.5-3.3-3.1-4.2
	c-0.2-0.2-0.5-0.4-0.4-0.7c0.1-0.4,0.5-0.5,0.8-0.4c1.5,0.3,2.9,0.7,4.1,1.5c0.7,0.5,0.6,1.2,0.3,1.9c-0.2,0.3-0.4,0.7-0.6,1
	c0.4-0.4,0.9-0.6,1.1-1.2c0.1-0.3,0.4-0.3,0.6-0.1c0.4,0.5,1.1,0.8,1.5,1.4c1.4,1.8,2.5,3.7,3.9,5.5c-1.4-3-3-5.7-4.8-8.4
	c0.3,0.1,0.4,0.2,0.6,0.3c0.2,0.1,0.3,0.6,0.4,0.1c0-0.3,0.5,0,0.4-0.4c0-0.2-0.2-0.3-0.4-0.3c-0.4-0.1-0.8-0.1-1.2-0.4
	c-0.9-0.9-2-1.5-2-2.9c0-0.2-0.1-0.4-0.3-0.5c-0.6-0.5-0.7-1.2-0.8-2c1.2,0.6,1.7,1.7,2.8,2.2c0.2-0.6-0.1-0.9-0.2-1.4
	c0.6-0.1,1.2,0.5,2.1,0.3c-1.1-1-2.2-1.7-3.3-2.3c-1.6-0.8-3.4-1.4-4.2-3.4c0.7,0.3,1.3,0.5,1.9,0.8c-0.3-0.5-0.8-0.7-1.2-1
	c-0.2-0.2-0.8-0.3-0.6-0.8c0.2-0.4,0.7-0.3,1.1-0.3c0.4,0,0.6,0.3,0.9,0.5c1.1,1,2,2,2.5,3.5c0-1.6-1.1-2.7-2-3.9
	c1.5,0.5,3.5-0.3,4.1,1.9c0.5-0.3-0.4-1.1,0.5-1c0.6,0.1,1.4,0,1.8,0.8c0,0.1,0,0.3,0.1,0.2c0.7-1,1.4,0,2.1,0
	c0.8,0,1.5,0.4,2.4,0.3c-1-0.5-2.1-1-3.2-1.4C243,436.7,242.2,436.5,241.7,435.7z M155.4,473.3c-0.1,0-0.5-0.5-0.5-0.7
	c0-0.5,0.5-0.5,1.1-0.7C155.8,472.5,155.9,473.1,155.4,473.3z M167.2,461.4c-0.4,0.8-0.7,1.6-1.2,2.6
	C166,462.8,166.4,462,167.2,461.4z M166.1,456.9c-0.6,0.8-1.7,1.2-2.3,2C164.3,457.9,165.1,457.2,166.1,456.9z M162.9,463.2
	c0.1,1.2-0.7,2.1-2.7,3C160.4,464.1,160.4,464,162.9,463.2z M159.7,463.5c-0.2,0-0.4,0.2-0.6,0c-0.1-0.3,0.1-0.4,0.3-0.6
	c0.1-0.3,0.4-0.7,0.8-0.7c0.1-0.1,0.2,0,0.2,0.2C160.3,462.8,160.3,463.4,159.7,463.5z M161,463c0.6-1.3,1.1-1.6,2.7-1.6
	C163.1,462.3,162.6,462.6,161,463z M163.4,456.8c-0.8,1.4-1.1,2.9-2.7,3.3C161.8,459.2,161.3,457.1,163.4,456.8z M161.1,457.7
	c-0.3,1.7-1.9,3-3.5,3.2C158.6,459.6,159.6,458.5,161.1,457.7z M155.9,463.3c0.4-0.6,1.1-0.4,1.8-0.7c-0.3,0.8-0.8,1-1.1,1.4
	c-0.1,0.2-0.5,0.4-0.8,0.1C155.6,463.8,155.8,463.5,155.9,463.3z M156.2,467.5c-0.4,0.1-0.8,0.1-1.3,0.2c0-0.7,0.1-1.4,0.2-2.1
	c0-0.3,0.1-0.6,0.6-0.4c0.4,0.1,1.1-0.7,1,0.6c0.3-1.4,1.6-0.8,2.3-1.4c0.2-0.2,0.4,0.1,0.3,0.4
	C158.9,466.7,158.2,467.3,156.2,467.5z M159.2,469.4c0-2,1.4-2.7,3-3.5C161.6,467.6,160.4,468.4,159.2,469.4z M161.2,470.7
	c0.3-1.4,0.5-2.8,1.5-3.8C162.4,468.3,162.6,469.8,161.2,470.7z M163.1,475.4c-0.2-1.7-0.8-3.4-0.3-5.1
	C163.9,472,163.4,473.7,163.1,475.4z M165.2,471.6c-1-1.1-0.8-2.6,0.6-3.4C165.2,469.4,165.8,470.6,165.2,471.6z M165.8,461.9
	c-1.2,1.5-1.1,3.3-1.4,5.1c-0.1,0.5-0.2,1.1-0.5,1.5c-0.1,0.2-0.2,0.4-0.5,0.3c-0.2-0.1-0.2-0.3-0.2-0.5c0-0.3,0-0.7,0.1-0.9
	c0.9-1.6,1.2-3.4,1.7-5.2c0.1-0.5,0.4-0.9,0.7-1.6C166,461.3,166,461.7,165.8,461.9z M164.5,459.3c0.4-0.6,0.8-1,1.6-1.2
	C165.9,458.9,165.4,459.3,164.5,459.3z M166,466.2c0.1-0.9,0.4-1.8,1-2.8C167.1,464.6,166.6,465.4,166,466.2z M168.2,463.7
	c-0.1,1-0.5,1.9-1,2.7C167.2,465.4,167.7,464.6,168.2,463.7z M167.3,469.3c1.3,0.9,0.9,2.3,1,3.7C166.9,472,167.7,470.5,167.3,469.3
	z M196.1,428.6c0.5,0.2,0.7,0.8,1,1.2c-0.2,0.3-0.5,0.3-0.6,0.2c-0.4-0.3-1.1-0.2-1.2-0.9C195.3,428.8,195.7,428.5,196.1,428.6z
	 M196,433.7c-0.2-0.5-0.3-0.9-0.3-1.4c0-0.2-0.1-0.5,0.1-0.6c0.2-0.1,0.4,0.1,0.5,0.4C196.4,432.6,196.6,433.2,196,433.7z
	 M194.8,432.6c0.7,1.1,0.6,2.1,0.2,3C195.1,434.7,194.5,433.8,194.8,432.6z M194.7,447c0,0.2,0,0.2,0.2,0.4c0.7,0.4,0.7,1.2,0.2,1.7
	c-1.1,1-2.5,1.9-3.1,3.4c0,0-0.2-0.1-0.3-0.1c0,0.4,0.1,0.9-0.5,1.3c0.8,0.7,1.2,2.6,0.6,3.5c-0.9,1.3-1.6,2.6-1.9,4.1
	c-0.1,0.6-0.6,0.5-1,0.6c-0.4,0.1-0.5-0.2-0.4-0.5c-0.4,0.8-1.3,0.9-2,1c-0.5,0.1-0.7-0.2-0.4-0.6c0.4-0.6,1-0.9,1.7-1.1
	c0-0.3-0.2-0.7,0.1-0.9c0.4-0.4,0.2-0.7,0-1.1c-0.4,0.1-0.6,0.7-0.9,0.5c-0.7-0.4-1.6-0.3-2-0.9c-0.5-0.6,0.4-0.6,0.7-0.9
	c-0.3-0.2-0.5,0-0.7,0.1c-0.2,0.2-0.4,0.5-0.7,0.2c-0.2-0.2,0-0.4,0-0.6c0.1-0.6,0.6-1,0.7-1.6c-0.1,0.1-0.2,0.3-0.3,0.4
	c-0.3,0.3-0.5,0.4-0.8,0.1c-0.4-0.5,0.2-0.4,0.3-0.6c0.1-0.1,0.1-0.2,0.3-0.5c-1.5,0.8-2.1-0.2-2.8-0.9c-0.1-0.1-0.2-0.3-0.2-0.4
	c0-0.2,0.3-0.2,0.5-0.2h0.5c0.4,0,0.9-0.2,1.1,0.2c0.2,0.4-0.2,0.7-0.5,1c1.9-0.2,2.2-0.1,1.9,0.9c0.3-0.3,1.2,0.3,0.9-0.7
	c0-0.1,0.2-0.3,0.4-0.2c0.3,0.2,0.6,0.4,0.5,0.9c0.4-0.6,0.9-1.3,1.3-1.9c-0.8-0.2-0.8-0.2-0.4-0.7c0.1-0.2,0.2-0.4,0.1-0.6
	c-0.5-2,0-3,1.9-3.9c0,1.8-1.1,3.3-1.5,4.9c0.2-0.2,0.4-0.4,0.4,0c0,0.2-0.2,0.5,0.2,0.7c0.4-1.6,0.9-3.2,1.4-5c0.3,0.9,0,1.4,0,2
	c0.3,0.2,0.4-0.3,0.6-0.3c0.1-0.8,1-1.3,0.4-2.2c0-0.1,0.6-1,1-0.9c0.9,0.2,0.7-0.5,0.6-0.7c-0.6-1.1,0.2-1.6,0.9-2.1
	c0.3-0.2,0.5-0.5,0.9-0.5C194.5,445.2,194.5,446.1,194.7,447z M173.1,437.8c-0.3,0.9-1.2,1.4-1.7,2.1
	C171.4,439.2,171.9,438.5,173.1,437.8z M172.1,437.8c0.4-0.8,0.8-1.5,2-1.9C173.4,436.7,172.9,437.4,172.1,437.8z M173.4,437.7
	c0.9-1.5,2-2.8,3.1-4.2c0.2-0.2,0.3-0.5,0.7-0.5c0.2,1-0.5,1.4-1,2c-2.1,2.3-3.5,5.1-5,7.8c0.1,0.1,0.2,0.1,0.3,0.2
	c0.6-1,1.2-2.1,1.8-3.2c0.5,0.2,0.1,0.7,0.6,1.1c0.2-2.5,1.3-4.5,3.3-6.3c-0.4,1.1-0.5,2.1-0.9,2.8c-1.7,3-3.8,5.7-5.5,8.7
	c-0.1-1-0.4-1.9-0.9-2.8c-0.3-0.7,0.3-1.2,0.7-1.6C171.7,440.4,172.5,439.1,173.4,437.7z M174.1,435.1c0.7-1.4,2-2.3,2.8-3.6
	C177.2,432.4,175.5,434.6,174.1,435.1z M189,429.2c0.3,0.4-0.1,0.8-0.2,1.2c-0.1,0.4-0.5,0.6-0.8,0.6c-1.2-0.1-2.2,0.4-3.1,1.1
	c-0.3,0.2-0.6,0.3-0.9,0.1c0.4-1,1.3-1.5,2.2-2.1c0.5-0.4,1.1-0.6,1.6-0.9C188.2,428.9,188.6,428.8,189,429.2z M184.9,423.3
	c1.1,0.2,1.8-1.5,3.2-0.5C185.9,423.9,185.8,423.9,184.9,423.3z M187.8,447c-0.1-0.2,0.2-0.5,0.4-0.5c0.4-0.1,0.6,0.3,0.8,0.5
	c0.3,0.1,0.1,0.3,0,0.5c-0.3,0.3-0.6,0.7-0.9,1.1C187.6,447.8,188,447.3,187.8,447z M187.5,445.4c0,0.2,0,0.3-0.1,0.5
	c-0.2,0.5-0.6,0.4-0.9,0.3c-0.4-0.2-0.3-0.5-0.1-0.8c0.3-0.5,0.7-1,1-1.5c0-0.1-0.1-0.1-0.1-0.2c-0.3,0.3-0.5,0.6-0.8,0.9
	c-0.3-0.9-0.1-1.1,2.5-4.7c0.2,0.7,0,1.5-0.4,2C187.8,443,187.7,444.2,187.5,445.4z M183.2,452c-0.5,0.4-1.2,0.5-1.9,0.3
	c-0.1,0,0-0.2,0-0.3c-0.2-0.1-0.6,0-0.4-0.4c0.1-0.3,0.2-0.8,0.6-0.7c0.3,0.1,0.5-0.3,0.8,0c0,0.3-0.4,0.5-0.5,0.9
	c0.5-0.5,1.1-0.9,1.6-1.3c-1.1-0.3-0.1-0.8-0.2-1.2c0.6-0.2,0.8-0.9,1.6-0.9c-0.5,0.8-0.9,1.4-1.4,2.1
	C183.8,451.1,183.6,451.7,183.2,452z M175.6,450.4c0.2,0.2-0.1,0.4-0.2,0.5c-0.6,0.6-1.3,1-2.4,1.4c1.6-2.3,2.7-4.7,5.6-5.1
	c-1,0.9-2.2,1.6-3,2.6C175.4,450,175.4,450,175.6,450.4z M176.9,440.5c0,1.1-0.7,1.7-1,2.5c-0.3,0.9-0.7,1.7-1.1,2.6
	c-0.4,0.9-0.9,1.6-2,1.3c-0.5-0.1-1,0.1-1.5,0.2c1.5-2.2,2.2-4.9,4.5-6.5c-0.5,1.6-1.8,2.8-2.3,4.5
	C174.7,443.7,175.5,441.9,176.9,440.5z M181.2,443.2c0.7-0.4,1.3-0.8,2-1.1c-1.8,2.2-4.5,3-6.9,4.4c1.4-1.3,2.7-2.6,3.9-4.4
	c-0.1,0.9-0.7,1.3-0.9,2.1C180.2,444.2,180.6,443.5,181.2,443.2z M179.5,440.8c-0.2,0.1-0.4,0.1-0.5,0c-0.1-0.2,0-0.4,0.1-0.5
	c2.2-2.1,3.6-4.9,6-6.9c0.2-0.2,0.4-0.4,0.9-0.3c-1.9,1.4-2.6,3.5-4.1,5.1c1.5-1,2.6-2.5,3.5-3.9c0.2-0.3,0.3-0.8,0.8-0.7
	c0.3,0.1,0.6,0.4,0.7,0.7c0.1,0.5-0.3,0.7-0.5,1c-0.9,1.2-2.1,1.9-3.3,2.7c-0.4,0.3-0.8,0.7-1.1,1.2c0.5-0.4,1-0.8,1.6-1.2
	c0.2,0.4,0,0.7-0.2,0.8c-0.8,0.5-1.6,1-2.5,1.5c-0.6,0.3-0.8,0.1-0.5-0.5C180.1,440.2,179.9,440.6,179.5,440.8z M187.4,433.4
	c-0.2,0.4-0.4,0.4-0.7,0.1c-0.3-0.2-0.4-0.4-0.1-0.7c0.5-0.4,1-0.9,1.8-1.2C188.3,432.4,187.7,432.9,187.4,433.4z M188.9,437.1
	c0.3,1.3,0,2.2-0.7,3C188.2,439,188.5,438.1,188.9,437.1z M185.7,447.3c-0.2,0.3-0.3,0.7-0.8,0.7c-0.1,0-0.3,0.1-0.4,0.1
	c-0.1-0.3,0.2-0.5,0.3-0.6c0.2-0.2,0.3-0.5,0.7-0.5C185.7,447,185.7,447.2,185.7,447.3z M181.1,442c0.6-1.5,1.1-2,2.4-2.5
	C183.7,440.7,183.2,441.2,181.1,442z M178.7,446c0.5-0.7,1.2-0.8,1.8-1.1c0.6-0.3,1.2-0.6,2-0.9C181.9,445.6,181.9,445.6,178.7,446z
	 M179.4,452c-0.2,0.5-0.6,0.8-1.3,0.7c0.3-0.5,0.3-1,1-1C179.2,451.7,179.5,451.8,179.4,452z M179.7,457.1c-0.8-0.3-1.6-0.6-2.5-0.9
	C178.6,455.6,179.3,455.9,179.7,457.1z M179.6,451.2c-0.3-0.2-0.3-0.4-0.1-0.7c0.4-0.4,0.5-1.1,1.4-1c0.3,0,0.7-0.5,1-0.8l0.1,0.1
	c-0.5,0.7-1.1,1.5-1.7,2.3C180.1,451.4,179.9,451.4,179.6,451.2z M180.5,453.4c0-0.2,0.3,0,0.4,0.1c0.7,1.1,1.7,2,2.9,2.9
	c-1.6,0-2.6-0.4-3.5-1.4C179.7,454.3,180.3,453.9,180.5,453.4z M184,451.4c0.2-1.2,0.5-2.2,1.6-3.1c-0.1,1.3-0.6,2.3-0.9,3.4
	c-0.1,0.2-0.3,0.4-0.6,0.3C183.8,451.9,184,451.6,184,451.4z M185.4,451.5c0.5-0.5,1.1-1,1.9-1.6c0.1,0.8,0,1.4-0.2,2
	c-0.2,0.7-1.3,0.9-1.8,0.4C185,452,185.2,451.7,185.4,451.5z M185.8,450.4c0.5-1.1-0.1-2.6,1.4-3.3
	C187.8,448.6,187.6,449,185.8,450.4z M182.4,428.3c1.4-0.9,2.5-1.4,3.8-1.7C185.2,427.4,184.1,428.2,182.4,428.3z M184.3,433.1
	c-1.2,1.2-2,2.7-3.2,3.9C182.1,435.6,182.5,433.8,184.3,433.1z M180.1,431.7c-0.2,0.1-0.4,0.3-0.6,0c-0.2-0.2,0.1-0.3,0.2-0.5
	c0.8-1,2-1.1,3-1.6C181.9,430.5,181.1,431.2,180.1,431.7z M182.3,431c-0.4,1-0.9,1.5-2.1,1.5C181,431.9,181.5,431.6,182.3,431z
	 M180.8,433.5c0.4-0.3,0.8-0.5,1.2-0.8c-0.8,1.2-2,1.9-2.5,3.4c0.7-0.2,0.8-1,1.5-1.3c-0.8,1.3-1.4,2.5-2.4,3.5
	c-0.1,0.2-0.3,0.5-0.6,0.3c-0.2-0.2-0.1-0.4-0.1-0.7C178.3,436,179.3,434.6,180.8,433.5z M178.3,441.6c0.4-0.6,1.2-0.4,2-0.5
	c-1.3,1.4-2.1,3-3.7,3.9C177.2,443.9,177.7,442.7,178.3,441.6z M171.5,449.6c0.5-0.2,1.1-0.5,1.6-0.7c0,0.1,0.1,0.1,0.1,0.2
	c-0.3,0.4-0.7,0.8-1.1,1.3c-0.1,0.1-0.3,0.3-0.5,0.2c-0.2-0.1-0.4-0.4-0.5-0.6C171,449.8,171.3,449.7,171.5,449.6z M172.5,451
	c0.5-0.5,0.8-1.2,1.7-1.3c-0.4,0.6-0.8,1.2-1.1,1.7c-0.2,0.3-0.5,0.5-0.8,0.2C172,451.4,172.3,451.2,172.5,451z M173,465.5
	c0.6,0.5,1.5,0.8,0.9,1.9c-0.1,0.2-0.1,0.4-0.4,0.4c-0.3-0.1-0.5-0.2-0.5-0.5V465.5z M174.1,470.6c0.4,0.1,0.8,0.1,0.6,0.7
	c-0.3,0.8-0.5,1.5-0.8,2.3c-0.5-0.9-0.9-1.7-0.5-2.5C173.5,470.6,173.6,470.5,174.1,470.6z M174.2,470.1c-0.2,0-0.6,0.1-0.5-0.3
	c0-0.4,0-0.9,0.5-0.9c0.4-0.1,0.7,0.1,0.7,0.6S174.7,470.1,174.2,470.1z M174.1,460.4c0.9,0.3,1.1,0.9,1,1.7
	C174.5,461.7,174.3,461.2,174.1,460.4z M174.9,455.2c0.1-1.5,0.7-1.7,2.2-0.9C176.2,454.7,175.6,454.9,174.9,455.2z M175.3,459.8
	c0-0.3,0.3-0.3,0.5-0.3c0.3,0,0.6,0.1,0.7,0.4c0.1,0.4,0.4,0.8,0.3,1.5c-0.4-0.3-0.8-0.6-1.2-0.8
	C175.3,460.4,175.2,460.1,175.3,459.8z M176.8,457.3c0-0.3,0.4-0.1,0.6-0.1c1.3,0.3,2.5,0.6,3.1,2c-0.9-0.9-2-1.3-3.2-1.4
	C177.1,457.7,176.7,457.7,176.8,457.3z M177.3,459.5c0.5-0.5,1.3-0.3,1.9,0c0.8,0.5,1.6,1,1.7,1.8c-0.1,0.2-0.1,0.3-0.1,0.4
	c0.1,0.7,0.3,1.4-0.2,1.9c-0.4,0.3-2.6-1-2.9-1.6c-0.1-0.3-0.2-0.5-0.3-0.8C177.3,460.6,176.9,459.9,177.3,459.5z M180.1,455.5
	c0.7,0.7,1.6,1.1,1.6,2.3c0.8,0.2,0.8,0.6,0.8,1.3c0.4-0.4,0.6,0.1,1.1,0.2c-0.3-0.6-0.5-1-0.7-1.5c-0.1-0.3,0-0.5,0.2-0.7
	c0.2-0.2,0.4,0,0.6,0.1c0.7,0.3,1.1,1.3,0.7,1.9c0.7-0.3,1-0.2,1,0.6c0,0.4,0.1,0.8,0.1,1.3c0,0.4,0.2,0.8-0.1,1
	c-0.3,0.2-0.8-0.1-1-0.3c-0.8-0.5-1.5-1-2-1.7c-0.2-0.2-0.4-0.5-0.1-0.8c-1.1,0.2-0.9-0.5-0.8-1.1c-0.2,0.2-0.4,0.1-0.5-0.1
	C180.7,457.2,180.3,456.4,180.1,455.5z M185.1,469.3c-0.3-0.7-0.5-1.3-0.6-2.1c0.7,0.2,1.3,0.5,2,0.3
	C186.2,468.3,185.6,468.7,185.1,469.3z M186.1,470.1c-0.3,0.6-0.8,0.9-1.2,1.2c-0.1,0.1-0.3,0.2-0.5,0s0-0.4,0.2-0.5
	C185,470.5,185.3,469.9,186.1,470.1z M184.4,464.7c-0.2-1.1,0.7-1,1.3-1c1.1,0,1.4,0.3,1.4,1.1s-0.5,1-2,1.1
	C184,465.9,184.5,465.2,184.4,464.7z M182.2,463.8c0.9,0.1,0.6,1,1.3,1.4c-0.5,0-0.4,0.8-0.8,0.6c-0.6-0.3-0.8-1-1-1.6
	C181.6,463.9,181.9,463.8,182.2,463.8z M182,460.7c0.5,0.3,0.8,0.7,1.1,1.1c0.1,0.2,0.5,0.6,0.1,0.8c-0.4,0.2-0.8,0-1-0.4
	C182,461.8,182.1,461.3,182,460.7z M181.4,466.8c0.2,0.4,0.3,0.8,0.4,1.2c0.1,0,0.1,0,0.2,0v-0.4c0.1-0.3,0-0.8,0.1-0.8
	c0.6,0.3,0.9-0.4,1.4-0.3c0.3,0,0.3,0.3,0.3,0.5c0.1,0.4,0.1,0.9,0.3,1.3c0.4,0.9,0.1,1.2-0.8,1.1c-1.2-0.1-2.4-1.2-2.6-2.4
	c0-0.2,0-0.3,0.2-0.4S181.3,466.6,181.4,466.8z M183.7,471.7c0.2,0.1,0.1,0.3,0,0.4c-0.5,0.2-1.1,0.5-1.6,0c0-0.3,0.2-0.3,0.3-0.3
	C182.8,471.7,183.3,471.4,183.7,471.7z M183.3,473.8c0.3,0.2,0.7,0.4,0.7,0.7c-0.2,0.9,1.5,1.1,0.7,2.1c-0.1,0.2-0.3,0.2-0.4,0.1
	c-0.7-0.7-1.3-1.5-1.3-2.5C183,474,183.1,473.9,183.3,473.8z M184.1,473.5c-0.2-0.2-0.7-0.4-0.4-0.7c0.2-0.2,0.7-0.5,1.1-0.4
	c1,0.3,1.4,1.1,0.8,2c-0.1,0.2-0.2,0.3-0.4,0.6C184.8,474.4,184.4,474,184.1,473.5z M186.2,474.1c0.2-0.2,0.3-0.5,0.6-0.3
	s0.6,0.3,0.4,0.8c-0.3,0.7-0.6,1.3-1,2.1C185.2,475.7,185.7,474.9,186.2,474.1z M186.7,472.8c-0.4,0.2-0.7-0.3-1.1-0.5
	c-0.2-0.1-0.3-0.2-0.3-0.3c0-0.1,1.5-1.4,1.7-1.4c0.2,0.3,0.8,0.5,0.7,1C187.5,472.1,187.1,472.5,186.7,472.8z M185.2,466.9
	c-0.1-0.1-0.1-0.2-0.1-0.3c1.2-0.2,2.4-0.5,3.8-0.8C187.7,467,186.5,467.1,185.2,466.9z M187.4,465.4c-0.3-0.2-0.1-0.6-0.1-0.9
	c0-0.2,0.1-0.4,0.5-0.3c0.3,0.2,0.8,0.3,1.1-0.2c0.1-0.1,0.5-0.1,0.5,0.3C189.4,464.8,187.9,465.7,187.4,465.4z M190.5,469.8
	c-0.5,0.7,0,1.9-1.5,2.4C189.9,471.4,189.3,470.2,190.5,469.8z M189.5,469.7c0.2-2,0.1-3.7,2.1-5
	C191.1,466.5,191.1,468.3,189.5,469.7z M191.6,474.2c-0.4-1.6-0.1-2.5,0.8-3c0.2-0.1,0.4-0.3,0.6-0.2c0.2,0.2,0.1,0.5,0,0.7
	C192.6,472.5,192.1,473.3,191.6,474.2z M191.1,478.9c-0.2-1,0.5-1.5,0.8-2.2C192.3,477.8,192.2,478,191.1,478.9z M193.5,473.8
	c0.4,1.5-0.2,2.3-0.9,3.2C192,475.7,193,475,193.5,473.8z M192.5,469.4c0.1-1.4,0.5-2.2,1.3-2.6
	C193.9,468.2,193.6,468.7,192.5,469.4z M192.8,455.7c-0.5-0.2-0.1-0.6,0-0.9c0-0.1-0.1-0.3-0.1-0.5c-0.4-2.1,0.4-3.5,2.8-4.9
	c-1,1.8-0.4,3.5-1.1,5c-0.2,0.3-0.2,0.6-0.5,0.8C193.5,455.4,193.3,456,192.8,455.7z M192.6,442.7c0.5-0.5,1-1.1,1.4-1.7
	c0.6,0.8,0.3,1.3-0.2,1.8c-0.7,0.5-1.3,1.1-1.9,1.7C191.6,443.7,191.6,443.7,192.6,442.7z M194.5,438.1c-0.1,1.6-0.8,2.6-1.8,3.6
	C193.1,440.4,193.2,439.1,194.5,438.1z M191.8,439.3c-0.6-1.9-0.6-1.9,2-4.3C194.4,436.6,193.8,437.9,191.8,439.3z M193.4,434
	c0.3,0.3,0.2,0.6-0.1,0.8c-0.5,0.5-1.1,1-1.6,1.5c0.1-0.8,0.4-1.4,1-2C192.9,434.1,193,433.7,193.4,434z M191.5,433.3
	c0.1-0.2,0.3-0.6,0.7-0.4c0.3,0.2,0.4,0.4,0.2,0.8c-0.2,0.4-0.5,0.8-0.8,1.4C191.3,434.4,191.4,433.9,191.5,433.3z M190.8,436.3
	c0.1,0.3,0,0.5-0.1,0.8c-0.1,0.6-0.7,1.2,0.2,1.8c0.4,0.4,0.3,1.4-0.2,2c-0.5,0.7-1,1.4-1.4,2.2c0.8-0.5,0.8-0.5,1.3,0.1
	c0.7-1.4,0.9-3,2.6-4.1c-0.7,1.2-0.9,2.3-1.5,3.2c-0.6,0.9-1.2,1.9-1.7,2.9c-0.5,0.8-0.8,0.6-1.2,0c-0.4-0.7-0.4-1.4,0-2.1
	c0.9-1.9,1.3-3.8,0.9-5.8c-0.1-0.4,0-0.8,0-1.1c0.1-0.3,0-0.9,0.6-0.8C190.7,435.4,190.8,435.9,190.8,436.3z M188.9,417.5
	c0.1-0.7,0.7-0.8,1.2-1c0.2-0.1,0.3,0,0.3,0.2c-0.1,0.5-0.5,0.8-0.9,1c-0.2,0.1-0.4,0.2-0.8,0.4
	C188.8,417.7,188.9,417.6,188.9,417.5z M188.4,417.3c-0.1,1.2-0.4,1.4-2.1,1.4C186.9,417.9,187.5,417.4,188.4,417.3z M182.1,417.5
	c0.2-0.4,0.4-0.4,0.7-0.2c0.4,0.2,0.9,0.2,1.2,0.7c-0.5,0.3-0.9,0.3-1.5,0.4c-0.2,0.1-0.6,0.2-0.7-0.1
	C181.8,418.1,182,417.7,182.1,417.5z M181.7,419.1c1.3-0.1,2.5-0.2,3.7-0.7c0.2-0.1,0.4,0,0.4,0.2c0,0.3-0.3,0.5-0.6,0.5
	c-1.2,0.1-2.3,0.3-3.2,0.4c-0.5,0-0.7,0.1-0.7,0C181.3,419.2,181.5,419.1,181.7,419.1z M183.7,424.4c-0.7,0.4-1.3,0.5-1.8,0.9
	c-0.2,0.3-0.4,0.1-0.5-0.2c-0.1-0.3-0.1-0.5,0.2-0.5C182.3,424.6,182.8,424.1,183.7,424.4z M179.8,427.7c0.6-0.1,1.3-0.2,1.9-0.2
	c0.7,0,1.1-0.2,1.7-0.9c-0.9,0.6-1.7,0.5-2.5,0.4c1.1-1.5,3-1.9,6.3-1.6c0,0.5-0.3,0.5-0.6,0.8c-1.4,0.3-2.7,1-3.9,1.7
	c-1,0.6-2.1,0.1-3.1,0.7c-0.2,0.1-0.3-0.1-0.3-0.3C179.3,428,179.5,427.7,179.8,427.7z M182.3,428.8c0,0,0.1,0.1,0.4,0.3
	c-1.5,0.4-2.7,1.2-3.8,1.8c-0.1,0.1-0.2,0.1-0.3,0c-0.1-0.1-0.1-0.2-0.1-0.3C178.7,430.2,181.9,428.7,182.3,428.8z M179,433.3
	c0.3-0.4,0.7-0.5,1-0.2c0.3,0.4-0.2,0.5-0.4,0.7c-0.8,0.8-1.3,1.9-2,2.8C177.9,435.4,178.2,434.2,179,433.3z M177.3,424.5
	c-0.6,1.2-1.2,2.3-2.1,3.4C175.1,426.6,176.1,425,177.3,424.5z M169.7,429.9c0.1-0.7,0.3-1.5,0.9-1.9c0.6-0.4,0.9-1,1.2-1.6
	c0.6-1.2,1.5-1.8,2.8-1.7c0.3,0,0.8,0.1,0.4,0.7c-0.4,0.5-0.5,1.2-0.7,1.8c0.5-0.5,0.5-1.2,1.2-1.7c0.1,0.5-0.3,0.8-0.4,1.2
	c-0.3,0.6-0.6,1.2-0.3,1.9c0.3,0.9,0,1.4-0.9,1.8c-1.2,0.4-2.3,1-3.2,1.9c-0.3,0.3-0.5,0.6-1.1,0.7
	C169.6,431.8,169.5,430.8,169.7,429.9z M168.9,438.1c0.2-1.2,0.6-2.4,0.8-3.7c0-0.6,0.9-0.9,1.4-1.3c1-0.9,2.2-1.5,3.5-1.8
	c-1.5,0.7-2.1,2-2.7,3.2c-0.6,1.5-1.3,2.8-2.2,4.1c-0.1,0.2-0.4,0.6-0.7,0.4C168.7,438.8,168.9,438.4,168.9,438.1z M168.6,469.4
	c-0.3-1.4-0.4-2.5,0.3-3.7C168.9,466.9,169.7,468.1,168.6,469.4z M170.1,475.4c-0.3-2.2-1.9-3.8-0.8-6.2c0.5,1.7,0.3,3.2,0.9,4.5
	c0.6-2.2-0.6-4.3,0-6.5c0.5,1.1,1,2.1,0.8,3.1c0,0.7,0,1.5,0.2,2.2C171.7,473.8,170.9,474.4,170.1,475.4z M171.9,473
	c-0.4,0.2-0.4-0.2-0.4-0.4c-0.3-1.2-0.2-2.4,0-3.6c0.4,0.4,0.5,0.8,0.5,1.2c-0.1,0.4-0.2,0.7,0.2,1
	C172.5,471.4,172.3,472.8,171.9,473z M172,466.7c-0.7-0.6-1.2-1.4-1-2.4c0.2-0.7,0.2-1.5,0.3-2.2c0.6,1.5,1.5,2.7,1.3,4.2
	c0,0.2,0.1,0.5-0.1,0.6C172.3,467,172.1,466.8,172,466.7z M172.8,468.4c0.1-0.2,0.4-0.1,0.5,0.1c0.5,0.6-0.2,1-0.3,1.7
	C172.4,469.4,172.4,468.9,172.8,468.4z M173.5,479.9c0,0-0.1,0.1-0.3,0.2c0.4-1.8,0.3-3.6-0.1-5.4c0.4,0.1,0.4,0.4,0.5,0.6
	c0.1,0.3,0.1,0.7,0.5,0.7c0.3-0.1,0.3-0.5,0.4-0.8c0.3-1.2,0.6-2.5,0.9-3.7c0.1-0.2,0.1-0.5,0.4-0.5c0.4,0.1,0.3,0.4,0.3,0.7
	C175.6,474.6,174.6,477.2,173.5,479.9z M176.6,473c1,1.6,0.9,1.9-0.1,3.2c-0.5,0.5-0.9,1.1-1.5,1.8C175.3,476,176.7,474.8,176.6,473
	z M176.4,464.6c1,0.4,2,0.9,1.8,2.2C177.3,466.2,176.9,465.4,176.4,464.6z M178.3,479.4c-0.7,2.5-1.6,4.9-2.6,7.3
	c-0.1-1.5-0.6-2.9-0.9-4.4c-0.3-1.7,0.5-2.9,1.4-4.2c-0.3,1.6-0.7,3.1-0.2,4.8c0.1-2.1,1.6-3.6,2-5.9
	C178.6,478,178.6,478.7,178.3,479.4z M177.4,472.9c0.1-0.3,0.7-0.3,0.8-0.1c0.4,0.5,0,0.9-0.2,1.7
	C177.5,473.8,177.2,473.3,177.4,472.9z M177.9,472.3c-0.5,0-0.9-0.1-0.9-0.6c0-0.4,0.3-0.4,0.5-0.3c0.3,0.1,0.9,0,1,0.5
	S178.1,472.2,177.9,472.3z M176.4,463.6c-0.6-0.5-0.9-1.1-0.7-2c0.9,0.6,1.7,1,2.3,1.9c0.3,0.3,0.5,1,1.2,0.5
	c0.2-0.1,0.5,0.2,0.8,0.3c0.5,0.2,1,0.4,1.1,1.1c0.1,0.3,0,0.5-0.3,0.6c-0.6,0.2-1-0.2-1.4-0.5C178.5,464.8,177.3,464.4,176.4,463.6
	z M180.7,469.5c0,0.6,0,1-0.2,1.5c-0.6-0.2-0.8-0.6-0.9-1.1c-0.1-0.7-0.2-1.4-0.4-2.1c0-0.3-0.2-0.5,0.2-0.7c0.4-0.2,0.6,0,0.7,0.3
	c0.4,1.4,1.5,2.4,2.4,3.5C181.5,471.4,181.5,471.4,180.7,469.5z M183.1,482.6c-0.2,0.2-0.3,0.4-0.5,0.4c-0.4-0.1-0.2-0.5-0.3-0.7
	c-0.2-0.5-0.3-1-0.4-1.7c0.7,0.3,1,0.8,1.3,1.3C183.4,482.2,183.3,482.4,183.1,482.6z M184,481.9c-2.6-2.3-3.2-5.2-3-8.3
	c0.5,1,0.2,2.2,0.7,3.6c0.3-1.1,0.2-2.1,0.1-3c0-0.3-0.4-0.9,0.3-1c0.6-0.1,0.5,0.5,0.5,0.9c0.1,1.2,0.3,2.3,1.3,3.1
	c0.2,0.1,0.5,0.5,0.3,0.6c-0.6,0.5-0.1,1,0.1,1.6c0.2-0.6,0.7-0.9,0.7-1.5c0-0.3,0.2-0.7,0.5-0.6c0.3,0.1,0.4,0.5,0.4,0.8
	c-0.1,0.7-0.3,1.3-0.7,1.9C184.8,480.7,184.2,481.2,184,481.9z M186.8,478.8c-0.4,0.9-0.5,1.9-1.6,2.3
	C185.8,480.4,185.6,479.1,186.8,478.8c-0.6-1.5,0.3-2.6,0.9-3.7C187.5,476.4,186.7,477.5,186.8,478.8z M187.5,473.7
	c-0.2,0.1-0.6-0.3-0.5-0.6c0.1-0.5,0.5-0.9,1-1.1c0.3,0.1,0.7,0.3,0.5,0.6C188.3,473.1,188,473.5,187.5,473.7z M188.8,475.5
	c-0.2,0.1-0.3-0.1-0.3-0.3c0.1-0.4,0.4-0.8,0.7-1.1c0.2,0,0.4,0.1,0.2,0.3C189.3,474.8,189.2,475.3,188.8,475.5z M190.4,479.6
	c-0.8,1.4-0.8,3.1-1.9,4.3C188.6,482.3,189.4,480.9,190.4,479.6z M188.2,487.8c-0.1-0.9-0.2-1.8,0.8-2.7
	C188.8,486.1,188.6,487,188.2,487.8z M192.4,483.2c-0.5,1.5-1,3-1.6,4.5c-0.3,0.6-0.7,1.1-1.2,1.5c-0.1-0.4-0.1-0.5,0.3-1.2v-0.6
	c-0.2-1.7,0.5-3.2,1.2-4.6c0.4-0.9,0.8-1.9,1.4-3C192.9,481.1,192.8,482.1,192.4,483.2z M193.3,480.6c-0.6-0.9-0.5-1.4,0.7-2.4
	C194.2,479.2,193.6,479.9,193.3,480.6z M193.6,484.9c0.2-0.8,0.5-1.6,0.7-2.5C194.7,483.4,194.6,484.3,193.6,484.9z M195.1,476.7
	c0.1,0.8,0.1,1.2-0.5,2.4C194.2,477.6,194.2,477.6,195.1,476.7z M194.8,489.6c-0.4-2,0.8-3.6,1.4-5.4
	C196.2,486.1,195.6,487.9,194.8,489.6z M194.9,471.9c0.3-1.1,0.9-1.6,1.4-2.2C196,470.4,195.6,471.1,194.9,471.9z M196.1,466.5
	c0,0.2-0.1,0.5-0.4,0.3c-0.3-0.1-0.6-0.3-0.5-0.7c0.2-0.8,0.3-1.6,1.3-2.3C196.5,464.8,196,465.6,196.1,466.5z M196.4,451.4
	c-0.1,0.3,0.1,1-0.3,0.9c-0.5-0.1-0.1-0.7-0.1-1c0.1-0.5,0.2-1,0.3-1.7C197.2,450.3,196.7,450.8,196.4,451.4z M195.7,441.1
	c-0.2,0.2-0.4,0.5-0.7,0.4c-0.3-0.1-0.2-0.5-0.2-0.7c-0.1-2.5,0.6-5.1,2.4-7.8c0,1.8-0.8,3.2-1.1,4.8c0.5-0.1,0.5-0.7,0.9-0.9
	C196.9,438.5,196.7,439.9,195.7,441.1z M197.2,487.5c-0.1-0.8-0.3-1.5,0-2.3C197.4,486,197.6,486.7,197.2,487.5z M198,481.4
	c-0.9-1.2-0.6-2.1,0.2-3C198.2,479.3,198.5,480.3,198,481.4z M197.8,471.9c-0.1-1,0.1-1.7,0.4-2.4
	C198.4,470.2,198.7,471,197.8,471.9z M199.8,489.2c-0.1,0.1-0.2,0.3-0.4,0.6c-0.1-0.4-0.2-0.6-0.2-0.8c0-0.4-0.1-0.8,0.2-1.1
	c0.1-0.2,0.3-0.1,0.3,0C199.9,488.3,200.1,488.7,199.8,489.2z M199,487.1c0.2-0.9,0.3-1.7,0.5-2.8
	C200.2,486.3,200.2,486.3,199,487.1z M232.1,436.5c0.6,0.4,0.7,1,0.9,1.5C231.7,437.9,231.7,437.9,232.1,436.5z M231,439.5
	c0.3-0.2,0.9,0,1.1,0.3c0.3,0.3-0.1,0.6-0.4,0.8c-0.2,0.2-0.4,0.4-0.7,0.6c-0.1-0.3-0.3-0.5-0.4-0.8
	C230.4,440,230.8,439.6,231,439.5z M230.4,434.8c-0.3,0.2-0.3,0.7-0.6,0.5c-0.5-0.2-0.9-0.5-1-1.1c0-0.1,0.2-0.3,0.3-0.2
	C229.5,434.2,229.9,434.5,230.4,434.8z M229.5,440.8c-1-0.5-0.2-1,0.1-1.7C230.2,439.9,230.2,439.9,229.5,440.8z M234.2,428.8
	c0.5,0.1,1-0.2,1.4,0.2c0.1,0.1,0,0.3-0.1,0.3c-0.6,0-1.2,0.2-1.8-0.4C233.9,428.9,234.1,428.8,234.2,428.8z M233.7,429.8
	c-1.9-0.4-4-0.4-5.6-2.1C230.1,428,232.1,428.4,233.7,429.8z M228.4,429.3c-1.2,0.2-2.4-0.4-3-1.4
	C226.3,427.6,226.8,427.9,228.4,429.3z M226.6,444.3c0.5,0.1,0.9,0.4,1.2,0.8c-1.1-0.1-2.1-0.4-2.7-1.5c-0.1-0.1,0-0.5-0.3-0.3
	c-1.3,0.7-0.9-0.8-1.5-1.1c-0.2,0,0-0.3,0.1-0.3c0.4,0,0.9-0.2,1.3,0.2c0.2,0.2,0.3,0.5,0.5,0.7c0-0.3-0.1-0.8,0.3-0.6
	c1,0.6,2.1,1.2,2.8,2.2c0.1,0.1,0,0.3,0,0.6c-1-0.9-2.5-0.9-3.1-2.2C225.3,443.6,225.8,444.1,226.6,444.3z M225.2,452.3
	c-0.8-0.2-1.5-1.1-1.7-2C225,451.6,225,451.6,225.2,452.3z M227.9,434.6c0.4,0.2,0,0.7-0.2,0.9c-0.3,0.3-0.5,0-0.7-0.3
	c-0.2-0.3-0.2-0.7-0.8-0.6c0.6,0.6,0.8,1.5,1.5,1.9c-1.9-0.6-2.9-2.1-4.2-3.7C225.4,432.8,226.6,433.9,227.9,434.6z M223.8,430.8
	c1,0.2,1.8,0.5,2.9,0.8C225.5,431.9,224.9,431.7,223.8,430.8z M227.7,431.3c-1.4,0-2.1-1.1-3-2.2C226,429.5,227.1,430.3,227.7,431.3
	z M224.8,430.3c-1.5-0.1-2-1.4-2.9-2.4C223.2,428.1,224.1,428.9,224.8,430.3z M223.1,433.3c-0.6-0.3-1.3-0.3-1.6-1
	C222.2,432.3,223,432.1,223.1,433.3z M221.7,446.4c-0.4-0.7-0.6-1.4-0.6-2.4C221.8,444.8,221.6,445.6,221.7,446.4z M220.8,438.4
	c-0.3-0.7-0.6-1.5-0.6-2.3c0.6,0.2,1.5,1.9,1.2,2.4C221.2,438.8,220.9,438.7,220.8,438.4z M221.9,472.8c-1-0.6-1.3-1.2-0.4-2.2
	C221.7,471.4,221.8,472.1,221.9,472.8z M221.6,435.6c-0.1,0.2-0.4,0-0.5-0.1c-0.3-0.3-0.6-0.7-0.9-1c0.1-0.1,0.1-0.1,0.2-0.2
	c0.4,0.3,0.8,0.5,1,0.8C221.6,435.2,221.8,435.4,221.6,435.6z M221.3,430.4c-0.7-0.5-2.1,0.1-2.4-1.3
	C219.8,429.3,220.6,429.7,221.3,430.4z M218.4,452.1c0-0.3,0.1-0.5,0.1-0.8c0.3,0.1,0.3,0.3,0.5,0.5c0.2,0.4-0.1,0.8-0.3,1.1
	c-0.1,0.1-0.3,0.1-0.3,0.1C218,452.7,218.4,452.4,218.4,452.1z M215.5,438c1.1,1.4,1,1.6-0.8,2c-1.8,0.4-2.6,1.4-2,3.3
	c0.1-2,1.4-2.4,2.9-2.7c0.5-0.1,0.7,0,0.5,0.5c-0.3,0.8-0.9,1.4-1.4,2.1c-2.1,2.7-4.4,5.2-6.1,8.1c-0.2,0.3-0.4,0.9-0.9,0.6
	c-0.5-0.3-0.6-1-0.6-1.6c0-0.3,0.5,0.1,0.7-0.2c-1-0.4-1.8-2.1-1.5-3.4c0.3-1,0.5-2.1,0.7-3.1s1.1-1.7,1.7-2.5
	c0.3-0.4,0.7-0.8,1.1-1.2c0.5-0.4,0.9-0.8,1.6-0.4c-0.7-1-0.2-1.7,1.7-2.4c-0.1,0.3-0.3,0.6-0.5,0.9c0.2-0.2,0.4-0.4,0.7-0.6
	C214.2,436.9,214.8,437.5,215.5,438C215.5,437.9,215.5,438,215.5,438z M212.9,450.5c0.6,1.4,0.6,1.4-0.5,2.7
	C212.1,452.3,211.9,451.3,212.9,450.5z M213.4,463.7c-1.1-0.7-1-1.9,0-2.5C213.7,462,213.3,462.8,213.4,463.7z M212.6,460.1
	c-0.1,0.5-0.1,1.2-0.6,1.3c-0.6,0.1-0.5-0.7-0.7-1.1c-0.2-0.4-0.4-0.9-0.6-1.4c-0.1-0.3,0-0.5,0.2-0.7c0.2-0.2,0.4,0.1,0.5,0.2
	c0.5,0.4,1.3,0.6,1.3,1.4C212.7,459.9,212.7,460,212.6,460.1z M208.3,463c0.9-0.7,1.4-0.1,1.9,0.5c-0.1-0.5-0.9-1,0.2-1.4
	c0.2-0.1,0.5-0.6,0.8-0.2c0.2,0.4,0.3,1.1,0,1.6c-0.4,0.5-0.7,0.2-1,0C209.5,463.5,208.8,463.6,208.3,463z M208.9,465.6
	c0.3,0.7,0.6,1.5,0.9,2.2c0.1,0.3,0.3,0.8-0.1,0.9c-0.4,0.1-0.7-0.3-0.8-0.7c-0.1-0.8-0.2-1.5-0.3-2.3
	C208.7,465.7,208.8,465.6,208.9,465.6z M208.1,457.1c0.3,0.4,0.8,0.6,0.7,1.2c0,0.3-0.3,0.6-0.7,0.5c-0.4-0.1-0.5-0.4-0.4-0.8
	c-0.2,0.2-0.3,0.5-0.1,0.8c0.6,0.6-0.1,0.9-0.3,1.2c-0.3,0.3-0.4,0.2-0.6-0.1c-0.6-0.8-0.6-2.6-0.1-3.4c0.1-0.2,0.3-0.3,0.5-0.3
	c0.3,0,0.3,0.2,0.4,0.4c0.3,0.5,0.3,0.9,0.2,1.4C207.8,457.7,208,457.5,208.1,457.1z M209.2,456c-0.3,0-0.5-0.1-0.6-0.4
	c-0.2-0.3-0.3-0.6,0-0.9c0.3-0.3,0.7-0.5,1.3-1c-0.2,0.7-0.3,1.2-0.4,1.6C209.5,455.6,209.6,456,209.2,456z M207,464
	c0.6,1.1,0.7,2.3,0.8,3.6C206.5,466.6,207.2,465.1,207,464z M207.9,473.1c-0.9-0.7-0.5-1.6-0.7-2.4
	C207.6,471.3,207.9,472.1,207.9,473.1z M207.8,460.9c0.2-0.4,0.5-0.9,1-0.4c-0.1-0.6,0.3-0.8,0.8-1.1c0.3-0.1,0.5,0.1,0.6,0.3
	c0.1,0.4,0.8,0.7,0.2,1c-0.4,0.2-1.2,0.9-1.6-0.2c0,0.1,0,0.1,0,0.2c0.1,0.6-0.3,0.7-0.8,0.7C207.7,461.4,207.7,461.1,207.8,460.9z
	 M210.7,433.2c0.6,0.4,1.4,0.6,1,1.5c-0.1,0.1-0.3,0.3-0.4,0.3c-0.2,0-0.2-0.2-0.2-0.4C211,434.1,210.8,433.7,210.7,433.2z
	 M211.9,431.3c0,0,0.1-0.1,0.2-0.1c0.1,0.1,0.3,0.1,0.4,0.2c0.4,0.3,1.1,0.3,1.3,0.9c0,0-0.1,0.2-0.2,0.2c-0.7,0-1.1-0.5-1.6-0.8
	C211.9,431.6,211.9,431.4,211.9,431.3z M215.4,437c-1.6-0.5-2-1.5-1-2.3C214.7,435.5,214.8,436.4,215.4,437z M211.6,430.4
	c-0.3-0.1-0.5-0.4-0.6-0.7c-0.1-0.2,0-0.4,0.2-0.5c0.3-0.2,0.4,0,0.5,0.2s0.2,0.5,0.4,0.6c0.1,0.1,0.4,0,0.6,0
	c-0.1-0.1-0.2-0.1-0.3-0.2c-0.1-0.1-0.4-0.4-0.2-0.6c0.2-0.3,0.6-0.2,0.9-0.1c0.5,0.2,1.3,2.2,1.2,2.9
	C213.4,431.4,212.5,430.9,211.6,430.4z M213.7,427.8c0.6,0.6,0.4,1.3,0.5,2.1c-0.5-0.7-0.8-1.4-1.8-1.4c-0.2,0,0.1-0.4,0.2-0.5
	C212.9,427.7,213.2,427.4,213.7,427.8z M213.1,425.2c-1,0-1.9-0.2-2.9-1C211.6,423.8,212.3,424.7,213.1,425.2z M211.8,426.4
	c0.5,0.3,0.3,0.5-0.1,0.7c-0.5,0.3-1,0.5-1.4,0.9c-0.4,0.3-0.6,0-0.8-0.3c-0.5-0.8-0.5-1.6-0.5-2.6
	C210,425.5,210.9,425.9,211.8,426.4z M207.3,428.4c0.2,1.1,0.5,2-0.8,2.7C206.7,430.1,206.8,429.3,207.3,428.4z M207.2,433.3
	c0.1,0,0.4,0.2,0.4,0.2c-0.2,0.5,0.3,0.9,0.2,1.5c-0.2,0.9-0.3,1.9-0.5,2.9c-0.1,0.5,0.1,0.8,0.4,1.3c0.4-2.1,0.8-4,0.9-6
	c0-0.5-0.2-1.1,0.4-1.2c0.5-0.1,1,0.3,1.2,0.9c0.1,0.2,0.2,0.5,0.3,0.7c0.7,1.3,0.5,2.4-0.6,3.5c-0.9,0.9-1.5,2.1-2.5,3
	c-0.9-1.1-0.7-2.5-1.2-3.7c-0.1-0.2-0.1-0.6,0.3-0.5c0.3,0.1,0.5,0,0.4-0.3c0-0.4-0.2,0-0.4,0c-0.3,0.1-0.4-0.1-0.5-0.3
	C205.9,434.9,206.8,433.3,207.2,433.3z M205.3,438.5c0.5,0.6,0.3,1.3,0.6,1.9c0.1,0.1,0,0.2-0.1,0.2c-0.2,0-0.3-0.1-0.4-0.2
	C205.1,439.8,205.2,439.2,205.3,438.5z M201.1,473.6c0.4,0.9,0.5,1.8,0.4,2.8C201.2,475.5,201,474.6,201.1,473.6z M201.1,477.6
	c0.5,0.7,0.9,1.5-0.2,2.2C201,479,201,478.3,201.1,477.6z M201.1,482.2c0.2-0.1,0.3-0.2,0.5-0.1c0,0.1,0.1,0.3,0.1,0.4
	c-0.1,0.6-0.2,1.2-0.6,1.8C200.8,483.5,200.5,482.9,201.1,482.2z M201.8,490.2c-0.5-1-0.4-1.9-0.5-2.9c0-0.2,0.1-0.4,0.3-0.3
	c0.3,0.1,0.6,0.2,0.6,0.6C202.2,488.4,202.1,489.2,201.8,490.2z M202,459.3c-0.3-0.5-0.4-1-0.3-1.8
	C202.1,458.1,202.6,458.5,202,459.3z M202.1,452.2c-0.1-1.3-0.1-2.7-0.2-4c-0.1-0.5,0-0.8,0.5-1c0.5-0.3,0.7,0.2,0.9,0.5
	c0.7,1,0.9,2.2,0.8,3.4c-0.1,0.4,0,0.8,0.4,1.2c0.3-0.6-0.4-0.9-0.2-1.4c0.7,0.5,1,1.2,1.3,1.9s-0.1,0.9-0.6,1.1
	c-0.2,0-0.4-0.1-0.6-0.1c-0.5,0-0.5,1.1-1.1,0.6C202.7,453.8,202.2,453.1,202.1,452.2z M204.3,467.7c-0.2,0.1-0.3-0.1-0.3-0.2
	c-0.2-0.4-0.6-0.8-0.5-1.3c0,0,0.1-0.1,0.2-0.1c0.5,0.3,0.5,0.8,0.6,1.3V467.7z M204.4,480c0.3,0.6,0,1.2-0.2,2
	c-0.4-0.6-0.3-1.3-0.5-1.9c-0.1-0.1,0-0.3,0.2-0.4C204.2,479.6,204.3,479.8,204.4,480z M203.6,492.2c-0.4,0.4-0.6-0.2-0.7-0.5
	c-0.2-0.6-0.4-1.4,0.2-1.7c0.8-0.3,0.5-0.8,0.6-1.3c0,0.9,0.8,1.3,0.9,2C204.7,491.5,204,491.8,203.6,492.2z M204.1,455.6
	c-0.2,0-0.4-0.2-0.4-0.5c0-0.5,0.5-0.8,0.8-1c0.4-0.2,0.9-0.1,1.4-0.4c0.3-0.2,0.2,0.3,0.3,0.5C206.2,454.8,204.7,456,204.1,455.6z
	 M205.1,490c-0.5-1.7,0.2-2.9,0.7-4.2C206.2,487.2,205.9,488.5,205.1,490z M206.3,470.4c0-0.1,0.3-0.3,0.4-0.1
	c0.2,0.4,0.3,0.8,0,1.4C206.3,471.2,205.8,470.9,206.3,470.4z M206.6,488.3c0-1.4-0.5-2.7-0.2-4.1
	C207.1,485.5,207.2,486.9,206.6,488.3z M207.2,475.2c-0.4-0.8-0.8-1.5-0.9-2.3C207.1,473.4,207.3,474.1,207.2,475.2z M208.1,490.4
	c-0.4-0.2-0.2-0.6-0.3-0.7c-1-0.7-0.3-1.5-0.2-2.2C207.9,488.4,208.4,489.3,208.1,490.4z M209.1,475.9c-0.2,0.5-0.2,1.3-0.8,1.4
	c-0.6,0.1-0.2-0.7-0.5-0.9c0-0.5,0.1-1.1,0.5-1.3C208.5,475.1,209.2,475.7,209.1,475.9z M209.2,470.6c1.1,2.8,1.1,2.8,0.7,3.7
	C208.9,473,208.7,471.9,209.2,470.6z M210,478.7c-0.3,0.1-0.6-0.2-0.6-0.6c0-0.4-0.1-0.8,0.3-1.1c0.4,0.2,0.4,0.6,0.4,1
	C210.1,478.2,210.5,478.6,210,478.7z M210.3,465.4c-0.6-0.1-0.7-0.7-0.9-1.2c0.4,0.2,1-0.2,1.2,0.5
	C210.7,464.9,210.5,465.4,210.3,465.4z M211,477c-0.2-0.4-0.8-0.8-0.4-1.4c0.1-0.1,0.3-0.1,0.3-0.1C211.2,476,211.1,476.5,211,477z
	 M210.8,471.4c0.4,0.6,0.8,1.3,0.6,2.4C210.9,472.9,210.9,472.2,210.8,471.4z M211.4,478.3c0.3-1.2,0.5-2.4,0.2-3.6
	c0.8,1.6,0.8,3.3,1.1,5C211.7,479.5,211.3,479.1,211.4,478.3z M213.9,478.7c-0.6-0.8-0.3-1.5-0.4-2.2
	C214.2,477,213.8,477.8,213.9,478.7z M213.7,475.8c-0.4-0.7-0.3-1.4-0.4-2.4C214.3,474.2,213.9,475,213.7,475.8z M213.1,472
	c-0.2-0.7-0.4-1.3-0.2-1.9c-0.9,0.2-0.6-0.6-0.8-1c-0.1-0.2,0.2-0.4,0.5-0.3c0.5,0.1,0.5,0.6,0.4,1c0,0.1-0.1,0.2-0.1,0.3
	c0.3-0.1,0.4-0.3,0.2-0.7c-0.1-0.5,0.2-0.9,0.5-1.2c-0.3,0-0.8-0.1-1.1,0.1c-1.1,0.5-1.2-0.5-1.2-1c0-0.7,0.3-1.4,0.5-2.1
	c0.3,0.7,1.3,1.1,0.9,2.2c0.6-0.6,0.9-0.7,0.9,0.1c0,0.3-0.2,0.5,0.1,0.7c0.1,0.7,0.1,1.3,0.3,2C214.2,470.9,213.7,471.5,213.1,472z
	 M213.7,456.3c0,0.2,0.6,0.6,0,0.8c-0.7,0.2-1.2,0.9-2,0.4c-0.5-0.3-0.5-0.7-0.3-1.1c0.1-0.4,0.2-0.7,0.4-1.1
	c0.5-1.1,0.6-1.1,1.5-0.3c-0.6-0.7-0.6-1.3,0.1-1.9c0.6-0.6,0.9-1.4,0.5-2.3c-0.2-0.4,0.2-0.7,0.2-1c-0.2,0-0.4,0.3-0.7,0.1
	c-0.2-0.2-0.1-0.5,0-0.7c0.2-0.4,0.4-0.9,0.9-1.3c0.2,0.8-0.4,1.3-0.2,1.9c0.5-0.1,0.2-0.7,0.7-0.9c0.5,0.7,0.3,1.6,0.9,2.4
	c0.5-0.6,0.2-1.2,0.1-1.7c-0.5-2.1-0.5-2.1,0.9-4c0.3,0.2,0.3,0.7,0.2,1c-0.2,1.1-0.5,2.3-0.6,3.4c-0.2,1.6-0.9,2.9-1.3,4.3
	c-0.1,0.6-0.2,1.1-0.3,1.6C214.6,456.7,214.2,456.7,213.7,456.3z M216.5,475.6c-0.3,0.4-0.6,0-0.7-0.2c-0.2-0.5-1.1-0.5-0.8-1.4
	c0.4,0.4,1,0.3,1.3,0.8C216.5,475,216.8,475.3,216.5,475.6z M217.6,472.3c-0.3,0.6-0.1,1.7-0.7,1.7c-0.8,0-0.7-1.1-0.9-1.8
	c0-0.2-0.1-0.5,0.1-0.8c0.3,0.2,0,0.6,0.2,0.7c0.2-0.3-0.1-1.1,0.8-0.9C217.9,471.3,217.8,471.8,217.6,472.3z M218,470
	c-0.1,0.8-0.7,1.1-1.4,0.8c-0.1,0-0.1-0.2-0.2-0.3c-0.2,0-0.3,0.5-0.5,0.2c-0.3-0.4-0.2-1-0.1-1.5c0-0.2,0.2-0.2,0.3-0.1
	c0.4,0.2,0.5,0.5,0.4,0.9c-0.1,0.1-0.1,0.3-0.1,0.5c0.8-0.3,1-0.9,0.4-1.5c-0.7-0.6-0.6-1.2-0.3-1.9c0.2-0.6,0.4-1.3,0.6-1.9
	c0.1-0.3,0.1-0.7,0.6-0.7c0.7,0.1,0.1,0.5,0.2,0.7C218.7,466.8,218.2,468.4,218,470z M219.1,462.3c-0.1-1.2-0.4-2.4-0.7-3.6
	c-0.4-1.5,0.6-2.3,1.6-3.5c0.4,3.4,2,6.4,1.4,9.7C220.1,464.4,219.2,463.8,219.1,462.3z M219.8,469.1c-0.2-1-0.3-2.1-0.4-3.1
	c0-0.2,0.1-0.3,0.3-0.3c0.4,0.3,1.3,0.4,1.2,1.1c-0.1,0.7-0.1,1.5-0.5,2.2c0,0.1-0.1,0.3-0.3,0.3C220,469.3,219.8,469.2,219.8,469.1
	z M222.3,475.2c-0.8-0.5-1.1-1.4-1.9-1.8c-0.2-0.2-0.2-0.5,0-0.7c0.3-0.3,0.5,0,0.6,0.2C221.4,473.6,222.5,473.9,222.3,475.2z
	 M222.8,446.2c-0.3-0.1-0.8-1.9-0.6-2.1c0,0,0.1-0.1,0.2-0.1c0.5,0.3,0.6,0.7,0.9,1.1c0.1,0.3,0.3,0.7,0.1,1
	C223.3,446.3,223,446.3,222.8,446.2z M223.9,459.1c0.1-1.4-0.6-2.5-0.7-3.9c0.9,0,0.9,0.4,0.6,1c0.3,0.1,0.7-0.9,0.9,0.2
	c0.2,1,0.6,2,1,3c0.2,0.6,0.1,0.8-0.5,0.6C224.7,459.8,223.9,460,223.9,459.1z M229,477c-0.6-1.3-0.9-2.8-1.7-4
	c-0.2-0.4-0.4-0.7-0.6-1.1c-0.1-0.3-0.3-0.5,0-0.7c0.4-0.3,0.5,0,0.6,0.2C228.6,473,229.1,474.9,229,477z M226.7,457.8
	c0.9,0.7,1.7,1.2,1.3,2.4c-0.1,0.2-0.1,0.5-0.4,0.5c-0.2,0-0.3-0.2-0.4-0.4C226.8,459.5,226.6,458.7,226.7,457.8z M228.2,469.9
	c1.4,0.8,2.6,1.7,3.1,3.3c0.1,0.4,0.4,0.6,0.5,1c0.3,1.2-0.3,1.9-1.2,2.6C230.3,474.3,230,471.8,228.2,469.9z M234.7,486.6
	c0.4,0.2,0.9,0.5,0.7,0.9c-0.1,0.2-1,0.3-1.3,0.1c-0.8-0.4-1.5-0.9-2.1-1.6c-0.8-0.8-1.2-1.9-1.7-3.2c0.8,0.7,1.2,1.4,2,1.9
	c0.2,0.1,0.3,0.3,0.3,0.6c0,0.4,0,0.4,0.4,0.2c0.2-0.2,0.3,0,0.4,0.1C233.7,486.1,234.2,486.3,234.7,486.6z M233.1,481.3
	c0.2,0.3,0.2,0.7,0.2,1c0.3-0.2,0.4-0.2,0.6,1c0.2,0.4,0.5,0.8,0.7,1.2c-0.6-0.6-1.8-1-1.3-2.2c-0.2,0.8-0.5,0.9-1,0.2
	c-1-1.3-1.5-2.8-1.7-4.4c-0.1-0.4-0.1-1,0.4-1.1c0.6-0.1,0.5,0.4,0.6,0.8C232,479,232.2,480.3,233.1,481.3z M236.4,472.6
	c-0.7-0.7-1-1.5-1-2.6C236.2,470.8,236.4,471.6,236.4,472.6z M231.1,461.6c0,0.5-0.3,0.9-0.7,1c-0.4,0.2-0.2-0.6-0.6-0.6
	c-0.2,0.4,0,0.7,0.3,0.9c0.4,0.3,0.6-0.1,0.8-0.3c0.3-0.4,0.5-0.3,0.7,0.1c0.4,0.7,0.7,1.4,1,2.2c0.2,0.6,0.2,1.2-0.3,1.7
	c0.7-0.3,0.7-0.9,1-1.6c0.6,2.3,0.2,4.4,0.7,6.5c-0.3,0-0.4,0-0.6-0.1c1.1,1.2,1.8,2.6,3.1,3.6c0.3,0.2,0.7,0.3,0.4,0.8
	c-0.3,0.4-0.5,0.5-1,0.4c-1.2-0.2-2.2-0.8-2.7-2c-0.4-0.9-0.7-1.8-1.2-2.6c-0.4-0.7,0.1-0.9,0.8-0.8c-2.3-0.8-3.1-2.9-4-4.9
	c-0.1,0,0.1-0.2-0.1-0.2c-1.2-0.3-0.9-1.3-1.1-2.3c0.7,0.4,1.4,0.2,1.5,1c0.5-0.2-0.2-0.5,0.2-0.7c0.7,0.5,0.6,1.2,0.6,2.2
	c0.2-0.8-0.2-1.7,1-1.5c-0.7-0.8-1.4-1.4-2-2.1c-0.8-0.8-0.7-1,0.1-1.8c0.2-0.3-0.1-0.5-0.2-0.6c-0.1-0.2-0.5-0.4-0.3-0.7
	c0.1-0.3,0.5,0,0.7,0C230,459.4,231.2,460.8,231.1,461.6z M229.7,455c-0.6-0.2-1-0.5-1.4-1C229.3,453.7,229.7,454,229.7,455z
	 M228.3,457c-1.4,0.1-1.6-1-2-1.7C226.9,455.8,227.5,456.3,228.3,457z M226.2,461.2c0.4,0.8,0.7,1.6,0.7,2.7c-0.6-0.7-1.3-0.9-2-1.2
	c-0.4-0.2-0.9-1.7-0.7-2S226,460.7,226.2,461.2z M229.2,448.3c0.1,0.4,0,0.6-0.3,0.5c-0.5,0-0.9,0.2-1.3,0.2c-1.4,0.1-2.3-0.6-2.4-2
	c-0.1-0.6,0.4-0.5,0.6-0.4c0.9,0.2,1.8,0.3,2.7,0.3c0.1,0.5-0.5,0.6-0.4,1.1c0.5-0.2,0.8-0.2,1,0.1c-0.1-0.2-0.1-0.5-0.1-0.7
	c0-0.3,0.2-0.5,0.4-0.4c0.9,0.4,1.5,1.3,2.6,1.6C231,448.3,230,449.2,229.2,448.3z M230.8,442.6c-0.2,0-0.3-0.2-0.2-0.4
	c0-0.2,0.2-0.2,0.3-0.2c0.9,0.3,1.9,0.3,2.4,1.4C232.3,443.5,231.5,443,230.8,442.6z M233.4,440.1c0.9,0.1,1.9,0.1,2.2,1.3
	c0.1,0.3,0.3,0.7,0.4,1c0,0.4-0.3,0.4-0.6,0.4c-0.9-0.3-1.8-0.7-2.7-1.1c-0.4-0.1-0.3-0.6-0.2-1C232.7,440.3,233,440,233.4,440.1z"
	/>
<g>
	
		<linearGradient id="SVGID_8_" gradientUnits="userSpaceOnUse" x1="315.9845" y1="510.2778" x2="315.9845" y2="9.1089" gradientTransform="matrix(1 0 0 -1 0 514)">
		<stop  offset="5.025126e-03" style="stop-color:#009245"/>
		<stop  offset="0.5" style="stop-color:#009245"/>
		<stop  offset="0.6307" style="stop-color:#009245"/>
		<stop  offset="0.691" style="stop-color:#009245"/>
		<stop  offset="0.7211" style="stop-color:#009245"/>
		<stop  offset="0.7613" style="stop-color:#F47D24"/>
		<stop  offset="0.8015" style="stop-color:#F47724"/>
		<stop  offset="0.8719" style="stop-color:#F36D24"/>
		<stop  offset="0.9271" style="stop-color:#F26524"/>
		<stop  offset="1" style="stop-color:#F15A24"/>
	</linearGradient>
	<path class="st7" d="M287.2,325.7c-1-0.9-1.8-2-3-2.5c-1.9-0.8-1.7-1.7-0.3-3.1c-2.8-0.5-4.2-1.7-4-4.3c2.9-0.6,4.3,4.1,7.1,1.7
		c-2.3-3.6-4.7-7-6.7-10.6c-0.7-1.3-1.1-3.4-0.6-4.8c1.2-3.5-1.8-4.5-3.4-6.2c-0.5-0.5-2.7,0.5-4.3,0.9c0-1,0-2.4,0-4
		c0.8-0.3,1.9-0.7,2.9-1.1c0,0.2-0.1,0.5-0.1,0.7c0.8,0.3,1.6,0.4,2.3,0.8c1.5,0.8,3.2,1.4,4.3,2.6c1.5,1.8,2.7,2.5,4.3,1.2
		c1.6,1.6,3.1,3,4.5,4.5c0.3-0.2,0.5-0.3,0.8-0.5c0.1-0.8,0.2-1.5,0.4-3.1c1.2,1.7,2.1,2.8,2.9,3.9c2.8-0.4,5.5-0.8,8.2-1.2
		c0.2,0.3,0.4,0.5,0.6,0.8c0.2-1.4,0.5-2.9,0.8-4.9c-2.6,0.5-4.8,1-7.1,1.2c-0.7,0.1-1.5-0.5-2.1-1c-0.9-0.7-1.1-2.7-3.2-1.1
		c-0.4,0.3-2.8-2.1-4.3-3.4c-0.3-0.2-0.1-1.2-0.3-1.2c-4-1.4-2-4.7-2.7-7.8c3.9,2.4,7.2,4.4,10.6,6.5c0.2-0.1,0.4-0.3,0.6-0.4
		c-1.2-2-2.3-4-3.5-6.1c-0.1-0.3-0.4-0.5-0.4-0.8c-0.4-2.6-0.9-5.2-1.1-7.9c-0.1-1.8,0.2-3.5,0.3-5.7c1.6,0.7,3.2,1.5,4.8,2.3
		c0.3-1.8,0.7-3.4,0.6-5c0-0.7-1.1-1.8-1.9-2c-3.1-0.7-3.4-1-4.6-4c-0.4-1.1-1.6-1.9-2.4-2.8c0.3-0.3,0.6-0.7,0.9-1
		c2.8,2,5.6,4,8.7,6.3c0.5-1.1,0.9-2.1,1.3-3c-4-2.5-6-5.9-5.2-9.4c3.5,3.6,7,6.9,11.6,8.6c0.3-0.3,0.6-0.6,0.9-0.9
		c-2.1-2.4-4-5-6.3-7.3c-1.3-1.3-3.4-2-4.7-3.4c-1.6-1.6-2.6-3.7-4.1-6c2.8-0.9,5.3,6.2,6.8-0.4c3.6,2.6,7.3,5.1,10.9,7.6
		c0.3-0.3,0.6-0.6,0.9-0.9c-1-1.2-1.9-2.6-3.1-3.5c-2-1.6-4.5-2.6-6.2-4.3s-2.6-4-4.3-6.8c2.2,0.3,3.5,0.5,5,0.8
		c-1.6-3.4-3.2-6.9-5.1-11c3.2,0.8,4.5,0.2,3.2-3c1.1,0.3,1.8,0.6,2.7,0.8c-0.5-3.2-1-6.3-1.4-9.3c0.2-0.1,0.4-0.1,0.7-0.2
		c1.6,1.7,3.1,3.3,4.7,5c0.2-0.1,0.5-0.2,0.7-0.3c-1.1-4-2.2-7.9-3.4-12.4c1.1,0.8,1.8,1.4,3.5,2.6c-0.6-3.2-1.1-5.6-1.6-8
		c0.3-0.2,0.5-0.4,0.8-0.6c0.2,0.5,0.2,1,0.6,1.4c0.5,0.5,1.1,0.8,1.7,1.1c0.4-0.6,1-1.3,1-1.9c0.2-2.9,0.3-5.8,0.4-9.3
		c2.6,3.3,4.4,5.6,6.3,8c0.4-0.2,0.8-0.4,1.1-0.7c-0.5-1.5-1-3.1-1.5-4.6c-1.5-4.6-1.5-4.6,2.7-8.5c1,0.3,2,0.6,2.7,0.8
		c-0.3-2.2-0.6-4.4-0.8-6.5c0.3-0.1,0.6-0.1,0.8-0.2c1.3,3.2,3.7,6,2.7,10c-0.2,1,0.3,2.2,0.5,3.3c0.4,0,0.8-0.1,1.2-0.1
		c0-2.4,0-4.8,0-7.2c0.2-0.1,0.4-0.1,0.6-0.2c0.5,0.9,1.5,1.8,1.4,2.7c-0.1,3.1,1.3,5.1,3.4,7.1c0.7,0.7,0.7,2.3,0.9,3.5
		c0.2,1.1,0.3,2.1,0.5,3.8c1.7-1.9,2.8-3.2,4-4.6c0.3,0.1,0.6,0.3,0.9,0.4c-1,3.8-2.1,7.6-3.1,11.4c0.2,0.1,0.5,0.3,0.7,0.4
		c1.4-1.2,2.8-2.4,4.1-3.4c1.1,7.2-3.2,11.7-8.5,15.5c2.8,3.8,3,3.9,5.7,1.4c0.2,0.9,0.4,1.6,0.7,2.9c1.1-1,1.9-1.8,2.8-2.5
		c1.3,3.1-3.6,5.9,0.4,9.6c-3.2,4-6.6,8.2-10,12.4c2.6,3.5,4.5,0.1,6.3-0.4c1.9-0.6,3.3-2.6,5-4c0.3,0.2,0.5,0.4,0.8,0.7
		c-1.7,2.7-3.4,5.4-5,8.1c0.2,0.2,0.4,0.3,0.7,0.5c1.9-1.1,3.9-2.2,6.2-3.4c-0.1,1.2-0.2,2.1-0.3,2.9c1.5,0.4,3.3,0.2,1.5,2.7
		c-1,1.5-0.7,3.9-1.5,5.5c-1.3,2.5-2.6,5.5-4.7,6.8c-2.7,1.7-1.6,3.2-1.4,4.7c1.6-0.5,3.2-0.7,4.4-1.4c1.7-1,3.1-2.6,4.7-3.8
		c0.9-0.6,2-0.7,3.1-1.1c0,1.1,0.2,2.3-0.2,3.2c-2.1,4.2-4.4,8.2-6.6,12.3c-0.2,0.4-0.2,1-0.3,1.5c0.5,0,1.1,0.1,1.6,0.1
		c2.1-0.3,4.1-0.7,7.2-1.2c-1.2,1.6-2,2.6-3.1,4c0,0.3,0.1,1.3,0.2,2.6c0.6-0.4,1.3-0.8,2-1.2c1.5,2.3,0.9,3.6-1.6,3.9
		c0,1.3,0,2.5,0,3.2c2.9-0.3,6.3-0.7,9.7-1.1c0.6,3.2-1.2,3.6-3.6,3.7c0.7,1,1.1,1.6,1.5,2.1c-3.1,1.8-6,3.8-9.3,5.2
		c-1.7,0.8-3.9,0.6-5.9,0.8c-0.3,0-0.7,0-0.8,0.1c-1.5,2-3.1,4-4.2,6.2c-0.3,0.6,0.7,2.3,1.6,3c2,1.6,3.9-0.1,5.8-0.7
		c3.9-1.2,7.7-2.5,11.6-3.5c0.5-0.2,1.3,0.6,2.2,1c-1.2,1.5-2.2,2.8-3.1,4c0.2,0,0.3,0.1,0.5,0.1c-3.1,2.4-6.6,4.5-9.1,7.5
		c-1.5,1.8-4.8,3.4-3.3,7.6c1.2-1.5,2.1-2.7,2.9-3.8c4.6,1.7,4.9,0.4,5.6-1.3c3.4-1.5,6.1-2.7,9-3.9c1.3,2,1.2,3.8-0.7,5.8
		c-2.1,2.2-3.8,4.7-6.7,6c-0.4,0.2-0.5,1.1-0.7,1.7c0.7,0.2,1.4,0.6,2,0.4s1-0.9,1.5-1.4c2.1,1.7,1,3.5,0.2,5.3s-1.6,3.5-2.4,5.3
		c0.2,0.2,0.5,0.5,0.7,0.7c1.2-0.4,2.5-0.7,4-1.2c0.4,0.6,0.9,1.4,1.6,2.4c-1.2,0.4-2.1,0.7-3,1c-0.1,1-0.2,2.1-0.3,3.3
		c-0.9-0.2-1.7-0.3-2.6-0.5c-0.2,0.2-0.3,0.3-0.5,0.5c1.2,1.4,2.4,2.7,3.9,4.4c-1.4,0.4-2.3,0.7-3.4,1c-0.1,0.9-0.2,1.8-0.4,3
		c-0.7-0.1-1.3-0.2-2.2-0.3c-0.3,0.8-0.6,1.6-0.8,2c-3.4,0-6.4,0-9.4,0c-0.6,0-1.5,0.1-1.7-0.2c-1.7-3.1-4.6-1.1-6.9-1.7
		c-2.2-0.6-2.7,1-2.9,2.7c-0.2,1.7,0,2.9,2.1,3.2c1.4,0.2,2.7,0.9,4.1,1.2c1.8,0.4,3.5,0.7,5.5,1.1c0.1,0.4,0.3,1.2,0.5,2.1
		c-1.7,1.3-3.2,3.4-5,3.7c-1.9,0.3-4.1-1.1-6-2c-0.6-0.3-0.7-1.7-0.8-1.9c-2.2-0.7-4.2-1.3-6.5-2c0.6,8.9-0.3,14-0.2,20.9
		c-0.3,0.1-4,2.9-7.2,4.6c-0.5,0.3,0.1-0.8,0.1-2.6c0-1.4,0.7-2.5,0.8-3.5c0.1-1.2,0.6-3.7,0.8-5.5c0.2-1.6,0.2-7.5,0.2-11.4
		c0.4-0.1-2-2.3-3.3-0.9c-2,2.3-3.9,4-7.3,3.4c-0.8-0.1-2,1.3-2.9,2.1c-1.6,1.4-2.9,1.9-3.7-0.8c-0.1-0.4-1-0.5-1.6-0.7
		c0,0.8,0.1,1.5,0.1,2.5c-2.7,1.7-4.5,1.2-5.8-1.7c-0.2-0.6-1.1-0.8-1.4-1.4c-0.7-1-1.2-2.1-1.7-3.2c1-0.3,2-1,2.9-0.8
		c2,0.6,4.5-1.1,6.2,1.1c0,0,0.8-0.6,1.2-0.9c0.8-0.5,1.8-1.5,2.4-1.3c2.5,0.8,2.9-0.7,3.2-2.5c2.4-0.2,4.7-0.5,7-0.7
		c-0.2-1.8-0.2-1.8-9.1-1.9c-0.1-0.7-0.2-1.5-0.5-3.2c-1.6,1.8-2.7,3.1-3.8,4.3c-1.5,0.3-3.2,0.6-5.6,1c0,0-0.5-0.8-1.2-1.2
		c-0.6-0.4-1.7-0.8-2.2-0.5c-3.1,1.9-6.1,1-7.8-2.4c-0.4-0.7-1.3-1.2-1.8-1.9c-0.6-0.8-1-1.7-1.5-2.6c0.2-0.3,0.4-0.6,0.6-0.9
		c2.5,0.9,5.1,1.8,7.8,2.7c0.2-0.3,0.5-0.9,0.8-1.4c0.3,0.1,0.5,0.1,0.6,0.2c1.6,1.6,2.9,3.9,5.2,0.5c0.4-0.6,2.3-0.1,4-0.1
		c-0.2-0.9-0.1-1.9-0.6-2.4c-2-1.9-4-3.8-6.2-5.3c-4.4-3.1-7.3-7.4-10.1-11.8c-0.3-0.5,0.2-1.5,0.3-2.3c-3.5-0.6-4.7-2-4.3-5
		c2.4,1,4.8,2,7.6,3.1C285.3,327.4,286.3,326.5,287.2,325.7c0.1,0.7-0.3,1.9,0.1,2.2c1.3,0.9,2.8,1.5,4.2,2.2
		c0.5-1.8,0.9-3.6,1.6-6.4C290.8,324.4,289,325.1,287.2,325.7z M302.5,272.8c1.1,0.4,2.5,0.9,4,1.4c0.2-0.1,0.4-0.3,0.6-0.4
		c-1.4-2.1-2.4-4.6-4.3-6.3c-1.1-1-3.4-0.5-5.2-0.7c-0.1,0.3-0.2,0.6-0.4,0.9C299,269.3,300.7,271,302.5,272.8z M307.6,223.1
		c-0.1,0.9-0.6,2.2-0.4,2.3c1.6,0.8,3.3,1.4,5,2.1c0.2-0.4,0.4-0.7,0.5-1.1C311.2,225.4,309.7,224.4,307.6,223.1z M326.2,347.4
		c-1.5-0.8-2.4-1.4-3.3-1.6c-0.3,0-1.1,1.3-1,2c0,0.5,1.1,1.5,1.6,1.4C324.2,349.1,324.9,348.3,326.2,347.4z M332,264.8
		c-1.6,0.5-2.8,0.9-3.9,1.4c-0.4,0.2-0.7,0.9-0.7,1.4c0,0.3,0.8,1,0.9,0.9C329.7,267.7,332,267.8,332,264.8z M327.6,222.1
		c-2.3,1.8-4.1,3.3-6,4.8C324.9,227.1,327.3,225.4,327.6,222.1z M312.8,296.5c-0.4,0.3-0.7,0.7-1.1,1c-0.3,2.9,3.4,1.5,3.9,3.5
		c0.3-0.3,0.6-0.6,0.8-0.8C315.2,298.9,314,297.7,312.8,296.5z M299.3,303.7c-0.5,0-1,0.1-1.6,0.1c-0.1,1-0.1,2-0.2,3
		c0.8,0,1.7,0,2.5,0C299.8,305.8,299.5,304.7,299.3,303.7z M318.1,236c0-0.3,0-0.6,0-0.8c-1.4-0.4-2.8-0.8-4.2-1.1
		c-0.1,0.3-0.2,0.6-0.3,0.9c0.6,0.7,1.3,1.4,2,2.3C316.5,236.8,317.3,236.4,318.1,236z"/>
</g>
<g>
	
		<linearGradient id="SVGID_9_" gradientUnits="userSpaceOnUse" x1="197.025" y1="510.8799" x2="197.025" y2="10.5131" gradientTransform="matrix(1 0 0 -1 0 514)">
		<stop  offset="5.025126e-03" style="stop-color:#008837"/>
		<stop  offset="0.5" style="stop-color:#008235"/>
		<stop  offset="0.6307" style="stop-color:#008235"/>
		<stop  offset="0.691" style="stop-color:#008235"/>
		<stop  offset="0.7211" style="stop-color:#008235"/>
		<stop  offset="0.7613" style="stop-color:#008837"/>
		<stop  offset="0.8015" style="stop-color:#F47724"/>
		<stop  offset="0.8719" style="stop-color:#F36D24"/>
		<stop  offset="0.9271" style="stop-color:#F26524"/>
		<stop  offset="1" style="stop-color:#F15A24"/>
	</linearGradient>
	<path class="st8" d="M152.3,268c4.9-1,9.7-4.2,14.8-0.5c0.4,0.3,2-0.3,2.6-0.9c2.2-2.3,5-2.6,7.9-2.5c0.4-0.3,0.9-0.8,1.4,0
		c0.1,0.1-0.5,0.5-0.8,0.8c-2.7,3.9-7.8,4.6-11.4,8.2c3.9,1.3,6.8,0.3,9.8-1.1c1.2-0.5,2.4-2.2,3.5-1.2c3.4,3.1,4.7,0.5,6.2-1.9
		c1.5-2.4,3.2,0.1,4.8-0.3c0.9-0.3,1.2,0.7,0.9,1.2c-2.5,4.7-2.8,11.1-8.5,13.3c-3,1.2-5.4,3.1-8.2,4.2c-1.8,0.6-1.7,2.5-3.7,3.2
		c-6.5,2.2-12.7,5.4-19,8.3c0.9,1,2,1.3,3.2,1.3c8.5,0.3,16.2-4,24.7-3.5c0.2,0.1,0.5-0.3,0.7-0.6c1.8-2.8,5.3-2.4,7.7-4.2
		c1.8-1.3,3.2,0.3,4.3,1.2c1.3,1.1-0.1,2.4-0.8,3.3c-4.2,5.3-8.1,10.9-14.7,13.7c4,0,7.6-0.3,11.1-1.9c1.3-0.6,3.4-1.3,4.5,0.3
		c1.3,1.8-0.6,2.9-1.7,4c-4.6,4.6-10.3,7.4-17.1,11.6c5.5-0.2,9.7-1.3,13.9-1.1c1.5,0,3.2-0.2,3.5,1.4c0.3,1.3,0.6,3.1-1.6,4
		c-2.9,1.2-5.7,3-9.2,4.8c3.5,0.1,6.1,0.3,8.8-0.8c2.6-1,4.4-0.5,4.2,3.3c-0.3,6,0.3,12,0.7,18c0.7,11.7-0.5,23.4-2.2,34.9
		c-1,6.6,1.7,10.5-1.7,16.8c0,0,0,0,0,0h3c2.4-1.3,4.3-1.9,6.7-0.3c0.2,0.1,0.4,0.2,0.6,0.3h4.7c0.2-0.1,0.4-0.1,0.6-0.2
		c-5.5-12.3-4.3-21.3-4.8-34c-0.4-9.5-0.3-19.1,0.1-28.7c0.2-5.3,0.4-8,6.3-6.7c0.3-0.5,0.5-0.9,0.8-1.4c-3-2.1-5.6-4.4-7.7-7.3
		c-0.6-0.8-1.4-1.5-1-2.5c0.6-1.6,1.7,0,2.4-0.3c3.7-1.5,6.9,2.9,10.7,0.9c0-3.5-2-5.2-5.4-6.1c-3.3-0.8-5.7-3.1-7-6.3
		c-0.5-1.2-0.5-3.5,1.2-2.4c3.1,1.9,7.2,0.7,9.8,3.8c1.1,1.3,3.2,1.6,5.1,0.6c-0.3-1.6-1.4-2.8-2.7-3.3c-4.8-1.8-7.9-5.9-12-8.7
		c-2.6-1.8-3.1-4.6-3.3-7.3c-0.1-2.6,4.3-5.5,5.6-3.8c2.3,3.1,5.5,3.7,8.7,5.1c4.8,2.2,9.3,5.6,14.3,7.1c3.4,1,5.7,4.2,9.9,4.6
		c-0.9-2.9-5.6-4.5-1.7-7.7c0.7-0.6-0.4-1.3-1.1-1.7c-5-2.8-9.5-6.6-15.4-7.9c-1.6-0.3-3.7-0.8-4.2-2.6c-1.1-3.8-2.8-6.9-6.8-8.3
		c-1.2-0.4-2.2-2.1-1.7-2.6c3.4-3.5-1.2-5.3-1.4-7.6c4.1-2.6,7.1-0.5,10,2.1c1.4,1.3,2.7,3.2,4.9,2.5c4.2-1.4,7.8,1.1,10.9,2.5
		c5.2,2.4,9.5,3.3,14.2-1.1c-4.6-1.4-8.9-2.3-12.5-4.9c-4.9-3.5-7.5-9.7-13.9-11.3c-0.3-0.1-0.6-0.4-0.7-0.7c-0.6-3.2-3.4-4.1-5.8-5
		c-2.4-0.9-3.4-2.5-4.1-5.1c2.9,0,5,1.7,7.1,3c2.2,1.3,5.4,2,6.6,0.4c3.8-4.8,7.2-1.3,10.8-0.3c1.4,0.4,2.7,1.2,4.1,1.5
		c1.3,0.3,2-1.3,1.3-1.6c-2.6-1.2-2.4-4.3-4.9-6c-3.8-2.5-7.7-2.8-11.7-3.7c-1-0.2-2.6,0.2-2.6-0.8c0-3.8-3.7-4-5.3-6.1
		c-1.6-2.1-5.1-2.2-5.7-5.4c10.5-1.4,16.7,9.5,27,9.3c-1.8-5.6-7.6-6.3-10.6-10.1c-2.6-3.2-5.5-6.7-10.3-7.6c-2.1-0.4-3.3-3-4.3-5.1
		c-0.7-1.2,0.2-2.1,1-2.1c3,0,5.9-1.4,8.7,0.3c-2-3-6.3-4.3-7.2-9.3c7.2,3.2,13.8,6,20.3,8.9c0.3-0.4,0.5-0.8,0.8-1.2
		c-2.5-1.7-4.1-3.7-5-6.7c-1.1-3.9-3.9-7.4-7.7-8.6c-7.6-2.4-9.6-9.4-13.6-14.7c-1-1.3-1-3.4-1.4-5.1c-0.2-1,0.3-1.6,1.1-2
		c0.9-0.5,1.6,0,1.8,0.9c1.2,5.8,6,2.4,9,3.5c0.1,0.1,0.4-0.2,0.6-0.3c-0.4-0.2-0.4-0.8-0.5-1.3c-1.3-6-6.4-8.9-10.4-12.6
		c-2-1.9-3.5-2.9,0.3-4.5c0.8-0.3,3.4-2.9,2.4-4.2c-2.8-3.6,1.4-3.9,2.6-5.8c-2.5-1.1-4.6-2.2-6.9-2.8c-3-0.8-2.6-3.7-3.5-5.5
		c-0.8-1.5,1.5-1.5,3-1.6c1.8-0.1,0.8-1.5,0.6-2.2c-0.6-1.7-1.6-3.2-2.1-4.9c-0.8-2.3-3.6-4.8,0.6-7c0.3-0.2,2.7-3,0.7-5.4
		c-2.6-3.2-3.6-7.1-4.1-11.2c-0.3-1.7-0.4-3.6-2.6-4.5c-1.8,6.9-3.5,13.9-8.2,19.5c-1.8,2-0.5,2.8,1.4,2.2c4.8-1.3,3.8,2.2,3.5,4.4
		c-0.4,2.6-1.7,4.9-3.3,7c-1.1,1.4-2,3.2,0.6,3.6c2.5,0.4,4.1,0.5,2.6,3.7c-0.8,1.6,2.4,3.4,0.3,5.5c-4,4-6.4,9.4-10.9,12.9
		c-0.6,0.5-1.3,1.2-0.9,2.1c0.6,1.5,1.6,0.3,2.4,0.3c4.2,0,7.7-2.5,11.9-2.9c-4.2,5.1-8.7,9.7-13.1,14.3c-0.5,0.6-1.6,0.7-1.3,1.8
		c0.2,0.8,1,1.7,1.7,1.3c2.2-1.1,4.1,0.3,6.2,0.1c1.9-0.2,4.5-1.5,5.4,0.3c1,2.1-1.5,3.9-2.7,5.7c-0.9,1.3-2.3,2.3-3.5,3.4
		c-3.5,3.3-7.6,5.8-10.3,10.1c-2.3,3.6-6,6.6-9.1,9.1c-4.2,3.4-9.7,6.3-15.2,8.3c-1.3,0.4-3.3,0-3.8,2.4c4.6,1.3,9.2,0,13.1-0.8
		c3.7-0.8,8.7-1.9,11.4-6.1c0.6-0.9,2.2-2.6,3.5-1.1c1.1,1.3-0.2,2.3-1.3,3.5c-5.6,5.9-12.5,10-18.9,14.9c2,1.9,4.6,3,6.9,1.2
		c5.1-4,11.8-4.6,16.8-8.7c2.4-1.9,6.2-0.1,6.8,2.8c0.7,3.4-1.8,7.6-5.3,8.9c-6.2,2.3-12,5-16.5,10.7c3.6,0.1,6.7,0.7,9.9-0.9
		c1.8-0.9,4.6-0.5,5.4,1.8c0.6,1.8-1.7,2.3-3,3.2c-9,6.2-20,8.1-28.9,14.4c-1,0.7-3.1,0.5-2.7,2.2
		C149.5,269.6,151.2,268.2,152.3,268z"/>
	
		<linearGradient id="SVGID_10_" gradientUnits="userSpaceOnUse" x1="209.85" y1="512.1858" x2="209.85" y2="5.498" gradientTransform="matrix(1 0 0 -1 0 514)">
		<stop  offset="5.025126e-03" style="stop-color:#008837"/>
		<stop  offset="0.5" style="stop-color:#008235"/>
		<stop  offset="0.6307" style="stop-color:#008235"/>
		<stop  offset="0.691" style="stop-color:#008235"/>
		<stop  offset="0.7211" style="stop-color:#008235"/>
		<stop  offset="0.7613" style="stop-color:#008837"/>
		<stop  offset="0.8015" style="stop-color:#F47724"/>
		<stop  offset="0.8719" style="stop-color:#F36D24"/>
		<stop  offset="0.9271" style="stop-color:#F26524"/>
		<stop  offset="1" style="stop-color:#F15A24"/>
	</linearGradient>
	<path class="st9" d="M207.5,335.6c0.3-0.5,0.5-0.9,0.8-1.4c1.2,1.1,2.5,2.2,3.9,3.4C209.5,338.9,208.7,336.9,207.5,335.6z"/>
	
		<linearGradient id="SVGID_11_" gradientUnits="userSpaceOnUse" x1="219.4" y1="512.1858" x2="219.4" y2="5.498" gradientTransform="matrix(1 0 0 -1 0 514)">
		<stop  offset="5.025126e-03" style="stop-color:#008837"/>
		<stop  offset="0.5" style="stop-color:#008235"/>
		<stop  offset="0.6307" style="stop-color:#008235"/>
		<stop  offset="0.691" style="stop-color:#008235"/>
		<stop  offset="0.7211" style="stop-color:#008235"/>
		<stop  offset="0.7613" style="stop-color:#008837"/>
		<stop  offset="0.8015" style="stop-color:#F47724"/>
		<stop  offset="0.8719" style="stop-color:#F36D24"/>
		<stop  offset="0.9271" style="stop-color:#F26524"/>
		<stop  offset="1" style="stop-color:#F15A24"/>
	</linearGradient>
	<path class="st10" d="M219.2,214.7c0,0.3,0.1,0.5,0.1,0.8c0.1-0.1,0.2-0.2,0.3-0.2C219.5,215.1,219.3,214.9,219.2,214.7
		L219.2,214.7z"/>
</g>
<linearGradient id="SVGID_12_" gradientUnits="userSpaceOnUse" x1="254.604" y1="512.457" x2="254.604" y2="4.9848" gradientTransform="matrix(1 0 0 -1 0 514)">
	<stop  offset="5.025126e-03" style="stop-color:#34A02C"/>
	<stop  offset="0.299" style="stop-color:#34A02C"/>
	<stop  offset="0.4548" style="stop-color:#34A02C"/>
	<stop  offset="0.5603" style="stop-color:#34A02C"/>
	<stop  offset="0.6005" style="stop-color:#34A02C"/>
	<stop  offset="0.7663" style="stop-color:#34A02C"/>
	<stop  offset="0.7864" style="stop-color:#F47724"/>
	<stop  offset="0.8719" style="stop-color:#F36D24"/>
	<stop  offset="0.9271" style="stop-color:#F26524"/>
	<stop  offset="1" style="stop-color:#F15A24"/>
</linearGradient>
<path class="st11" d="M310.5,370.2c-2.5-0.3-2.9-0.8-1.5-2.8c0.9-1.3,0.3-1.6-0.7-2.1c-1.4-0.6-2.9-0.4-4.5-0.5
	c0.6-1.2,1.2-2.2,1.7-3.3c0.3-0.7,0.6-1.8,0-2.1c-1.8-0.8-1.2-2.1-1-3.4c0.1-1.3,0.2-2.9-2-1.9c-0.8,0.3-1.4-0.3-2-0.8
	c-0.6-0.4-0.7-1.3-1.7-1.3c-0.1,0.8-0.2,1.7-0.4,2.5c-0.3,1.1-0.8,2.5-2.2,2.2c-1.4-0.2-2.2-1.4-2.1-2.9c0-0.8,0.4-1.6-0.3-2.3
	c-0.4-0.4,0-0.5,0.3-0.8c1-0.9,0.5-0.5-0.3-1.4c-1.4-1.7-1.1,0.1-1.5,0.4c-1.4,1.1-2.8,1.8-4.7,2.2c0.3-1.5,1.7-1.8,1.8-2.9
	c-1.2,0.1-1.9,1.1-3.1,1.5c-0.2-0.8-0.3-1.5-0.5-2.3c-1.3,0.6-2.4,1.3-3.5,1.8c-0.5,0.2-1.4,0.5-1.1-0.3c0.3-1.1-0.2-3,1.9-3.2
	c0.5,0,0.9-0.3,0.9-0.9s-0.4-0.9-0.9-0.9c-1.6,0.1-2.9-0.5-4.1-1.4c-1.4-1-3.1-0.9-4.6-1.5c-0.4-0.2-1-0.3-1-0.9
	c0-0.7,0.6-0.8,1.1-1c1.6-0.5,2.7,0.3,3.7,1.5c0.4,0.4,0.9,1.6,1.4,0.8c0.9-1.4,1.7-0.6,2.3-0.1c1.6,1.2,4.4,0.8,4.9,3.7
	c0.3-0.5,0.5-0.7,0.5-0.9c0.1-0.8,0.3-1.6,1.3-1.6c0.9,0,0.7,0.8,1,1.3c0.3,0.6,0.5,1.5,1.3,1.4c1.5-0.3,2.8,0.4,4.4,0.7
	c-0.8-1.1-1.4-2-2.2-3.1c4.2,2,4.2,2,4.6-0.2c1.1,0.4,2.3,0.4,3.3,1c0.6,0.4,1.9,0.5,1.9-0.3c0-1.7-0.7-3.3-2-4.6
	c-0.3-0.3-1.3,0.2-1-0.8c0.2-0.6,1-0.2,1.5-0.3c0.7-0.1,1.1,0.4,1.6,0.8c0.7,0.6,1.4,1.2,2.6,1.2c-0.3-0.5-0.5-0.7-0.6-1
	c-0.3-0.7-1.4-1.1-1.1-1.8c0.4-0.9,1.5-0.7,2.4-0.7c0.5,0,1.5,0.1,1.4-0.3c-0.3-1.8,1.5-1,2.1-1.7c-2.1-1.6-2.1-1.6,0.3-2.7
	c1.9-0.8,2.3-2.3,2.3-4.2c-1.4,0.5-2.1,1.7-3.2,2.4c-0.4,0.3-0.8,0.9-1.4,0.6c-0.5-0.3-0.1-0.9-0.1-1.3c0-0.7,0.1-1.3-0.6-1.9
	c-1.1,0.6-1.2,1.8-1.6,2.8c-0.2,0.5-0.3,1.3-1,1c-1.8-0.7-2.7,1.1-4.2,1.4c-0.4,0.1-1.5-0.4-1.8,0.6c-0.6,2.3-2.9,1.9-4.5,3
	c-0.1-1.2,1.1-1.7,0.3-2.8c-2.1,1.3-3.8,3.6-6.8,2.8c-2.5-0.7-4.6-2.2-6.9-3.4c2.2-0.4,4.3-0.4,6,1.2c0.5,0.5,1.4,1.1,1.8,0.5
	c1-1.8,2.5-0.8,3.9-0.7c-0.7-1.6-2.3-2.4-3-3.9c2.2,0.1,3.9,1.3,5.9,2.3c-0.5-1.6,1.4-3.1-0.9-4.4c1.2-0.2,1.9-0.5,2.7-0.6
	c1.5-0.2,3.3-1.6,3.4-2c0.2-2,1.3-1.3,2.3-1.1c0.3-0.9-1.3-2.4,1.1-2.3c0.8,0,1.5-1.8,3-1.8l0.1-0.3c-1.3-1.2-0.8-2.4-0.2-3.6
	c0.1-0.2-0.3-0.9-0.3-0.9c-1.6,0.2-2.7-1.6-4.5-0.7c-2,0.9-4.3,1.3-7,0.8c1.9-1.3,4-1.1,5.5-1.9c0.2-0.8-1.4-0.4-0.6-1.4
	c0.4-0.5,1.2-0.5,1.5-1.3c-1.7,0-3,1.1-4.7,1.1c0.1-0.3,0.2-0.6,0.3-0.8c0.1-0.3,0.4-0.6-0.1-0.9c-4.1,3.2-8.6,2.4-13.1,1.2
	c-1.6-0.4-3-1.1-4.3-3c2.2,0.5,4.1,0,5.4,1.7c0.1,0.1,0.3,0.5,0.6,0.1c1.3-1.2,2.9-0.4,4.3-0.6c1.2-0.1,2.7,0.8,3.5,0
	c1.5-1.4,3.4-1.4,4.9-1.3c1.6,0.1,2.5-0.1,3.3-1.5c-0.7-0.4-1.4-0.9-2.1-1.3c0-0.1,0.1-0.2,0.1-0.4h3.5c-1.2-0.8-2.4,0-3.2-0.9
	c1-0.6,2.1-1.1,3-1.8c0.5-0.3,1.2-0.8,0.7-1.5c-0.4-0.6-1,0-1.4,0.3c-0.8,0.5-1.6,1.1-2.5,1.8c-0.1-1.2,1.4-1.8,0.7-2.9
	c-1.5,0.3-2.2,3.1-4.2,1.2l-0.1,0.1c-0.2,1.7-1.7,1.3-2.7,1.7c-1.6,0.8-3.5,1.5-5.3,1.1c-3.2-0.8-6.3-1.8-9.4-2.7
	c-0.7-0.2-1.5-0.3-2-1.2c1.2-0.5,2.2-0.2,3.1,0.3c0.6,0.3,1.3,0.6,1.8-0.1c0.7-0.9,1.2-0.5,1.8,0.1c0.6,0.6,1.1,1.2,1.8,1.7
	c0.3,0.3,0.6,0.6,1.2,0.1c1.6-1.4,3.4-2.7,5.8-2.1c0.7,0.2,1.4,0.3,2.6,0.5c-0.5-0.5-0.7-0.6-0.9-0.7c-0.5-0.4-1.5-0.6-1.2-1.4
	c0.3-0.7,1.1-0.1,1.7-0.1c1.5,0.1,3,0.5,4.4-0.6c-0.7-1-1.8,0.2-2.4-0.8c0.6-0.7,1.6-0.3,2.3-0.8c0.4-0.2,1.2-0.5,0.7-1
	c-1.5-1.4,0.1-1.4,0.7-1.8c1.1-0.7,2.4-1.2,3.2-2.3c-0.5-0.4-0.8-0.2-1.2-0.1c-1.9,0.3-3.9,0.8-4.1-2.1c0-0.3-0.2-0.7-0.6-0.7
	s-0.6,0.3-0.7,0.6c-0.6,2.6-2.4,3.5-4.8,3.6c0.1-0.8,1.4-1.2,0.9-2.4c-1.6,0.8-2.4,2.2-3.8,3.1c-0.4-1.9-0.4-1.9-2-1
	c-0.6,0.4-1.1,0.8-1.7,1.2c-0.4,0.3-1,0.6-1.3,0.2c-0.9-1.5-2.6-2.3-3.8-3.7c1.5-0.4,2.8-0.1,4,0.3c1,0.3,2.3,0.5,2.8-0.6
	c0.7-1.4,1.6-1.2,2.7-0.9c1.8,0.4,3.7-0.6,4.9-2c1.5-1.7,0.5-4.9,3.5-5.7c-1.3,0-2.3,0.9-3.5,0.9c-0.1-0.7,0.8-1.1,0.3-1.6
	c-0.5-0.4-1,0.2-1.5,0.3c-0.5,0.2-0.7,0.8-1.4,0.6c-0.7-2.2-0.8-2.2-2.5-0.7c-0.5,0.4-0.8,1.2-1.7,1.1c0.2-2.1-0.6-1.8-2.2-1.2
	c-0.9,0.4-2.2,2.8-3.3,0.1c-0.1-0.2-0.5,0-0.7,0.2c-1.3,1.4-3.3,1.6-4.6,3c-0.3,0.3-0.7,0.6-1.1,0.4c-1.4-0.8-3-0.5-4.5-0.8
	c-0.8-0.2-1.8-0.2-1.6-1.4c0.2-0.9,1-1.3,1.9-1s1.6-0.1,1.8-0.8c0.4-1.8,1.3-1.1,2.3-0.7c0.7,0.3,1.6,1.1,2,0.4
	c1.2-2.3,2.9-1.6,4.6-1.2c0.3,0.1,0.9,0,1.1-0.3c1.2-1.1,2.2-0.7,3.2,0.2c0.4,0.3,1,0.8,1.4,0.2c0.8-0.9,1.9-0.6,2.7-1
	c2.1-1.1,4.9,0.2,6.8-2.2c0.7-0.9,1-1.3,0.3-2c-0.6-0.6-0.9-1,0.1-1.5c0.7-0.3,1.1-0.9,0.9-1.6c-0.2-0.8-1-0.9-1.7-0.9
	c-0.6-0.1-1.5,0.1-1.7-0.8c-0.4-2.1-1.5-1.2-2.5-0.6c-1.3,0.9-2.3,2.6-4.2,1c-0.2-0.2-0.9,0.2-1.3,0.4c-0.6,0.2-1.5,0.8-1.9,0.6
	c-2.2-1.2-4.3-0.1-6.4,0.1c-3.6,0.3-6.4-1-8.3-4.3c2.5-0.9,5.1-2.4,7.1,0.9c0.1,0.1,0.2,0.2,0.3,0.2c0.4,0.2,0.8,0.7,1.3,0.3
	c0.5-0.3,0.2-0.9,0.1-1.3c-0.6-1.6,0.2-1.9,1.6-1.9c1,0.1,1.8,0.4,2.5,1.1c0.3,0.3,0.9,1,1.1,0.3c0.6-2.3,1.8-1.1,3-0.8
	c0.8,0.2,2.5,0.2,2.4-0.3c-0.4-1.7,0.9-1.4,1.7-1.7c-0.8-1.5-2.1-2.3-3.3-3.4c1.5-0.4,2.8-0.6,4.1-1.1c1.5-0.5,2.2-2.1,2.5-3.4
	c0.2-0.9-1.5,0.1-2.2-0.3c-0.3-0.2-0.6-0.3-0.9-0.5c-0.5-0.4-1.1-0.3-1.5,0.1c-1.4,1.3-2.9,1.3-4.7,1.2c-1.8-0.1-3.1,0-1.9-2.2
	c-2.2-0.9-3.7,2.3-5.3,1.1c-1.6-1.2-4.1,1-4.8-1.8c3.9-2.5,8.9-2.3,13.5-4.7c-2.5-1.1-4.6-1-6.7-1.1s-2.8-1.3-2-3.3
	c1,1.3,1.9,2.7,3.9,1.3c1.1-0.8,3.3,0.4,3.7-0.1c1.1-1.8,2.3-0.9,3.6-0.7c1.1,0.1,2.1,0,3.1-0.7c-0.3-0.9-1.6-0.6-1.9-1.7
	c1.4-0.1,2.2-1.2,3.3-1.8c0.4-0.2,1-0.8,0.3-1.1c-1.9-0.7-0.3-1.2,0-1.8s1.6-0.9,0.8-1.8c-0.6-0.6-1.4,0-2,0.4
	c-0.5,0.3-0.9,0.8-1.4,1.2c-0.3,0.3-0.6,0.6-1,0.2c-1.8-1.8-2.4,0-3.1,1.1c-1.3,2.3-3.5,2.7-6.1,1c1.7-0.8,4.1-0.8,4.6-2.7
	c0.4-1.6,1.8-2.8,1.9-5c-1.9,1.9-4.5,2.2-5.6,4.4c-0.1,0.2-0.4,0.3-0.8,0.2c0.3-1.6,0.9-3.2,0.6-5c-0.6,1-1,2-1.3,3
	c-0.4,1.1-1.2,1.5-2,0.9c-1.1-0.8-2.3-0.7-3.5-0.8c-0.4,0-1.1,0.2-1.1-0.6c0-0.5,0.4-0.9,0.9-1c0.4-0.1,0.8-0.2,1.2-0.3
	c1.9-0.4,3.3-2.3,3.2-4.5c-1.2,0.9-2.3,1.7-3.4,2.4c-0.5,0.4-1.1,0.8-1.6,0.1c-0.5-0.6,0-1.2,0.3-1.7c0.4-0.6,1-0.7,1.6-0.9
	c0.8-0.3,1.7-0.5,2.3-1.4c-1.3-0.5-2.7,0-3.6-0.9c-1.1-1-1.4-0.4-1.9,0.5c-0.3,0.7-0.5,1.6-1.3,2c-1.1,0.7-1.2-1-2-1.1
	c-0.3,0.9-0.6,1.6-0.9,2.4c-0.3,0.9-1.1,1-1.9,0.9c-0.5-0.1-1.1-0.1-1.2-0.6c-0.2-0.7,0.7-0.9,1.1-1.4c0.3-0.3,0.6-0.7,0.9-1
	c-0.5-0.8-2,0-1.8-1.3c0.1-0.9,1.2-0.6,1.9-0.8c0.6-0.2,1.8-0.4,1.8-0.7c0.1-1.7,1.6-1.3,2.6-1.9c-1.8-0.9-1.1-1.7,0.2-2
	c2.6-0.5,4.2-1.8,4.7-4.4c-1.2-0.3-2.1,1-3.3,0.9c0-0.8,1.1-0.9,0.6-1.9c-2.2,1.7-4.1,3.7-6.5,5.1c-0.5,0.3-0.9,1.4-1.6,0.7
	c-0.6-0.5-1.7-1.1-1.6-2c0.1-0.7,1.3-0.5,2-0.6c0.6-0.1,1.2-0.1,1.8-0.2c1.1-0.3,2-1.1,1.7-2.2c-0.3-1.1,0.4-1.1,1-1.3
	c1.4-0.5,2.9-0.6,4.1-1.9c-1.6-0.9-3.3-0.1-5.2-0.6c1.6-0.9,2.9-1.8,1.5-3.5c-1.2,1.1-2.4,2.3-3.6,3.4c-0.3,0.3-0.7,0.7-1.2,0.5
	s-0.7-0.7-0.7-1.1c0-0.6,0.4-0.8,0.8-1c2.9-1.4,3.1-1.8,3-4.5c0-0.3,0.6-0.4,0.3-0.9c-2,0.6-3.7,1.6-5.5,2.7
	c-0.4,0.3-0.8,0.7-1.4,0.3c-0.3-0.2-0.3-0.6-0.3-0.9c0-0.7,0.6-1,1.1-1c2.8,0.2,3.8-2.3,6.2-3.2c-1.3-0.7-2.5,0.1-3.6-0.6
	c0.7-1,1.7-1.9,2.4-1.6c1.8,0.9,2-0.7,2.9-1.4c0.6-0.5,0.3-1,0.1-1.5c-0.2-0.6-0.7-0.5-1.2-0.5c-0.6,0-1.2,0.8-1.6,0
	c-0.7-1.3-1.1-0.7-1.7,0.1c-0.4,0.6-0.8,1.1-1.3,1.6c-0.4,0.4-0.9,1.5-1.2,1.1c-0.9-1.1-2.9-0.2-3.4-1.9c-0.1-0.4-0.3-0.7,0-0.9
	c1.6-1.3,2.9-3.1,5-3.6c1.3-0.3,1.9-0.9,2.4-1.9c0.2-0.4,0.6-0.8,0.2-1.3c-0.3-0.3-0.8-0.1-1.2,0c-1.3,0.3-2.2-0.9-3.6-0.7
	c-0.6,0.1-0.1-0.8,0.2-1.2c0.5-0.6,1.3-1,0.9-2.3c-1,1.6-2.3-0.4-3,0.4c-0.7,0.8,0.2,2.3-0.9,3.2c-1-0.8,0.2-2.7-1-3
	c-2.4-0.7-2-2.4-2.1-4.1c-0.1-1.2-0.3-2.3-0.4-3.6c-1.6,0.6-2,2-3.1,3.1c-0.4-1.9-0.6-3.7-1.7-5.8c0,1.7,0.9,2.8-1.5,3.3
	c-1.7,0.3-3-0.4-4.7-0.4c1,2.4,3.3,3.6,4.1,5.9c-2.7,0.4-4.8-1.1-7.2-2c0.1,1.3,0.7,2,1.5,2.4c2,1.1,1.5,1.8-0.2,2.4
	c0.8,1.4,2.7,1.5,3.6,3.1c-1.6-0.1-2.7-0.9-3.7-1.6c-1.1-0.7-2.2-1.5-3.3-2.3c-0.1,1.3,1.2,2.2,0.7,3.3c-0.5,0.8-0.5,0.9,0.4,1.2
	c1,0.4,1.5,1.6,0.9,2.5c-0.4,0.6-1.5,1.5-2.4-0.1c-0.5-0.8-1.2,0-1.7,0.4c-0.6,0.4-0.9,0.9-0.3,1.5c1.1,1.1,1.8,3,4,1.8
	c0.2-0.1,0.6,0,0.6,0c0.3,1.8,2,1.4,3,2.1c0.4,0.3,0.9,0.6,0.8,1.1c-0.2,0.7-0.9,0.4-1.4,0.3c-1.8-0.2-3.3-1-5-1.7
	c-0.8-0.3-2.2-1.2-2.7-0.3c-0.5,1,1,1.5,1.8,2.1c0.1,0.1,0.1,0.2,0.2,0.4c-0.7,0.4-2.1,0-2.1,1.2c0,1,1.2,1.3,2.1,1.3
	c1.1,0,1.6,1,2.5,1.3c0.4,0.1,0.8,0.4,0.7,0.9c-0.2,0.6-0.8,0.5-1.2,0.3c-0.7-0.3-1.3-0.7-1.9-1.1c-2.3-1.4-4.5-2.7-6.8-4.1
	c0.9,1.8,0.1,2.7-1.7,3.3c0.7,0.4,1.2,0.6,1.6,0.8c0.6,0.3,1.5,0.2,1.8,0.9c0.4,1.1-1.5,0.3-1.2,1.3c1.4,0.4,2.9,0.3,4.2,1.3
	c-1.3,0.4-2.3-0.3-3.4-0.3c-2.5-0.2-2.5-0.1-1.7,2c-1,0.6-2.2-0.3-3.5,0.1c1.5,1.1,2.5,3.3,4.4,1.9c2-1.4,3.1,1.9,4.8,0.5
	c0.1,0,0.1-0.1,0.2-0.1c0.9-0.1,2.1-0.5,2.5-0.1c0.6,0.7,0,1.8-0.2,2.7c-0.3,1-0.7,1.7-1.6,0.4c-0.8-1.2-1.6-1.6-2.4,0.1
	c-0.2,0.5-0.8,0.9-1.3,0.4c-1.4-1.4-3.8-0.8-5.2-2.5c-0.1-0.2-0.5-0.2-0.8-0.2s-0.8,0.1-0.9,0.3c-0.2,0.3,0.1,0.7,0.3,0.9
	c1.2,0.8,0.9,1.5-0.3,2c0.9,0.7,1.7,1.4,2.6,2.1c-1.3,0.8-3.2-1-3.9,1.1c-0.4,1.2,0.3,2.3,0.9,3.1c0.5,0.7,1.2-0.8,1.9-0.9
	c0.4,2,0.4,2,1.9,2.7c0.1,0.1,0.2,0.2,0.3,0.3c1.4,0.8,3.7,0.8,4.4,0.3c2.6-1.9,2.5,0,2.8,1.6c0,0.2,0.2,0.3,0.3,0.4
	c0.6-0.2,0.6-0.8,0.9-1.1c0.4-0.4,0.9-0.8,1.4-0.2s-0.3,0.8-0.6,1c-0.5,0.3-0.9,0.6-0.6,1.3c0.3,0.7-0.1,1-0.8,1.1
	c-2.2,0.3-4.4,1.2-6.4-0.6c-0.2-0.2-0.4-0.5-0.7-0.2c-1.6,1.6-2,0.2-2.4-1c-0.3-0.9-0.7-1.5-1.7-0.7c-0.3,0.2-0.8,0.4-1.1,0.4
	c-1.5,0-1.4,0.8-0.7,1.7c0.3,0.4,0.5,0.6-0.1,0.9c-0.6,0.3-0.4,0.5,0,0.8c0.6,0.4,1.3,0.8,1.9,1.1c0.4,0.2,1.2,0.1,0.9,0.8
	s-1,0.6-1.5,0.1s-1.3-0.9-1.4-0.2c-0.1,1.1-1.1,1.7-1.2,2.9c2.9-0.2,5.3,2,8.2,1.4c0.5-0.1,1.2-0.2,1.4,0.5c0.2,0.6-0.3,0.8-0.7,1.2
	c-0.4,0.5-0.9,1.1-1.5,0.5c-1.7-1.6-4.1-0.8-5.9-1.9c-0.7-0.4-1.2,0.1-1.7,0.3c-0.9,0.3,0.8,1.4-0.5,1.7c0.3,0.4,0.7,0.3,1.1,0.3
	c0.8,0.1,1.9-1,2.3,0c0.4,0.9-1.2,1.1-1.6,1.9c0,0.1,0.1,0.2,0.1,0.3c3.6-0.1,6.3,1.6,8.7,3.9c-2.4,0.2-4.7,0-6.7-0.9
	s-4.4-0.7-6-2.3c-0.1-0.1-0.6,0-0.8,0.1c-0.5,0.4-0.9,0.2-1.2-0.2c-0.7-0.9-1.6-2.2-2.5-1.2c-1.2,1.3,0.7,2,1.4,2.6
	c1.2,1,1.5,1.8,0,2.9c0.8,0.2,1.3,0.4,1.8,0.5c0.7,0.2,1,0.5,0.5,1.1c-1.3,1.4-0.1,1.8,0.9,2.3s2,0.2,3,0.4c0.5,0.1,1.2-0.2,1.5,0.7
	c0.5,1.5,1.7,2,3.1,2.2c-0.6,1.1-1.1,2.2-1.6,3.3l0,0l0,0c1.6-0.7,3.2-1.4,4.8-1.9c0.7-0.2,1.6-1.3,2.2,0.3c0.1,0.4,0.9,0,1.3,0
	c1.4-0.1,2.8-0.3,4.2-0.2c-2.1,1.6-4.3,2.9-7,1.9c-1-0.4-1.8,0-2.6,0.7c-1.7,1.4-2,1.3-3-0.8c0,0,0,0-0.1,0c0,0,0,0,0-0.1
	c-0.6-0.4-1.2-0.8-1.1,0.6c0.1,0.6,0.1,1.4-0.6,1.6c-0.6,0.2-0.8-0.6-1.2-1c-0.9-1-1.7-1.9-2.8-2.6c-0.5,0.5,0.5,1.3-0.3,1.6
	c-0.6,0.2-0.9-0.5-1.4-0.7c-0.8-0.4-1.8-2-2.4,0.3c-0.1,0.5-0.7,0.1-1-0.1c-1.6-1-3.4-1.7-3.8-3.9c-0.1-0.6-0.4-1.1-1.1-1
	c-0.6,0.1-1.3,0.1-1.7,0.6c-0.3,0.4-0.1,0.8,0.2,1.1c2.3,1.7,3.4,4.1,4.5,6.8h-2.8c3.6,1.1,6.6,3.9,10.7,3.1
	c0.9-0.2,1.7,0.3,2.6,0.5c0.5,0.1,1.6-0.2,1.3,0.7c-0.2,0.8-1.2,1-1.9,0.5c-1.6-1.1-3.3-0.9-4.9-0.3c-1.8,0.6-3.5,0.2-5.2-0.4
	c-0.4-0.2-0.9-0.9-1.4-0.2c-0.3,0.5-0.3,1.2,0.1,1.8c0.3,0.6,0.9,0.9,1.5,0.9c0.7,0,1.1,0.4,1.3,1.1c0.1,0.7-0.3,1.1-0.9,1.5
	c-0.3,0.2-0.8,0.2-0.7,0.8c1.1,0,2.2-0.9,3.2-0.3c1.8,1.1,3.4,0.4,5-0.3c1.2-0.6,2-0.4,3,0.4c0.7,0.6,1.5,1.6,2.3,1.2
	c2.3-1.3,4.4,1.1,6.8-0.4c-0.5,3-2.5,3.1-4.4,3.2c-0.8,0-1.1,0.1-0.9,1c0.1,0.6,0.8,1.5-0.1,1.8c-0.8,0.3-1.2-0.7-1.7-1.2
	c-0.3-0.3-0.5-0.6-0.8-0.9c-0.7-0.9-1.4-1.5-2.3-0.2c-0.6,0.8-1.4,0.4-2.2,0c-1.2-0.6-2.3-1.7-3.8-2.1c-0.2,1.2,1,1.9,0.7,3.1
	c-1.8-0.6-3-1.9-4.3-3c-1.1-1-2.1-2-3.2-2.9c-0.6-0.5-1.2-0.6-1.2,0.5c0.1,1.5-0.6,2.3-1.8,2.9c-1.1,0.6-1.1,1.3-0.4,2.3
	c1.1,1.6,1.8,3.5,2.6,5.7c-1.8-0.9-2.9-2-4-3.1c-1.7-1.7-3.2-1.6-4.4,0.3c-0.4,0.6-1.6,1.3-0.6,2s0.6,1.1,0,1.7
	c-0.5,0.5-1.2,1-1.2,1.9c0.6,0.3,1.1,0,1.6,0c1.1-0.1,2.3-0.4,2,1.4c-0.1,0.9,0.6,1.1,1.4,1c0.5,0,1.2-0.5,1.6,0.1
	c-0.1,0.7-0.9,0.9-0.8,1.8c2.8-1.1,5.7,0.8,8.5-0.5c0.2-0.1,0.5,0,1,0.1c-1.5,1.3-3.4,1.3-4.8,2.5c1.4,0.6,2.1-0.6,3.2-0.9
	c0.1,1.6,1,2.9,1.6,4.3c-1.5,0.1-2.7,0.3-3.9,0.9c-1.3,0.6-1.9,1.6-1.4,2.7c0.6,1.2,1.8,1.2,3,0.5c0.4-0.2,0.8-0.6,1.3-0.4
	c0.6,0.2,1.1,0.7,0.9,1.4c-0.2,0.8-1,0.8-1.7,0.7c-1.7-0.2-3.3,0.1-4.8,1.5c0.6,0,0.9,0.1,1.2,0.1c1.6-0.3,3-0.5,3.7,1.6
	c0.3,1,1.3,0.6,1.8-0.1c0.8-1.1,1.8-1.1,2.9-1c0.8,0.1,1.4,0.6,0.5,1.1c-1.2,0.8-0.4,1.4-0.2,2.1c0.4,1.5,1.8,0.8,2.5,1.4
	c0.8,0.7,1,0.4,1.7-0.5c0.8-1,2.7-1,4.1-1.5c0,0.1,0.1,0.3,0.1,0.4c0.9,1.4,2.3,1.5,3.7,1.1c0.5-0.2,1.1-0.5,1.5,0
	c0.7,0.9,1.6,1.4,2.4,2.2c-5.2,0.4-10.3,2.3-15.6-0.4c0.1,0.7,0.2,1,0.2,1.3c0.1,0.7,0.4,1.5-0.2,1.9c-0.8,0.5-1.2-0.3-1.7-0.7
	c-0.7-0.6-1.3-0.7-2-0.1c-1.4,1.2-1.8,0.3-2.2-0.9c-0.8-2.2-1.8-4.3-3.6-5.9c-0.8,1.8-0.8,1.8-3.1,1.2c-0.5,0.6,0,1.5-0.8,2
	c-0.5-0.6-0.8-1.3-1.4-1.7c-1-0.8-2.4-1-3.1,0.1c-0.8,1.3-2.1,2.9,0.1,4.3c0.2,0.1,0.5,0.5,0.1,0.9c-1.2-0.8-2.2-2.1-3.7-2.4
	c-0.6-0.2-1.7,0-1.5,0.3c1.1,1.7-3.4,3.6,0.3,5c0.1,0,0,0.5-0.1,0.8c-0.5,1-0.3,1.5,0.9,1.4c1.3-0.2,1.6,0.6,1.2,1.6
	c-0.7,2.1,0.2,2.4,2,2c0.5-0.1,1.4-0.6,1.2,0.6c-0.1,0.7-1.2,1.9,0.9,1.5c0.5-0.1,0.7,1.6,1.8,1.3c0.8-0.2,1.5-0.7,2.2-1
	c0.6-0.3,1.5-0.6,1.9-0.1c0.6,0.6-0.4,1-0.7,1.5c-0.2,0.4-0.7,0.8-0.3,1.3s0.9,0,1.3-0.1c1.1-0.5,2.2-1.2,3.3-1.5
	c0.5-0.2,2.2-1.8,1.6,0.8c-0.1,0.5,0.5,0.6,0.8,0.7c1,0.3,1.4,1,1.4,2.1c-3.4,0-6.7-1.2-10.3-0.8c2.5,1.2,3.5,3,2.8,5.7
	c-0.2,0.9,0.6,0.6,1.1,0.3c1.1-0.8,2.2-1.6,3.3-2.5c0.4-0.4,0.7-1,1.2-0.4s-0.3,0.8-0.6,1.2c-1.4,1.6-2.8,3.2-3.7,5.2
	c1-0.8,2.3,0.4,2.9-0.1c1.3-1.4,2.3-0.4,3.5,0.1c0.1-0.5,0.2-0.9,0.4-1.2c0.1-0.4-0.1-0.9,0.4-1.2c1.8,2.1,1.9,2.2,2.8-0.3
	c0.6-1.5,1.9-0.6,2.8-1.1c0.3-0.2,0.7,0.1,0.6,0.5c-0.1,1,0.4,1.8,0.8,2.7c0.4,0.8,0.1,1.5-0.8,1.7c-2.4,0.5-4.7,1.1-7.1,1.5
	c-3,0.5-5.4,1.3-6.4,4.5c-0.4,1.1-1,1.8-1.8,0.3c-0.5-0.9-1.1-1.2-2-0.6c-1.5,1.1-2.2,0.4-2.6-1c-0.2-0.5-0.5-1-0.8-1.4
	c-0.5-0.6-1.3-2.4-1.7,0.1c-0.1,0.7-0.8,0.7-1.3,0.6c-0.6-0.1-1.2-0.3-2.1-0.5c0.4,0.5,0.8,1,0.8,1c-1.7,1.5-0.1,1.7,0.9,2.3
	c0.4,0.2,1,0.6,0.8,1.1c-0.3,0.7-0.9,0.2-1.4,0.1c-1.7-0.4-3.2-1.3-5.4-0.8c0.9,1,1.8,1.6,2.3,2.5c0.8,1.3-1.3,1.4-1.2,2.6
	c2.9-0.5,3-0.6,3.5-0.1c0.9,0.9,1.8,0.6,2.8,0.3c2.2-0.8,2.4-0.7,2.3,1.6c-0.1,1.6,0.8,1.4,1.7,1.3c0.7-0.1,1.2-0.5,1.9-0.8
	c0.6-0.2,1.4-0.9,1.7-0.5c1.4,1.9,1.6-0.1,2.3-0.6c0.4-0.3,0.6-1,1.3-0.5c0.3,0.8-0.8,1.3-0.4,2.3c2.1-1.1,2.9-0.2,3,1.9
	c0,0.4,0.5,1.1,0.9,0.8c1.4-1.1,3.5-0.6,4.5-2.1c0.9-1.3,2.1-1.6,3.4-1.9c1-0.2,2.3,0.2,2.6-1.4c0.1-0.6,0.7-0.2,0.9,0.2
	c0.3,0.4,0.7,0.9,1,1.3s0.8,0.7,0.5,1.2c-0.3,0.6-0.9,0.5-1.4,0.4c-0.8-0.1-1.7-0.9-2.3-0.2c-0.7,0.8,0.3,1.6,0.5,2.4
	c0.1,0.2,0.1,0.5,0.1,0.9c-1.3-0.1-2.4-0.2-3.6-0.2c-0.8,0-1.6,0.1-2,0.8c-0.4,0.7,1.1,0.4,0.8,1.6c-2.4-0.9-5.3,1.5-7.5-1.4
	c-0.5-0.7-2-0.8-2.1-0.1c-0.2,2.2-1.8,1.8-3.3,2c1.5,1.3,3.2,1.1,4.6,1.8c-0.4,0.9-1.9,0.1-1.8,1c0,1,1.1,1.3,1.9,1.7
	c0.8,0.4,1.8,0.5,2.4,1.2c-0.9,1.1-1.8-0.2-2.6,0.4c0.3,0.8,0.7,2.4,0.2,2.3c-1.3-0.3-2.5,1-3.7-0.1s-2.8-0.9-4.3-1
	c-1,0-2.5,0.2-1.9,1.5c0.4,1-0.9,3.9,2.2,2.8c0.4-0.1,1-0.4,1.3,0.1s-0.3,0.8-0.5,1.2c-0.9,1.1-0.5,2.5,0.1,3.3
	c0.4,0.6,1.3,1.6,2.1,1.7c1.2,0.1,0.8-1.5,1.4-2.2c0.2-0.3,0.4-0.5,0.7-0.7c1.4-0.9,3-0.9,4.5-1.2c1.3-0.3,2.5-0.2,3.4-1.5
	c0.6-1,2.4-0.7,2.9,0.4c0.3,0.6,0,2,1.1,1.8c0.8-0.2,0.6-1.4,0.7-2.2c0-0.2-0.1-0.6,0.3-0.7c0.7,0.2,0.9,1.6,1.9,1.2
	c0.9-0.4,0.6-1.4,0.6-2.2c-0.1-1.1,0.8-0.9,1.4-0.8c1,0.1,2,0.4,2.5-0.8c0.8-1.9,2.6-2.3,4.6-3.3c-0.4,0.8-0.6,1.1-0.7,1.5
	c-1.9,3.8-5.7,5.5-8.9,7.9c-1.4,1.1-3,1.6-4.8,1.3c-1.4-0.2-2.8-0.3-4.3-0.2c-2.8,0.3-3.9,1-4.9,3.5c-0.1,0.2-0.3,0.3-0.4,0.4
	c-2.3,0.6-4.4,1.6-6.5,2.7c-2,1-3.8,2.4-6,2.9c-0.4,0.1-0.9,0.6-0.8,1.3c1.5,0.1,1.5,0.1,1.5,1.3c0.6-0.4,1.3-0.8,1.9-1.1
	c0.3-0.2,1,0,0.9,0.1c-1,2.1,1.2,1.1,1.6,1.8c0.4,0.6-1.3,1.3-0.1,1.7c0.8,0.3,0.6,0.4,0.2,0.9c-0.9,0.9-1.9,1.6-3,2.2
	c-1.8,1-3.6,1.9-5.4,2.9c2.1-0.4,4.1-0.4,6.1,0.1c0.5,0.1,1.2-0.1,1.5-0.4c0.9-0.9,1.6-0.3,2.4,0.1c0.6,0.3,0.8,1.1,1.7,1
	c0.1-0.6,0.3-1.2,0.4-1.8c0.1-0.7,0.3-1,1-0.9c1.3,0.2,3.2,1.3,2.9-1.5c0,0,0.1-0.1,0.2-0.1c2-0.6,1.1-1.5,0.3-2.5
	c-0.2-0.3-0.5-0.5-0.4-0.9c0.2-0.4,0.7-0.4,1.1-0.3c0.7,0,1.2,0.4,1.5,1c0.5,0.9,0.9,0.6,1.5,0.1c1.2-0.9,0.8-2.3,1.2-3.5
	c0.7,0.6,1.3,1.2,1.9,1.5c0.4,0.3,1,0.7,1.5,0.3c0.7-0.4,0.1-1-0.1-1.4c-0.4-1.2-0.5-2.2,1.3-1.9c0.2,0,0.6-0.1,0.7-0.2
	c1.3-1.2,3.3-1.6,3.5-4c0.6,1.8,1.8,2.1,3.1,2.6c1.6,0.6,1.7,0,1.6-1.2c0-0.6-0.5-1.4,0.4-1.5c1.5-0.2,1.6-1.5,2-3.3
	c0.7,1.9,1.6,1.8,2.7,1.5c1.3-0.4,0.5-1.4,0.6-2.1c0.3-1.1,0.1-2.3,1-3.8c0,3,2.2,2.1,3.7,2.8c-1.8,1.5-3.8,2.4-4.9,4.3
	c-0.2,0.3-0.9,0.6,0.1,1.3c1,0.8,3,1.3,2.6,3.2c2.1,0,2.7-1.4,2.8-3.1c0-0.1,0.1-0.4,0.2-0.4c2.1,0.7,1.5-1.7,2.4-2.4
	c1.2,1.1,1.8,2.7,3.7,3.4c-0.6-1.4-0.4-2.4,0.1-3.5c0.3-0.6,0.4-1.3,0-2c-1.2-2.3,0.3-3.7,1.8-5.2c0.1,0.2,0.2,0.3,0.2,0.4
	c-0.2,11.4-0.1,23.1-0.6,34.4c2.6-0.1,3.9-0.2,6.5-0.6c1-0.1,3.1-0.4,4-0.4c0-8.3-0.1-17.3-0.1-25.7c0-1.1-0.2-2.3,0.1-3.3
	c0.4-1.3,2-0.8,3-1.3c1.2-0.6,1.5-1,0.2-1.9c-1.2-0.8-2.1-1.8-2.7-3.6c1,0.4,1.6,0.7,2.2,0.9c3,1.3,3.2,1.6,3.2,4.9
	c0,1.2,0,2.3,0.2,3.5s0.6,3,1.8,2.8c1.1-0.2,0.1-1.9,0.1-2.9c0-0.5-0.6-1.2,0.2-1.4c0.7-0.3,1,0.5,1.3,1c0.2,0.4,0.3,0.8,0.4,1.1
	c0.3,0.9,0.4,1.9,1.7,0.9c0.8-0.6,1.6-0.1,2.1,0.7c0.4,0.7,0.8,1.4,1.1,2.2c0.5,1.1,1.1,1.4,1.7,0.1c0.3-0.7,0.7-1.5,1.6-1.2
	c0.8,0.2,0.8,1,0.7,1.7c0,0.6-0.3,1.3,0.5,1.6c0.7,0.4,1.5,0.3,2.1-0.3c0.6-0.7,1.2-0.8,1.8-0.3c2.6,2.6,6.2,2.7,9.4,3.7
	c3.2,1,6.2,3.1,9.8,1.5c0.8-0.3,1.9,0,2-1.2c0.1-1.1-0.6-1.7-1.7-1.9c-0.6-0.1-1.6-0.2-1.5-1.1c0.2-1.7-1.1-2-2.2-2.5
	c-1.5-0.7-3.5-1-4.2-2.4c-1.3-2.8-3.3-4.5-6.1-5.5c-0.1,0-0.2-0.2-0.3-0.3c-0.8-1.1-1.9-1.1-3.1-0.8c-2.4,0.6-4.8-0.6-5.8-2.9
	c-0.4-1-0.3-2,0.5-2.9c0.5-0.5,1-1.1,1.8-0.7c1,0.5,0.6,1.6,0.6,2.4c0,2.6,0.4,2.8,2.7,1.7c0.4-0.2,0.7-0.4,1.1-0.5
	c1.6-0.8,3-1.1,4.3,0.7c0.5,0.8,1.4,1.4,2.7,0.8c2.3-1,2.9-0.7,4.4,1.3c0.9,1.3,1.9,3.3,4.1,1.3c0.2-0.2,0.7-0.2,1-0.1
	c2.1,1.4,4.2,1,6.4,0.2c0.7-0.3,1.9,0.1,1.8-1.3C312.5,370.8,311.7,370.3,310.5,370.2z M300.5,322.4c-1.4,0.8-2.9,0.6-4.3,0.9
	C297.3,321.8,298.7,321.4,300.5,322.4z M232.3,291.6c-1,0.4-1.7-0.8-2.7-0.5c0,0.1,0,0.3,0,0.4c0.4,0.9,2,1.5,1.2,2.5
	c-0.9,1.1-1.9-0.2-2.8-0.7c-0.2-0.1-0.5-0.1-0.9,0.1c1.2,1.1,2.3,2.1,3.5,3.2c-0.3,0.3-0.4,0.4-0.5,0.4c-2.8-1.8-6.3-1.1-9.3-2.3
	c-1-0.4-1.1-0.8-0.5-1.3c0.5-0.6-0.3-2.7,1.6-1.6c1.4,0.8,1.8,0,2.4-0.9c0.6-1,1.2-2.8,2.2-0.1c0.2,0.5,0.6,0.5,1,0.1
	c1.3-1.4,3.9-0.8,4.9-2.9L232.3,291.6L232.3,291.6z M238.4,290.4c-0.7,0.2-1.4,0.4-2.2,0.5c-0.6,0.1-1.3,0.2-2.4,0.4
	c1.8,1.1,3.3,1.8,4.6,2.8c0.3,0.3,0.8,0.5,0.4,0.9c-0.3,0.4-0.7,0.1-1-0.1c-0.9-0.5-1.8-1-2.7-1.5c-2.4-1.3-2.7-2.9-1-5
	c0-0.1,0.1-0.1,0.1-0.2c0.2-0.2,4.9,0.3,5.1,0.6C239.8,289.9,239.1,290.2,238.4,290.4z M242.2,241.5c-1.2,0.7-2.4,0.5-3.4-0.4
	c-0.7-0.6-1.4-1.5-0.8-2.3c0.5-0.7,1.4,0,1.9,0.4c1.7,1.4,3.3,0,5.2,0.2C244.2,240.1,243.2,240.9,242.2,241.5z M272,325.8
	c-0.7-0.2-3-4.3-2.8-4.9c0.1-0.3,0.4-0.4,0.6-0.3c0.8,0.4,2,0.1,2.5,1.1c0.2,0.5,0.4,1,0.6,1.6c2.9-3.3,2.2,1.5,4,1.4
	c0.4-0.1-0.1-1,0.5-1.3c1.1,0.6,0.8,2.1,1.9,2.8c0.6-0.8,0.3-1.7,0.3-2.5c0-1.2,0.6-1.8,1.7-1.2c3.5,2.3,7.3,0.4,10.9,0.7
	c0.8,0.1,1.6-0.3,2.6,0.8c-1.4,0.2-2.5,0.5-3.5,0.5c-1.8,0.1-3.3,0.4-4.6,1.8c-0.8,0.9-2.1,1-3.2,1
	C279.5,327.7,275.8,326.7,272,325.8z"/>
</svg>
