<?xml version="1.0" encoding="utf-8"?>
<!-- Generator: Adobe Illustrator 21.0.0, SVG Export Plug-In . SVG Version: 6.00 Build 0)  -->
<svg version="1.1" id="Warstwa_1" xmlns="http://www.w3.org/2000/svg" xmlns:xlink="http://www.w3.org/1999/xlink" x="0px" y="0px"
	 viewBox="0 0 90 110" style="enable-background:new 0 0 90 110;" xml:space="preserve">
<style type="text/css">
	.st0{fill:#F7BC86;}
	.st1{fill:#F2A65A;}
	.st2{display:none;fill:#F2A65A;}
	.st3{display:none;fill:none;stroke:#F2A65A;stroke-width:2;stroke-linecap:round;stroke-linejoin:round;stroke-miterlimit:10;}
	.st4{fill:url(#SVGID_1_);}
	.st5{fill:url(#SVGID_2_);}
	.st6{fill:url(#SVGID_3_);}
	.st7{fill:none;stroke:url(#SVGID_4_);stroke-width:6;stroke-linecap:round;stroke-linejoin:round;stroke-miterlimit:10;}
	.st8{fill:#F9F8E4;}
</style>
<path class="st0" d="M78,79.2l-6.5-0.4c0,0,0.1,1.4,0.5,2.6c0.4,1.2,0.4,2.7,0.4,2.7l-6.2-2c0,0-0.3,1.4-0.2,2.6
	c0.1,1.3-0.3,2.7-0.3,2.7l-5.5-3.5c0,0-0.6,1.3-0.9,2.5c-0.2,1.3-0.9,2.6-0.9,2.6L54,84.2c0,0-0.9,1.1-1.4,2.2
	C52,87.5,51,88.6,51,88.6l-3-5.8c0,0-1.1,0.8-1.9,1.8c-0.8,1-2.1,1.7-2.1,1.7l-1.4-6.4c0,0-1.3,0.4-2.4,1.1c-1,0.8-2.4,1.2-2.4,1.2
	l0.3-6.6c0,0-1.5,0-2.6,0.5s-2.7,0.5-2.7,0.5l2-6.2c0,0-1.4-0.4-2.7-0.2c-1.2,0.2-2.7-0.2-2.7-0.2l3.6-5.5c0,0-1.3-0.8-2.5-1.1
	c-1.2-0.1-2.5-0.8-2.5-0.8l4.8-4.3c0,0-1-1.2-2.2-1.6c-1.2-0.5-2.2-1.5-2.2-1.5l5.8-2.8c0,0-0.7-1.4-1.7-2.2c-1-0.7-1.8-2.1-1.8-2.1
	l6.3-1.2c0,0-0.3-1.6-0.9-2.7c-0.8-0.9-1.3-2.3-1.3-2.3l6.3,0.5c0,0,0.2-1.6-0.3-2.8c-0.5-1.1-0.5-2.7-0.5-2.7l6,2.1
	c0,0,0.6-1.5,0.5-2.8c-0.2-1.2,0.2-2.7,0.2-2.7l5.2,3.6c0,0,1-1.3,1.4-2.6c0.1-1.2,0.8-2.6,0.8-2.6l4,4.8c0,0,1.3-1,1.8-2.2
	c0.5-1.2,1.6-2.2,1.6-2.2l2.6,5.7c0,0,1.6-0.6,2.3-1.6c0.8-1,2.1-1.7,2.1-1.7l1.1,6.2c0,0,1.6-0.2,2.8-0.9c1-0.8,2.4-1.2,2.4-1.2
	l-0.6,6.3c0,0,1.6,0.2,2.8-0.3c1.2-0.4,2.7-0.4,2.7-0.4l-2.1,5.9c0,0,1.5,0.6,2.8,0.4s2.7,0.3,2.7,0.3l-3.6,5.2c0,0,1.3,0.9,2.6,1.2
	c1.3,0.2,2.6,0.9,2.6,0.9L80,62.6c0,0,1,1.1,2.2,1.7c1.1,0.5,2.2,1.6,2.2,1.6l-5.8,2.8c0,0,0.7,1.3,1.7,2.1c1,0.8,1.7,2.1,1.7,2.1
	l-6.3,1.3c0,0,0.4,1.4,1.1,2.5C77.5,77.7,78,79.2,78,79.2z"/>
<ellipse transform="matrix(0.7087 -0.7055 0.7055 0.7087 -26.2816 57.343)" class="st1" cx="56.3" cy="60.5" rx="21.6" ry="21.6"/>
<ellipse transform="matrix(0.7087 -0.7055 0.7055 0.7087 -13.9152 33.5762)" class="st2" cx="33.7" cy="33.6" rx="6" ry="6"/>
<line class="st3" x1="19.7" y1="47.6" x2="25.1" y2="42.2"/>
<line class="st3" x1="42.3" y1="25.1" x2="47.8" y2="19.7"/>
<line class="st3" x1="19.7" y1="19.6" x2="25.2" y2="25.1"/>
<line class="st3" x1="42.2" y1="42.2" x2="47.7" y2="47.7"/>
<line class="st3" x1="17.7" y1="33.6" x2="24" y2="33.6"/>
<line class="st3" x1="43.4" y1="33.7" x2="49.7" y2="33.7"/>
<line class="st3" x1="33.7" y1="17.7" x2="33.7" y2="23.9"/>
<line class="st3" x1="33.7" y1="43.4" x2="33.7" y2="49.6"/>
<linearGradient id="SVGID_1_" gradientUnits="userSpaceOnUse" x1="42.6603" y1="40.3333" x2="42.6603" y2="99.4183">
	<stop  offset="0.5025" style="stop-color:#6A1400"/>
	<stop  offset="0.8995" style="stop-color:#772F1A"/>
</linearGradient>
<path class="st4" d="M8,98l16.4-37.2c3.8-6.2,7.3-6.8,10.6,0l2.1,3.6c0,0,3.2,6.4,6.4,0c3.2-6.4,6.4-13.6,6.4-13.6
	c4.5-8.4,8.8-9,12.8,0L77.3,98H8z"/>
<linearGradient id="SVGID_2_" gradientUnits="userSpaceOnUse" x1="24.0494" y1="40.3333" x2="24.0494" y2="99.4183">
	<stop  offset="0.4925" style="stop-color:#AA2F00"/>
	<stop  offset="0.8995" style="stop-color:#772F1A"/>
</linearGradient>
<path class="st5" d="M7.2,98l9.4-22.3c4.3-8.5,11.7-8.5,16,0c6.4,17,8.4,22.3,8.4,22.3H7.2z"/>
<linearGradient id="SVGID_3_" gradientUnits="userSpaceOnUse" x1="60.7394" y1="40.3333" x2="60.7394" y2="99.4183">
	<stop  offset="0.4925" style="stop-color:#AA2F00"/>
	<stop  offset="0.8995" style="stop-color:#772F1A"/>
</linearGradient>
<path class="st6" d="M36.5,98l11.3-26.7c7.4-15.8,23.4-14.8,28.7,0C78.6,77.8,85,98,85,98H36.5z"/>
<linearGradient id="SVGID_4_" gradientUnits="userSpaceOnUse" x1="45.5" y1="101" x2="45.5" y2="95">
	<stop  offset="0" style="stop-color:#F2A65A"/>
	<stop  offset="0.7588" style="stop-color:#772F1A"/>
</linearGradient>
<line class="st7" x1="8" y1="98" x2="83" y2="98"/>
<path class="st8" d="M14.5,77.8c0.4-1.1,1.8-4,2.8-5.4s2.5-2.7,3.2-3.1c0.7-0.4,2.6-1.4,5-1.1c2.4,0.4,3.8,1.9,5,3.2
	c0.5,0.5,4.1,4.3,3,6.4c-0.5,1-2.1,1.5-3,1.1c-0.4-0.2-0.4-0.5-1-1.1c-0.2-0.2-1-0.9-2-1.1c-0.6-0.1-1.8-0.4-3,1.1
	c-1.2,1.4-2.6,1.2-3,1.1c-1.1-0.4-1-1.9-2-2.1c-0.7-0.1-1.3,0.4-2,1.1c-1.3,1.1-1,2.1-2,2.1C14.5,79.9,14.1,78.9,14.5,77.8z"/>
<path class="st8" d="M46.8,71.2c-0.3-1.3,0.9-3.2,2-4.7c2-2.8,5.1-5.6,5.7-6c4.8-3,9.8-2.2,10.6-2.1c4.8,0.8,8.2,3.1,10.4,6.9
	c1.4,2.4,2.1,4.7,2,5.3C77,71.5,76.6,72,75.8,72c-0.9,0-1.1-1-2.7-2.1c-0.7-0.4-1.8-1.1-3.1-0.9c-1,0.2-1,0.9-2.2,1.5
	c-0.1,0-2.3,1.1-4,0.2c-1.1-0.6-0.8-1.4-2-2.1c-1.2-0.7-3.1-0.6-4.2,0.3c-0.7,0.6-0.6,1.1-1.4,1.5c-0.1,0.1-1.3,0.8-2.4,0.3
	c-1-0.5-0.9-1.5-1.8-1.7c-0.7-0.2-1.4,0.5-2.3,1.3c-1.1,0.9-1.2,1.5-1.8,1.5C47.4,71.9,46.9,71.8,46.8,71.2z"/>
<path class="st8" d="M48.7,52.2c-0.3-0.5,0.2-1.9,1.1-3.6c0.8-1.7,1.7-3.3,2.4-4.2c0.7-0.9,1.5-2.1,2.7-2.6c0.4-0.2,1.3-0.5,2.3-0.3
	c1.4,0.2,2.4,0.8,3.1,1.9c0.7,1,1.6,2.7,2.2,3.9c0.5,1.2,1.4,4.1,1.4,4.9s-0.2,0.9-0.3,1s-0.4,0.1-0.7-0.1c-0.3-0.3-0.2-0.5-0.6-0.8
	C62,52,61.5,52,61.4,52c-0.4,0-0.7,0.3-0.9,0.5c-0.4,0.4-0.4,0.6-0.7,0.7c-0.4,0.2-1-0.2-1.1-0.3c-0.4-0.3-0.6-0.7-0.9-1.2
	c-0.3-0.6-0.3-0.8-0.5-1c-0.3-0.2-0.8-0.4-1.1-0.2c-0.2,0.1-0.4,0.3-0.6,0.8c-0.3,0.5-0.3,0.6-0.5,0.9c-0.2,0.3-0.4,0.6-0.7,0.6
	c-0.4,0.1-0.9-0.3-1.1-0.7c-0.1-0.3,0-0.3-0.2-1c-0.1-0.5-0.2-0.8-0.4-0.9c-0.2-0.1-0.5,0-0.7,0.2c-0.3,0.3-0.1,0.6-0.4,1.1
	c-0.2,0.4-0.6,0.7-0.8,0.8c-0.3,0.2-0.5,0.3-0.8,0.4C49.3,52.7,49,52.6,48.7,52.2z"/>
<path class="st8" d="M23.9,60.7c0.7-1.5,1.2-2.4,1.6-2.9c0.4-0.6,1.5-2.1,2.3-2.6c0.5-0.3,1.4-0.8,2.6-0.6c1.1,0.2,1.8,0.9,2.4,1.4
	c0.7,0.7,1.4,2,1.6,2.4s0.8,1.6,0.9,1.9c0.1,0.3,0.5,1.5,0.5,1.8c0,0.3-0.2,0.4-0.5,0.4c-0.2,0-0.4-0.1-0.5-0.3
	c-0.3-0.4-0.3-0.8-0.6-1c-0.2-0.2-0.5-0.1-0.8,0c-0.2,0.1-0.2,0.5-0.5,0.9c-0.2,0.2-0.6,0.3-0.8,0.2c-0.2-0.1-0.4-0.3-0.4-0.7
	s-0.4-0.5-0.7-0.5c-0.2,0-0.4,0.1-0.5,0.3s-0.3,0.5-0.4,0.7c-0.1,0.2-0.5,0.3-0.9,0.3c-0.4,0-0.8-0.5-0.7-0.9
	c0.1-0.4-0.2-0.7-0.4-0.9c-0.3-0.2-0.8-0.1-1,0.2c-0.2,0.3-0.2,0.7-0.3,1c-0.1,0.3-0.3,0.8-0.7,0.6c-0.4-0.2-0.6-0.5-0.6-0.8
	s-0.4-0.4-0.5-0.2c-0.1,0.2-0.2,0.4-0.6,0.6c-0.3,0.2-0.5,0.2-0.7,0.1S23.8,61.2,23.9,60.7z"/>
</svg>
