<?xml version="1.0" encoding="utf-8"?>
<!-- Generator: Adobe Illustrator 21.0.0, SVG Export Plug-In . SVG Version: 6.00 Build 0)  -->
<svg version="1.1" id="Warstwa_1" xmlns="http://www.w3.org/2000/svg" xmlns:xlink="http://www.w3.org/1999/xlink" x="0px" y="0px"
	 viewBox="0 0 500 110" style="enable-background:new 0 0 500 110;" xml:space="preserve">
<style type="text/css">
	.st0{fill:#;}
	.st1{fill:url(#SVGID_1_);stroke:url(#SVGID_2_);stroke-width:6;stroke-linecap:round;stroke-linejoin:round;stroke-miterlimit:10;}
</style>
<path class="st0" d="M230.2,73.8c-0.5,1.3-1.3,2.5-1,4c0.2,1-0.1,2-0.4,2.9c-0.9,2.5-1.5,5.1-2.3,7.7c-0.2,0.8-0.1,1.7-0.2,2.6
	c0,0.4,0.2,0.6,0.5,0.8c0.7,0.5,1.6,0.7,2.5,0.8c0.7,0.1,1.2,0.3,1.3,1c0.2,1.2,0,1.4-1.1,1.6c-1.2,0.2-2.4,0.6-3.6,0.6
	c-1.4,0-2.8,0.5-4.2,0.2c-0.6-0.1-1-0.4-1-1.1c0-1.2-0.5-2.5-0.2-3.7c0.1-0.4-0.1-0.7-0.3-1c-0.7-1.1-1-2.3-1.1-3.6
	c0-0.1,0-0.3,0-0.4c-0.8-1.8-0.5-3.6-0.1-5.5c0.4-1.9,0.2-1.9-1.6-1.9c-0.8,0-1.6,0.3-2.3,0.8c-0.5,0.3-0.9,0.6-1.4,0.7
	c-0.5,0.1-0.5,0.3-0.4,0.7c0.1,0.4,0.2,0.7,0.4,1c0.2,0.4,0.5,0.8,0.5,1.2c0,1.2,0.6,2.2,1.3,3.1c1,1.2,1.1,2.6,0.8,4.1
	c-0.1,0.4-0.3,0.7-0.6,1.1c-0.9,1.3-1.9,2.4-2.3,4c-0.2,0.8-0.8,1.1-1.6,1c-0.5,0-1.1-0.1-1.6-0.2c-0.6-0.1-0.8-0.7-0.7-1.1
	c0.2-1.1-0.3-2.1-0.2-3.2c0.1-0.9-0.3-1.8-1-2.3c-1.3-1-2.4-2.4-3.5-3.6c-0.5-0.5-0.8-1.1-1.1-1.7c-0.3-0.6-0.8-0.8-1.4-0.5
	c-0.4,0.2-0.8,0.3-1.1,0.5c-0.5,0.2-1,0.3-1.5,0c-0.6-0.3-0.9-0.1-0.9,0.6c0,1.3,0.2,2.6,0.7,3.8c0.4,0.9,0.5,1.9,1.1,2.6
	c0.7,0.8,1.1,0.9,2,0.2c0.6-0.5,2.6-0.6,3.2-0.2c0.1,0.1,0.2,0.2,0.2,0.2c-0.2,0.5-0.1,0.9-0.1,1.4c0,0.6-0.4,0.8-0.9,1.1
	c-0.5,0.3-0.8,0.8-1.1,1.3c-0.9,1.3-2.1,1.8-3.6,2.3c-1.9,0.6-3.4-0.1-5.1-0.8c-0.5-0.2-0.8-0.5-0.9-1c-0.4-1.6-1.5-2.8-2.5-4.1
	c-1.3-1.6-2.7-3.1-4-4.6c-0.4-0.5-0.9-0.3-1.2,0.1c-1,1.3-2.3,2.3-3.3,3.6c-0.3,0.5-0.6,0.9-1,1.4c-0.4,0.6-0.3,1.1,0.4,1.3
	c0.7,0.2,1.5,0.3,2.2,0.5c0.7,0.2,1.2,0.8,1.2,1.5c0,0.2-0.1,0.4-0.3,0.5c-1.4,0.4-2.7,1.2-4.3,0.9c-0.6-0.1-1.2,0.2-1.9,0.3
	c-1.6,0.4-2.9-0.2-3.9-1.4c-0.5-0.6-1-1.1-1.6-1.5c-0.9-0.7-1.3-1.7-1-2.8c0.3-1.2,0.7-2.3,1.2-3.4c1.2-2.9,2.3-5.8,1.9-9.1
	c0-0.3,0-0.6-0.2-0.7c-1-1.3-0.7-2.9-1.3-4.3c-0.2-0.5-0.1-1.2,0.1-1.8c0.6-2.8,1.8-5.4,2.9-8c0.1-0.2,0.2-0.5,0.4-0.6
	c1.3-0.8,2.4-1.8,3.4-2.9c1.3-1.5,3-2.5,4.4-3.8c1.4-1.3,3.1-2.4,5-3.1c2.7-1,5.4-1.4,8.3-1.3c1.6,0.1,3.2,0.1,4.7,0.4
	c1.4,0.3,2.9,0.1,4.3,0c1.9-0.2,3.8,0.1,5.6-0.3c1.2-0.2,2.3-0.9,3.5-0.9c2.1-0.1,4.2-0.5,6.1,0.7c0.2,0.1,0.4,0.2,0.6,0.4
	c1.6,1.6,3.7,2.4,5.8,3c1.4,0.4,2.8,1,4,1.7c1.6,0.9,3.3,1.6,4.8,2.6c0.8,0.5,2.1,0.3,3-0.5c0.9-0.8,1.9-0.7,2.6,0.3
	c0.4,0.5,0.4,1.1,0.1,1.7c-0.4,1-1.2,1.5-2.1,1.9c-1,0.5-1,0.5-0.6,1.5c0.7,1.7,0.8,3.7,0.1,5.3c-0.7,1.7-0.2,2.9,0.4,4.3
	c0.7,1.6,0.9,3.1,0.1,4.7c-0.3,0.7-0.8,1-1.6,0.9c-0.9-0.1-1.7-0.3-2.4-0.8c-0.8-0.6-1.7-1-2.5-1.5c-1.1-0.6-2.3-1.3-3.2-2.2
	c-0.3-0.3-0.7-0.6-1.2-0.7C231,74.9,230.7,74.3,230.2,73.8z"/>
<path class="st0" d="M125.5,90.2c-0.5,0.8-0.9,1.6-1,2.4c-0.1,1.1,0.4,1.7,1.4,1.8c0.8,0.1,1.5,0.1,2.3,0.3c0.3,0.1,0.6,0.1,0.6,0.4
	c0,0.4-0.3,0.5-0.5,0.6c-0.2,0.1-0.5,0.2-0.7,0.2c-2,0.1-3.9,0.2-5.9,0c-0.7-0.1-1.3-0.4-1.6-1.1c-0.5-1.2-1.3-2.2-2.1-3.2
	c-0.9-1.1-1.4-2.3-0.9-3.7c0.2-0.7,0.2-1.5,0.3-2.3c0.1-1.1,0.3-2.1,0.8-3c0.4-0.8,0.4-1.7,0.5-2.6c0-0.6-0.1-0.8-0.7-0.6
	c-1.1,0.4-2.2,0.8-3.3,1.2c-2.1,0.7-4.3,1-6.6,1c-1.1,0-2.3,0-3.4-0.1c-0.9-0.1-1.3,0.3-1.6,1.1c-0.3,0.8-0.5,1.6-0.6,2.5
	c-0.1,2.3-0.4,4.6-1.2,6.9c-0.2,0.5-0.2,1-0.3,1.4c-0.2,1.1,0.1,1.5,1.2,1.7c0.8,0.2,1.5,0,2.3,0.1c0.5,0.1,1.3-0.1,1.4,0.7
	c0,0.8-0.6,1-1.3,1.1c-2.3,0.4-4.7,0.2-7,0.3c-0.5,0-1.1,0.1-1.6,0c-2-0.4-3.5-2.6-3.1-4.7c0.5-2.5,0-4.9-0.9-7.2
	c-0.2-0.4-0.4-0.5-0.7-0.2c-2,1.8-4.3,3.5-6.5,5.1c-1.1,0.8-2,1.8-1.8,3.3c0.1,0.7,0.3,1.1,1,1.1c0.5,0,1.1,0.1,1.6,0.2
	c0.3,0,0.6,0.2,0.7,0.5c0,0.3-0.2,0.6-0.5,0.7c-1.5,0.3-3.1,0.6-4.6-0.1c-0.3-0.1-0.5-0.4-0.7-0.7c-1-1.4-1.9-2.9-2.9-4.3
	c-0.8-1-0.9-2.3,0.3-3.3c0.4-0.4,0.8-0.8,1-1.3c1.8-3.4,3.3-6.9,3.6-10.8c0.2-1.8-0.1-3.6-0.3-5.4c-0.1-1.3-0.2-2.6-0.1-3.9
	c0-0.4,0-0.6-0.5-0.8c-1.9-0.6-2.3-2.1-1.2-3.7c0.6-0.9,1.4-1.5,2.3-2.1c1.5-1,3-2.1,4.2-3.5c2.7-3,6.3-4.2,10.2-4.7
	c4.4-0.5,8.7,0.3,12.8,1.8c3.5,1.3,7,1.7,10.6,1.3c4.4-0.5,8.7-0.7,13.1-0.6c2.4,0,4.8,0,7.2,0c0.5,0,0.8-0.1,1.1-0.6
	c0.5-0.8,1.2-1.4,2-1.8c1-0.5,1.5-0.3,1.8,0.7c0.2,0.6,0.1,1.3,0.2,1.9c0,0.4,0.1,0.6,0.5,0.7c2.9,0.9,5.2,2.7,7.1,5
	c1.1,1.4,2.4,2.6,3.8,3.7c1.4,1.1,1.3,1.4,0.2,2.8c-1.2,1.5-2.7,2-4.5,1.9c-0.3,0-0.6,0-0.8,0.1c-1.4,0.8-2.9,0.9-4.4,0.7
	c-2.9-0.4-5.4,0.5-7.6,2.4c-0.7,0.6-1.5,1.1-2.3,1.7c-1.5,0.9-2.3,2.3-2.4,4c-0.2,1.8-0.5,3.5-1.3,5.2c-0.2,0.4-0.3,0.8-0.2,1.3
	c0.6,2.9,0.9,5.9,1.3,8.8c0.1,0.4,0.1,0.8,0.2,1.1c0.2,0.5,0.5,0.9,1,0.9c1.5,0.2,3,0.4,4.5,0.6c0.5,0.1,1.3,0,1.3,0.6
	c0,0.8-0.8,0.6-1.3,0.7c-2.8,0.2-5.5,0.6-8.3,0.3c-1.1-0.1-1.7-0.7-1.9-1.7c-0.3-1.1-1-1.7-2.1-1.8c-1.2-0.1-1.9-0.8-2.3-1.9
	C126,91.1,125.8,90.7,125.5,90.2z"/>
<path class="st0" d="M316.4,67.9c-0.6,0-0.7,0.4-1,0.7c-5.7,6.4-12.1,11.9-19.1,16.8c-1.3,0.9-2.5,1.8-3.6,2.9c-1.8,1.8-2,3.8-0.9,6
	c0.2,0.4,0.4,0.8,0.6,1.2c1.2,2.4,0.5,3.5-2.1,3.4c-6-0.2-11.3-8-8.5-13.1c5.6-10.4,8.3-21.7,11.5-32.9c1.8-6.3,3.7-12.5,7.4-18
	c7.1-10.5,17.2-15.9,29.5-17.7c6.6-1,13.1-1,19.6,0.1c9.4,1.6,18.7,1.3,27.9-1.2c5.7-1.5,11.2-0.7,16.4,1.9c2.9,1.5,5.8,2.1,8.9,2.1
	c4.3,0,8.5,0.7,12.6,1.9c1.8,0.5,3.6,0.6,5.3-0.1c1.2-0.5,1.9-0.2,1.7,1.2c-0.4,2.2,0.5,3.9,1.9,5.5c3.1,3.6,5,7.8,5.6,12.5
	c0.3,2.3,1.1,4.4,2.5,6.2c1.5,2.1,3.1,4.2,4.6,6.3c1.1,1.5,0.8,2.5-1,2.9c-1.7,0.4-3,1.4-4.3,2.4c-1.1,0.9-2.4,1.2-3.7,0.7
	c-4.5-1.6-9.2-2.6-13.3-5.7c-3.4-2.6-8-2.8-12.3-2.1c-1.8,0.3-2.7,1.7-3,3.3c-0.9,4.7-0.4,9.5,2.4,13.3c4.1,5.6,7.8,13.8,12.9,18.6
	c1.7,1.6,3.7,2.8,6.2,2.8c0.9,0,1.9,0.3,2.7,0.8c1.1,0.7,1.8,1.7,1.6,3c-0.2,1.3-1.1,2-2.4,2.2c-1.2,0.2-2.4,0.3-3.6,0.3
	c-2.8,0-5.5-0.1-8.3-0.1c-2.7,0-5.1-0.8-6.9-2.7C400.5,89.6,399,86,394,84c-4-2-8.7-4.6-10.4-8.3c-1.3-2.8-2.8-5.5-4.2-8.3
	c-0.4-0.7-0.6-1.1-1.4-0.3c-5.7,5.6-9.6,12.2-10.6,20.3c-0.1,0.6-0.1,1.2-0.2,1.8c-0.2,3.3,0,3.5,3.2,4.2c0.9,0.2,1.8,0.5,2.5,1.2
	c1.3,1.5,0.9,3.2-1,3.7c-3.5,0.8-7,0.9-10.5,0c-2.7-0.7-4.4-2.5-5.3-5c-1.2-3.2-1.6-6.5-1.7-9.9c-0.1-4.3-0.1-8.5,0.3-12.8
	c0.1-1.3-0.1-1.7-1.5-1.3c-4.2,1.1-8.4,1.9-12.8,1.6c-0.9-0.1-1,0.3-0.9,1c0.3,2.4,0.7,4.7,0.7,7.1c0,3.7-0.9,7.1-2.7,10.3
	c-1.4,2.4-0.8,4,1.7,4.9c0.6,0.2,1.2,0.4,1.6,0.8c1.2,1.1,0.9,2.9-0.6,3.3c-4.3,1.1-8.6,1-12.8-0.7c-0.9-0.4-1.3-1.2-1.6-2.2
	c-0.4-1.7-0.5-3.5-0.5-5.3c-0.1-5.7-2.2-10.6-5-15.4C319,72.4,317.2,70.4,316.4,67.9z"/>
<linearGradient id="SVGID_1_" gradientUnits="userSpaceOnUse" x1="25" y1="98" x2="475" y2="98">
	<stop  offset="0" style="stop-color:#FFFFFF"/>
	<stop  offset="1" style="stop-color:#000000"/>
</linearGradient>
<linearGradient id="SVGID_2_" gradientUnits="userSpaceOnUse" x1="250" y1="95" x2="250" y2="101">
	<stop  offset="0.2513" style="stop-color:#772F1A"/>
	<stop  offset="1" style="stop-color:#F2A65A"/>
</linearGradient>
<line class="st1" x1="25" y1="98" x2="475" y2="98"/>
</svg>
