<?xml version="1.0" standalone="yes"?>
<svg xmlns="http://www.w3.org/2000/svg" width="512" height="512">
<path style="fill:#000000; stroke:none;" d="M0 0L0 512L512 512L512 0L0 0z"/>
<path style="fill:#307dba; stroke:none;" d="M69 10.4252C37.434 14.724 13.2235 39.0406 10.1698 71C7.79458 95.8577 11.5934 121.18 10.9853 146C10.4146 169.297 9.72583 192.627 10.0039 216C10.0796 222.363 11.0723 228.597 10.9961 235C10.5004 276.676 10 318.339 10 360C10 378.333 11.2133 396.742 10.9961 415C10.745 436.11 8.52674 455.659 21.7855 474C33.6265 490.38 51.8799 500.531 72 501.91C80.7639 502.511 89.3034 501.107 98 501.004C109.337 500.869 120.625 502 132 502C181.054 502 229.98 501.237 279 501.001C308.009 500.861 336.953 502.311 366 501.039C393.629 499.83 422.54 505.808 450 500.539C478.853 495.003 500.693 467.942 501.961 439C502.998 415.313 500.723 391.601 501.004 368C501.86 295.999 502 223.991 502 152C502 133.999 500.791 115.928 501.004 98C501.263 76.2313 503.712 55.6501 489.475 37C477.394 21.1739 459.87 11.4515 440 10.0895C431.567 9.51147 423.367 10.8966 415 10.9962C402.678 11.1427 390.368 10 378 10C329.954 10 282.019 10.7677 234 10.9992C204.991 11.1391 176.047 9.6886 147 10.9606C121.301 12.0861 94.6729 6.92892 69 10.4252z"/>
<path style="fill:#2b71a7; stroke:none;" d="M132 10C137.715 12.3979 145.831 11 152 11C146.285 8.60202 138.169 10 132 10M222 10C227.715 12.3979 235.831 11 242 11C236.285 8.60202 228.169 10 222 10M312 10C317.715 12.398 325.831 11 332 11C326.285 8.60202 318.169 10 312 10M402 10C407.715 12.398 415.831 11 422 11C416.285 8.60202 408.169 10 402 10z"/>
<path style="fill:#1b3761; stroke:none;" d="M58 12L59 13L58 12z"/>
<path style="fill:#1a476b; stroke:none;" d="M52 14L53 15L52 14z"/>
<path style="fill:#133b59; stroke:none;" d="M40 20L41 21L40 20z"/>
<path style="fill:#18314a; stroke:none;" d="M37 22L38 23L37 22z"/>
<path style="fill:#172f46; stroke:none;" d="M479 26L480 27L479 26z"/>
<path style="fill:#123956; stroke:none;" d="M31 27L32 28L31 27z"/>
<path style="fill:#3984c0; stroke:none;" d="M135 27C141.194 29.5991 150.314 28 157 28L206 28C199.806 25.4009 190.686 27 184 27L135 27M225 27C231.194 29.5991 240.314 28 247 28L296 28C289.806 25.4009 280.686 27 274 27L225 27M315 27C321.194 29.5991 330.314 28 337 28L386 28C379.806 25.4009 370.686 27 364 27L315 27z"/>
<path style="fill:#143b59; stroke:none;" d="M480 27L481 28L480 27z"/>
<path style="fill:#1c4e72; stroke:none;" d="M30 28L31 29L30 28z"/>
<path style="fill:#6ba6df; stroke:none;" d="M67 28C68.2483 28.6848 68.5485 28.7488 70 29C68.7516 28.3152 68.4516 28.2512 67 28z"/>
<path style="fill:#9ac6fd; stroke:none;" d="M70 28.4252C64.3735 29.1914 59.077 30.2103 54 32.8904C49.7681 35.1245 45.5474 37.8481 42.0903 41.1736C23.0037 59.5331 28 89.048 28 113L28 364L28 422C28 436.796 27.5027 451.419 36.5949 463.999C51.1611 484.153 71.5652 484 94 484L140 484L344 484L408 484C420.882 484 434.296 485.127 447 482.739C451.974 481.804 456.659 480.164 461 477.535C490.577 459.626 484 422.478 484 393L484 144L484 90C484 74.0634 484.395 59.1921 473.985 46.0038C459.744 27.9629 439.967 28 419 28L370 28L170 28L105 28C93.5259 28 81.377 26.8758 70 28.4252z"/>
<path style="fill:#6ba6e1; stroke:none;" d="M442.667 28.3333C442.222 28.7777 443.278 28.7223 443.333 28.6667C443.778 28.2222 442.722 28.2778 442.667 28.3333z"/>
<path style="fill:#1d496e; stroke:none;" d="M481 28L482 29L481 28M28 30L29 31L28 30z"/>
<path style="fill:#123956; stroke:none;" d="M27 31L28 32L27 31M484 31L485 32L484 31z"/>
<path style="fill:#18314a; stroke:none;" d="M22 37L23 38L22 37z"/>
<path style="fill:#153656; stroke:none;" d="M20 40L21 41L20 40z"/>
<path style="fill:#0000ff; stroke:none;" d="M493 43L494 44L493 43z"/>
<path style="fill:#307dba; stroke:none;" d="M70 49.5185C60.2132 51.6418 52.2503 59.3427 49.7608 69C47.8286 76.4955 49 85.305 49 93L49 138L49 365L49 423C49 432.675 47.8966 443.647 53.8002 451.996C61.4656 462.838 73.0346 463 85 463L148 463L350 463L411 463C422.013 463 434.3 464.525 445 461.507C455.101 458.658 460.992 449.965 462.561 440C463.787 432.216 463 423.865 463 416L463 373L463 143L463 87C463 76.765 463.89 66.3424 456.671 58.0432C448.443 48.5854 436.437 49 425 49L361 49L164 49L102 49C91.8089 49 79.9794 47.3535 70 49.5185z"/>
<path style="fill:#629fd9; stroke:none;" d="M440.667 49.3333C440.222 49.7777 441.278 49.7222 441.333 49.6667C441.778 49.2222 440.722 49.2778 440.667 49.3333z"/>
<path style="fill:#1a476b; stroke:none;" d="M14 52L15 53L14 52z"/>
<path style="fill:#1b3761; stroke:none;" d="M12 58L13 59L12 58z"/>
<path style="fill:#000000; stroke:none;" d="M73.0154 66.6528C64.0777 69.541 66 80.6608 66 88L66 151L66 362L66 418C66 424.563 63.9821 435.252 67.7423 440.956C72.5308 448.22 83.5337 446 91 446L154 446L354 446L413 446C420.651 446 431.804 448.044 438.996 445.258C447.753 441.865 446 431.505 446 424L446 362L446 145L446 91C446 84.6669 447.913 74.5168 443.347 69.3943C438.331 63.7664 426.749 66 420 66L355 66L159 66L100 66C91.7966 66 80.8653 64.1161 73.0154 66.6528z"/>
<path style="fill:#6ca6e0; stroke:none;" d="M28 67L28 70C28.6961 68.4463 28.6961 68.5537 28 67z"/>
<path style="fill:#70a9e3; stroke:none;" d="M483.333 67.6667C483.278 67.7223 483.222 68.7777 483.667 68.3333C483.722 68.2779 483.778 67.2221 483.333 67.6667z"/>
<path style="fill:#3d86c2; stroke:none;" d="M484 73L484 108C486.802 101.322 485 91.2156 485 84C485 80.2976 485.441 76.4345 484 73z"/>
<path style="fill:#2b71a9; stroke:none;" d="M501 91L501 111C503.087 106.027 503.087 95.9728 501 91z"/>
<path style="fill:#307dba; stroke:none;" d="M298 171L269 200C262.584 206.416 255.385 212.926 252.927 222C246.242 246.677 271.77 268.501 295 257.179C302.56 253.494 308.149 246.851 314 241L341 214C349.51 239.033 386.994 232.557 395.049 211C397.77 203.718 397 195.623 397 188L397 156C397 145.554 396.773 134.405 389.671 126.015C380.508 115.188 367.079 115 354 115L323 115C314.057 115 305.118 114.427 297 118.905C278.431 129.148 275.067 163.204 298 171z"/>
<path style="fill:#3d86c2; stroke:none;" d="M484 128L484 198C486.292 192.538 485 184.887 485 179L485 145C485 139.65 486.085 132.969 484 128z"/>
<path style="fill:#2b71a7; stroke:none;" d="M10 132L10 152C12.0866 147.027 12.0866 136.973 10 132z"/>
<path style="fill:#77ade7; stroke:none;" d="M309 132C312.699 133.552 317.017 133 321 133L342 133C338.301 131.448 333.983 132 330 132L309 132z"/>
<path style="fill:#5899d3; stroke:none;" d="M342 132C348.928 134.907 359.503 133 367 133C360.072 130.093 349.497 132 342 132z"/>
<path style="fill:#9ac6fd; stroke:none;" d="M306.015 133.742C298.665 136.636 297.103 147.004 301.653 152.891C306.647 159.354 324.931 154.865 323.497 167C322.782 173.053 315.992 178.007 312 182L279 215C272.212 221.79 263.292 232.101 274.105 240.347C283.451 247.475 291.706 238.294 298 232L330 200C333.884 196.118 339.115 189.087 345 188.412C349.931 187.847 353.614 192.696 354.606 197C356.415 204.851 356.18 212.914 367 212.914C368.703 212.914 370.416 212.639 371.996 211.991C379.147 209.058 379 202.605 379 196L379 155C379 149.373 380.243 141.979 376.347 137.329C371.985 132.122 365.077 133 359 133L323 133C317.833 133 310.898 131.82 306.015 133.742z"/>
<path style="fill:#3984c0; stroke:none;" d="M27 135L27 206C29.2922 200.538 28 192.887 28 187L28 152C28 146.65 29.0851 139.969 27 135z"/>
<path style="fill:#68a4dd; stroke:none;" d="M379 144L379 203C380.981 198.28 380 192.08 380 187L380 158C380 153.464 380.769 148.215 379 144z"/>
<path style="fill:#89bbf3; stroke:none;" d="M308 157C310.613 158.098 313.164 157.993 316 158C313.387 156.902 310.836 157.007 308 157z"/>
<path style="fill:#2b71a9; stroke:none;" d="M501 181L501 201C503.087 196.027 503.087 185.973 501 181z"/>
<path style="fill:#85b8ef; stroke:none;" d="M354 195L354 202C355.059 199.466 355.059 197.534 354 195z"/>
<path style="fill:#4d92cc; stroke:none;" d="M354.333 202.667C354.278 202.722 354.222 203.778 354.667 203.333C354.722 203.278 354.778 202.222 354.333 202.667z"/>
<path style="fill:#3d86c2; stroke:none;" d="M484 218L484 288C486.085 283.031 485 276.35 485 271L485 237C485 231.113 486.292 223.463 484 218z"/>
<path style="fill:#2b71a7; stroke:none;" d="M10 222L10 242C12.0866 237.027 12.0866 226.973 10 222z"/>
<path style="fill:#3984c0; stroke:none;" d="M27 225L27 296C29.0851 291.031 28 284.35 28 279L28 244C28 238.113 29.2922 230.462 27 225z"/>
<path style="fill:#307dba; stroke:none;" d="M171 298C162.742 273.708 125.822 278.899 117.465 300C114.403 307.731 115 315.856 115 324L115 357C115.001 366.968 115.605 378.01 122.329 385.985C131.342 396.675 145.09 397 158 397L189 397C197.943 397 206.882 397.573 215 393.095C233.569 382.852 236.933 348.796 214 341L243 312C249.416 305.584 256.615 299.073 259.073 290C265.779 265.243 240.33 243.45 217 254.821C209.44 258.506 203.851 265.148 198 271L171 298z"/>
<path style="fill:#9ac6fd; stroke:none;" d="M227 269.576C220.939 271.241 216.264 277.736 212 282L184 310C179.641 314.359 174.942 320.756 169 322.975C156.364 327.695 159.046 309.624 155.258 304.105C150.869 297.713 140.427 297.425 135.434 303.214C132.789 306.28 133.006 310.201 133 314L133 335L133 361C133 365.691 132.483 370.897 135.653 374.786C139.881 379.974 147.045 379 153 379L189 379C194.167 379 201.102 380.18 205.985 378.258C213.335 375.364 214.897 364.996 210.347 359.109C205.285 352.558 187.223 357.212 188.387 345C189.019 338.371 197.651 332.349 202 328C209.955 320.045 217.82 311.987 225.91 304.171C230.916 299.334 237.009 295.03 240.656 289C246.421 279.469 238.626 266.384 227 269.576z"/>
<path style="fill:#2b71a9; stroke:none;" d="M501 271L501 291C503.087 286.027 503.087 275.973 501 271z"/>
<path style="fill:#85b8ef; stroke:none;" d="M157 308L157 316C158.161 313.23 158.161 310.77 157 308z"/>
<path style="fill:#3d86c2; stroke:none;" d="M484 308L484 378C486.085 373.031 485 366.35 485 361L485 327C485 321.113 486.292 313.462 484 308z"/>
<path style="fill:#78b0e9; stroke:none;" d="M132 309L132 325C133.812 320.681 133.812 313.319 132 309z"/>
<path style="fill:#2b71a7; stroke:none;" d="M10 312L10 332C12.0866 327.027 12.0866 316.973 10 312z"/>
<path style="fill:#3984c0; stroke:none;" d="M27 315L27 386C29.0851 381.031 28 374.35 28 369L28 334C28 328.113 29.2922 320.462 27 315z"/>
<path style="fill:#6aa5df; stroke:none;" d="M132 325L132 341C133.812 336.681 133.812 329.319 132 325z"/>
<path style="fill:#5c9cd7; stroke:none;" d="M132 341L132 368C134.541 361.945 134.541 347.055 132 341z"/>
<path style="fill:#82b6ed; stroke:none;" d="M196 354C198.332 354.985 200.457 354.981 203 355C200.668 354.015 198.543 354.019 196 354z"/>
<path style="fill:#2b71a9; stroke:none;" d="M501 361L501 381C503.087 376.027 503.087 365.973 501 361z"/>
<path style="fill:#5e9ed7; stroke:none;" d="M144 379C152.367 382.511 165.924 380 175 380C166.633 376.489 153.076 379 144 379z"/>
<path style="fill:#7fb3ec; stroke:none;" d="M175 379C182.409 382.109 193.975 380 202 380C194.591 376.891 183.025 379 175 379z"/>
<path style="fill:#3d86c2; stroke:none;" d="M484 398L484 437C487.206 429.361 485 417.271 485 409C485 405.298 485.441 401.435 484 398z"/>
<path style="fill:#2b71a7; stroke:none;" d="M10 402L10 422C12.0866 417.027 12.0866 406.973 10 402z"/>
<path style="fill:#619ed9; stroke:none;" d="M49.3333 440.667C49.2778 440.722 49.2222 441.778 49.6667 441.333C49.7222 441.278 49.7778 440.222 49.3333 440.667z"/>
<path style="fill:#5e9cd7; stroke:none;" d="M462.333 440.667C462.278 440.722 462.222 441.778 462.667 441.333C462.722 441.278 462.778 440.222 462.333 440.667z"/>
<path style="fill:#6ca7df; stroke:none;" d="M28.3333 442.667C28.2778 442.722 28.2222 443.778 28.6667 443.333C28.7222 443.278 28.7778 442.222 28.3333 442.667z"/>
<path style="fill:#6ba5e1; stroke:none;" d="M483.333 442.667C483.278 442.722 483.222 443.778 483.667 443.333C483.722 443.278 483.778 442.222 483.333 442.667z"/>
<path style="fill:#0000ff; stroke:none;" d="M501 443L502 444L501 443z"/>
<path style="fill:#5e9cd7; stroke:none;" d="M440.667 462.333C440.222 462.778 441.278 462.722 441.333 462.667C441.778 462.222 440.722 462.278 440.667 462.333z"/>
<path style="fill:#0e2b3a; stroke:none;" d="M495 464L496 465L495 464z"/>
<path style="fill:#194467; stroke:none;" d="M491 471L492 472L491 471z"/>
<path style="fill:#172f52; stroke:none;" d="M489 474L490 475L489 474z"/>
<path style="fill:#194466; stroke:none;" d="M485 479L486 480L485 479z"/>
<path style="fill:#1b405b; stroke:none;" d="M27 480L28 481L27 480z"/>
<path style="fill:#1f517d; stroke:none;" d="M484 480L485 481L484 480z"/>
<path style="fill:#1d496e; stroke:none;" d="M28 481L29 482L28 481z"/>
<path style="fill:#5496d0; stroke:none;" d="M66.6667 483.333C66.2222 483.778 67.2778 483.722 67.3333 483.667C67.7778 483.222 66.7222 483.278 66.6667 483.333z"/>
<path style="fill:#6ca7e0; stroke:none;" d="M442.667 483.333C442.222 483.778 443.278 483.722 443.333 483.667C443.778 483.222 442.722 483.278 442.667 483.333z"/>
<path style="fill:#1e557a; stroke:none;" d="M481 483L482 484L481 483z"/>
<path style="fill:#1b405b; stroke:none;" d="M31 484L32 485L31 484z"/>
<path style="fill:#3c86c0; stroke:none;" d="M73 484C76.6986 485.552 81.0172 485 85 485L108 485C104.301 483.448 99.9828 484 96 484L73 484M128 484C134.194 486.599 143.314 485 150 485L198 485C191.806 482.401 182.686 484 176 484L128 484M218 484C224.194 486.599 233.314 485 240 485L288 485C281.806 482.401 272.686 484 266 484L218 484M308 484C314.194 486.599 323.314 485 330 485L378 485C371.806 482.401 362.686 484 356 484L308 484M398 484C401.959 485.661 406.74 485 411 485L437 485C433.041 483.339 428.26 484 424 484L398 484z"/>
<path style="fill:#184263; stroke:none;" d="M480 484L481 485L480 484z"/>
<path style="fill:#15364b; stroke:none;" d="M479 485L480 486L479 485z"/>
<path style="fill:#16384f; stroke:none;" d="M474 489L475 490L474 489z"/>
<path style="fill:#1b4065; stroke:none;" d="M471 491L472 492L471 491z"/>
<path style="fill:#0000ff; stroke:none;" d="M43 493L44 494L43 493z"/>
<path style="fill:#008080; stroke:none;" d="M47 495L48 496L47 495z"/>
<path style="fill:#1a344e; stroke:none;" d="M464 495L465 496L464 495z"/>
<path style="fill:#2b72a9; stroke:none;" d="M91 501C96.7147 503.398 104.831 502 111 502C105.285 499.602 97.1692 501 91 501M181 501C186.715 503.398 194.831 502 201 502C195.285 499.602 187.169 501 181 501M271 501C276.715 503.398 284.831 502 291 502C285.285 499.602 277.169 501 271 501M361 501C366.715 503.398 374.831 502 381 502C375.285 499.602 367.169 501 361 501z"/>
</svg>
