<svg id="Layer_1" enable-background="new 0 0 510 510" height="512" viewBox="0 0 510 510" width="512" xmlns="http://www.w3.org/2000/svg">
<g>
<path id="XMLID_1523_" fill="#84f074" d="m255 95.304 9.333-35.307-9.333-42.935c-81.727 47.186-127.447 132.78-127.532 220.818l34.699-4.716 30.964-21.856c6.205-43.934 27.551-85.383 61.869-116.004z"/>
<path id="XMLID_1520_" fill="#84f074" d="m199.155 415.191c-41.151 16.596-87.71 18.827-131.39 4.42 9.361-45.039 34.574-84.246 69.52-111.573l31.465-7.29 26.506-23.734c18.795-6.174 38.877-9.531 59.744-9.531l15.333-27.109-15.333-36.642c-21.335 0-42.054 2.635-61.869 7.576-23.322 5.811-45.38 14.832-65.663 26.572-76.202 44.094-127.468 126.481-127.468 220.852 81.728 47.186 178.713 43.988 255 .043l-25-32.443z" />
<path id="XMLID_1519_" fill="#36da45" d="m316.869 211.308c-19.815-4.941-40.534-7.576-61.869-7.576v63.75c20.867 0 40.949 3.357 59.744 9.531l13.973-35.015z" />
<path id="XMLID_1518_" fill="#36da45" d="m255 380.501c-14.748-13.196-27.699-28.911-38.123-46.984-10.434-18.062-17.573-37.134-21.621-56.503-21.208 6.97-40.758 17.562-57.971 31.024 5.632 19.614 13.707 38.877 24.374 57.353 10.668 18.487 23.312 35.105 37.496 49.8 16.702 17.287 35.53 31.886 55.845 43.584l11.333-32.444z" />
<path id="XMLID_1517_" fill="#84f074" d="m316.869 211.308c3.05 21.621 2.444 43.859-2.125 65.705-4.048 19.369-11.188 38.44-21.622 56.503-10.433 18.073-23.374 33.788-38.122 46.984v.001l18.5 31.247 37.345 3.443c14.174-14.694 26.817-31.312 37.496-49.8 10.667-18.477 18.742-37.739 24.374-57.364l18.285-26.529-8.468-43.617c-.085-88.039-45.804-173.633-127.532-220.819v78.242c34.318 30.621 55.664 72.07 61.869 116.004z" />
<path id="XMLID_1515_" fill="#2b932a" d="m510 458.732c0-94.371-51.266-176.758-127.468-220.852.031 23.439-3.198 47.048-9.817 70.146 17.478 13.675 32.522 30.303 44.358 49.151 11.848 18.849 20.485 39.919 25.171 62.433-43.689 14.418-90.248 12.176-131.399-4.42-20.262-8.171-39.206-19.816-55.845-34.69v78.274c76.287 43.946 173.272 47.144 255-.042z" />
</g>
</svg>